<svg xmlns="http://www.w3.org/2000/svg" xmlns:xlink="http://www.w3.org/1999/xlink" version="1.1" x="0px" y="0px" viewBox="15 15 66 66" style="enable-background:new 0 0 100 100;" xml:space="preserve"><path d="M76.871,63.119c-0.016-0.14-0.06-0.451-0.187-1.27c-0.014-0.088-0.039-0.173-0.075-0.254  c-0.306-0.687-0.571-1.281-1.281-1.281c-0.582,0-0.889,0.439-1.187,0.864c-0.118,0.168-0.181,0.368-0.181,0.573  c0,0.005,0,0.01,0,0.015c-0.049,0.029-0.093,0.061-0.138,0.099l-0.368,0.313c-0.134,0.114-0.235,0.261-0.294,0.426  c-0.049,0.137-0.104,0.283-0.148,0.397c-0.138,0.08-0.326,0.186-0.498,0.28l-1.714,0.663c-0.305,0.118-0.533,0.377-0.61,0.695  l-0.143,0.584l-0.152,0.232c-0.115,0.175-0.171,0.382-0.162,0.592l0.061,1.375c0.004,0.08,0.017,0.16,0.04,0.237  c0.016,0.055,0.033,0.117,0.048,0.175c-0.053,0.09-0.111,0.19-0.158,0.265c-0.23,0.22-0.477,0.586-0.862,1.158  c-0.123,0.182-0.182,0.4-0.169,0.62l0.061,1c0.007,0.112,0.033,0.222,0.076,0.326l0.026,0.061c-0.085,0.235-0.104,0.355-0.104,0.489  c0,0.242,0.04,0.377,0.47,1.253c0.091,0.185,0.236,0.337,0.416,0.436l0.797,0.438c0.15,0.082,0.316,0.124,0.481,0.124  c0.177,0,0.354-0.047,0.511-0.141l0.599-0.357l0.397-0.09c0.218-0.049,0.412-0.17,0.553-0.343l0.306-0.375  c0.054-0.066,0.099-0.138,0.134-0.215c1.791-3.901,2.222-4.84,2.326-5.189l0.004,0.001c0.025-0.087,0.16-0.46,0.271-0.753  c0.042-0.113,0.064-0.232,0.064-0.353v-0.208c0.055-0.114,0.1-0.21,0.137-0.294c0.075-0.054,0.143-0.119,0.202-0.194l0.49-0.625  c0.193-0.246,0.26-0.568,0.181-0.87C77.092,63.998,76.914,63.323,76.871,63.119z M75.635,64.878v-0.313l-0.245-0.313  c0,0,0,0.75,0,0.813s-0.306,0.688-0.306,0.688v0.438c0,0-0.306,0.813-0.306,0.875s-2.267,5.001-2.267,5.001l-0.306,0.375  l-0.551,0.125l-0.735,0.438l-0.797-0.438c0,0-0.368-0.75-0.368-0.813c0-0.063,0.184-0.5,0.184-0.5l-0.184-0.438l-0.061-1  c0,0,0.674-1,0.735-1s0.429-0.688,0.49-0.75s-0.123-0.688-0.123-0.688l-0.061-1.375l0.245-0.375l0.184-0.75l1.777-0.688  c0,0,0.797-0.438,0.858-0.5c0.061-0.063,0.306-0.75,0.306-0.75l0.368-0.313c0,0,0.368-0.188,0.429-0.25s0.061-0.625,0.061-0.625  s0.306-0.438,0.368-0.438s0.368,0.688,0.368,0.688s0.184,1.188,0.184,1.25c0,0.063,0.245,1,0.245,1L75.635,64.878z M77.649,40.703  l0.052-0.185c0.137-0.489-0.115-1.004-0.585-1.196l-0.306-0.125c-0.121-0.049-0.249-0.074-0.378-0.074  c-0.128,0-0.257,0.025-0.378,0.074l-0.306,0.125c-0.202,0.082-0.369,0.227-0.48,0.411c-0.036,0.012-0.072,0.025-0.107,0.041  l-0.273,0.124l-0.066-0.011c-0.056-0.009-0.112-0.014-0.168-0.014c-0.137,0-0.274,0.028-0.401,0.084l-0.237,0.104h-0.281  c-0.201,0-0.397,0.06-0.562,0.173l-0.362,0.246l-0.383-0.039c-0.034-0.003-0.068-0.005-0.101-0.005c-0.253,0-0.497,0.096-0.683,0.27  L71.636,40.7c0.01-0.038,0.019-0.077,0.025-0.116c0.042-0.284-0.039-0.571-0.223-0.791l-0.368-0.438  c-0.059-0.07-0.127-0.132-0.203-0.184l-0.216-0.147l-0.201-0.287c-0.031-0.045-0.067-0.087-0.105-0.127l-0.184-0.188  c-0.017-0.017-0.034-0.033-0.052-0.049l-0.919-0.813c-0.084-0.074-0.18-0.134-0.285-0.177l-0.209-0.085l-0.097-0.066  c-0.058-0.039-0.12-0.073-0.185-0.099l-0.152-0.062l-0.14-0.122l-0.278-0.615c-0.081-0.201-0.194-0.486-0.237-0.609  c-0.055-0.27-0.23-0.52-0.614-1.023c-0.137-0.179-0.33-0.307-0.548-0.363l-0.021-0.005l-0.191-0.163  c-0.01-0.009-0.021-0.017-0.032-0.026l-0.06-0.263l-0.117-0.892c-0.012-0.093-0.037-0.184-0.075-0.27l-0.245-0.563  c-0.012-0.028-0.026-0.055-0.04-0.082c-0.012-0.284-0.145-0.55-0.367-0.731l-0.613-0.5c-0.048-0.039-0.099-0.074-0.154-0.103  c0.093-0.363-0.026-0.751-0.311-1l-0.298-0.261c-0.13-0.236-0.265-0.485-0.323-0.603c-0.067-0.208-0.225-0.448-0.564-0.913  c0.005-0.01,0.011-0.021,0.016-0.031l0.122-0.25c0.067-0.137,0.102-0.288,0.102-0.44v-0.201l0.159-0.704  c0.016-0.072,0.025-0.146,0.025-0.221v-0.375c0-0.175-0.046-0.348-0.134-0.5l-0.613-1.063c-0.179-0.31-0.509-0.5-0.866-0.5h-0.429  c-0.024,0-0.048,0.001-0.073,0.003l-0.636,0.046l-0.282-0.108c-0.021-0.008-0.043-0.016-0.065-0.022l-0.613-0.188  c-0.096-0.029-0.194-0.044-0.293-0.044c-0.137,0-0.273,0.028-0.401,0.084l-0.429,0.188c-0.035,0.015-0.07,0.033-0.103,0.052  l-0.517,0.302l-0.167-0.038l-1.029-0.247c-0.026-0.006-0.052-0.011-0.078-0.016l-0.797-0.125c-0.051-0.008-0.103-0.012-0.155-0.012  c-0.023,0-0.045,0.001-0.068,0.002c-0.188-0.2-0.452-0.315-0.728-0.315h-0.372l-0.031-0.016c-0.039-0.02-0.08-0.037-0.121-0.052  c-0.11-0.159-0.264-0.284-0.445-0.358c-0.733-0.299-0.857-0.324-1.052-0.324c-0.142,0-0.195,0-1.243,0.285  c-0.171,0.047-0.327,0.138-0.452,0.265l-0.551,0.563c-0.183,0.187-0.286,0.438-0.286,0.7v0.025  c-0.015-0.007-0.029-0.013-0.044-0.019l-0.797-0.313c-0.059-0.023-0.12-0.041-0.183-0.052c-0.115-0.021-0.213-0.039-0.299-0.055  c-0.055-0.334-0.275-0.618-0.586-0.754l-0.858-0.375c-0.102-0.045-0.211-0.072-0.322-0.081c-0.449-0.035-0.674-0.052-0.792-0.059  c-0.119-0.034-0.367-0.109-0.62-0.189c0.177-0.251,0.25-0.443,0.25-0.693v-0.438c0-0.165-0.041-0.325-0.116-0.468l0.198-0.404  c0.197-0.402,0.103-0.887-0.232-1.186c-0.188-0.168-0.427-0.254-0.667-0.254c-0.124,0-0.249,0.023-0.368,0.07  c-0.085-0.033-0.174-0.055-0.266-0.065l-0.613-0.063c-0.034-0.003-0.068-0.005-0.102-0.005c-0.172,0-0.342,0.044-0.493,0.13  l-0.174,0.098l-0.382-0.12c-0.097-0.031-0.198-0.046-0.299-0.046c-0.109,0-0.218,0.018-0.322,0.053L42.3,19.063l-0.046-0.016  c-0.105-0.036-0.214-0.053-0.322-0.053c-0.168,0-0.336,0.043-0.486,0.126l-0.222,0.123c-0.227-0.097-0.36-0.124-0.518-0.124  c-0.034,0-0.091,0-1.163,0.064l-1.495,0.127c-0.151,0.013-0.297,0.06-0.427,0.137l-0.541,0.322l-0.449,0.042  c-0.168,0.016-0.33,0.074-0.47,0.169l-0.386,0.263l-0.812-0.166c-0.065-0.013-0.133-0.02-0.199-0.02  c-0.033,0-0.069-0.001-0.104-0.001c-0.089-0.105-0.172-0.204-0.172-0.204c-0.195-0.232-0.478-0.357-0.766-0.357  c-0.154,0-0.31,0.036-0.454,0.109l-0.368,0.188c-0.17,0.086-0.311,0.22-0.408,0.384l-0.319,0.542l-0.33,0.374l-1.188,0.474  c-0.15,0.06-0.283,0.155-0.388,0.278l-0.429,0.5c-0.12,0.139-0.198,0.309-0.228,0.49l-0.01,0.063l-0.146,0.149  c-0.101,0.103-0.179,0.228-0.228,0.364l-0.245,0.688c-0.055,0.156-0.071,0.323-0.047,0.485l-0.068,0.125L28.578,25l-0.142,0.048  c-0.098,0.033-0.191,0.082-0.274,0.144l-0.476,0.353l-0.553,0.087c-0.182,0.029-0.352,0.107-0.493,0.226l-0.368,0.313  c-0.105,0.089-0.19,0.198-0.25,0.322l-0.145,0.296l-0.093,0.041c-0.094,0.041-0.181,0.096-0.258,0.164l-0.429,0.375  c-0.1,0.087-0.181,0.194-0.24,0.313l-0.356,0.725l-0.157,0.281l-0.747,0.708c-0.079,0.075-0.146,0.163-0.197,0.259l-0.375,0.71  l-0.414,0.475c-0.139,0.159-0.223,0.358-0.242,0.568l-0.061,0.688c-0.016,0.182,0.018,0.365,0.098,0.529l0.143,0.292v0.095  l-0.082,0.126c-0.193,0.295-0.216,0.67-0.061,0.987l0.13,0.264l-0.032,0.56l-0.429,0.729c-0.06,0.102-0.102,0.215-0.122,0.331  l-0.082,0.458l-0.414,0.563c-0.201,0.273-0.249,0.628-0.13,0.945l0.218,0.579c-0.099,0.764-0.099,0.816-0.099,0.881  c0,0.107,0,0.2,0.16,0.77c0.062,0.22,0.196,0.412,0.382,0.544l0.407,0.291l0.195,0.398c0.063,0.129,0.154,0.244,0.266,0.335  l0.186,0.152l0.283,0.433c0.017,0.026,0.035,0.052,0.055,0.076l0.579,0.727v0.338c0,0.182,0.05,0.361,0.144,0.517l0.49,0.813  c0.09,0.149,0.218,0.273,0.37,0.357l0.548,0.305l0.756,0.772c0.026,0.026,0.053,0.051,0.082,0.075l0.919,0.75  c0.033,0.027,0.067,0.051,0.103,0.074l1.103,0.688c0.065,0.041,0.135,0.073,0.207,0.098l0.368,0.125  c0.104,0.036,0.213,0.053,0.322,0.053c0.121,0,0.242-0.022,0.357-0.066l1.342-0.513l1.022-0.095l0.603,0.176l0.606,0.281  c0.133,0.062,0.277,0.093,0.421,0.093c0.146,0,0.291-0.032,0.426-0.095l0.746-0.351l1.417-0.482  c0.095-0.032,0.185-0.079,0.267-0.139l0.21-0.153l0.957-0.098l0.629-0.071l0.414,0.422l0.172,0.528  c0.104,0.318,0.36,0.563,0.682,0.653l0.674,0.188c0.088,0.024,0.178,0.037,0.268,0.037c0.056,0,0.112-0.005,0.168-0.014l0.688-0.117  l0.452-0.033l0.079,0.113c0.079,0.113,0.18,0.208,0.297,0.279l0.088,0.054c-0.042,0.257-0.082,0.612-0.132,1.121l-0.106,0.866  l-0.114,0.321l-0.09,0.074c-0.326,0.266-0.451,0.708-0.312,1.105l0.306,0.875c0.049,0.139,0.127,0.265,0.23,0.37l0.888,0.905  l0.845,1.035l0.368,0.61l0.087,0.401c0.01,0.045,0.023,0.089,0.039,0.132l0.184,0.5c0.026,0.071,0.06,0.139,0.102,0.202l0.295,0.452  l0.219,0.67l-0.064,0.174c-0.073,0.197-0.081,0.412-0.024,0.615l0.245,0.875c0.013,0.047,0.03,0.093,0.049,0.137  c0.068,0.152,0.138,0.314,0.189,0.436c-0.013,0.066-0.028,0.14-0.042,0.215c-0.024,0.121-0.042,0.217-0.057,0.294  c-0.254,0.219-0.495,0.613-0.887,1.251c-0.069,0.113-0.115,0.239-0.136,0.369l-0.161,1.037l-0.178,0.363  c-0.072,0.147-0.107,0.31-0.102,0.474l0.061,1.813c0.006,0.192,0.068,0.378,0.177,0.535l0.7,1.012l0.952,1.821l0.376,0.673v0.739  c0,0.065,0.006,0.129,0.019,0.192l0.123,0.625l0.243,1.304c0.009,0.048,0.021,0.095,0.037,0.141l0.429,1.25  c0.041,0.12,0.104,0.23,0.187,0.327l0.775,0.903c0.198,0.406,0.414,0.858,0.489,1.03c0.054,0.188,0.19,0.43,0.518,0.954v0.072  c-0.22,0.311-0.245,0.721-0.062,1.056l0.306,0.563c0.069,0.127,0.165,0.237,0.28,0.323c0.063,0.134,0.156,0.253,0.272,0.348  l0.306,0.25l0.352,0.3c0.183,0.155,0.413,0.238,0.648,0.238c0.082,0,0.165-0.01,0.247-0.031l0.245-0.063  c0.112-0.029,0.219-0.077,0.315-0.142l0.113-0.077h0.06c0.038,0,0.075-0.002,0.113-0.006l0.552-0.063  c0.119-0.013,0.235-0.048,0.342-0.103l0.154-0.078h0.25c0.048,0,0.096-0.003,0.144-0.01l0.265-0.039l0.511,0.095  c0.06,0.011,0.121,0.017,0.182,0.017h0.245c0.201,0,0.396-0.06,0.562-0.173l0.088-0.06l0.138-0.053l0.171,0.025  c0.048,0.007,0.096,0.01,0.144,0.01c0.147,0,0.292-0.032,0.426-0.095l0.797-0.375c0.061-0.029,0.119-0.064,0.173-0.104l0.919-0.688  c0.02-0.015,0.04-0.031,0.059-0.048l0.858-0.75l0.631-0.579c0.048-0.044,0.091-0.092,0.129-0.144l0.552-0.75  c0.024-0.033,0.047-0.068,0.067-0.104l0.112-0.2l0.193-0.113c0.077-0.045,0.148-0.1,0.211-0.164l0.368-0.375  c0.088-0.09,0.159-0.196,0.208-0.313l0.368-0.875l0.254-0.647c0.046-0.116,0.069-0.24,0.069-0.365v-0.295l0.884-0.332  c0.065-0.024,0.127-0.056,0.186-0.093l0.49-0.313c0.171-0.109,0.306-0.268,0.384-0.456l0.184-0.438  c0.074-0.177,0.096-0.371,0.063-0.558l0.088-0.269c0.066-0.202,0.066-0.419,0-0.621l-0.022-0.068l-0.053-0.812  c-0.008-0.13-0.042-0.258-0.1-0.375l-0.021-0.042v-0.143c0-0.115-0.02-0.228-0.058-0.335l1.36-1.276l0.565-0.432l0.764-0.26  c0.091-0.031,0.177-0.075,0.255-0.13l0.797-0.563c0.079-0.056,0.15-0.123,0.21-0.2l0.245-0.313l0.346-0.411  c0.077-0.091,0.136-0.195,0.176-0.308l0.245-0.688c0.069-0.195,0.077-0.406,0.021-0.605l-0.091-0.324l-0.053-1.361l0.112-0.854  l0.062-0.508c0.029-0.234-0.026-0.471-0.156-0.669l-0.245-0.375c-0.08-0.122-0.185-0.224-0.307-0.301L68.585,58.4l-0.001-0.005  l0.007-0.012c0.131-0.223,0.17-0.485,0.112-0.733c0.058-0.094,0.101-0.198,0.125-0.309c0.064-0.292-0.005-0.597-0.19-0.832  l-0.334-0.426l0.144-0.438l0.402-0.564c0.045-0.063,0.082-0.131,0.111-0.202l0.306-0.75c0.017-0.04,0.03-0.082,0.042-0.124  c0.129-0.07,0.241-0.167,0.329-0.287l0.251-0.342l0.139-0.085c0.135-0.082,0.248-0.196,0.331-0.33l0.306-0.5  c0.031-0.05,0.057-0.103,0.078-0.157l0.055-0.14l0.732-0.801l1.111-1.132l0.624-0.371c0.063-0.037,0.121-0.081,0.174-0.131  l0.797-0.75c0.05-0.047,0.094-0.099,0.134-0.154l0.919-1.313c0.013-0.018,0.024-0.036,0.036-0.055l0.797-1.313  c0.057-0.095,0.099-0.198,0.122-0.306l0.094-0.431l0.428-0.819c0.07-0.133,0.108-0.28,0.113-0.43l0.033-0.042  c0.06-0.077,0.109-0.161,0.144-0.252l0.245-0.625l0.175-0.415c0.052-0.123,0.078-0.254,0.078-0.387v-0.36  c0.14-0.198,0.205-0.441,0.178-0.686l-0.061-0.563C77.666,40.786,77.659,40.744,77.649,40.703z M70.671,40.436l-0.674,0.438  l0.061,0.125l0.306-0.063l0.14,0.119l-0.101-0.046l-0.188,0.415l-0.001,0.004c-0.02-0.012-0.041-0.023-0.065-0.023h-0.628  c-0.017-0.164-0.01-0.426,0.142-0.519c0.037-0.023,0.06-0.063,0.06-0.106v-0.313h0.06c0.021,0,0.043-0.005,0.062-0.016l0.551-0.313  l-0.053-0.094L70.671,40.436z M66.933,36.747l0.368,0.813l0.429,0.375l0.306,0.125l0.184,0.125l0.306,0.125l0.919,0.813l0.184,0.188  l0.306,0.438l0.291,0.198l-0.477,0.271h-0.151c-0.069,0-0.125,0.056-0.125,0.125v0.374c-0.303,0.258-0.187,0.815-0.181,0.84  c0.013,0.058,0.063,0.099,0.122,0.099h0.689l0.021,0.018l-0.092,0.252c-0.016,0.041-0.008,0.087,0.02,0.121l0.566,0.703  c0.195,0.175,0.502,0.45,0.545,0.495c0.118,0.12,2.341,0.788,2.356,0.788h0.637c-0.221,0.244-0.563,0.621-0.603,0.662  c-0.063,0.064-0.479,0.593-0.555,0.69l-1.013,1.094l-0.693,0.118c-0.019,0.003-0.035,0.01-0.05,0.02l-0.71,0.483l-0.52,0.059  c-0.033,0.003-0.064,0.021-0.085,0.047l-0.213,0.271l-0.451,0.051l-0.39-0.284c-0.043-0.032-0.103-0.032-0.146,0l-0.63,0.452  c-0.107,0.108-0.244,0.236-0.3,0.273c-0.092-0.009-0.337-0.059-0.38-0.086c-0.067-0.068-0.183-0.068-0.342-0.068  c-0.072,0-0.208,0-0.242-0.018c-0.095-0.048-0.598-0.346-0.852-0.496c-0.012-0.007-0.025-0.013-0.04-0.015l-0.901-0.172  l-0.039-0.406c-0.004-0.042-0.029-0.08-0.067-0.099l-0.458-0.234l-0.479-0.792l-0.552-0.75c-0.011-0.015-0.024-0.027-0.041-0.036  l-0.854-0.464v-0.037l0.422-0.215c0.019-0.009,0.034-0.023,0.046-0.04l0.307-0.438c0.015-0.021,0.022-0.046,0.022-0.072v-1.126  l0.441-0.337c0.03-0.023,0.049-0.06,0.049-0.099v-0.281l0.582-1.069l0.463-0.295c0.036-0.023,0.058-0.063,0.058-0.105l-0.003-1.785  l0.298-1.335l0.335-0.285c0.028-0.024,0.044-0.059,0.044-0.095v-0.344c0.137-0.042,0.386-0.12,0.483-0.169  c0.121-0.062,0.335-0.309,0.433-0.428c0.052,0.077,0.092,0.142,0.092,0.16C66.627,35.997,66.933,36.747,66.933,36.747z   M64.053,31.622l0.613,0.5v0.25l0.123,0.188l0.245,0.563l0.123,0.938l0.184,0.813l0.245,0.063l0.368,0.313l0.245,0.063  c0,0,0.112,0.147,0.222,0.299l-0.043-0.035c-0.14,0.171-0.328,0.375-0.389,0.406c-0.093,0.047-0.414,0.145-0.53,0.179  c-0.053,0.016-0.09,0.064-0.09,0.12v0.38l-0.323,0.275c-0.021,0.018-0.035,0.042-0.041,0.068l-0.31,1.403v1.744l-0.433,0.275  c-0.018,0.011-0.032,0.027-0.042,0.046l-0.612,1.125c-0.011,0.018-0.016,0.039-0.016,0.06v0.25l-0.441,0.338  c-0.03,0.023-0.049,0.06-0.049,0.099v1.148l-0.267,0.38l-0.462,0.236c-0.042,0.021-0.068,0.064-0.068,0.111v0.188  c0,0.046,0.025,0.088,0.065,0.11l0.895,0.487l0.528,0.718l0.49,0.813c0.013,0.02,0.03,0.036,0.051,0.047l0.429,0.219l0.028,0.287  l-1.13-0.055c-0.03-0.002-0.067,0.011-0.092,0.034l-0.761,0.716h-0.502c-0.018,0-0.034,0.003-0.05,0.01l-0.4,0.175l-0.827-0.06  c-0.052-0.01-0.096,0.022-0.118,0.064l-0.07,0.128L60.7,47.845c-0.014-0.025-0.036-0.044-0.063-0.055l-0.272-0.112l-0.348-0.472  c-0.04-0.054-0.116-0.066-0.171-0.029l-0.313,0.213l-0.429-0.164c-0.029-0.011-0.061-0.011-0.09,0l-0.417,0.16l-0.593-0.549  l-0.174-0.592c-0.013-0.042-0.045-0.074-0.087-0.085l-0.582-0.162v-0.343c0-0.021-0.006-0.042-0.016-0.061l-0.245-0.438  c-0.016-0.028-0.042-0.049-0.073-0.059l-0.523-0.16v-0.283c0-0.026-0.008-0.051-0.022-0.072l-0.307-0.438  c-0.021-0.03-0.055-0.049-0.091-0.053l-0.509-0.047l0.062-0.158c0.016-0.039,0.011-0.082-0.013-0.116  c-0.023-0.034-0.063-0.055-0.104-0.055h-0.55l-0.002-0.224l0.122-0.563c0.008-0.035,0-0.071-0.021-0.099l-0.627-0.872l0.142-0.242  c0.018-0.03,0.022-0.065,0.013-0.099c-0.01-0.033-0.032-0.061-0.063-0.076c-0.164-0.084-0.362-0.195-0.386-0.21  c-0.007-0.023,0.004-0.101,0.011-0.147c0.008-0.055,0.015-0.109,0.015-0.156c0-0.136-0.059-0.378-0.065-0.405  c-0.011-0.043-0.043-0.078-0.086-0.09l-0.305-0.089l0.083-0.252c0.004-0.013,0.006-0.026,0.006-0.039v-0.473l0.282-0.096  c0.065-0.022,0.1-0.092,0.079-0.157l-0.108-0.333l0.099-0.254l0.234-0.298c0.017-0.022,0.026-0.049,0.026-0.077v-0.322l0.742-0.054  c0.065-0.004,0.116-0.059,0.116-0.125v-3.459l0.571-0.106c0.062-0.012,0.105-0.067,0.103-0.129l-0.073-1.495l6.228-0.004l0.49,0.125  c0.011,0.002,0.021,0.004,0.031,0.004c0.044,0,0.085-0.023,0.107-0.062l0.331-0.563h0.358c0.038,0,0.074-0.017,0.098-0.047  l0.551-0.688l-0.044-0.036L64.053,31.622z M63.559,48.297l0.292,0.358c0.108,0.305,0.223,0.644,0.23,0.685  c-0.003,0.042-0.06,0.26-0.111,0.448l-0.782,1.043c-0.017,0.022-0.025,0.048-0.025,0.075v0.938h-2.571  c-0.033,0-0.065,0.014-0.089,0.038c-0.088,0.089-0.191,0.177-0.245,0.21c-0.11-0.052-0.257-0.011-0.335,0.016  c-0.021,0.011-0.048,0.025-0.072,0.037c0.004-0.126,0.009-0.266,0.009-0.296c0.004-0.055,0.093-0.497,0.176-0.894l0.11-0.168  c0.014-0.02,0.021-0.044,0.021-0.068v-0.321c0.389-0.37,0.818-0.762,0.899-0.813c0.025-0.009,0.051-0.025,0.065-0.043  c0.024-0.029,0.075-0.091,0.014-0.409c-0.009-0.044-0.04-0.08-0.083-0.094l-0.271-0.092l0.045-0.313l0.257-0.472l0.777,0.057  c0.021,0.003,0.04-0.001,0.059-0.01l0.405-0.177h0.525c0.032,0,0.063-0.012,0.086-0.034l0.305-0.288l0.329,0.25l-0.047,0.236  C63.525,48.23,63.535,48.269,63.559,48.297z M59.637,54.845c-0.053-0.139-0.097-0.277-0.098-0.324  c0.065-0.145,0.075-0.563,0.031-0.797c0.04,0.011,0.079,0.024,0.13,0.024c0.066,0,0.135-0.016,0.185-0.066  c0.052-0.053,0.191-0.26,0.273-0.385l0.173,0.036l-0.047,0.238c-0.011,0.055,0.017,0.11,0.066,0.135  c0.143,0.073,0.241,0.119,0.312,0.148c-0.079,0.117-0.222,0.308-0.344,0.466l-0.516,0.525H59.637z M60.558,53.124l-0.432-0.089  c-0.05-0.009-0.102,0.011-0.13,0.054c-0.115,0.175-0.259,0.386-0.274,0.407c-0.019,0.004-0.07-0.002-0.115-0.015l-0.239-0.174  c-0.016-0.03-0.031-0.057-0.046-0.088l0.096-0.195c0.005-0.011,0.009-0.023,0.011-0.035c0.027-0.165,0.07-0.341,0.086-0.368  c0.041-0.036,0.303-0.179,0.505-0.283c0.048-0.016,0.112-0.026,0.116-0.031c0.023,0.024,0.078,0.045,0.111,0.045  c0.037,0,0.085-0.024,0.136-0.053c0.096,0.127,0.251,0.327,0.286,0.358c0.012,0.033,0.012,0.164,0.012,0.242  c0,0.069,0,0.132,0.005,0.186C60.65,53.096,60.602,53.11,60.558,53.124z M52.195,47.171c-0.32-0.178-0.729-0.391-0.857-0.391  c-0.043,0-0.175,0-0.763,0.6c-0.023,0.023-0.036,0.055-0.036,0.087v0.446c-0.07,0.068-0.172,0.159-0.237,0.192  c-0.047,0.019-0.234-0.015-0.395-0.069c-0.016-0.005-0.032-0.01-0.049-0.006L49,48.094c-0.057,0.004-0.104,0.046-0.114,0.103  l-0.119,0.665l-0.098,0.161l-0.089-0.453c-0.005-0.026-0.019-0.05-0.038-0.068l-0.581-0.533l-0.054-0.332  c-0.003-0.02-0.011-0.038-0.023-0.054l-0.351-0.477l-0.122-0.676l-0.083-0.254c0.041-0.011,0.074-0.019,0.087-0.02  c0.114,0,0.161-0.111,0.238-0.296c0.02-0.047,0.051-0.121,0.07-0.156c0.067-0.038,0.188-0.184,0.5-0.681l0.493-0.056  c0.022-0.002,0.044-0.011,0.062-0.025l0.177-0.135l0.233,0.143c0.038,0.023,0.084,0.024,0.122,0.005l0.715-0.365l0.529-0.06  c0.026-0.003,0.05-0.014,0.07-0.031l0.551-0.5c0.025-0.023,0.04-0.055,0.041-0.089c0.001-0.034-0.012-0.067-0.036-0.091l-0.038-0.04  l0.16-0.001c0.895-0.196,0.955-0.258,0.981-0.285c0.043-0.044,0.606-0.544,0.975-0.869c0.026-0.024,0.042-0.058,0.042-0.094v-0.273  l0.739-0.151l0.595,0.827l-0.113,0.534v0.375c0,0.069,0.056,0.125,0.125,0.125h0.491l-0.056,0.142  c-0.015,0.037-0.011,0.078,0.01,0.111c0.021,0.034,0.056,0.055,0.095,0.059l0.616,0.057l0.251,0.358v0.335  c0,0.055,0.036,0.104,0.089,0.12l0.563,0.173l0.205,0.365v0.405c0,0.056,0.037,0.105,0.092,0.121l0.606,0.169l0.121,0.411  l-0.61,0.048l-0.522-0.237c-0.038-0.017-0.081-0.014-0.117,0.007l-0.298,0.183l-0.314,0.161l-0.375-0.164  c-0.039-0.016-0.084-0.013-0.12,0.011l-0.682,0.463l-0.429-0.164c-0.051-0.019-0.105-0.005-0.139,0.035l-0.446,0.512l-0.848-0.115  l-0.571-0.106v-0.146C52.26,47.235,52.235,47.193,52.195,47.171z M47.909,41.967v-0.75c0-0.013-0.002-0.026-0.006-0.039l-0.245-0.75  c-0.007-0.023-0.022-0.044-0.041-0.06l-0.546-0.433l-0.335-0.341c-0.042-0.223-0.078-0.483-0.069-0.562  c0.175-0.208,1.34-1.681,1.583-1.988c0.016-0.02,0.025-0.043,0.026-0.068l0.182-2.468l0.228-0.348  c0.032-0.049,0.026-0.114-0.015-0.156c-0.133-0.135-0.287-0.306-0.33-0.371c0.001-0.01,0.004-0.022,0.006-0.035  c0.019-0.107,0.045-0.254-0.044-0.345c-0.019-0.019-0.052-0.048-0.092-0.083c-0.049-0.042-0.147-0.127-0.179-0.168  c-0.004-0.152-0.027-0.874-0.034-1.114l0.641-0.284l6.191,3.219v3.027l-0.742,0.054c-0.065,0.004-0.116,0.059-0.116,0.125v0.395  l-0.219,0.278c-0.007,0.01-0.014,0.021-0.018,0.032l-0.122,0.313c-0.011,0.027-0.012,0.057-0.003,0.084l0.084,0.258l-0.25,0.085  c-0.051,0.017-0.085,0.064-0.085,0.118v0.542l-0.117,0.356c-0.01,0.032-0.007,0.067,0.009,0.097c0.016,0.03,0.043,0.052,0.075,0.062  l0.358,0.104c0.019,0.085,0.042,0.208,0.042,0.276c0,0.037-0.007,0.079-0.013,0.122c-0.018,0.125-0.036,0.255,0.049,0.341  c0.05,0.051,0.214,0.144,0.343,0.212l-0.088,0.151l-0.865,0.177c-0.058,0.012-0.1,0.063-0.1,0.123v0.319  c-0.195,0.172-0.886,0.784-0.93,0.832c-0.065,0.037-0.503,0.147-0.845,0.225h-0.429c-0.05,0-0.096,0.03-0.115,0.077  s-0.009,0.1,0.026,0.136l0.154,0.157l-0.425,0.386l-0.511,0.058c-0.015,0.001-0.029,0.006-0.042,0.013L49.26,44.7l-0.246-0.151  c-0.044-0.028-0.101-0.024-0.142,0.007l-0.217,0.167l-0.419,0.047l-0.212-0.594c-0.005-0.014-0.012-0.027-0.022-0.039  c-0.138-0.165-0.373-0.456-0.412-0.537c-0.055-0.11-0.31-0.383-0.443-0.523l0.15-0.23l0.846,0.057  c0.032,0.003,0.087-0.018,0.112-0.055c0.025-0.037,0.028-0.085,0.008-0.125C48.101,42.392,47.923,42.01,47.909,41.967z   M45.036,39.801c-0.018-0.012-0.04-0.02-0.061-0.021l-0.858-0.063c-0.031-0.002-0.055,0.005-0.077,0.02l-0.643,0.417h-0.481  l-0.412-0.24l-0.429-0.188c-0.03-0.013-0.063-0.014-0.093-0.003l-0.762,0.278l-0.253-0.413c-0.013-0.021-0.032-0.038-0.054-0.048  l-0.674-0.313c-0.035-0.017-0.075-0.016-0.109,0.002l-0.208,0.106l-0.327-0.055c-0.026-0.005-0.054-0.001-0.078,0.012l-0.49,0.25  c-0.03,0.015-0.052,0.041-0.062,0.072l-0.114,0.348l-0.347,0.354c-0.019,0.019-0.03,0.043-0.034,0.069l-0.083,0.55l-0.436-0.489  c-0.028-0.032-0.072-0.048-0.114-0.04l-0.268,0.045l-0.085-0.218c-0.022-0.055-0.078-0.092-0.137-0.078l-0.32,0.054l-0.392-0.25  v-0.307c0-0.036-0.015-0.069-0.042-0.093l-0.469-0.419l-0.159-0.376l0.05-0.252l0.025,0.009c0.022,0.008,0.046,0.009,0.068,0.004  l0.552-0.125c0.018-0.004,0.034-0.012,0.048-0.023l0.211-0.162h1.551c0.03,0,0.059-0.011,0.081-0.03l0.368-0.313  c0.016-0.013,0.028-0.03,0.035-0.05l0.245-0.625c0.004-0.01,0.007-0.021,0.008-0.033l0.229-2.223l1.201-0.23  c0.025-0.004,0.048-0.017,0.066-0.035c0.405-0.414,0.872-0.869,0.948-0.914c0.12-0.061,3.325-2.012,3.884-2.352l1.025,0.291  l0.593,0.483c0.037,0.03,0.087,0.038,0.13,0.018l0.466-0.207c0.011,0.329,0.032,0.983,0.032,1.03c0,0.093,0.081,0.172,0.265,0.332  c0.033,0.028,0.062,0.053,0.067,0.053c0.007,0.025-0.007,0.107-0.013,0.143c-0.007,0.041-0.012,0.076-0.012,0.098  c0,0.045,0,0.105,0.333,0.453l-0.19,0.292c-0.012,0.018-0.019,0.038-0.02,0.059l-0.182,2.462c-0.605,0.765-1.503,1.898-1.561,1.96  c-0.037,0.038-0.096,0.107,0.005,0.672c-0.132,0.021-0.257,0.04-0.284,0.04c-0.121,0-0.529,0.375-0.661,0.499  C45.436,40.054,45.213,39.921,45.036,39.801z M36.161,41.587l-0.514-0.052l-0.152-0.155c-0.03-0.031-0.072-0.043-0.114-0.035  l-0.281,0.06h-1.716c-0.04,0-0.077,0.019-0.101,0.051l-0.184,0.25c-0.02,0.026-0.028,0.059-0.023,0.092l0.06,0.421l-0.034,0.273  l-0.257-0.187c-0.034-0.024-0.079-0.031-0.117-0.016l-0.653,0.242h-0.262l-0.151-0.361c-0.009-0.022-0.025-0.042-0.045-0.055  l-0.305-0.207l0.048-0.391l0.165-0.224c0.016-0.021,0.024-0.047,0.024-0.074v-0.282l0.339-0.099  c0.027-0.008,0.051-0.025,0.067-0.048l0.307-0.438c0.01-0.014,0.017-0.031,0.02-0.048l0.11-0.559l0.2-0.082l0.324,0.11  c0.039,0.015,0.082,0.007,0.116-0.019l0.245-0.188c0.009-0.006,0.017-0.015,0.023-0.023l0.392-0.513h0.489  c0.044,0,0.085-0.023,0.108-0.062l0.164-0.278l0.899-0.401l0.425,0.145l-0.063,0.323c-0.005,0.024-0.002,0.049,0.007,0.072  l0.184,0.438c0.007,0.017,0.018,0.033,0.032,0.045l0.448,0.4v0.319c0,0.042,0.022,0.083,0.058,0.105l0.49,0.313  c0.027,0.017,0.058,0.024,0.088,0.018l0.268-0.045l0.079,0.202c0.023,0.145,0.032,0.303,0.034,0.32  c-0.038,0.038-0.224,0.199-0.367,0.322l-0.301-0.102c-0.042-0.016-0.09-0.006-0.123,0.025L36.161,41.587z M29.246,41.933  l-0.272-0.268v-0.323c0-0.054-0.034-0.101-0.085-0.118l-0.022-0.008l0.083-0.112c0.021-0.028,0.029-0.064,0.022-0.098  s-0.027-0.064-0.057-0.083l-0.248-0.152l-0.001-0.262l-0.061-0.375c-0.007-0.043-0.036-0.079-0.076-0.096l-0.307-0.125  c-0.039-0.017-0.083-0.012-0.117,0.012c-0.035,0.023-0.055,0.062-0.055,0.104v0.188c-0.059,0.046-0.157,0.123-0.222,0.179  c-0.056-0.036-0.154-0.12-0.238-0.205c-0.045-0.047-0.12-0.051-0.168-0.009l-0.193,0.158l-0.11-0.187  c-0.02-0.034-0.054-0.056-0.093-0.061c-0.041-0.004-0.077,0.008-0.104,0.037l-0.119,0.122l-0.095-0.048v-0.155  c0.08-0.247,0.123-0.403,0.123-0.456c0-0.025,0-0.091-0.197-0.493c-0.008-0.016-0.02-0.03-0.033-0.042l-0.23-0.188  c0.062-0.134,0.093-0.228,0.093-0.278c0-0.055-0.048-0.245-0.098-0.427l0.204-0.083c0.047-0.019,0.078-0.065,0.078-0.116v-0.541  l0.13-0.053l0.251,0.41c0.022,0.037,0.063,0.06,0.106,0.06c0,0,0,0,0.001,0c0.044,0,0.084-0.024,0.107-0.062l0.136-0.232  l0.772,0.166c0.042,0.007,0.084-0.005,0.114-0.035l0.125-0.128c0.021,0.022,0.049,0.037,0.081,0.04l2.941,0.25  c0.068,0.007,0.118-0.035,0.132-0.095l0.184-0.75c0.009-0.036,0.001-0.074-0.021-0.104l-0.158-0.215l0.18-7.024h0.972l4.112,3.496  v0.255c0,0.047,0.026,0.09,0.068,0.111l0.227,0.116l0.292,0.298c0.023,0.024,0.056,0.038,0.089,0.038h0.243l0.146,0.199  c0.021,0.028,0.053,0.046,0.088,0.05l0.5,0.051v0.221l-0.16,0.217c-0.041,0.055-0.029,0.132,0.024,0.173l0.245,0.188  c0.022,0.017,0.049,0.026,0.076,0.026c0.008,0,0.016,0,0.023-0.002l0.503-0.096l-0.22,2.132l-0.228,0.58l-0.309,0.262h-1.547  c-0.027,0-0.054,0.009-0.076,0.026l-0.223,0.171l-0.491,0.111l-0.702-0.239c-0.03-0.01-0.063-0.009-0.091,0.004l-0.98,0.438  c-0.024,0.011-0.044,0.028-0.057,0.051l-0.147,0.251h-0.48c-0.039,0-0.076,0.018-0.1,0.049l-0.419,0.549l-0.179,0.137l-0.305-0.104  c-0.027-0.009-0.059-0.009-0.087,0.002l-0.306,0.125c-0.039,0.016-0.067,0.05-0.075,0.092l-0.118,0.599l-0.266,0.38l-0.387,0.113  c-0.053,0.016-0.09,0.064-0.09,0.12v0.334l-0.16,0.217c-0.013,0.018-0.021,0.038-0.023,0.059l-0.052,0.425l-0.292,0.112  l-0.085-0.306c-0.015-0.054-0.064-0.091-0.121-0.091H30.32c-0.04,0-0.077,0.019-0.101,0.051l-0.169,0.23l-0.21,0.128l-0.238-0.194  c-0.042-0.035-0.101-0.038-0.146-0.009L29.246,41.933z M55.781,24.558l0.797,0.125l1.042,0.25l0.551,0.125l0.858-0.5l0.429-0.188  l0.613,0.188l0.49,0.188l0.858-0.063h0.429l0.613,1.063v0.375l-0.184,0.813v0.313l-0.123,0.25l-0.735-0.563l-0.061-0.375  l-0.368-0.375l-0.123-0.438l-0.184,0.25l0.184,0.25c0,0,0.123,0.375,0.123,0.438s0.674,0.688,0.674,0.688v0.25l0.368,0.563  l0.061,0.188c0,0,0.552,0.75,0.552,0.813s0.49,0.938,0.49,0.938l0.429,0.375l-0.061,0.188l0.061,0.438l0.236,0.361l-0.12-0.096  l-0.513,0.641h-0.37c-0.044,0-0.085,0.023-0.107,0.062l-0.32,0.544l-0.43-0.106h-6.272l-0.284-5.829l-0.119-0.912l0.115-0.413  c0.007-0.022,0.007-0.045,0-0.067l-0.11-0.397l0.106-0.274l-0.048-0.019L55.781,24.558z M46.406,23.62  c0.061,0,0.858,0.063,0.858,0.063l0.858,0.375l0.061,0.438c0,0,0.245,0.313,0.306,0.313s0.735,0.125,0.735,0.125l0.797,0.313  l0.674,0.438l0.49-0.063l0.429-0.438l-0.184-0.438v-0.438l0.552-0.563c0,0,0.919-0.25,0.98-0.25s0.674,0.25,0.674,0.25l0.123,0.313  l0.368,0.063l0.245,0.125h0.613l0.283,0.347l-0.124-0.048l-0.122,0.313c-0.01,0.025-0.012,0.053-0.004,0.079l0.112,0.404  l-0.112,0.404c-0.005,0.016-0.006,0.033-0.004,0.05l0.121,0.927l0.363,7.455l-0.566,0.105c-0.06,0.011-0.103,0.063-0.103,0.123  v0.138L48.7,31.354c-0.034-0.018-0.074-0.02-0.108-0.003l-1.339,0.594l-0.553-0.451c-0.013-0.011-0.029-0.019-0.045-0.023  l-1.046-0.296l-0.221-0.508c-0.017-0.039-0.052-0.066-0.094-0.073l-0.721-0.122l-0.356-0.104l-0.108-0.551  c-0.002-0.011-0.005-0.021-0.01-0.031l-0.32-0.652l0.278-0.189c0.043-0.029,0.063-0.083,0.051-0.133  c-0.055-0.223-0.116-0.492-0.119-0.53c0.003-0.046,0.063-0.342,0.123-0.628v-0.625c0-0.011-0.001-0.021-0.004-0.032l-0.235-0.898  l0.101-0.258h0.197c0.041,0,0.08-0.021,0.103-0.054l0.429-0.625c0.023-0.034,0.028-0.076,0.014-0.114l-0.149-0.407l0.596-0.387  l0.429-0.313c0.032-0.023,0.051-0.061,0.051-0.101v-0.444C45.937,23.488,46.366,23.62,46.406,23.62z M44.016,19.932l0.613,0.063  l0.245,0.313l0.49-0.313l-0.245,0.5l-0.429,0.313l0.49,0.5c0,0,0,0.375,0,0.438s-0.429,0.563-0.429,0.563l-0.49-0.063L44.2,22.62  l0.429,0.25l0.735,0.438c0,0,0.061,0.019,0.153,0.048h-0.125v0.419l-0.372,0.271l-0.674,0.438c-0.049,0.032-0.069,0.093-0.049,0.148  l0.161,0.439l-0.355,0.518h-0.13l-0.109-1.447c-0.003-0.046-0.032-0.087-0.074-0.105l-0.377-0.165l-0.105-0.322  c-0.007-0.021-0.02-0.041-0.038-0.056c-0.131-0.111-0.356-0.289-0.509-0.332c-0.024-0.112,0.002-0.427,0.027-0.486  c0.062-0.063,0.452-0.517,0.496-0.568c0.017-0.02,0.028-0.045,0.03-0.071l0.12-1.472l0.169-0.288l-0.096-0.056L44.016,19.932z   M36.724,20.807l0.674-0.063l0.735-0.438l1.471-0.125c0,0,1.042-0.063,1.103-0.063s0.552,0.25,0.552,0.25l0.674-0.375l0.368,0.125  l0.368-0.125l0.684,0.215l-0.149,0.253c-0.009,0.017-0.015,0.035-0.017,0.053l-0.119,1.459c-0.172,0.2-0.418,0.484-0.458,0.526  c-0.104,0.106-0.137,0.625-0.07,0.783c0.044,0.105,0.125,0.117,0.153,0.117c0,0,0.001,0,0.001,0  c0.051,0.009,0.228,0.128,0.387,0.261l0.112,0.341c0.011,0.034,0.036,0.061,0.068,0.076l0.36,0.157l0.115,1.522l-0.112,0.286  c-0.01,0.024-0.011,0.051-0.005,0.077l0.241,0.922l0.003,0.582c-0.047,0.215-0.125,0.586-0.125,0.652  c0,0.057,0.054,0.292,0.105,0.508l-0.296,0.201c-0.051,0.035-0.069,0.103-0.042,0.159l0.36,0.735l0.12,0.609  c0.009,0.046,0.042,0.083,0.087,0.096l0.443,0.128l0.669,0.114l0.174,0.401c-1.109,0.675-3.713,2.258-3.82,2.314  c-0.123,0.063-0.71,0.652-0.986,0.934l-1.867,0.357l-0.104-0.079l0.111-0.151c0.016-0.021,0.024-0.047,0.024-0.074v-0.375  c0-0.064-0.048-0.118-0.112-0.125l-0.558-0.057l-0.151-0.206c-0.023-0.032-0.061-0.051-0.101-0.051h-0.254l-0.27-0.275  c-0.01-0.01-0.021-0.018-0.033-0.024l-0.177-0.09v-0.236c0-0.037-0.016-0.071-0.044-0.095l-6.574-5.589v-0.362l0.225-0.744  l1.134-0.578l0.381,0.111c0.045,0.013,0.092,0,0.125-0.033l0.221-0.225l0.701-0.179c0.022-0.006,0.042-0.017,0.059-0.034  l0.285-0.291l0.951-0.303c0.056-0.018,0.092-0.072,0.086-0.13c-0.014-0.161-0.026-0.347-0.027-0.464  c0.101,0.009,0.266,0.004,0.529-0.025c0.042-0.004,0.079-0.031,0.098-0.069l0.088-0.18h0.779c0.029,0,0.057-0.01,0.079-0.028  l0.307-0.25c0.05-0.041,0.061-0.114,0.024-0.167c-0.15-0.219-0.317-0.493-0.348-0.586c0.039-0.099,0.107-0.387,0.246-1.326  c0.006-0.043-0.01-0.087-0.044-0.115L36.1,21.231L36.724,20.807z M28.084,26.496l0.674-0.5l0.368-0.125l0.551-0.563l0.306-0.563  l-0.061-0.313l0.245-0.688l0.368-0.375l0.061-0.375l0.429-0.5l1.409-0.563l0.551-0.625l0.368-0.625l0.368-0.188  c0,0,0.368,0.438,0.429,0.5s0.613,0.063,0.613,0.063l1.177,0.24l-0.062,0.075l0.251,0.205c-0.08,0.539-0.18,1.115-0.2,1.173  c-0.06,0.061-0.127,0.129,0.289,0.751l-0.184,0.149h-0.813c-0.048,0-0.091,0.027-0.112,0.07l-0.092,0.188  c-0.19,0.02-0.401,0.028-0.462,0.013c-0.038-0.024-0.091-0.031-0.13-0.012c-0.074,0.034-0.12,0.055-0.071,0.653l-0.885,0.282  c-0.02,0.006-0.037,0.017-0.051,0.032l-0.282,0.288l-0.701,0.179c-0.022,0.006-0.042,0.017-0.059,0.034l-0.192,0.196l-0.357-0.104  c-0.032-0.01-0.063-0.006-0.092,0.009l-1.226,0.625c-0.03,0.016-0.053,0.042-0.063,0.075l-0.216,0.717l-3.028-0.202l0.086-0.073  L28.084,26.496z M23.488,35.247l0.061-1.063l-0.245-0.5l0.245-0.375v-0.625l-0.245-0.5l0.061-0.688l0.49-0.563l0.429-0.813  l0.858-0.813l0.245-0.438l0.368-0.75l0.429-0.375l0.429-0.188l0.306-0.625l0.121-0.103l-0.007,0.102l3.162,0.211v0.311l-0.164,0.943  l-2.401-0.12c-0.077,0.005-0.123,0.045-0.13,0.111c-0.092,0.797-0.209,1.688-0.266,1.95c-0.112,0.02-0.304,0.09-0.647,0.266  c-0.012,0.006-0.023,0.014-0.033,0.024l-0.184,0.188c-0.02,0.021-0.032,0.047-0.035,0.076l-0.111,1.189l-2.88-0.24l-0.021,0.249  l3.003,0.25c0.003,0,0.007,0,0.01,0c0.064,0,0.119-0.049,0.125-0.113l0.118-1.269l0.138-0.141c0.214-0.108,0.475-0.222,0.558-0.234  c0.027,0.009,0.058,0.011,0.086,0.002c0.089-0.031,0.14-0.048,0.373-2.052l2.395,0.119c0.073,0.004,0.119-0.042,0.129-0.104  l0.147-0.847l2.001,1.701h-0.8c-0.068,0-0.123,0.054-0.125,0.122l-0.184,7.189c0,0.028,0.008,0.055,0.024,0.078l0.149,0.203  l-0.145,0.589l-2.72-0.231v-0.073c0-0.051-0.031-0.097-0.078-0.116c-0.048-0.019-0.101-0.008-0.137,0.028l-0.259,0.264l-0.54-0.11  l-0.245-0.063c-0.053-0.014-0.11,0.01-0.139,0.058l-0.078,0.133l-0.198-0.323c-0.031-0.052-0.095-0.074-0.154-0.05l-0.307,0.125  c-0.047,0.019-0.078,0.065-0.078,0.116v0.541l-0.142,0.058l-0.711-0.893v-0.331c0-0.062-0.045-0.115-0.107-0.124l-0.379-0.056  c-0.07-0.089-0.232-0.292-0.285-0.346c-0.039-0.039-0.104-0.105-0.935-0.037l-0.613-0.063c-0.036-0.001-0.08,0.012-0.107,0.042  l-0.216,0.247l0.035-0.196L23.488,35.247z M22.518,38.829l0.01,0.034l0.035,0.12c0.068-0.02,0.25-0.126,0.361-0.193l0.375,0.11  c0.029,0.009,0.059,0.005,0.085-0.005l0.393-0.172l0.243,0.05c0.307,0.207,0.408,0.248,0.453,0.255  c-0.012,0.001-0.02,0.002-0.023,0.003c-0.054-0.01-0.368-0.131-0.639-0.242c-0.03-0.013-0.064-0.013-0.095,0l-0.707,0.3  l-0.508-0.059l-0.028,0.248l0.542,0.063c0.004,0,0.009,0.001,0.014,0.001c0.017,0,0.034-0.003,0.05-0.01l0.685-0.292  c0.591,0.24,0.649,0.24,0.674,0.24c0.065,0,0.336-0.045,0.45-0.064c0.036-0.006,0.067-0.027,0.086-0.059  c0.019-0.031,0.023-0.069,0.012-0.104l-0.062-0.188c-0.017-0.051-0.064-0.086-0.119-0.086l-0.285,0.002  c-0.044-0.014-0.232-0.13-0.38-0.231c-0.014-0.009-0.029-0.016-0.045-0.019l-0.306-0.063c-0.025-0.004-0.052-0.002-0.075,0.008  l-0.388,0.169l-0.385-0.112c-0.034-0.009-0.07-0.004-0.101,0.014c-0.118,0.072-0.246,0.145-0.309,0.174  c0.021-0.161,0.037-0.287,0.037-0.287l-0.306-0.813l0.552-0.75l0.05-0.281l0.105,0.092l0.294-0.337l0.571,0.056  c0.304-0.024,0.673-0.037,0.775-0.02c0.057,0.065,0.197,0.241,0.281,0.347c0.02,0.025,0.048,0.042,0.08,0.046l0.322,0.047v0.267  c0,0.028,0.01,0.056,0.027,0.078l0.78,0.979c0.052,0.188,0.108,0.405,0.112,0.436c-0.005,0.031-0.057,0.155-0.11,0.265  c-0.025,0.052-0.012,0.115,0.033,0.152l0.285,0.233c0.073,0.151,0.152,0.328,0.159,0.353c-0.003,0.035-0.044,0.177-0.089,0.317  h-0.614c-0.736-0.375-0.795-0.375-0.827-0.375c-0.047,0-0.755-0.038-1.219-0.063c-0.021,0-0.043,0.004-0.063,0.014l-0.341,0.174  l-0.552,0.004l-0.357,0.091c-0.034-0.128-0.072-0.278-0.072-0.314C22.446,39.401,22.484,39.094,22.518,38.829z M23.181,40.373  l-0.553-0.395l0.277-0.074h0.551c0.02,0,0.039-0.005,0.057-0.014l0.338-0.172c0.152,0.008,0.654,0.033,0.952,0.048  c-0.018,0.048-0.048,0.116-0.055,0.148c-0.033,0.018-0.1,0.041-0.158,0.056c-0.037,0.009-0.067,0.035-0.083,0.069  c-0.016,0.034-0.016,0.073,0.001,0.107l0.115,0.234l-0.644,0.152c-0.031,0.007-0.058,0.026-0.075,0.052l-0.325,0.488l-0.092-0.075  L23.181,40.373z M25.449,44.311l-0.49-0.813v-0.688l-0.797-1l-0.368-0.563l-0.118-0.097l0.105,0.07l0.305-0.457l0.749-0.176  c0.037-0.009,0.068-0.034,0.084-0.068c0.017-0.035,0.016-0.075,0-0.109l-0.12-0.244c0.168-0.066,0.194-0.14,0.193-0.195  c0.003-0.023,0.032-0.101,0.066-0.184c0.096,0.036,0.431,0.198,0.733,0.352c0.018,0.009,0.037,0.014,0.057,0.014h0.61v0.125  c0,0.047,0.026,0.09,0.068,0.111l0.245,0.125c0.047,0.025,0.107,0.015,0.146-0.024l0.069-0.071l0.101,0.172  c0.019,0.031,0.05,0.053,0.086,0.06c0.038,0.006,0.073-0.003,0.101-0.026l0.219-0.179c0.153,0.144,0.271,0.216,0.353,0.216h0  c0.033,0,0.087-0.022,0.111-0.045c0.041-0.041,0.201-0.168,0.293-0.239c0.031-0.023,0.049-0.06,0.049-0.099v-0.064l0.07,0.028  l0.048,0.286v0.313c0,0.043,0.022,0.084,0.06,0.106l0.191,0.117l-0.104,0.14c-0.024,0.032-0.031,0.074-0.019,0.112  c0.012,0.038,0.041,0.068,0.079,0.081l0.099,0.034v0.286c0,0.033,0.013,0.065,0.037,0.089l0.268,0.265l-0.064,0.041  c-0.031,0.02-0.051,0.052-0.057,0.088l-0.061,0.438c-0.004,0.033,0.005,0.067,0.026,0.094l0.196,0.251l-0.088,0.179  c-0.02,0.04-0.017,0.086,0.008,0.124l0.037,0.057c-0.018,0.001-0.035,0.005-0.051,0.014l-0.245,0.125  c-0.033,0.017-0.056,0.047-0.064,0.083s-0.001,0.073,0.021,0.103l0.148,0.201l-0.089,0.316l-0.162,0.056l-0.094-0.064  c-0.039-0.026-0.088-0.029-0.129-0.007c-0.041,0.021-0.066,0.064-0.066,0.11v0.104l-0.162,0.066l-0.144-0.11l-0.057-0.756  c-0.002-0.036-0.02-0.068-0.048-0.09c-0.279-0.214-0.352-0.214-0.383-0.214c-0.042,0-0.18,0.04-0.367,0.1l0-0.06l-0.123-0.688  c-0.003-0.02-0.012-0.038-0.023-0.054l-0.429-0.563c-0.024-0.031-0.061-0.049-0.1-0.049h-0.735c-0.039,0-0.076,0.018-0.1,0.049  c-0.313,0.41-0.41,0.566-0.441,0.639c-0.041,0.019-0.136,0.047-0.22,0.064l0.05,0.245c0.357-0.073,0.406-0.162,0.401-0.217  c0.021-0.054,0.203-0.308,0.371-0.531h0.611l0.373,0.489l0.115,0.636v0.399l-0.395,0.575l-0.412,0.3l0.073,0.101l-0.03-0.031  L25.449,44.311z M29.003,46.999L27.9,46.312l-0.919-0.75l-0.739-0.754l0.414-0.302c0.011-0.008,0.021-0.019,0.029-0.03l0.429-0.625  c0.014-0.021,0.022-0.045,0.022-0.071l-0.001-0.139c0.164-0.055,0.331-0.107,0.346-0.113c0.028,0.009,0.117,0.066,0.206,0.131  l0.057,0.756c0.002,0.036,0.02,0.068,0.048,0.09l0.245,0.188c0.036,0.027,0.083,0.033,0.124,0.017l0.306-0.125  c0.016-0.006,0.03-0.016,0.042-0.028l0.085,0.391l-0.16,0.271c-0.028,0.049-0.021,0.111,0.019,0.151l0.245,0.25  c0.031,0.032,0.076,0.045,0.12,0.034c0.036-0.009,0.078-0.017,0.11-0.021c0.022,0.067,0.061,0.158,0.118,0.273l0.21,0.375  l-0.147,0.25c-0.015,0.026-0.021,0.056-0.015,0.085l0.08,0.442L29.003,46.999z M32.189,46.437l-1.348,0.125l-1.471,0.563  l-0.061-0.021l0.123-0.022l-0.083-0.465l0.16-0.272c0.022-0.039,0.023-0.086,0.001-0.125l-0.242-0.432  c-0.054-0.11-0.105-0.233-0.11-0.257c0-0.039-0.026-0.091-0.057-0.115c-0.022-0.018-0.079-0.062-0.273-0.022l-0.129-0.132  l0.136-0.23c0.016-0.027,0.021-0.059,0.014-0.09l-0.107-0.491l0.149-0.052c0.039-0.014,0.068-0.045,0.079-0.084l0.123-0.438  c0.01-0.037,0.003-0.077-0.02-0.108l-0.097-0.131l0.063-0.033l0.253,0.104c0.05,0.022,0.109,0.006,0.144-0.036  c0.035-0.042,0.039-0.102,0.008-0.148l-0.206-0.316l0.091-0.186c0.021-0.043,0.016-0.095-0.014-0.132l-0.212-0.271l0.045-0.328  l0.366-0.233l0.236,0.193c0.042,0.035,0.099,0.039,0.145,0.01l0.306-0.188c0.014-0.008,0.026-0.02,0.035-0.032l0.146-0.199h0.087  l0.097,0.346c0.01,0.034,0.033,0.062,0.064,0.078c0.031,0.015,0.068,0.017,0.101,0.005l0.43-0.164l0.283,0.192l0.169,0.403  c0.02,0.046,0.065,0.077,0.115,0.077h0.368c0.015,0,0.03-0.002,0.043-0.008l0.611-0.227l0.345,0.251l0.095,0.242L33.14,43.25  c-0.004,0.019-0.004,0.038,0,0.056l0.113,0.518l-0.285,0.521c-0.007,0.014-0.012,0.028-0.014,0.043l-0.058,0.417l-0.175,0.357  c-0.01,0.021-0.014,0.043-0.012,0.066l0.062,0.688c0.001,0.015,0.005,0.03,0.012,0.044l0.123,0.25  c0.006,0.012,0.014,0.023,0.023,0.032l0.144,0.147l-0.022,0.298l-0.002-0.001L32.189,46.437z M34.518,46.624l-0.797,0.375  l-0.537-0.249l0.109,0.008l0.031-0.406c0.003-0.036-0.01-0.071-0.035-0.097l-0.169-0.173l-0.104-0.211l-0.057-0.63l0.169-0.343  c0.006-0.012,0.01-0.025,0.012-0.038l0.058-0.415l0.296-0.542c0.014-0.027,0.019-0.057,0.012-0.086l-0.116-0.535l0.054-0.222  c0.006-0.025,0.004-0.051-0.005-0.075l-0.111-0.283l0.058-0.469c0.001-0.011,0.001-0.021,0-0.033l-0.055-0.387l0.117-0.158  l1.677-0.002l0.24-0.049l0.079,0.081l-0.093,0.237c-0.018,0.045-0.007,0.098,0.027,0.133l0.327,0.333l-0.056,0.567  c-0.002,0.023,0.002,0.046,0.012,0.067l0.103,0.209l-0.112,0.457c-0.009,0.036-0.001,0.074,0.021,0.104l0.152,0.207l-0.113,0.635  c-0.005,0.026-0.001,0.053,0.011,0.077l0.094,0.19c-0.189,0.346-0.104,0.433-0.07,0.467c0.048,0.049,0.378,0.423,0.504,0.566  l-0.261,0.191L34.518,46.624z M36.417,45.812l-0.14,0.102l0.162-0.143c-0.042-0.048-0.38-0.432-0.489-0.55  c0.013-0.052,0.062-0.161,0.115-0.252c0.021-0.037,0.023-0.081,0.004-0.119l-0.104-0.213l0.115-0.647  c0.006-0.034-0.002-0.068-0.022-0.096l-0.149-0.203l0.109-0.444c0.007-0.028,0.003-0.059-0.009-0.085l-0.107-0.218l0.058-0.59  c0.003-0.037-0.009-0.073-0.035-0.1l-0.311-0.317l0.058-0.149l0.406,0.041v0.387c0,0.036,0.015,0.069,0.042,0.093l0.43,0.384  c-0.021,0.07-0.043,0.159-0.043,0.21c0,0.064,0.065,0.311,0.122,0.515l-0.06,1.755l0.062,0.375c0.002,0.012,0.006,0.024,0.011,0.035  l0.095,0.194L36.417,45.812z M37.643,45.687l-0.726,0.074l0.073-0.036l-0.115-0.234l-0.057-0.332l0.062-1.75  c0-0.013-0.001-0.026-0.004-0.038c-0.054-0.192-0.115-0.427-0.118-0.466c0.001-0.026,0.026-0.125,0.055-0.212  c0.016-0.047,0.001-0.099-0.036-0.132l-0.448-0.4v-0.388l0.394-0.352l0.299,0.102c0.041,0.015,0.087,0.005,0.121-0.023  c0.038-0.032,0.374-0.318,0.438-0.383c0.026-0.026,0.09-0.092,0.051-0.422l0.18-0.031l0.523,0.587l-0.046,0.186  c-0.008,0.032-0.003,0.065,0.014,0.093l0.167,0.283v0.352l-0.148,0.151c-0.023,0.023-0.036,0.055-0.036,0.087v0.199l-0.7,0.714  c-0.023,0.023-0.036,0.055-0.036,0.087v1.188c0,0.019,0.004,0.038,0.013,0.055l0.102,0.207l-0.11,0.392  c-0.003,0.013-0.005,0.026-0.004,0.04l0.021,0.396l0.199-0.01L37.643,45.687z M42.177,47.249l-0.858,0.063l-0.735,0.125  l-0.674-0.188l-0.245-0.75l-0.919-0.938l-0.927,0.105l-0.019-0.372l0.117-0.418c0.008-0.03,0.005-0.061-0.008-0.089l-0.11-0.224  v-1.108l0.7-0.714c0.023-0.023,0.036-0.055,0.036-0.087v-0.199l0.148-0.151c0.023-0.023,0.036-0.055,0.036-0.087V41.78  c0-0.022-0.006-0.044-0.017-0.063l-0.158-0.269l0.049-0.201c0.001-0.004-0.004-0.008-0.003-0.012l0.005,0.001l0.117-0.773  l0.339-0.346c0.013-0.014,0.023-0.03,0.029-0.048l0.106-0.326l0.408-0.208l0.327,0.055c0.026,0.005,0.054,0.001,0.078-0.012  l0.191-0.097l0.584,0.271l0.287,0.468c0.03,0.051,0.092,0.071,0.149,0.052l0.811-0.295l0.37,0.161l0.429,0.25  c0.019,0.011,0.041,0.017,0.063,0.017h0.552c0.024,0,0.048-0.007,0.068-0.02l0.639-0.415l0.783,0.057  c0.613,0.414,0.685,0.338,0.744,0.278c0.074-0.075,0.455-0.408,0.55-0.464c0.077-0.006,0.245-0.033,0.359-0.052l0.286,0.292v0.449  c0,0.146,0.248,0.268,0.375,0.303c0.024,0.049,0.053,0.161,0.054,0.194c-0.003,0.04-0.052,0.258-0.101,0.463l-0.417,0.106  c-0.029,0.007-0.055,0.025-0.072,0.05l-0.429,0.625c-0.012,0.018-0.02,0.038-0.021,0.06l-0.055,0.612l-0.236,0.096  c-0.038,0.016-0.066,0.049-0.075,0.089l-0.115,0.527l-0.343,0.35c-0.012,0.012-0.021,0.026-0.027,0.042  c-0.107,0.274-0.247,0.601-0.28,0.646c-0.055,0.057-0.125,0.257-0.209,0.596l-0.253,0.344l-0.094-0.127l-0.368-0.375  c-0.04-0.04-0.098-0.05-0.146-0.024l-0.218,0.111h-0.338c-0.035,0-0.068,0.015-0.092,0.041l-0.858,0.938  c-0.021,0.023-0.033,0.053-0.033,0.084v0.406l-0.294,0.553l0.212,0.112L42.177,47.249z M42.438,47.356l0.309-0.579  c0.01-0.018,0.015-0.038,0.015-0.059v-0.389l0.788-0.861h0.313c0.02,0,0.039-0.005,0.057-0.014l0.164-0.083l0.292,0.296l0.184,0.25  c0.047,0.063,0.154,0.063,0.201,0l0.368-0.5c0.01-0.013,0.017-0.028,0.021-0.044c0.051-0.21,0.127-0.466,0.151-0.504  c0.052-0.053,0.161-0.29,0.325-0.706l0.35-0.357c0.017-0.017,0.028-0.038,0.033-0.061l0.108-0.499l0.246-0.1  c0.043-0.018,0.073-0.058,0.077-0.104l0.059-0.655l0.384-0.56l0.444-0.113c0.045-0.011,0.08-0.046,0.091-0.091  c0.058-0.235,0.126-0.528,0.126-0.592c0-0.004-0.034-0.438-0.238-0.438c0,0,0,0,0,0c-0.037-0.006-0.146-0.063-0.19-0.098v-0.206  l0.319,0.253l0.227,0.696v0.73c0,0.029,0,0.081,0.286,0.673l-0.704-0.048c-0.04-0.007-0.088,0.018-0.113,0.056l-0.245,0.375  c-0.032,0.049-0.026,0.114,0.015,0.156c0.2,0.204,0.435,0.465,0.467,0.53c0.061,0.124,0.344,0.467,0.431,0.571l0.217,0.609  c-0.157,0.248-0.34,0.52-0.403,0.587c-0.079,0.03-0.122,0.132-0.187,0.286c-0.019,0.044-0.047,0.112-0.067,0.149  c-0.078,0.014-0.179,0.047-0.227,0.063c-0.064,0.022-0.1,0.092-0.078,0.157l0.118,0.358l0.123,0.688  c0.003,0.019,0.011,0.037,0.022,0.052l0.35,0.476l0.057,0.345c0.005,0.028,0.019,0.053,0.039,0.072l0.583,0.535l0.112,0.561v0.458  c-0.524-0.333-0.575-0.333-0.61-0.333c-0.033,0-0.258-0.016-0.483-0.031c-0.233-0.016-0.466-0.031-0.497-0.031h-0.561  c-0.192-0.188-0.265-0.188-0.297-0.188h-1.348c-0.02,0-0.039,0.005-0.057,0.014l-0.341,0.174h-0.714l-0.147-0.15l-0.103,0.101  c0.036-0.295,0.077-0.579,0.106-0.608C43.464,48.562,43.097,48,43.097,48l-0.306-0.188l-0.306-0.438L42.438,47.356z M43.281,49.367  l0.124,0.127c0.023,0.024,0.056,0.038,0.089,0.038h0.797c0.02,0,0.039-0.005,0.057-0.014l0.186-0.095v0.733h-1.342l0.027-0.219  C43.219,49.938,43.246,49.664,43.281,49.367z M43.771,53.688l-0.919-0.938l-0.306-0.875l0.306-0.25l0.245-0.688l0.08-0.654v0.123  h1.482c0.069,0,0.125-0.056,0.125-0.125v-0.938l1.197-0.004c0.02,0.009,0.071,0.052,0.124,0.1l-0.092,0.234  c-0.007,0.019-0.01,0.039-0.008,0.059l0.061,0.563c0.005,0.041,0.029,0.077,0.065,0.096c0.036,0.02,0.08,0.021,0.116,0.001  l0.531-0.271l0.298,0.305l-0.118,0.205l-0.306,0.313c-0.023,0.023-0.036,0.055-0.036,0.087c0,0.425,0.045,0.562,0.172,0.562  c0,0,0.001,0,0.001,0c0.036,0.007,0.174,0.07,0.307,0.136l-0.052,0.428c0,0.196-0.016,0.441-0.025,0.475  c-0.044,0.045-0.129,0.222-0.253,0.527l-0.111-0.142c-0.039-0.051-0.11-0.064-0.164-0.029l-0.264,0.162l-0.214-0.044l-0.278-0.34  c-0.028-0.034-0.066-0.049-0.116-0.044c-0.043,0.007-0.081,0.037-0.097,0.078l-0.102,0.258c-0.145,0.048-0.302,0.096-0.334,0.1  h-0.306c-0.058,0-0.107,0.039-0.122,0.095c-0.012,0.049-0.068,0.302,0.009,0.459c0.053,0.108,0.205,0.277,0.283,0.36l-0.021,0.108  l-0.232-0.079c-0.055-0.02-0.116,0.003-0.146,0.052l-0.173,0.28L43.771,53.688z M44.69,54.813l-0.271-0.332l0.163,0.101l0.131-0.212  l0.274,0.093c0.033,0.012,0.072,0.008,0.103-0.01c0.031-0.019,0.053-0.049,0.06-0.084l0.061-0.313  c0.008-0.041-0.004-0.082-0.033-0.111c-0.089-0.091-0.245-0.265-0.283-0.343c-0.019-0.037-0.017-0.119-0.008-0.195h0.202  c0.055,0,0.212-0.044,0.469-0.132c0.035-0.012,0.063-0.038,0.076-0.073l0.045-0.113l0.171,0.209  c0.018,0.022,0.043,0.038,0.072,0.043l0.307,0.063c0.032,0.006,0.063,0,0.09-0.016l0.211-0.129l0.177,0.225  c0.027,0.035,0.071,0.053,0.116,0.046c0.044-0.006,0.082-0.036,0.098-0.078c0.107-0.274,0.247-0.601,0.28-0.646  c0.029-0.03,0.097-0.099,0.096-0.635l0.062-0.5c0.006-0.052-0.021-0.103-0.067-0.126c-0.218-0.111-0.335-0.161-0.401-0.183  c-0.01-0.058-0.018-0.169-0.02-0.281l0.289-0.299l0.184-0.313c0.028-0.049,0.021-0.111-0.019-0.151l-0.429-0.438  c-0.039-0.04-0.098-0.049-0.146-0.024l-0.452,0.23l-0.038-0.352l0.08-0.205h0.528c0.033,0,0.256,0.016,0.48,0.031  c0.234,0.016,0.468,0.034,0.473,0.028c0.062,0.021,0.402,0.231,0.695,0.421c0.021,0.013,0.044,0.02,0.068,0.02  c0.021,0,0.041-0.005,0.06-0.015c0.041-0.022,0.065-0.064,0.065-0.11l-0.002-0.462l0.289-0.472c0.008-0.014,0.014-0.028,0.017-0.043  l0.105-0.592l0.736-0.054c0.137,0.044,0.419,0.12,0.563,0.047c0.035-0.018,0.072-0.042,0.109-0.07  c-0.112,0.421-0.168,0.659-0.166,0.687c-0.012,0.04-0.108,0.219-0.171,0.338c-0.173,0.323-0.199,0.38-0.199,0.434  c0,0.096-0.061,0.954-0.086,1.037c-0.092,0.094-0.106,0.653-0.043,0.893c-0.094,0.104-0.44,0.377-0.757,0.612l-0.613,0.688  c-0.021,0.023-0.032,0.052-0.032,0.083v1.142l-0.399,0.465c-0.009,0.01-0.016,0.021-0.021,0.033l-0.165,0.392  c-0.171,0.077-0.359,0.158-0.456,0.196c-0.02-0.073-0.044-0.193-0.06-0.307c-0.005-0.034-0.023-0.064-0.05-0.084  c-0.027-0.02-0.061-0.028-0.095-0.022l-0.368,0.063c-0.012,0.002-0.024,0.006-0.036,0.012l-0.43,0.219l-0.37-0.215  c-0.042-0.025-0.096-0.022-0.135,0.006l-0.781,0.551L44.69,54.813z M45.302,56.189l-0.119-0.545l0.038,0.054l0.73-0.516l0.36,0.209  c0.037,0.021,0.083,0.024,0.12,0.003l0.473-0.241l0.224-0.038c0.065,0.385,0.139,0.418,0.227,0.418c0.026,0,0.088,0,0.665-0.261  c0.028-0.013,0.051-0.036,0.063-0.065l0.176-0.419l0.417-0.485c0.02-0.023,0.03-0.052,0.03-0.082v-1.141l0.562-0.634  c0.837-0.61,0.846-0.713,0.85-0.768c0.003-0.04-0.01-0.08-0.022-0.085c-0.035-0.089-0.035-0.594-0.016-0.661  c0.116-0.119,0.158-1.19,0.156-1.19c0.012-0.04,0.108-0.22,0.171-0.338c0.173-0.323,0.199-0.38,0.199-0.428  c0.005-0.053,0.095-0.41,0.179-0.725c0.003-0.011,0.004-0.021,0.004-0.032v-0.25V47.52c0.224-0.225,0.493-0.467,0.544-0.489  c0.071,0.009,0.394,0.169,0.677,0.324v0.176c0,0.06,0.043,0.112,0.103,0.123l0.68,0.126l0.92,0.125  c0.042,0.004,0.083-0.01,0.11-0.042l0.434-0.497l0.408,0.156c0.039,0.014,0.081,0.01,0.115-0.013l0.678-0.461l0.366,0.16  c0.034,0.015,0.073,0.014,0.106-0.003l0.376-0.192l0.25-0.153l0.491,0.223c0.02,0.008,0.041,0.014,0.062,0.011l0.741-0.058  l0.635,0.588c0.035,0.032,0.085,0.042,0.13,0.025l0.445-0.17l0.445,0.17c0.039,0.014,0.083,0.01,0.115-0.013l0.268-0.183  l0.297,0.403c0.014,0.019,0.032,0.033,0.054,0.042l0.265,0.108l0.197,0.354l-0.095,0.174c-0.008,0.013-0.013,0.028-0.015,0.042  l-0.062,0.438c-0.008,0.06,0.027,0.117,0.084,0.136l0.298,0.101c0.007,0.052,0.012,0.101,0.013,0.132  c-0.108,0.072-0.349,0.279-0.969,0.871c-0.025,0.023-0.039,0.056-0.039,0.09v0.338l-0.103,0.156  c-0.009,0.013-0.015,0.027-0.018,0.042c-0.085,0.405-0.187,0.901-0.187,0.964c0,0.047-0.009,0.308-0.014,0.437  c-0.119,0.066-0.223,0.128-0.257,0.163c-0.059,0.059-0.109,0.223-0.153,0.487l-0.115,0.233c-0.017,0.035-0.017,0.075,0,0.11  c0.058,0.118,0.2,0.4,0.252,0.447c0.035,0.089,0.035,0.594,0.017,0.66c-0.042,0.042-0.118,0.12,0.087,0.613v0.35  c0,0.012,0.002,0.024,0.005,0.035l0.166,0.566l-0.146,0.2c-0.024,0.033-0.03,0.075-0.019,0.113l0.122,0.375  c0.006,0.019,0.017,0.035,0.03,0.049l0.473,0.483l0.29,0.704l0.04,0.201l-0.294,0.088l-0.919,0.063  c-0.048,0.003-0.09,0.034-0.107,0.079l-0.113,0.289l-0.35,0.357c-0.037,0.038-0.047,0.095-0.023,0.142l0.166,0.34l-0.108,0.685  l-0.123,0.313c-0.004,0.011-0.007,0.021-0.008,0.033c-0.007,0.058-0.062,0.573-0.062,0.701c0,0.125,0.161,0.306,0.488,0.544  c0.337,0.207,0.404,0.207,0.433,0.207c0.068,0,0.153-0.033,0.225-0.272l0.019-0.005v0.667c-0.04-0.021-0.085-0.021-0.124,0.004  l-0.262,0.16l-0.346-0.088l-0.003-0.245l-0.123-0.5c-0.012-0.051-0.055-0.088-0.107-0.094c-0.053-0.006-0.5-0.057-0.659-0.063  c-0.051-0.056-0.147-0.269-0.216-0.477c-0.015-0.044-0.052-0.076-0.098-0.084c-0.044-0.01-0.091,0.011-0.12,0.046l-0.207,0.265  h-0.352c-0.345-0.096-0.574-0.155-0.685-0.178c-0.021-0.055-0.048-0.171-0.066-0.28c-0.005-0.033-0.023-0.063-0.051-0.082  c-0.026-0.021-0.061-0.029-0.093-0.021l-0.621,0.105l-0.034-0.137c-0.005-0.022-0.017-0.042-0.032-0.058l-0.307-0.313  c-0.034-0.036-0.091-0.048-0.136-0.028c-0.048,0.019-0.078,0.065-0.078,0.116v0.16c-0.226-0.045-0.497-0.097-0.549-0.097  c-0.052,0-0.324,0.052-0.55,0.097l-0.001-0.184l-0.123-0.625c-0.004-0.017-0.011-0.033-0.021-0.048  c-0.124-0.178-0.27-0.401-0.283-0.428c0.001-0.091,0.059-0.774,0.086-0.85c0.034-0.035,0.121-0.124-0.076-0.479l0.107-0.387  c0.011-0.037,0.004-0.076-0.019-0.106c-0.021-0.031-0.057-0.05-0.094-0.052l-0.925-0.055v-0.257c0-0.036-0.016-0.07-0.042-0.094  c-0.027-0.024-0.061-0.034-0.099-0.03l-0.98,0.125c-0.063,0.008-0.109,0.061-0.109,0.124v0.409l-0.141,0.287l-0.49,0.056  l-0.653,0.111l-0.494-0.777l-0.256-0.774l-0.184-0.313c-0.022-0.038-0.063-0.062-0.108-0.062h-3.125  c-0.02,0-0.039,0.005-0.057,0.014l-0.364,0.186L45.302,56.189z M63.606,60.654l0.133,0.254h-0.023c-0.052,0-0.098,0.031-0.116,0.08  l-0.245,0.625c-0.008,0.02-0.011,0.041-0.008,0.062l0.122,0.938c0.006,0.041,0.03,0.077,0.067,0.095l0.217,0.111l0.69,0.998  l-0.107,0.934l-0.35,0.102c-0.053,0.016-0.09,0.064-0.09,0.12v0.35l-0.089,0.212c-0.145-0.181-0.265-0.284-0.358-0.307  c-0.043-0.062-0.11-0.278-0.156-0.496l0.234-0.655c0.004-0.014,0.007-0.028,0.007-0.042v-0.5c0-0.035-0.015-0.069-0.041-0.092  c-0.025-0.024-0.063-0.038-0.096-0.032l-0.604,0.056l-0.326-0.443c-0.001-0.001-0.002-0.001-0.003-0.002l0.001-0.001l-0.206-0.263  l0.41-1.374c0.006-0.019,0.007-0.038,0.004-0.057l-0.048-0.296l0.118-0.08c0.04-0.027,0.061-0.076,0.053-0.124l-0.051-0.313  l0.262-0.268c0.034-0.034,0.045-0.085,0.028-0.13l-0.184-0.5c-0.005-0.014-0.012-0.026-0.021-0.038l-0.149-0.177l0.4,0.068  c0.017,0.004,0.034,0.002,0.052-0.002l0.158-0.041l0.299,0.457v0.713C63.592,60.616,63.597,60.636,63.606,60.654z M62.627,59.722  l0.148,0.405l-0.251,0.256c-0.028,0.028-0.041,0.068-0.034,0.107l0.048,0.296l-0.117,0.08c-0.04,0.027-0.061,0.076-0.053,0.124  l0.056,0.346l-0.298,0.976l-0.123,0.438c-0.011,0.038-0.003,0.08,0.021,0.111l0.139,0.177l-2.228,0.816  c-0.062,0.022-0.095,0.088-0.077,0.151l0.078,0.281l-0.296,0.003c-0.338,0.086-0.719,0.179-0.766,0.184  c-0.106,0-0.172,0.031-0.238,0.653l-0.348,0.102c-0.014,0.004-0.027,0.011-0.039,0.02l-0.675,0.5  c-0.01,0.007-0.019,0.016-0.025,0.025l-0.385,0.505l-1.306-0.174l-0.403-0.294c-0.025-0.018-0.055-0.026-0.084-0.023l-0.75,0.064  c-0.083,0.017-0.172,0.035-0.263,0.053l-0.874-0.979v-2.578h1.346c0.051,0,0.096-0.03,0.115-0.077l0.184-0.438  c0.007-0.015,0.01-0.032,0.01-0.048v-1.125v-0.007l0.068,0.07l0.054,0.217c0.016,0.063,0.077,0.108,0.142,0.093l0.614-0.104  c0.06,0.293,0.128,0.355,0.215,0.355c0.001,0,0.001,0,0.001,0c0.052,0.006,0.401,0.098,0.709,0.184  c0.011,0.003,0.021,0.004,0.033,0.004h0.429c0.038,0,0.074-0.018,0.099-0.048l0.105-0.135c0.173,0.433,0.297,0.433,0.348,0.433  c0.081,0,0.39,0.032,0.574,0.052l0.098,0.386v0.313c0,0.057,0.039,0.107,0.094,0.121l0.49,0.125  c0.033,0.008,0.066,0.003,0.097-0.015l0.222-0.135l0.114,0.116c0.034,0.036,0.09,0.048,0.136,0.028  c0.048-0.019,0.078-0.065,0.078-0.116v-1.125c0-0.039-0.018-0.075-0.048-0.099c-0.032-0.024-0.07-0.031-0.108-0.022l-0.245,0.063  c-0.044,0.011-0.079,0.046-0.09,0.091c-0.012,0.046-0.028,0.096-0.043,0.133c-0.066-0.033-0.171-0.092-0.253-0.142  c-0.182-0.133-0.359-0.297-0.377-0.336c0-0.094,0.04-0.492,0.058-0.658l0.124-0.322l0.122-0.75c0.005-0.025,0.001-0.052-0.011-0.075  l-0.145-0.296l0.306-0.312c0.012-0.012,0.021-0.026,0.027-0.042l0.094-0.239l0.866-0.062l0.328-0.096l0.138,0.281  c0.019,0.037,0.054,0.063,0.095,0.068l0.408,0.06l1.185,0.604L62.627,59.722z M61.7,67.706c0.052,0.131,0.109,0.297,0.116,0.312  c-0.02,0.082-0.227,0.494-0.301,0.589c-0.085,0.034-0.111,0.157-0.157,0.368c-0.016,0.069-0.037,0.169-0.053,0.213  c-0.097,0.06-0.326,0.255-0.936,0.836L59,69.733l-0.341-0.348c-0.021-0.021-0.05-0.035-0.079-0.037  c-0.236-0.02-0.516-0.055-0.63-0.082c-0.019-0.119-0.063-0.327-0.132-0.421c-0.004-0.048,0.011-0.171,0.02-0.24  c0.022-0.177,0.033-0.267-0.062-0.313c-0.051-0.024-0.111-0.013-0.147,0.024c-0.015,0.009-0.053,0.017-0.1,0.023v-0.18  c0-0.042-0.021-0.08-0.055-0.104L56.6,67.461c-0.042-0.244-0.092-0.396-0.146-0.45c-0.034-0.04-0.212-0.324-0.4-0.632l1.15,0.153  c0.043,0.001,0.088-0.013,0.116-0.048l0.418-0.548l0.643-0.476l0.407-0.119c0.049-0.014,0.084-0.057,0.089-0.108  c0.02-0.195,0.053-0.427,0.078-0.524c0.121-0.024,0.366-0.083,0.717-0.176h0.322l0.045,0.27c0.01,0.061,0.062,0.105,0.123,0.105  h0.583l0.606,0.307l0.541,0.166l0.104,0.529c-0.039,0.239-0.12,0.747-0.119,0.8c-0.008,0.047-0.098,0.276-0.176,0.462  c-0.007,0.015-0.01,0.032-0.01,0.048v0.438C61.691,67.675,61.694,67.691,61.7,67.706z M51.943,72.112  c-0.013-0.029-0.035-0.053-0.064-0.066l-0.171-0.076v-2.185h0.672c0.069,0,0.125-0.056,0.125-0.125v-2.896  c0.41-0.069,0.983-0.164,1.039-0.168c0.058,0,0.421-0.065,0.679-0.112l0.261,0.372c0.02,0.028,0.051,0.047,0.085,0.052  c0.033,0.006,0.068-0.004,0.096-0.025l0.479-0.38l0.107,0.073c0.038,0.025,0.087,0.028,0.127,0.008l0.387-0.197  c0.168,0.278,0.451,0.74,0.503,0.793c0.023,0.036,0.066,0.211,0.094,0.376c0.005,0.034,0.024,0.064,0.053,0.083l0.864,0.587v0.247  c0,0.069,0.056,0.125,0.125,0.125c0.05,0,0.117-0.002,0.185-0.013c-0.027,0.215-0.038,0.342,0.029,0.409  c0.035,0.049,0.09,0.298,0.091,0.354c0,0.105,0,0.175,0.804,0.246l0.232,0.238c-0.127,0.093-0.294,0.228-0.332,0.317  c-0.038,0.017-0.179-0.005-0.294-0.043c-0.051-0.02-0.11,0-0.143,0.046l-0.293,0.417l-0.653,0.424  c-0.023,0.016-0.042,0.039-0.051,0.066l-0.115,0.353l-0.275,0.337c-0.472,0.242-0.526,0.325-0.533,0.388  c-0.037,0.066-0.206,0.277-0.363,0.462H54.7l-0.332-0.337c-0.031-0.033-0.079-0.046-0.124-0.033l-0.429,0.125  c-0.035,0.01-0.064,0.036-0.079,0.069l-0.296,0.664l-0.504,0.457l-0.676,0.106l-0.108-0.185l0.159-0.38  c0.013-0.031,0.013-0.066,0-0.097L51.943,72.112z M54.658,66.096l0.688-0.059l0.227,0.165l-0.243,0.124l-0.122-0.083  c-0.046-0.03-0.104-0.028-0.148,0.005l-0.447,0.355l-0.23-0.329c-0.028-0.041-0.084-0.06-0.125-0.051  c-0.314,0.059-0.669,0.121-0.713,0.123c-0.035,0-0.285,0.039-0.568,0.086C53.261,66.379,53.813,66.269,54.658,66.096z   M45.241,64.065l0.184-1.188c0,0,0.613-1,0.674-1s0.306-0.313,0.306-0.375s0.184-0.938,0.184-1s-0.306-0.75-0.306-0.75l-0.245-0.875  l0.184-0.5l-0.368-1.125l-0.368-0.563l-0.134-0.364l0.099,0.194l0.341-0.174h3.024l0.136,0.227l0.258,0.777l0.551,0.875  c0.027,0.043,0.08,0.068,0.127,0.057l0.729-0.124l0.551-0.063c0.043-0.004,0.08-0.031,0.099-0.069l0.184-0.375  c0.009-0.017,0.013-0.036,0.013-0.055v-0.328l0.73-0.093v0.233c0,0.066,0.052,0.121,0.117,0.125l0.888,0.053l-0.08,0.288  c-0.01,0.033-0.005,0.068,0.013,0.097c0.057,0.097,0.108,0.215,0.116,0.261c-0.098,0.207-0.134,0.98-0.134,0.988  c0,0.038,0,0.1,0.313,0.55l0.115,0.575v0.313c0,0.038,0.017,0.073,0.046,0.097c0.029,0.024,0.067,0.033,0.104,0.026  c0.283-0.058,0.604-0.12,0.646-0.123c0.041,0.002,0.297,0.051,0.552,0.102v0.998l-0.142,0.338H53.36  c-0.069,0-0.125,0.056-0.125,0.125v2.75c0,0.031,0.012,0.061,0.032,0.083l0.808,0.905c-0.621,0.126-1.27,0.255-1.328,0.262  l-0.779,0.001l-1.299-0.18c-0.257-0.321-0.327-0.321-0.374-0.321h-3.456c-0.676-0.438-0.734-0.438-0.772-0.438  c-0.041,0-0.101,0-0.455,0.296l-0.301-0.102c-0.037-0.013-0.081-0.007-0.115,0.018l-0.165,0.124l-0.036-1.055L45.241,64.065z   M48.06,74.38l-0.429-1.25l-0.245-1.313l-0.123-0.625v-1l-0.49-0.875l-0.98-1.875l-0.735-1.063l-0.021-0.617l0.08,0.107l0.177-0.132  L45.6,65.84c0.042,0.015,0.087,0.006,0.121-0.023c0.125-0.106,0.281-0.229,0.351-0.272c0.107,0.054,0.41,0.242,0.665,0.407  c0.02,0.013,0.044,0.02,0.068,0.02h3.464c0.044,0.037,0.148,0.151,0.237,0.265c0.02,0.025,0.049,0.042,0.081,0.047l1.365,0.188h0.79  c-0.136,0.023-0.27,0.045-0.382,0.064c-0.061,0.01-0.104,0.062-0.104,0.123v2.876h-0.672c-0.069,0-0.125,0.056-0.125,0.125v5.188  h-0.12c-0.03,0-0.06,0.011-0.082,0.031l-0.38,0.333l-0.211-0.051h-0.595l-0.349-0.102l-0.102-0.313  c-0.009-0.028-0.028-0.052-0.053-0.067l-0.306-0.188c-0.029-0.018-0.063-0.022-0.097-0.015c-0.033,0.009-0.061,0.03-0.077,0.06  l-0.227,0.405l-0.211,0.108l0.018,0.035L48.06,74.38z M60.806,75.13l-0.368,0.375l-0.429,0.25l-0.245,0.438l-0.551,0.75L58.6,77.505  l-0.858,0.75l-0.919,0.688l-0.797,0.375l-0.429-0.063l-0.49,0.188l-0.184,0.125h-0.245l-0.674-0.125l-0.429,0.063h-0.49  l-0.368,0.188l-0.551,0.063h-0.368l-0.368,0.25l-0.245,0.063l-0.368-0.313l-0.306-0.25l-0.061-0.25l-0.245-0.125l-0.306-0.563  c0,0,0.184-0.25,0.184-0.313c0-0.063,0-0.625,0-0.625s-0.552-0.875-0.552-0.938c0-0.063-0.613-1.313-0.613-1.313l-0.112-0.131  l0.2-0.102c0.022-0.011,0.041-0.029,0.052-0.05l0.182-0.324l0.156,0.096l0.108,0.332c0.013,0.039,0.044,0.069,0.083,0.081  l0.429,0.125c0.012,0.003,0.023,0.005,0.035,0.005l0.582-0.004l0.245,0.063c0.01,0.002,0.021,0.004,0.031,0.004  c0.03,0,0.059-0.011,0.083-0.031l0.393-0.344h0.198c0.069,0,0.125-0.056,0.125-0.125v-2.73l0.024,0.011l0.328,0.781l-0.163,0.389  c-0.016,0.036-0.013,0.078,0.008,0.112l0.184,0.313c0.022,0.039,0.063,0.062,0.107,0.062c0.007,0,0.013,0,0.02-0.001l0.797-0.125  c0.024-0.004,0.047-0.015,0.064-0.031l0.551-0.5c0.013-0.012,0.023-0.026,0.03-0.042l0.283-0.634l0.301-0.088l0.316,0.321  c0.023,0.024,0.056,0.038,0.089,0.038h1.103c0.036,0,0.071-0.016,0.095-0.043c0.333-0.388,0.425-0.528,0.45-0.593  c0.057-0.048,0.26-0.165,0.431-0.252c0.016-0.008,0.029-0.019,0.04-0.032l0.307-0.375c0.01-0.012,0.018-0.025,0.022-0.04  l0.109-0.333l0.637-0.414c0.013-0.009,0.024-0.02,0.034-0.033l0.255-0.363c0.164,0.044,0.409,0.076,0.49-0.091  c0.025-0.052,0.19-0.188,0.344-0.297l1.336,0.284l0.168,0.856c0.004,0.017,0.011,0.034,0.021,0.048l0.28,0.399l-0.117,1.075  l-0.033,0.231l-0.26-0.19c-0.05-0.037-0.119-0.031-0.162,0.014l-0.368,0.375c-0.013,0.013-0.022,0.028-0.028,0.044l-0.184,0.5  c-0.016,0.042-0.008,0.089,0.021,0.124l0.367,0.438c0.016,0.019,0.037,0.033,0.061,0.04c0.075,0.021,0.454,0.13,0.587,0.13  c0.072,0,0.198-0.002,0.276-0.565l0.238,0.29l0.115-0.094l-0.108,0.276L60.806,75.13z M60.607,73.175l0.101,0.312  c-0.021,0.255-0.066,0.512-0.103,0.607c-0.099-0.015-0.291-0.064-0.434-0.104l-0.296-0.353l0.149-0.407l0.273-0.279L60.607,73.175z   M68.22,64.253l-0.368,0.438l-0.245,0.313l-0.797,0.563l-0.919,0.313l-0.735,0.563l-1.532,1.438l-0.306,0.125l-0.061,0.375  l0.245,0.438v0.375l0.123,0.25l0.061,0.938l0.061,0.188l-0.184,0.563l0.061,0.188l-0.184,0.438l-0.49,0.313l-1.164,0.438  l-0.368,0.188l-0.184,0.313l0.184,0.25v0.375l-0.095,0.242l-0.376-0.459l-0.105-0.325l0.18-1.538  c0.004-0.03-0.004-0.061-0.021-0.085l-0.292-0.416l-0.165-0.844c0.376-0.357,0.786-0.732,0.882-0.798  c0.101-0.023,0.128-0.149,0.178-0.377c0.017-0.076,0.041-0.188,0.057-0.223c0.185-0.16,0.405-0.729,0.405-0.771  c0-0.055-0.041-0.189-0.123-0.398v-0.389c0.185-0.44,0.185-0.502,0.185-0.524c0.002-0.049,0.063-0.446,0.12-0.794  c0.003-0.015,0.003-0.029,0-0.044l-0.122-0.625c-0.009-0.045-0.042-0.082-0.087-0.096l-0.593-0.179l-0.612-0.313  c-0.018-0.009-0.037-0.014-0.057-0.014h-0.507l-0.045-0.27c-0.001-0.005-0.006-0.008-0.007-0.013l0.004-0.001l-0.091-0.327  l2.193-0.803l0.313,0.425c0.025,0.035,0.065,0.054,0.112,0.05l0.537-0.05v0.341l-0.238,0.667c-0.007,0.021-0.009,0.044-0.005,0.066  c0.142,0.721,0.293,0.725,0.351,0.724c0.054,0.021,0.214,0.202,0.344,0.387c0.023,0.034,0.063,0.053,0.103,0.053  c0.005,0,0.009,0,0.014,0c0.045-0.005,0.084-0.034,0.102-0.076l0.184-0.438c0.007-0.015,0.01-0.032,0.01-0.048v-0.281l0.339-0.099  c0.048-0.014,0.083-0.056,0.089-0.106l0.123-1.063c0.004-0.03-0.004-0.061-0.021-0.085l-0.735-1.063  c-0.012-0.017-0.027-0.031-0.046-0.04l-0.187-0.095L63.6,61.674l0.202-0.516h0.772c0.025,0,0.05-0.007,0.07-0.021l0.127-0.087  l0.673,0.286c0.023,0.01,0.05,0.013,0.071,0.008l0.674-0.125c0.03-0.006,0.057-0.022,0.076-0.046l0.207-0.265h0.736  c0.021,0,0.042-0.005,0.062-0.016l1.182-0.663l-0.049,0.398l-0.123,0.938l0.061,1.563l0.122,0.438L68.22,64.253z M69.201,52.625  l-0.368,0.5l-0.368,0.125l-0.122,0.5l-0.306,0.75l-0.49,0.688l-0.245,0.75l-0.123,0.438l0.184,0.125l0.49,0.625l-0.245,0.125  l-0.061,0.188l0.184,0.438l-0.184,0.313l0.061,0.438l0.245,0.75v0.188l0.368,0.188l0.245,0.375l-0.002,0.019l-0.09-0.159  l-1.196,0.671h-0.765c-0.038,0-0.074,0.018-0.099,0.048l-0.216,0.275l-0.59,0.109l-0.701-0.298  c-0.039-0.016-0.083-0.012-0.119,0.012l-0.151,0.104h-0.515l-0.18-0.343v-0.719c0-0.024-0.007-0.048-0.021-0.068l-0.368-0.563  c-0.028-0.044-0.08-0.063-0.136-0.053l-0.219,0.056l-0.69-0.117l-1.209-0.617c-0.012-0.006-0.025-0.01-0.039-0.012l-0.363-0.053  l-0.147-0.301l-0.066-0.32l-0.307-0.75c-0.006-0.015-0.015-0.029-0.026-0.04l-0.47-0.479l-0.093-0.287l0.146-0.198  c0.023-0.032,0.03-0.072,0.02-0.109l-0.179-0.608v-0.232h0.181c0.033,0,0.065-0.014,0.089-0.038l0.562-0.573  c0.502-0.641,0.482-0.682,0.447-0.755c-0.021-0.043-0.057-0.072-0.104-0.072c-0.034-0.007-0.169-0.068-0.301-0.133l0.029-0.145  c0.357-0.105,0.405-0.125,0.389-0.24c-0.004-0.024-0.015-0.046-0.031-0.064c-0.004-0.042-0.004-0.122-0.004-0.177  c0-0.213-0.003-0.327-0.066-0.393c-0.033-0.034-0.171-0.212-0.284-0.36c0.022-0.02,0.039-0.029,0.062-0.052h2.733l2.851,1.696v0.429  c0,0.038,0.018,0.074,0.047,0.097l1.164,0.938l0.156-0.194l-1.117-0.9v-0.44c0-0.044-0.023-0.085-0.062-0.107l-2.941-1.75  c-0.018-0.011-0.04-0.017-0.062-0.017v-0.897l0.771-1.029c0.01-0.013,0.017-0.027,0.021-0.042c0.058-0.207,0.127-0.468,0.127-0.534  c0-0.023,0-0.084-0.252-0.792c-0.005-0.013-0.013-0.026-0.021-0.037l-0.269-0.33l0.051-0.255c0.009-0.047-0.01-0.095-0.048-0.124  l-0.358-0.271l0.268-0.252l1.113,0.053l0.002,0.02l0.117-0.012l0.943,0.18c0.118,0.07,0.731,0.434,0.847,0.493  c0.088,0.045,0.218,0.045,0.355,0.045c0.063,0,0.159,0,0.163-0.007c0.109,0.113,0.554,0.163,0.58,0.163c0.045,0,0.113,0,0.439-0.336  l0.54-0.385l0.356,0.259c0.025,0.019,0.061,0.027,0.087,0.023l0.255-0.029l-0.551,0.703c-0.017,0.022-0.026,0.049-0.026,0.077v3.251  c0,0.025,0.008,0.05,0.021,0.071l0.429,0.625l0.189-0.129l-0.055,0.09L69.201,52.625z M76.676,40.936l0.061,0.563l-0.184,0.188v0.75  l-0.184,0.438l-0.245,0.625l-0.245,0.313v0.313l-0.49,0.938l-0.123,0.563l-0.797,1.313l-0.919,1.313L72.755,49l-0.735,0.438  l-1.226,1.25l-0.858,0.938l-0.123,0.313l-0.239,0.39l-0.402-0.585v-3.169l0.709-0.903l0.213-0.271l0.498-0.057  c0.021-0.002,0.04-0.009,0.057-0.021l0.713-0.485l0.708-0.121c0.027-0.004,0.053-0.018,0.071-0.038l1.049-1.133  c0.235-0.3,0.506-0.64,0.543-0.678c0.061-0.063,0.799-0.878,0.799-0.878c0.033-0.037,0.042-0.089,0.021-0.135  c-0.021-0.045-0.064-0.074-0.114-0.074l-0.902,0.001c-0.149-0.029-2.074-0.652-2.194-0.714c-0.062-0.064-0.507-0.461-0.543-0.491  l-0.508-0.633l0.156-0.425l0.168-0.37l0.116,0.099l0.674,0.563c0,0,0.49-0.063,0.552-0.063s0.368-0.313,0.368-0.313l0.613,0.063  l0.245-0.063l0.552-0.375h0.49l0.429-0.188l0.368,0.063l0.552-0.25l0.429-0.125l0.123-0.313l0.306-0.125l0.306,0.125l-0.123,0.438  L76.676,40.936z M58.163,75.068c-0.034-0.031-0.083-0.042-0.124-0.025l-0.552,0.188c-0.021,0.007-0.041,0.02-0.056,0.038  l-0.35,0.415l-0.401,0.176c-0.062,0.027-0.091,0.098-0.066,0.16c0.01,0.026,0.248,0.631,0.311,0.76  c0.081,0.165,0.391,0.233,0.521,0.255c0.007,0.001,0.014,0.002,0.021,0.002c0.052,0,0.099-0.032,0.117-0.082l0.157-0.429  c0.183-0.021,0.361-0.023,0.404-0.003c0.041,0.021,0.087,0.023,0.134,0.006c0.119-0.047,0.197-0.234,0.311-0.537  c0.027-0.071,0.063-0.168,0.07-0.181c0.023-0.024,0.041-0.071,0.04-0.105C58.697,75.659,58.694,75.55,58.163,75.068z M58.355,75.904  c-0.038,0.101-0.111,0.296-0.161,0.373c-0.165-0.04-0.441-0.007-0.563,0.011c-0.046,0.006-0.084,0.038-0.1,0.081l-0.146,0.398  c-0.113-0.029-0.217-0.07-0.236-0.098c-0.04-0.082-0.175-0.417-0.259-0.628l0.318-0.139c0.018-0.008,0.033-0.02,0.046-0.034  l0.346-0.411l0.448-0.152c0.161,0.15,0.329,0.321,0.386,0.402C58.414,75.749,58.391,75.811,58.355,75.904z"/></svg>
