<?xml version="1.0" encoding="iso-8859-1"?>
<!-- Generator: Adobe Illustrator 19.0.0, SVG Export Plug-In . SVG Version: 6.00 Build 0)  -->
<svg version="1.1" id="Capa_1" xmlns="http://www.w3.org/2000/svg" xmlns:xlink="http://www.w3.org/1999/xlink" x="0px" y="0px"
	 viewBox="0 0 510.95 510.95" style="enable-background:new 0 0 510.95 510.95;" xml:space="preserve">
<g>
	<path d="M278.27,202.405c1.646-6.703,0.317-13.935-3.842-20.916c-2.12-3.558-6.724-4.723-10.282-2.604
		c-3.558,2.121-4.724,6.724-2.604,10.282c2.13,3.574,2.857,6.824,2.161,9.659c-1.307,5.32-7.858,9.686-17.975,11.978
		c-12.067,2.735-27.246,2.145-42.738-1.661c-15.493-3.805-29.217-10.314-38.645-18.328c-7.904-6.718-11.688-13.622-10.381-18.942
		s7.858-9.686,17.975-11.978c12.066-2.734,27.244-2.145,42.738,1.662c9.985,2.452,19.492,6.138,27.494,10.659
		c3.606,2.037,8.181,0.766,10.219-2.84c2.038-3.606,0.766-8.182-2.84-10.219c-9.177-5.186-19.999-9.393-31.295-12.167
		c-17.71-4.349-35.335-4.962-49.63-1.724c-16.096,3.647-26.476,11.825-29.228,23.029c-2.751,11.204,2.658,23.26,15.233,33.949
		c11.167,9.492,27.071,17.116,44.781,21.466c10.217,2.509,20.404,3.774,29.941,3.774c6.995,0,13.642-0.681,19.69-2.051
		C265.138,221.787,275.518,213.609,278.27,202.405z"/>
	<path d="M473.851,239.847c-10.984-8.342-25.463-23.592-42.229-41.25c-6.698-7.054-13.625-14.349-21.091-22.026
		c-2.15-2.21-5.434-2.879-8.277-1.687c-10.909,4.573-28.712-0.038-43.294-11.219c-17.756-13.615-26.86-33.611-20.294-44.574
		c1.947-3.25,1.164-7.443-1.827-9.771c-14.027-10.921-27.26-20.177-40.454-28.296c-36.022-22.166-70.578-32.725-105.638-32.24
		c-30.458,0.409-61.746,8.982-98.467,26.98c-38.684,18.959-66.924,53.768-81.666,100.661
		c-12.835,40.829-14.088,88.741-3.438,131.451c9.715,38.959,36.514,69.208,81.928,92.477
		c39.215,20.093,87.611,32.848,134.414,45.184c5.005,1.319,10.001,2.636,14.975,3.958c31.467,8.368,64.912,12.688,96.345,12.688
		c15.262,0,30.053-1.019,43.907-3.088c50.637-7.562,87.331-28.293,106.115-59.955c8.345-14.066,22.77-42.37,25.611-73.896
		C513.648,289.984,500.985,260.454,473.851,239.847z M471.96,391.487c-23.257,39.199-77.869,55.752-137.496,55.75
		c-23.793-0.001-48.386-2.649-72.101-7.535c-8.828-2.827-11.944-8.107-16.629-16.068c-5.406-9.188-12.133-20.624-29.893-28.796
		c-12.023-5.533-26.986-12.419-28.991-24.058c-0.703-4.082-4.58-6.822-8.664-6.118c-4.082,0.703-6.821,4.582-6.118,8.664
		c3.344,19.418,23.086,28.504,37.502,35.138c13.486,6.207,18.222,14.255,23.235,22.776c0.285,0.485,0.573,0.974,0.865,1.465
		c-2.112-0.557-4.214-1.116-6.33-1.673C135.782,406.9,41.106,381.947,21.731,304.247c-10.001-40.106-8.837-85.056,3.193-123.324
		c3.526-11.216,8.608-23.878,15.911-36.464c12.43-16.408,30.047-20.127,48.698-24.063c11.357-2.396,23.101-4.874,34.203-10.264
		c3.727-1.809,5.281-6.296,3.472-10.022c-1.809-3.727-6.298-5.279-10.022-3.472c-9.447,4.587-19.794,6.77-30.749,9.081
		c-6.005,1.267-12.069,2.55-18.041,4.249c8.642-7.867,18.715-14.967,30.487-20.736c34.589-16.953,65.229-25.46,94.68-25.46
		c31.892,0,62.389,9.982,94.962,30.026c11.275,6.938,22.604,14.756,34.495,23.811c-5.484,17.612,5.089,41.302,26.813,57.959
		c17.319,13.28,37.564,18.789,53.202,14.82c6.184,6.399,12.029,12.555,17.709,18.538c17.925,18.878,32.083,33.79,44.035,42.867h0
		C522.389,295.543,484.84,369.777,471.96,391.487z"/>
	<path d="M332.233,341.091c-9.921-5.434-23.093-8.716-37.088-9.241c-14-0.528-27.377,1.761-37.677,6.437
		c-11.982,5.44-18.775,13.621-19.128,23.035c-0.353,9.415,5.808,18.082,17.35,24.403c9.921,5.434,23.093,8.716,37.089,9.241
		c1.316,0.049,2.627,0.074,3.93,0.074c12.555,0,24.415-2.275,33.747-6.511c11.982-5.44,18.776-13.621,19.128-23.036
		C349.936,356.08,343.775,347.413,332.233,341.091z M334.594,364.932c-0.125,3.341-3.991,7.056-10.34,9.938
		c-8.102,3.678-19.375,5.533-30.914,5.106c-11.545-0.433-22.642-3.133-30.445-7.407c-6.115-3.35-9.691-7.344-9.566-10.685
		c0.125-3.341,3.991-7.057,10.34-9.939c7.33-3.328,17.25-5.168,27.623-5.168c1.093,0,2.192,0.021,3.292,0.062
		c11.544,0.433,22.641,3.133,30.445,7.407C331.143,357.596,334.719,361.591,334.594,364.932L334.594,364.932z"/>
	<polygon points="349.583,365.494 349.583,365.494 349.583,365.494 	"/>
	<path d="M160.247,283.012c-24.627,2.946-41.896,16.055-40.168,30.491c0.926,7.743,6.927,13.977,16.897,17.555
		c5.813,2.086,12.717,3.16,20.035,3.16c3.043,0,6.158-0.186,9.296-0.561c24.627-2.946,41.896-16.054,40.169-30.491
		C204.748,288.731,184.876,280.064,160.247,283.012z M164.524,318.763c-8.293,0.992-16.488,0.328-22.482-1.823
		c-4.627-1.661-6.909-3.87-7.07-5.219c-0.301-2.514,7.268-11.448,27.057-13.815c2.826-0.338,5.441-0.487,7.85-0.487
		c14.455,0,21.445,5.375,21.703,7.53C191.882,307.462,184.313,316.396,164.524,318.763z"/>
	<path d="M403.782,280.982c2.663-6.792,1.357-14.733-3.582-21.788c-4.361-6.23-11.224-11.409-19.322-14.584
		c-18.064-7.08-36.301-2.197-41.521,11.118c-5.219,13.314,4.842,29.291,22.905,36.371c5.438,2.132,11.08,3.222,16.45,3.222
		c2.629,0,5.193-0.261,7.636-0.789C394.766,292.713,401.12,287.774,403.782,280.982L403.782,280.982z M389.817,275.508
		L389.817,275.508c-1.132,2.887-5.019,4.012-6.637,4.362c-4.511,0.975-10.141,0.343-15.443-1.736
		c-10.443-4.093-16.223-12.315-14.414-16.931c1.138-2.902,5.445-4.812,11.083-4.812c3.329,0,7.122,0.666,10.998,2.186
		c5.302,2.078,9.861,5.439,12.509,9.221C388.862,269.154,390.948,272.621,389.817,275.508z"/>
	<path d="M459.065,336.119c-9.139-9.547-27.033-6.217-41.623,7.75c-14.588,13.965-18.697,31.697-9.558,41.245
		c3.505,3.661,8.297,5.429,13.697,5.429c8.681,0,18.932-4.568,27.926-13.178C464.096,363.399,468.206,345.668,459.065,336.119
		L459.065,336.119z M439.135,366.529c-9.008,8.625-18.472,10.243-20.415,8.213c-1.943-2.03,0.086-11.413,9.095-20.037
		c6.76-6.472,13.776-8.998,17.679-8.998c1.298,0,2.251,0.279,2.736,0.786C450.173,348.523,448.143,357.905,439.135,366.529z"/>
	<path d="M75.086,251.749c12.246,0,23.304-14.665,26.237-35.387c1.334-9.427,0.711-18.673-1.754-26.038
		c-3.052-9.115-8.647-14.689-15.755-15.695c-13.082-1.855-25.297,13.296-28.402,35.234c-1.334,9.426-0.711,18.673,1.754,26.037
		c3.052,9.115,8.647,14.689,15.755,15.695C73.646,251.698,74.368,251.749,75.086,251.749z M70.264,211.966
		c2.152-15.206,9.089-22.494,11.322-22.494c0.044,0,0.087,0.003,0.127,0.008c0.601,0.085,2.28,1.568,3.632,5.606
		c1.715,5.124,2.125,12.112,1.126,19.173c-2.195,15.505-9.366,22.757-11.449,22.485c-0.601-0.085-2.28-1.567-3.632-5.606
		C69.675,226.015,69.265,219.027,70.264,211.966z"/>
	<path d="M148.883,98.626c0.953,0,1.923-0.183,2.859-0.569c6.465-2.669,18.215-3.676,24.739-0.853
		c3.8,1.644,8.217-0.104,9.862-3.905s-0.103-8.217-3.905-9.862c-10.97-4.747-26.953-3.154-36.419,0.754
		c-3.829,1.581-5.651,5.966-4.071,9.794C143.142,96.879,145.937,98.626,148.883,98.626z"/>
	<path d="M111.248,336.761c-9.433-0.997-17.762-6.198-22.851-14.272c-4.655-7.385-5.734-16.107-2.96-23.93
		c1.384-3.904-0.659-8.191-4.563-9.575c-3.902-1.383-8.191,0.658-9.575,4.563c-4.319,12.18-2.712,25.645,4.408,36.941
		c7.554,11.985,19.934,19.708,33.964,21.19c0.268,0.028,0.534,0.042,0.797,0.042c3.788,0,7.042-2.861,7.449-6.712
		C118.353,340.888,115.367,337.196,111.248,336.761z"/>
	<path d="M84.674,276.488c1.477,1.927,3.705,2.938,5.958,2.938c1.592,0,3.196-0.505,4.557-1.548
		c1.966-1.508,5.035-3.181,11.354-2.682c4.126,0.313,7.739-2.765,8.061-6.895s-2.765-7.738-6.895-8.061
		c-8.658-0.676-15.734,1.201-21.646,5.731C82.776,268.493,82.154,273.201,84.674,276.488z"/>
</g>
<g>
</g>
<g>
</g>
<g>
</g>
<g>
</g>
<g>
</g>
<g>
</g>
<g>
</g>
<g>
</g>
<g>
</g>
<g>
</g>
<g>
</g>
<g>
</g>
<g>
</g>
<g>
</g>
<g>
</g>
</svg>
