<?xml version="1.0" encoding="iso-8859-1"?>
<!-- Generator: Adobe Illustrator 19.0.0, SVG Export Plug-In . SVG Version: 6.00 Build 0)  -->
<svg version="1.1" id="Layer_1" xmlns="http://www.w3.org/2000/svg" xmlns:xlink="http://www.w3.org/1999/xlink" x="0px" y="0px"
	 viewBox="0 0 512.173 512.173" style="enable-background:new 0 0 512.173 512.173;" xml:space="preserve">
<g>
	<g>
		<g>
			<path d="M287.481,122.021c-3.336-3.337-8.738-3.337-12.075,0c-3.328,3.336-3.328,8.73,0,12.066l102.4,102.4
				c1.673,1.664,3.857,2.5,6.033,2.5c2.185,0,4.369-0.836,6.042-2.5c3.328-3.337,3.328-8.73,0-12.066L287.481,122.021z"/>
			<path d="M51.355,401.121c-4.702,0-8.482,3.823-8.482,8.533s3.857,8.533,8.576,8.533c4.71,0,8.533-3.823,8.533-8.533
				s-3.823-8.533-8.533-8.533H51.355z"/>
			<path d="M502.196,174.97c-1.527-2.628-4.343-4.25-7.39-4.25l-14.95,0.085c-30.626,0-61.517-3.405-102.639-44.527L340.49,89.628
				l17.886-17.792l30.566,30.558l-2.517,2.475c-3.354,3.302-3.405,8.713-0.102,12.066c1.673,1.698,3.883,2.551,6.084,2.551
				c2.159,0,4.326-0.819,5.982-2.449l8.653-8.508c1.63-1.596,2.543-3.772,2.552-6.05c0.008-2.278-0.888-4.463-2.5-6.067
				l-42.667-42.667c-3.328-3.32-8.721-3.328-12.049-0.017l-23.962,23.842L304.53,53.746c-2.287-2.287-5.658-3.072-8.738-2.048
				c-1.118,0.375-27.657,9.481-54.366,36.19c-26.701,26.701-35.951,53.368-36.335,54.494c-1.041,3.072-0.247,6.477,2.048,8.772
				l66.569,66.569L49.554,441.918c-1.749,1.741-2.628,1.92-2.62,1.929c-0.034-0.009-0.836-0.179-2.415-1.758l-25.762-25.762
				c-1.391-1.391-1.69-2.244-1.698-2.398c0.009-0.162,0.316-1.033,1.724-2.441l209.109-209.143c3.337-3.337,3.337-8.738,0-12.066
				c-3.336-3.337-8.73-3.337-12.066,0L6.717,399.422c-8.943,8.943-8.96,20.045-0.026,28.971l25.762,25.762
				c4.506,4.514,9.472,6.767,14.447,6.767c5.043,0,10.103-2.313,14.72-6.938l224.017-224.051
				c38.98,41.882,38.784,73.421,38.511,103.953l-0.043,7.501c0,3.063,1.647,5.888,4.301,7.415
				c0.691,0.393,17.195,9.643,42.633,9.643c23.031,0,58.308-7.834,95.642-45.158C539.103,240.865,503.732,177.633,502.196,174.97z
				 M454.606,301.221c-26.65,26.65-54.767,40.158-83.567,40.166c-13.747,0-24.286-3.26-29.833-5.461l0.009-1.886
				c0.29-32.205,0.666-72.286-49.408-122.351l-68.582-68.591c3.686-8.192,12.86-25.728,30.268-43.145
				c17.399-17.399,34.85-26.496,42.991-30.131l68.676,68.531c45.696,45.696,81.715,49.519,114.697,49.519l9.583-0.051
				C495.25,201.867,507.914,247.913,454.606,301.221z"/>
		</g>
	</g>
</g>
<g>
</g>
<g>
</g>
<g>
</g>
<g>
</g>
<g>
</g>
<g>
</g>
<g>
</g>
<g>
</g>
<g>
</g>
<g>
</g>
<g>
</g>
<g>
</g>
<g>
</g>
<g>
</g>
<g>
</g>
</svg>
