<?xml version="1.0" encoding="iso-8859-1"?>
<!-- Generator: Adobe Illustrator 19.0.0, SVG Export Plug-In . SVG Version: 6.00 Build 0)  -->
<svg version="1.1" id="Layer_1" xmlns="http://www.w3.org/2000/svg" xmlns:xlink="http://www.w3.org/1999/xlink" x="0px" y="0px"
	 viewBox="0 0 511.999 511.999" style="enable-background:new 0 0 511.999 511.999;" xml:space="preserve">
<g>
	<g>
		<path d="M508.328,222.952L380.38,132.373c-2.254-1.595-5.131-2.024-7.751-1.159c-2.621,0.866-4.675,2.926-5.533,5.55
			l-7.784,23.779c-7.536,23.027-27.382,39.315-50.853,42.573v-42.429c0-3.359-1.935-6.418-4.97-7.855
			c-3.036-1.44-6.629-0.999-9.228,1.128l-11.228,9.187c-15.662,12.814-38.398,12.816-54.062,0l-11.228-9.187
			c-2.599-2.127-6.191-2.566-9.228-1.128c-3.036,1.438-4.97,4.496-4.97,7.855v42.429c-23.47-3.258-43.315-19.547-50.853-42.573
			l-7.784-23.779c-0.859-2.624-2.913-4.684-5.534-5.55c-2.622-0.867-5.498-0.436-7.751,1.159L3.671,222.952
			c-3.458,2.448-4.647,7.031-2.818,10.851c1.83,3.82,6.15,5.764,10.221,4.605c24.744-7.048,51.413-0.136,69.596,18.037
			c9.075,9.075,15.512,20.419,18.615,32.807c0.676,2.697,2.602,4.909,5.18,5.948c2.577,1.04,5.5,0.785,7.859-0.688
			c0.952-0.595,1.911-1.168,2.881-1.724c34.309-19.642,77.82-13.809,105.815,14.184c17.428,17.429,26.554,40.604,25.694,65.256
			c-0.082,2.358,0.797,4.646,2.435,6.343c1.639,1.696,3.895,2.654,6.253,2.654h1.194c2.359,0,4.614-0.959,6.253-2.654
			c1.638-1.696,2.516-3.985,2.435-6.343c-0.86-24.653,8.264-47.828,25.694-65.256c27.994-27.993,71.508-33.826,105.816-14.184
			c0.968,0.555,1.929,1.129,2.879,1.724c2.359,1.473,5.279,1.729,7.859,0.689c2.579-1.04,4.504-3.251,5.18-5.948
			c3.103-12.388,9.541-23.732,18.614-32.806c18.185-18.173,44.852-25.084,69.599-18.039c4.074,1.161,8.392-0.785,10.221-4.605
			C512.975,229.982,511.786,225.4,508.328,222.952z M104.498,258.362c-3.327-5.099-7.186-9.866-11.534-14.214
			c-14.555-14.545-33.473-23.298-53.315-25.363l84.288-59.669L104.498,258.362z M158.71,263.853
			c-13.202,0-26.461,2.482-39.043,7.521l17.345-88.553c7.105,23.531,19.603,53.796,41.374,82.889
			C171.903,264.485,165.315,263.853,158.71,263.853z M200.949,266.104c-17.138-20.234-29.089-41.873-37.39-61.474
			c11.407,8.737,25.148,14.379,39.933,15.986C203.244,241.042,202.101,255.982,200.949,266.104z M278.684,294.679
			c-9.778,9.778-17.442,21.342-22.685,33.91c-5.241-12.569-12.905-24.133-22.683-33.91c-5.217-5.217-10.89-9.779-16.895-13.695
			c1.717-9.874,4.508-31.604,4.508-68.574v-33.527c20.864,14.995,49.276,14.996,70.141,0v33.527c0,36.972,2.791,58.701,4.508,68.575
			C289.574,284.901,283.9,289.462,278.684,294.679z M308.508,220.616c14.814-1.611,28.581-7.27,40-16.036
			c-8.3,19.597-20.266,41.25-37.456,61.528C309.899,255.985,308.756,241.043,308.508,220.616z M333.602,265.715
			c21.774-29.092,34.281-59.359,41.388-82.892l17.345,88.552C373.452,263.811,353.046,262.04,333.602,265.715z M419.034,244.15
			c-4.347,4.347-8.206,9.113-11.532,14.212l-19.439-99.247l84.288,59.669C452.512,220.851,433.589,229.604,419.034,244.15z"/>
	</g>
</g>
<g>
	<g>
		<path d="M239.774,199.162c-4.801,0-8.693,3.892-8.693,8.693v18.545c0,4.801,3.892,8.693,8.693,8.693s8.693-3.892,8.693-8.693
			v-18.545C248.467,203.055,244.575,199.162,239.774,199.162z"/>
	</g>
</g>
<g>
	<g>
		<path d="M272.228,199.162c-4.801,0-8.693,3.892-8.693,8.693v18.545c0,4.801,3.892,8.693,8.693,8.693
			c4.801,0,8.693-3.892,8.693-8.693v-18.545C280.921,203.055,277.029,199.162,272.228,199.162z"/>
	</g>
</g>
<g>
</g>
<g>
</g>
<g>
</g>
<g>
</g>
<g>
</g>
<g>
</g>
<g>
</g>
<g>
</g>
<g>
</g>
<g>
</g>
<g>
</g>
<g>
</g>
<g>
</g>
<g>
</g>
<g>
</g>
</svg>
