<?xml version="1.0" encoding="iso-8859-1"?>
<!-- Generator: Adobe Illustrator 19.0.0, SVG Export Plug-In . SVG Version: 6.00 Build 0)  -->
<svg version="1.1" id="Capa_1" xmlns="http://www.w3.org/2000/svg" xmlns:xlink="http://www.w3.org/1999/xlink" x="0px" y="0px"
	 viewBox="0 0 512.004 512.004" style="enable-background:new 0 0 512.004 512.004;" xml:space="preserve">
<g>
	<g>
		<path d="M509.283,167.948c-3.615-4.683-9.695-6.273-15.127-3.962c-49.919,21.245-85.637,6.646-95.397,1.665
			c-4.088-2.084-9.01-1.812-12.843,0.712c-24.677,16.236-42.368,13.475-49.575,11.139v-39.378c0-5.144-2.92-9.633-7.622-11.72
			c-4.698-2.084-9.988-1.237-13.802,2.213l-30.207,27.335c-0.129-0.024-0.261-0.049-0.396-0.074
			c-18.845-3.499-37.954-3.499-56.795,0c-0.136,0.025-0.267,0.05-0.396,0.074l-30.207-27.335c-3.813-3.451-9.103-4.299-13.803-2.212
			c-4.701,2.085-7.621,6.576-7.621,11.719v39.447c-7.292,2.328-24.876,4.931-49.405-11.208c-3.836-2.524-8.757-2.796-12.846-0.711
			c-9.757,4.981-45.475,19.58-95.395-1.666c-5.434-2.311-11.511-0.72-15.127,3.962c-3.625,4.694-3.628,10.995-0.007,15.679
			c16.363,21.169,37.223,55.183,43.676,97.005c0.577,3.743,2.752,7.026,5.969,9.006c3.201,1.971,7.092,2.433,10.676,1.269
			c19.172-6.239,68.039-16.369,112.656,21.843c3.34,41.347,38.031,73.977,80.223,73.977c42.128,0,76.779-32.53,80.21-73.786
			c10.066-8.647,21.036-15.4,32.67-20.045c0.829-0.331,1.659-0.65,2.485-0.958c3.882-1.442,5.86-5.756,4.42-9.639
			c-1.442-3.883-5.759-5.86-9.639-4.42c-0.94,0.349-1.884,0.712-2.826,1.089c-9.363,3.738-18.336,8.652-26.808,14.674V192.97
			c11.68,2.517,31.662,2.694,56.665-13.388c12.099,5.896,49.212,19.897,99.658,1.106c-16.212,22.297-34.861,55.255-41.563,95.2
			c-6.622-2.001-16.266-4.313-27.923-5.356c-4.093-0.372-7.767,2.674-8.136,6.8c-0.369,4.124,2.675,7.768,6.8,8.137
			c11.776,1.054,21.207,3.541,27.047,5.442c3.575,1.164,7.463,0.703,10.662-1.267c3.218-1.979,5.395-5.264,5.973-9.01
			c6.454-41.826,27.314-75.839,43.676-97.006C512.911,178.944,512.908,172.643,509.283,167.948z M255.919,371.732
			c-34.863,0-63.443-27.374-65.4-61.756c0.024-0.242,0.053-0.484,0.053-0.73v-42.38c0-4.141-3.356-7.498-7.498-7.498
			s-7.498,3.357-7.498,7.498v26.761c-19.338-13.776-41.056-21.603-64.757-23.308c-21.658-1.56-39.851,2.504-50.001,5.57
			c-6.702-39.941-25.352-72.902-41.565-95.201c50.449,18.793,87.563,4.791,99.659-1.106c25.004,16.084,44.982,15.91,56.665,13.387
			v17.616c0,4.141,3.356,7.498,7.498,7.498s7.498-3.357,7.498-7.498v-28.109c0-0.362-0.03-0.719-0.081-1.071v-38.382l29.397,26.602
			c1.847,1.671,4.418,2.31,6.835,1.719c0.012-0.003,1.141-0.279,3.534-0.723c17.026-3.163,34.293-3.163,51.319,0
			c2.39,0.444,3.521,0.72,3.521,0.72c2.429,0.608,4.996-0.036,6.85-1.715l29.397-26.602v159.623c0,0.12,0.003,0.239,0.009,0.359
			c0.053,1.099,0.079,2.178,0.079,3.209C321.434,342.341,292.044,371.732,255.919,371.732z"/>
	</g>
</g>
<g>
	<g>
		<path d="M238.917,203.088c-4.142,0-7.498,3.357-7.498,7.498v5.563c0,4.02-2.394,7.024-4.535,7.024s-4.535-3.004-4.535-7.024
			v-5.563c0-4.141-3.356-7.498-7.498-7.498s-7.498,3.357-7.498,7.498v5.563c0,12.142,8.762,22.02,19.531,22.02
			c10.769,0,19.531-9.878,19.531-22.02v-5.563C246.415,206.446,243.059,203.088,238.917,203.088z"/>
	</g>
</g>
<g>
	<g>
		<path d="M297.156,203.088c-4.142,0-7.498,3.357-7.498,7.498v5.563c0,4.02-2.394,7.024-4.535,7.024s-4.535-3.004-4.535-7.024
			v-5.563c0-4.141-3.356-7.498-7.498-7.498s-7.498,3.357-7.498,7.498v5.563c0,12.142,8.762,22.02,19.531,22.02
			c10.769,0,19.531-9.878,19.531-22.02v-5.563C304.654,206.446,301.297,203.088,297.156,203.088z"/>
	</g>
</g>
<g>
</g>
<g>
</g>
<g>
</g>
<g>
</g>
<g>
</g>
<g>
</g>
<g>
</g>
<g>
</g>
<g>
</g>
<g>
</g>
<g>
</g>
<g>
</g>
<g>
</g>
<g>
</g>
<g>
</g>
</svg>
