<?xml version="1.0" encoding="iso-8859-1"?>
<!-- Generator: Adobe Illustrator 19.0.0, SVG Export Plug-In . SVG Version: 6.00 Build 0)  -->
<svg version="1.1" id="Capa_1" xmlns="http://www.w3.org/2000/svg" xmlns:xlink="http://www.w3.org/1999/xlink" x="0px" y="0px"
	 viewBox="0 0 512 512" style="enable-background:new 0 0 512 512;" xml:space="preserve">
<g>
	<g>
		<path d="M336,16c-45.28,0-88.416,10.784-121.44,30.4c-0.064,0-0.064,0.064-0.096,0.064L54.592,142.4
			C19.392,163.52,0,192.512,0,224c0,23.712,11.36,45.696,32,64.384V480c0,8.832,7.168,16,16,16h256h0.032
			c2.688,0,5.12-0.864,7.36-2.048c0.256-0.128,0.576-0.064,0.832-0.224l160-96c0.544-0.32,0.864-0.864,1.376-1.248
			c0.896-0.672,1.696-1.376,2.432-2.24c0.672-0.768,1.184-1.6,1.664-2.464c0.512-0.896,0.96-1.76,1.28-2.752
			c0.352-1.056,0.512-2.112,0.64-3.2C479.712,385.216,480,384.64,480,384V192.384c20.64-18.688,32-40.672,32-64.384
			C512,65.216,434.688,16,336,16z M294.048,269.056c-0.256,0.192-0.352,0.48-0.576,0.704c-0.832,0.736-1.472,1.632-2.144,2.528
			c-0.576,0.8-1.216,1.536-1.632,2.4c-0.416,0.864-0.608,1.824-0.864,2.752c-0.288,1.088-0.608,2.144-0.672,3.296
			c0,0.288-0.16,0.544-0.16,0.864V464H64V281.6c0-0.32-0.16-0.576-0.16-0.864c-0.064-1.152-0.384-2.208-0.672-3.296
			c-0.256-0.928-0.448-1.888-0.864-2.752s-1.024-1.6-1.632-2.4c-0.672-0.896-1.312-1.792-2.144-2.528
			c-0.224-0.192-0.32-0.48-0.576-0.672C46.112,259.68,32,244.224,32,224c0-19.84,13.888-39.072,39.072-54.176
			C98.816,153.184,136.096,144,176,144c78.048,0,144,36.64,144,80C320,244.224,305.888,259.68,294.048,269.056z M454.048,173.056
			c-0.256,0.192-0.352,0.48-0.576,0.672c-0.832,0.736-1.472,1.632-2.144,2.528c-0.576,0.8-1.216,1.536-1.632,2.4
			c-0.416,0.864-0.608,1.792-0.864,2.752c-0.288,1.088-0.608,2.144-0.672,3.296c0,0.32-0.16,0.576-0.16,0.896v189.344l-128,76.8
			v-163.36c20.64-18.688,32-40.672,32-64.384c0-62.784-77.312-112-176-112c-3.232,0-6.304,0.448-9.504,0.576l64.48-38.688
			C259.136,57.184,296.416,48,336,48c78.048,0,144,36.64,144,80C480,148.224,465.888,163.68,454.048,173.056z"/>
	</g>
</g>
<g>
</g>
<g>
</g>
<g>
</g>
<g>
</g>
<g>
</g>
<g>
</g>
<g>
</g>
<g>
</g>
<g>
</g>
<g>
</g>
<g>
</g>
<g>
</g>
<g>
</g>
<g>
</g>
<g>
</g>
</svg>
