<?xml version="1.0" encoding="iso-8859-1"?>
<!-- Generator: Adobe Illustrator 19.0.0, SVG Export Plug-In . SVG Version: 6.00 Build 0)  -->
<svg version="1.1" id="Capa_1" xmlns="http://www.w3.org/2000/svg" xmlns:xlink="http://www.w3.org/1999/xlink" x="0px" y="0px"
	 viewBox="0 0 512 512" style="enable-background:new 0 0 512 512;" xml:space="preserve">
<g>
	<g>
		<path d="M511.928,173.459c-0.148-2.57-0.539-5.155-1.195-7.644c-4.426-17.044-19.94-29.665-38.349-29.665H39.616
			c-18.409,0-33.923,12.622-38.349,29.665C0.416,169.041,0,172.428,0,175.764v168.494c0,4.154,3.368,7.522,7.522,7.522h38.861
			c8.214,14.363,23.677,24.071,41.374,24.071s33.16-9.707,41.374-24.071h254.238c8.214,14.363,23.677,24.071,41.374,24.071
			c17.697,0,33.16-9.707,41.374-24.071h38.36c4.154,0,7.522-3.368,7.522-7.522V175.764C512,174.99,511.972,174.222,511.928,173.459z
			 M15.044,175.764c0-0.169,0.009-0.334,0.013-0.501h33.084v41.12H15.044V175.764z M87.757,360.807
			c-17.973,0-32.595-14.623-32.595-32.596s14.623-32.596,32.595-32.596s32.596,14.623,32.596,32.596S105.73,360.807,87.757,360.807z
			 M240.705,264.524h-24.572c-4.154,0-7.522,3.368-7.522,7.522s3.368,7.522,7.522,7.522h24.572v57.167H134.617
			c0.503-2.768,0.779-5.614,0.779-8.525c0-26.268-21.372-47.64-47.64-47.64c-26.268,0-47.64,21.372-47.64,47.64
			c0,2.911,0.277,5.757,0.779,8.525H15.044v-57.167h164.649c4.154,0,7.522-3.368,7.522-7.522s-3.368-7.522-7.522-7.522H15.044
			v-33.097h225.661V264.524z M95.279,216.383v-41.12h33.097v41.12H95.279z M175.514,216.383v-41.12h33.097v41.12H175.514z
			 M288.846,336.736h-33.097V175.263h33.097V336.736z M336.987,336.736H303.89V175.263h33.097V336.736z M344.509,160.219h-96.282
			c-4.154,0-7.522,3.368-7.522,7.522v48.642h-17.05v-48.642c0-4.154-3.368-7.522-7.522-7.522h-48.141
			c-4.154,0-7.522,3.368-7.522,7.522v48.642h-17.05v-48.642c0-4.154-3.368-7.522-7.522-7.522H87.757
			c-4.154,0-7.522,3.368-7.522,7.522v48.642h-17.05v-48.642c0-4.154-3.368-7.522-7.522-7.522H20.602
			c4.51-5.506,11.358-9.026,19.014-9.026h432.768c7.655,0,14.503,3.52,19.014,9.026h-34.559c-4.154,0-7.522,3.368-7.522,7.522
			v48.642h-17.05v-48.642c0-4.154-3.368-7.522-7.522-7.522h-48.141c-4.154,0-7.522,3.368-7.522,7.522v48.642h-17.05v-48.642
			C352.031,163.587,348.663,160.219,344.509,160.219z M417.222,175.263v41.12h-33.097v-41.12H417.222z M424.744,360.807
			c-17.973,0-32.596-14.623-32.596-32.596s14.623-32.596,32.596-32.596c17.973,0,32.595,14.623,32.595,32.596
			S442.717,360.807,424.744,360.807z M496.956,336.736h-25.351c0.503-2.768,0.779-5.614,0.779-8.525
			c0-26.268-21.372-47.64-47.64-47.64c-26.268,0-47.64,21.372-47.64,47.64c0,2.911,0.277,5.757,0.779,8.525h-25.853v-57.167h144.925
			V336.736z M496.956,264.524H352.031v-33.097h144.925V264.524z M496.956,216.383H464.36v-41.12h32.582
			c0.004,0.167,0.013,0.333,0.013,0.501V216.383z"/>
	</g>
</g>
<g>
	<g>
		<path d="M424.744,304.642c-12.996,0-23.569,10.573-23.569,23.569s10.573,23.569,23.569,23.569
			c12.996,0,23.569-10.573,23.569-23.569S437.74,304.642,424.744,304.642z M424.744,336.736c-4.701,0-8.525-3.824-8.525-8.525
			s3.824-8.525,8.525-8.525c4.701,0,8.525,3.824,8.525,8.525S429.445,336.736,424.744,336.736z"/>
	</g>
</g>
<g>
	<g>
		<path d="M87.757,304.642c-12.996,0-23.569,10.573-23.569,23.569s10.573,23.569,23.569,23.569
			c12.996,0,23.569-10.573,23.569-23.569S100.753,304.642,87.757,304.642z M87.757,336.736c-4.701,0-8.525-3.824-8.525-8.525
			s3.824-8.525,8.525-8.525c4.701,0,8.525,3.824,8.525,8.525S92.458,336.736,87.757,336.736z"/>
	</g>
</g>
<g>
	<g>
		<path d="M320.439,248.477h-1.003c-4.154,0-7.522,3.368-7.522,7.522c0,4.154,3.368,7.522,7.522,7.522h1.003
			c4.154,0,7.522-3.368,7.522-7.522C327.961,251.845,324.593,248.477,320.439,248.477z"/>
	</g>
</g>
<g>
	<g>
		<path d="M273.301,248.477h-1.003c-4.154,0-7.522,3.368-7.522,7.522c0,4.154,3.368,7.522,7.522,7.522h1.003
			c4.154,0,7.522-3.368,7.522-7.522C280.823,251.845,277.455,248.477,273.301,248.477z"/>
	</g>
</g>
<g>
</g>
<g>
</g>
<g>
</g>
<g>
</g>
<g>
</g>
<g>
</g>
<g>
</g>
<g>
</g>
<g>
</g>
<g>
</g>
<g>
</g>
<g>
</g>
<g>
</g>
<g>
</g>
<g>
</g>
</svg>
