<?xml version="1.0" encoding="iso-8859-1"?>
<!-- Generator: Adobe Illustrator 17.1.0, SVG Export Plug-In . SVG Version: 6.00 Build 0)  -->
<!DOCTYPE svg PUBLIC "-//W3C//DTD SVG 1.1//EN" "http://www.w3.org/Graphics/SVG/1.1/DTD/svg11.dtd">
<svg version="1.1" id="Capa_1" xmlns="http://www.w3.org/2000/svg" xmlns:xlink="http://www.w3.org/1999/xlink" x="0px" y="0px"
	 viewBox="0 0 201.989 201.989" style="enable-background:new 0 0 201.989 201.989;" xml:space="preserve">
<path d="M114.843,175.935H99.176c-0.79,0-1.534-0.374-2.006-1.008s-0.616-1.453-0.389-2.21c0.049-0.163,1.229-4.014,4.352-6.94
	c1.198-1.123,2.238-1.869,3.091-2.363c-0.251-2.016-0.324-4.656,0.642-6.265l0.506-0.843l-2.926-14.922
	c-1.398-0.988-3.358-3.127-4.523-7.661c-1.279-4.975-5.26-21.36-6.38-25.979c-1.545,2.922-4.021,7.864-4.96,11.201
	c-0.599,2.13-0.927,4.289-1.243,6.378c-0.453,2.986-0.922,6.075-2.175,9.207c-1.056,2.639-2.406,5.122-3.837,7.751
	c-1.429,2.626-2.906,5.342-4.362,8.659c-1.971,4.488-2.825,6.965-3.159,8.042c0.453,1.324,1.097,3.843,0.441,6.139
	c-0.602,2.104-1.077,3.322-1.229,3.69l-1.804,5.414c-0.341,1.021-1.296,1.71-2.372,1.71h-15c-0.784,0-1.523-0.368-1.996-0.994
	c-0.472-0.627-0.623-1.438-0.408-2.192c0.273-0.956,1.812-5.813,5.286-7.55c1.043-0.521,1.976-0.907,2.752-1.189
	c-0.109-1.148-0.097-2.555,0.296-3.929c0.644-2.251,2.222-3.563,3.349-4.24l5.229-15.991c0.034-1.346,0.249-5.728,1.572-10.87
	c1.291-5.022,3.603-8.78,4.527-10.15c0.253-1.83,1.032-7.525,1.578-12.028c0.19-1.571,0.48-2.94,0.81-4.111
	c-5.843,1.039-15.693,1.197-25.463-5.898C36.6,87.514,34.206,81.728,31.89,76.133c-0.32-0.775-0.643-1.554-0.996-2.345
	c-2.865-6.404-4.504-8.953-5.82-11.002c-0.693-1.078-1.377-1.554-1.692-1.731c-0.039-0.019-0.077-0.039-0.115-0.061
	c-0.036-0.018-0.059-0.026-0.063-0.028l-9.121-3.145c-1.103,0.175-2.624,0.59-3.233,1.138c-1.451,1.306-3.686,1.642-5.824,0.888
	c-2.604-0.921-4.436-3.201-4.899-6.102c-0.757-4.726,2.107-8.411,3.992-9.759c0.022-0.055,0.045-0.113,0.069-0.173
	c0.484-1.195,1.385-3.419,3.96-4.823c2.481-1.354,6.18-1.419,10.096-1.489c1.41-0.024,2.869-0.051,4.173-0.144
	c2.129-0.152,4.979-0.655,7.494-1.1c3.661-0.646,5.632-0.975,6.871-0.798c0.492,0.07,0.903,0.127,1.238,0.172
	c1.369-1.29,3.699-3.117,6.021-3.089c1.196,0.022,2.278,0.535,3.046,1.442c2.239,2.647,0.482,7.08-1.046,9.89
	c1.154,1.685,2.754,4.781,3.758,9.912c2.253,11.514,6.174,16.647,12.713,16.647c7.262,0,12.347-6.445,16.832-12.132
	c1.143-1.448,2.222-2.816,3.3-4.029c3.308-3.721,7.041-4.883,10.335-5.909c2.486-0.773,4.633-1.442,6.201-3.131
	c0.605-0.651,1.339-1.475,2.171-2.408c7.389-8.289,15.126-16.408,21.37-16.722c7.646-0.379,11.759,1.293,19.113,7.791
	c4.207,3.717,10.476,8.089,16.007,11.945c3.758,2.621,7.308,5.097,9.887,7.133c4.835,3.816,8.02,6.573,10.083,12.146
	c2.125,1.648,8.854,7.264,10.532,13.498c0.359,1.334-0.431,2.705-1.764,3.064c-1.332,0.355-2.705-0.431-3.064-1.764
	c-0.555-2.061-2.024-4.203-3.675-6.083c0.524,3.848,0.677,7.865,0.823,11.765c0.249,6.586,0.483,12.807,2.365,17.98
	c2.415,6.641,8.731,15.219,11.335,18.599c1.385,1.797,2.115,4.042,2.057,6.323c-0.115,4.5,0.252,12.548,0.88,15.79
	c1.526,7.874,4.514,16.234,4.544,16.317c0.218,0.606,0.193,1.273-0.068,1.862l-4.813,10.813c-0.401,0.902-1.297,1.483-2.284,1.483
	h-15.5c-1.282,0-2.356-0.97-2.487-2.245c-0.042-0.416-0.357-4.165,1.665-7.605c1.301-2.212,3.545-3.394,5.29-4.009
	c-0.185-1.583-0.353-3.673-0.209-5.263c0.208-2.294,1.301-4.232,2.111-5.386l-4.967-20.672c-0.197-0.75-0.624-1.478-1.222-2.053
	l-17.25-16.635c-0.028-0.027-0.056-0.055-0.082-0.083c-0.252,2.072-0.341,4.422-0.037,6.801c0.56,4.376,1.067,7.871,1.395,10.032
	c0.35,2.301-0.039,4.599-1.123,6.643c-1.862,3.508-5.133,10.138-6.133,15.132c-1.334,6.67,0.313,11.647,0.33,11.696
	c0.216,0.638,0.17,1.346-0.136,1.946l-5.25,10.333c-0.426,0.839-1.287,1.367-2.229,1.367h-13.667c-0.697,0-1.362-0.291-1.836-0.804
	c-0.474-0.512-0.711-1.198-0.656-1.893c0.045-0.57,0.513-5.655,3.042-8.568c1.274-1.467,2.756-2.27,4.016-2.708
	c-0.067-1.365,0.063-3.063,0.79-4.638c0.796-1.725,1.722-2.762,2.489-3.378l5.164-23.35c0.223-1.005,0.172-2.053-0.146-3.033
	l-5.52-16.94c-0.774-2.376-0.891-4.92-0.336-7.357l0.998-4.39c-3.588,2.679-8.279,5.684-12.351,6.675
	c-5.699,1.388-15.408,2.335-19.678,2.704c-0.27,3.37-0.586,10.227,0.756,14.811c1.637,5.593,4.411,16.08,4.6,23.473
	c0.1,3.882,1.624,8.452,2.736,11.789c0.708,2.124,1.177,3.527,1.258,4.583c0.196,2.549-0.662,5.562-0.761,5.896
	c-0.019,0.065-0.041,0.129-0.065,0.192l-2.5,6.5C116.805,175.298,115.877,175.935,114.843,175.935z M103.24,170.935h9.887
	l1.844-4.794c0.208-0.746,0.649-2.684,0.547-4.014c-0.041-0.463-0.581-2.083-1.016-3.386c-1.212-3.635-2.872-8.614-2.991-13.242
	c-0.181-7.081-3.138-17.882-4.4-22.196c-2.081-7.111-0.833-17.961-0.731-18.804c0.009-0.086,0.022-0.173,0.041-0.259
	c0.025-0.115,0.058-0.228,0.098-0.337c0.13-0.37,1.659-4.834,1.659-8.255c0-1.151-1.854-3.312-3.207-4.89
	c-2.028-2.364-4.126-4.809-4.126-7.511c0-1.381,1.119-2.5,2.5-2.5s2.5,1.119,2.5,2.5c0,0.851,1.758,2.899,2.921,4.255
	c2.169,2.529,4.412,5.144,4.412,8.146c0,2.122-0.432,4.446-0.89,6.315c4.636-0.431,12.641-1.288,17.36-2.438
	c5.358-1.305,13.266-7.797,15.882-10.207c0.039-0.037,0.079-0.072,0.121-0.107c0.002,0,0.002-0.002,0.006-0.004
	c0.002-0.002,0.004-0.002,0.004-0.004l8.484-6.911c-0.842-3.503-1.696-6.111-2.381-7.139c-0.766-1.149-0.455-2.701,0.693-3.467
	c1.151-0.766,2.701-0.455,3.467,0.693c2.152,3.229,3.879,11.91,4.717,16.797c0.901,5.256,2.807,11.874,3.07,12.778l2.259,5.722
	l16.859,16.258c1.257,1.212,2.156,2.745,2.6,4.433l5.262,21.898c0.195,0.813-0.028,1.669-0.596,2.282
	c-0.413,0.457-1.539,2.006-1.679,3.547c-0.163,1.805,0.289,5.131,0.477,6.261c0.111,0.666-0.053,1.35-0.453,1.894
	s-1.004,0.902-1.673,0.994c-0.788,0.116-3.259,0.774-4.102,2.208c-0.448,0.761-0.701,1.582-0.843,2.315h11.23l3.75-8.424
	c-0.852-2.482-3.105-9.352-4.413-16.101c-0.756-3.899-1.079-12.596-0.97-16.87c0.029-1.136-0.333-2.252-1.02-3.143
	c-3.41-4.428-9.515-12.905-12.073-19.941c-2.149-5.911-2.41-12.82-2.662-19.501c-0.158-4.189-0.321-8.521-0.956-12.455
	c-0.372-2.304-0.806-4.18-1.328-5.763c-0.026-0.068-0.05-0.137-0.07-0.207c-1.685-4.941-4.284-6.994-8.683-10.467
	c-2.463-1.944-5.953-4.378-9.649-6.955c-5.642-3.935-12.035-8.393-16.457-12.301c-6.76-5.973-9.684-6.832-15.553-6.543
	c-4.677,0.234-13.6,10.244-17.888,15.055c-0.858,0.963-1.615,1.812-2.239,2.483c-2.475,2.664-5.476,3.599-8.379,4.503
	c-2.932,0.913-5.7,1.775-8.085,4.457c-0.979,1.103-2.015,2.414-3.11,3.804c-4.933,6.253-11.071,14.035-20.758,14.035
	c-13.572,0-16.618-15.57-17.619-20.687c-1.277-6.525-3.554-8.788-3.576-8.811c-0.92-0.812-1.073-2.133-0.42-3.17l0,0
	c1.004-1.597,1.863-3.543,2.162-4.774c-0.711,0.466-1.611,1.225-2.284,1.961c-0.539,0.59-1.322,0.89-2.121,0.798
	c0,0-0.773-0.085-2.578-0.343c-0.639-0.052-3.329,0.425-5.295,0.772c-2.635,0.465-5.62,0.992-8.007,1.163
	c-1.438,0.103-2.964,0.13-4.44,0.155c-2.994,0.054-6.387,0.114-7.79,0.879c-1.006,0.549-1.354,1.405-1.721,2.312
	c-0.332,0.821-0.743,1.834-1.823,2.38c-0.479,0.357-2.351,2.29-1.935,4.885c0.195,1.222,0.839,1.791,1.346,2.055
	c0.573,0.297,1.044,0.245,1.15,0.192c2.116-1.913,5.827-2.354,6.549-2.423c0.353-0.033,0.713,0.009,1.052,0.125l9.639,3.323
	c0.125,0.041,0.328,0.115,0.587,0.237c2.507,0.661,6.967,1.276,8.987,0.243c1.905-0.974,2.962-5.185,3.152-6.957
	c0.147-1.372,1.373-2.36,2.752-2.219c1.373,0.146,2.366,1.379,2.219,2.752c-0.091,0.854-1.032,8.415-5.848,10.876
	c-1.739,0.889-3.934,1.136-6.015,1.086c1.313,2.181,2.759,4.879,4.826,9.501c0.373,0.834,0.713,1.655,1.052,2.474
	c2.145,5.182,4.17,10.077,15.802,18.524c8.836,6.415,17.834,5.818,22.546,4.836c-2.106-4.139-1.963-9.684-1.93-10.489
	c0.058-1.38,1.235-2.456,2.602-2.395c1.379,0.058,2.45,1.221,2.395,2.6c-0.097,2.492,0.411,8.085,2.59,9.525
	c0.016,0.01,0.031,0.02,0.046,0.03c3.762,2.422,10.644,4.786,10.912,4.878c0.037,0.013,0.075,0.026,0.112,0.041
	c0.155,0.061,0.302,0.135,0.438,0.222l2.958,1.809c0.565,0.345,0.97,0.9,1.126,1.544c0.052,0.214,5.18,21.383,6.658,27.132
	c0.94,3.655,2.375,4.708,2.702,4.906c0.982,0.187,1.467,0.898,1.663,1.902l3.333,17c0.119,0.607,0.009,1.237-0.31,1.768l-1,1.667
	c-0.21,0.541-0.078,2.859,0.305,4.707c0.155,0.75,0.134,1.521-0.358,2.107c-0.473,0.563-1.006,0.881-1.725,0.886
	c-0.287,0.106-1.267,0.545-2.821,2.003C104.044,169.902,103.609,170.421,103.24,170.935z M55.723,170.935h9.318l1.263-3.79
	c0.022-0.066,0.047-0.131,0.074-0.194c0.002-0.006,0.457-1.089,1.062-3.203c0.312-1.092-0.246-2.951-0.548-3.632
	c-0.215-0.482-0.271-1.021-0.16-1.538c0.057-0.265,0.641-2.78,3.655-9.647c1.541-3.511,3.139-6.447,4.548-9.038
	c1.417-2.604,2.641-4.854,3.587-7.22c1.038-2.596,1.444-5.27,1.874-8.101c0.34-2.238,0.691-4.554,1.374-6.98
	c1.061-3.771,3.683-9.03,5.325-12.138c-1.928-0.742-4.556-1.828-6.894-3.048c-0.452,1.155-0.946,2.819-1.211,4.996
	c-0.661,5.459-1.661,12.64-1.672,12.712c-0.058,0.419-0.222,0.815-0.476,1.154c-0.023,0.032-2.731,3.717-4.079,8.956
	c-1.396,5.427-1.421,10.001-1.421,10.047c-0.001,0.262-0.042,0.524-0.124,0.774l-5.667,17.333c-0.24,0.734-0.807,1.316-1.534,1.577
	v-0.001c0.003,0-1.145,0.474-1.438,1.501c-0.37,1.296-0.015,3.021,0.153,3.577c0.206,0.682,0.113,1.426-0.259,2.033
	c-0.371,0.608-0.983,1.034-1.685,1.162c-0.001,0-1.567,0.312-3.827,1.442C56.534,169.885,56.109,170.358,55.723,170.935z
	 M138.157,169.768h9.152l4.111-8.092c-0.531-2.101-1.431-7.055-0.195-13.231c1.124-5.618,4.629-12.746,6.618-16.494
	c0.577-1.089,0.784-2.317,0.597-3.551c-0.331-2.187-0.845-5.724-1.41-10.147c-0.879-6.886,0.946-13.316,1.689-15.559
	c-0.59-2.069-2.175-7.816-3.007-12.671c-0.13-0.758-0.265-1.503-0.401-2.231l-5.825,4.746l-2.428,10.67
	c-0.354,1.558-0.279,3.183,0.215,4.7l5.52,16.941c0.596,1.829,0.69,3.786,0.274,5.662l-5.387,24.359
	c-0.176,0.791-0.722,1.444-1.459,1.759c-0.108,0.075-0.617,0.47-1.15,1.624c-0.613,1.33-0.244,3.367-0.112,3.841
	c0.211,0.753,0.058,1.562-0.415,2.185s-1.21,0.989-1.992,0.989c-0.039,0.002-1.796,0.07-3.05,1.515
	C138.904,167.47,138.459,168.631,138.157,169.768z M30.343,47.768h-2.334c-1.381,0-2.5-1.119-2.5-2.5s1.119-2.5,2.5-2.5h2.334
	c1.381,0,2.5,1.119,2.5,2.5S31.724,47.768,30.343,47.768z"/>
<g>
</g>
<g>
</g>
<g>
</g>
<g>
</g>
<g>
</g>
<g>
</g>
<g>
</g>
<g>
</g>
<g>
</g>
<g>
</g>
<g>
</g>
<g>
</g>
<g>
</g>
<g>
</g>
<g>
</g>
</svg>
