<?xml version="1.0" encoding="iso-8859-1"?>
<!-- Generator: Adobe Illustrator 19.0.0, SVG Export Plug-In . SVG Version: 6.00 Build 0)  -->
<svg version="1.1" id="Capa_1" xmlns="http://www.w3.org/2000/svg" xmlns:xlink="http://www.w3.org/1999/xlink" x="0px" y="0px"
	 viewBox="0 0 511.999 511.999" style="enable-background:new 0 0 511.999 511.999;" xml:space="preserve">
<g>
	<g>
		<path d="M450.695,183.746c-38.365-23.412-89.217-36.306-143.188-36.306s-104.823,12.894-143.188,36.306
			c-39.532,24.125-61.304,56.598-61.304,91.439c0,13.487,3.292,26.677,9.777,39.321L11.279,358.523
			c-8.343,3.618-12.707,12.031-10.859,20.936c1.847,8.904,9.198,14.886,18.291,14.886h75.482
			c50.958,0,100.721-13.403,144.445-38.374h260.415v-35.757c8.584-14.362,12.945-29.499,12.945-45.03
			C511.999,240.344,490.227,207.871,450.695,183.746z M353.656,187.034c-3.67-7.941-7.785-14.771-12.251-20.415
			c54.038,13.124,93.847,56.821,93.847,108.566c0,12.106-2.162,23.972-6.434,35.344h-60.58c1.575-11.439,2.384-23.285,2.384-35.344
			C370.623,242.011,364.597,210.705,353.656,187.034z M246.777,310.529h-60.58c-4.273-11.373-6.434-23.238-6.434-35.344
			c0-51.745,39.809-95.442,93.847-108.566c-4.468,5.644-8.582,12.474-12.251,20.415c-10.941,23.672-16.966,54.978-16.966,88.151
			C244.393,287.244,245.203,299.089,246.777,310.529z M172.211,196.676c13.458-8.213,28.597-15.047,44.952-20.386
			c-32.052,23.445-52.547,59.068-52.547,98.894c0,12.057,1.867,23.901,5.55,35.344h-42.326c-6.424-11.402-9.676-23.273-9.676-35.344
			C118.163,245.826,137.357,217.945,172.211,196.676z M257.511,325.676c-0.999,0.732-1.992,1.467-3.001,2.186
			c-0.114,0.081-0.226,0.164-0.34,0.244c-6.831,4.853-13.891,9.402-21.133,13.616c-41.907,24.38-89.791,37.474-138.843,37.474
			H18.711c-2.502,0-3.242-1.765-3.461-2.816c-0.218-1.052-0.241-2.966,2.054-3.961l107.8-46.744L257.511,325.676L257.511,325.676z
			 M259.54,275.184c0-31.025,5.53-60.073,15.569-81.796c9.047-19.575,20.855-30.801,32.399-30.801s23.352,11.226,32.399,30.801
			c10.039,21.723,15.569,50.771,15.569,81.796c0,12.098-0.847,23.957-2.523,35.344h-90.889
			C260.388,299.143,259.54,287.282,259.54,275.184z M483.906,340.824H262.426c0.081-0.057,0.159-0.116,0.239-0.174
			c1.24-0.88,2.471-1.775,3.699-2.675c0.51-0.374,1.021-0.743,1.529-1.12c1.068-0.794,2.128-1.6,3.186-2.408
			c0.664-0.508,1.33-1.014,1.99-1.528c0.918-0.714,1.829-1.438,2.738-2.163c0.789-0.629,1.576-1.259,2.358-1.895
			c0.803-0.654,1.601-1.316,2.397-1.979c0.485-0.404,0.978-0.798,1.459-1.205h201.885V340.824z M487.175,310.529h-42.326
			c3.683-11.443,5.55-23.287,5.55-35.344c0-39.826-20.495-75.449-52.547-98.894c16.355,5.34,31.494,12.173,44.952,20.386
			c34.854,21.269,54.048,49.151,54.048,78.509C496.851,287.256,493.599,299.127,487.175,310.529z"/>
	</g>
</g>
<g>
	<g>
		<rect x="291.853" y="117.654" width="30.295" height="15.148"/>
	</g>
</g>
<g>
	<g>
		<g>
			<path d="M289.989,258.266h-15.148v0.36c0,6.831,0.337,13.102,0.592,17.224l15.118-0.931c-0.241-3.922-0.563-9.879-0.563-16.293
				V258.266z"/>
			<path d="M303.018,173.649c-16.072,18.972-25.064,41.482-27.492,68.815l15.088,1.34c2.141-24.114,9.979-43.86,23.961-60.365
				L303.018,173.649z"/>
		</g>
	</g>
</g>
<g>
	<g>
		<rect x="76.052" y="347.38" transform="matrix(0.899 -0.438 0.438 0.899 -145.5711 78.7615)" width="43.808" height="15.148"/>
	</g>
</g>
<g>
	<g>
		<rect x="169.158" y="332.749" width="15.148" height="15.148"/>
	</g>
</g>
<g>
	<g>
		<rect x="470.595" y="275.693" width="15.148" height="15.148"/>
	</g>
</g>
<g>
	<g>
		<rect x="134.318" y="249.437" width="15.148" height="15.148"/>
	</g>
</g>
<g>
</g>
<g>
</g>
<g>
</g>
<g>
</g>
<g>
</g>
<g>
</g>
<g>
</g>
<g>
</g>
<g>
</g>
<g>
</g>
<g>
</g>
<g>
</g>
<g>
</g>
<g>
</g>
<g>
</g>
</svg>
