<?xml version="1.0" encoding="iso-8859-1"?>
<!-- Generator: Adobe Illustrator 19.0.0, SVG Export Plug-In . SVG Version: 6.00 Build 0)  -->
<svg version="1.1" id="Capa_1" xmlns="http://www.w3.org/2000/svg" xmlns:xlink="http://www.w3.org/1999/xlink" x="0px" y="0px"
	 viewBox="0 0 512.002 512.002" style="enable-background:new 0 0 512.002 512.002;" xml:space="preserve">
<g>
	<g>
		<path d="M257.292,279.069c-26.002-1.589-40.802,30.208-22.752,46.165c9.09,7.071,12.319,13.612,20.987,13.612
			c8.655,0,11.884-6.524,20.871-13.51C293.546,310.174,281.389,280.513,257.292,279.069z M266.462,314.097l-10.938,9.668
			l-11.051-9.77c-6.933-6.13-0.392-20.69,11.921-19.952C266.852,294.669,273.629,307.762,266.462,314.097z"/>
	</g>
</g>
<g>
	<g>
		<path d="M504.5,298.226h-29.713c0.342-15.096-2.547-29.376-8.117-42.373l18.522-6.735c3.893-1.416,5.9-5.719,4.485-9.613
			c-1.416-3.893-5.717-5.903-9.613-4.485l-20.424,7.427c-11.765-18.764-18.486-17.76-25.878-34.32
			c-1.688-3.783-6.127-5.483-9.905-3.793c-3.783,1.688-5.481,6.122-3.794,9.905c8.391,18.801,14.964,18.619,25.083,33.479
			l-42.087,15.304c-3.893,1.416-5.9,5.719-4.485,9.613c1.417,3.894,5.72,5.9,9.613,4.485l44.304-16.11
			c5.111,11.668,7.553,24.451,7.219,37.216h-45.087c-4.143,0-7.5,3.357-7.5,7.5s3.357,7.5,7.5,7.5h43.397
			c-3.938,19.532-12.755,30.01-14.848,33.827l-34.986-12.722c-3.895-1.414-8.197,0.595-9.613,4.485
			c-1.415,3.894,0.593,8.196,4.485,9.613l32.133,11.685c-15.329,23.279-51.984,70.99-113.191,105.047
			c-41.625,23.162-91.333,23.158-132.964-0.012c-26.667-14.841-51.365-33.706-73.409-56.07c-2.908-2.952-7.657-2.983-10.607-0.077
			c-2.95,2.908-2.984,7.656-0.077,10.607c23.046,23.381,48.885,43.114,76.799,58.65c46.182,25.7,101.338,25.727,147.553,0.012
			c67.262-37.426,105.575-89.394,120.441-112.867c31.941,11.446,30.537,11.482,32.891,11.482c8.356,0,10.419-11.695,2.564-14.552
			l-27.617-10.043c8.01-11.723,13.366-25.054,15.782-39.064h31.144c4.143,0,7.5-3.357,7.5-7.5S508.642,298.226,504.5,298.226z"/>
	</g>
</g>
<g>
	<g>
		<path d="M415.648,165.058c20.412-59.54,17.96-108.861,15.91-127.518c-1.885-17.165-18.916-26.516-31.409-21.918
			c-39.118,11.76-72.319,32.863-95.752,58.213c-31.996-9.313-65.968-9.276-97.764-0.029c-25.608-27.688-60.156-47.503-95.725-58.182
			C95.933,11.096,81.2,22.054,79.5,37.54c-2.049,18.651-4.5,67.941,15.888,127.452c-16.492,30.177-13.934,43.352-31.805,61.86
			c-4.568,4.73-8.552,9.878-11.986,15.318l-19.659-7.148c-3.896-1.414-8.195,0.595-9.613,4.485
			c-1.415,3.894,0.593,8.197,4.485,9.613l17.705,6.438c-5.804,13.439-8.564,28.064-8.229,42.67H7.5c-4.143,0-7.5,3.357-7.5,7.5
			s3.357,7.5,7.5,7.5h30.232c2.387,13.876,7.677,27.342,15.935,39.34l-26.858,9.767c-3.893,1.416-5.9,5.719-4.485,9.613
			c1.417,3.894,5.72,5.9,9.613,4.485l29.608-10.767c4.457,6.979,10.948,16.419,19.564,27.165c1.481,1.848,3.659,2.809,5.856,2.809
			c6.208,0,9.81-7.25,5.847-12.192c-7.16-8.931-12.732-16.832-16.812-23.038l32.94-11.979c3.893-1.416,5.9-5.719,4.485-9.613
			c-1.416-3.893-5.716-5.905-9.613-4.485l-35.777,13.009c-2.776-5.062-11.109-14.71-15.074-34.115h44.415c4.143,0,7.5-3.357,7.5-7.5
			s-3.357-7.5-7.5-7.5h-46.14c-0.354-12.87,2.135-25.76,7.391-37.537l45.186,16.431c3.902,1.418,8.2-0.602,9.613-4.485
			c1.415-3.894-0.593-8.196-4.485-9.613l-42.864-15.587c8.734-12.638,20.236-18.801,29.51-45.83
			c8.905-25.941,23.159-49.382,42.039-68.874c82.857-85.094,218.2-59.345,269.744,49.038c1.78,3.741,6.258,5.329,9.995,3.552
			c3.741-1.779,5.331-6.254,3.553-9.995C419.26,171.84,417.491,168.423,415.648,165.058z M105.72,148.122
			C90.482,96.948,92.61,55.557,94.41,39.178c0.051-0.464,0.133-0.917,0.234-1.362c4.663,1.168,39.427,23.057,64.123,58.099
			C137.956,109.518,119.811,127.517,105.72,148.122z M171.687,88.206c-11.307-16.235-29.275-36.898-56.169-55.313
			c29.888,10.422,55.851,26.951,75.433,46.295C184.614,81.703,177.978,84.801,171.687,88.206z M320.091,79.204
			c19.425-19.195,45.342-35.813,75.45-46.312c-26.898,18.416-44.866,39.082-56.173,55.318
			C332.988,84.757,326.344,81.682,320.091,79.204z M405.323,148.176c-14.034-20.548-31.954-38.478-53.035-52.259
			c24.111-34.214,59.132-56.852,64.126-58.102c0.101,0.445,0.183,0.898,0.234,1.362C418.448,55.564,420.577,96.978,405.323,148.176z
			"/>
	</g>
</g>
<g>
	<g>
		<path d="M351.579,281.28l-10.453-15.591c-6.359-9.489-15.076-8.803-15.18-8.832c-5.885,0-11.418,3.219-15.181,8.832
			l-10.452,15.592c-2.307,3.44-1.388,8.1,2.054,10.406c3.442,2.306,8.099,1.387,10.407-2.054l10.452-15.591
			c1.919-2.863,3.52-2.865,5.44,0l10.453,15.592c2.307,3.439,6.965,4.358,10.407,2.053
			C352.966,289.38,353.885,284.72,351.579,281.28z"/>
	</g>
</g>
<g>
	<g>
		<path d="M213.265,281.13l-10.453-15.591c-6.359-9.489-15.076-8.803-15.18-8.832c-5.885,0-11.418,3.219-15.181,8.832L162,281.131
			c-2.307,3.44-1.388,8.101,2.054,10.406c3.442,2.306,8.1,1.388,10.407-2.054l10.452-15.591c1.919-2.863,3.52-2.865,5.44,0
			l10.453,15.592c2.306,3.439,6.964,4.358,10.407,2.053C214.652,289.23,215.571,284.57,213.265,281.13z"/>
	</g>
</g>
<g>
	<g>
		<g>
			<path d="M171.804,395.029C171.857,395.151,171.887,395.215,171.804,395.029L171.804,395.029z"/>
			<path d="M355.843,348.261c-19.568,6.425-42.918,6.345-63.788,6.44c-55.089,0.255-98.914,7.608-135.835-5.882
				c-15.008-5.48-28.505,11.486-20.767,26.122c53.912,101.982,189.47,98.421,240.659-0.675
				C383.504,359.952,370.595,343.421,355.843,348.261z M362.781,367.384c-46.091,89.234-166.241,91.021-214.067,0.548
				c-1.448-2.739,0.648-5.64,2.357-5.02c2.335,0.853,4.76,1.642,7.239,2.376c10.83,23.798,13.147,28.963,13.493,29.741
				c-0.103-0.236-0.293-0.679,0.078,0.075c3.609,7.477,14.075,10.121,20.969,2.166c1.918-0.045,6.548,0.567,13.497,1.21
				c4.124,0.385,7.776-2.656,8.158-6.78c0.38-4.124-2.655-7.776-6.78-8.158c-12.463-1.149-18.483-2.699-23.881,1.635l-7.178-15.774
				c34.16,5.442,65.726,0.529,115.458,0.301c15.047-0.068,29.476-0.134,43.355-1.825l-8.029,17.616
				c-10.067-6.993-9.449-0.076-71.717-0.076c-8.846,0-12.898-0.118-13.695-0.118c-4.079,0-7.423,3.27-7.496,7.366
				c-0.074,4.141,3.224,7.559,7.365,7.633c69.56,1.244,74.632-5.584,77.693-1.823c5.546,6.823,16.192,5.107,19.523-2.426
				l14.356-31.495c7.772-1.988,7.612-2.855,8.877-1.369C363.098,364.063,363.658,365.687,362.781,367.384z"/>
		</g>
	</g>
</g>
<g>
</g>
<g>
</g>
<g>
</g>
<g>
</g>
<g>
</g>
<g>
</g>
<g>
</g>
<g>
</g>
<g>
</g>
<g>
</g>
<g>
</g>
<g>
</g>
<g>
</g>
<g>
</g>
<g>
</g>
</svg>
