<?xml version="1.0" encoding="iso-8859-1"?>
<!-- Generator: Adobe Illustrator 19.0.0, SVG Export Plug-In . SVG Version: 6.00 Build 0)  -->
<svg version="1.1" id="Layer_1" xmlns="http://www.w3.org/2000/svg" xmlns:xlink="http://www.w3.org/1999/xlink" x="0px" y="0px"
	 viewBox="0 0 512 512" style="enable-background:new 0 0 512 512;" xml:space="preserve">
<g>
	<g>
		<g>
			<path d="M409.96,304.419c-16.128,0-31.966,3.807-46.218,11.056c-14.252-7.25-30.09-11.056-46.218-11.056
				c-15.642,0-31.071,3.6-45.018,10.457c-11.741-5.772-24.529-9.228-37.613-10.179c-1.469-10.498-4.567-20.745-9.175-30.283
				c6.671-13.787,10.174-29.012,10.174-44.425c0-43.62-27.521-80.919-66.104-95.488l15.36-15.36
				c6.963,2.832,14.566,4.406,22.534,4.406c33.097,0,60.023-26.927,60.023-60.023S240.779,3.501,207.682,3.501
				s-60.023,26.927-60.023,60.023c0,16.328,6.561,31.145,17.175,41.978l-22.805,22.805c-2.7-0.215-5.421-0.357-8.175-0.357
				c-3.787,0-7.523,0.224-11.205,0.628l-21.446-21.445c11.591-10.949,18.845-26.443,18.845-43.608
				c0-33.097-26.927-60.023-60.023-60.023S0,30.429,0,63.526s26.927,60.023,60.023,60.023c7.066,0,13.846-1.236,20.149-3.49
				l15.379,15.379c-37.337,15.179-63.739,51.83-63.739,94.551c0,15.412,3.502,30.635,10.17,44.417
				c-6.669,13.785-10.17,29.008-10.17,44.417c0,15.192,3.403,30.212,9.881,43.817c-6.479,13.612-9.881,28.629-9.881,43.817
				c0,56.265,45.775,102.04,102.04,102.04c16.359,0,32.404-3.912,46.818-11.364c14.416,7.451,30.459,11.364,46.818,11.364
				c15.643,0,31.072-3.6,45.018-10.457c13.947,6.857,29.375,10.457,45.018,10.457c16.131,0,31.971-3.808,46.219-11.056
				c14.252,7.25,30.089,11.056,46.217,11.056c56.265,0,102.04-45.775,102.04-102.04S466.225,304.419,409.96,304.419z
				 M207.681,27.512c19.858,0,36.014,16.156,36.014,36.014S227.539,99.54,207.681,99.54c-19.858,0-36.014-16.156-36.014-36.014
				S187.823,27.512,207.681,27.512z M77.541,94.977c-0.26,0.128-0.515,0.269-0.767,0.417c-5.007,2.642-10.705,4.146-16.75,4.146
				c-19.858,0-36.014-16.157-36.014-36.014c0-19.858,16.156-36.014,36.014-36.014s36.014,16.156,36.014,36.014
				C96.038,77.029,88.563,88.812,77.541,94.977z M133.852,151.96c43.026,0,78.03,35.004,78.03,78.03
				c0,13.503-3.509,26.81-10.149,38.488c-13.858,24.39-39.869,39.542-67.882,39.542s-54.023-15.152-67.884-39.547
				c-6.637-11.673-10.146-24.981-10.146-38.483C55.822,186.965,90.826,151.96,133.852,151.96z M58.459,298.707
				c19.123,20.937,46.435,33.324,75.393,33.324c28.966,0,56.285-12.394,75.409-33.341c1.562,5.871,2.435,11.947,2.591,18.203
				c0.022,0.64,0.03,1.281,0.03,1.932c0,13.307-3.407,26.433-9.862,37.971c-13.362,23.967-37.667,38.919-65.037,39.997
				c-1.037,0.042-2.084,0.062-3.132,0.062c-28.267,0-54.388-15.35-68.176-40.073c-6.446-11.524-9.853-24.649-9.853-37.956
				C55.822,312.008,56.72,305.24,58.459,298.707z M174.419,473.125c-12.186,7.434-26.215,11.365-40.566,11.365
				c-43.026,0-78.031-35.004-78.031-78.03c0-6.489,0.816-12.931,2.394-19.169c19.117,21.101,46.501,33.575,75.637,33.575
				c1.393,0,2.777-0.028,4.097-0.082c27.468-1.082,53.319-13.493,71.534-33.521c1.582,6.246,2.4,12.699,2.4,19.197
				C211.883,433.903,197.879,458.825,174.419,473.125z M266.496,474.05c-11.808,6.829-25.296,10.439-39.007,10.439
				c-8.096,0-16.089-1.251-23.706-3.676c20.384-19.06,32.109-45.647,32.109-74.355c0-15.188-3.402-30.205-9.881-43.817
				c5.05-10.611,8.228-22.075,9.385-33.809c10.949,1.113,21.572,4.525,31.102,10.036c24.069,13.913,39.021,39.812,39.021,67.59
				S290.568,460.136,266.496,474.05z M357.647,473.39c-0.016,0.01-0.031,0.02-0.048,0.03c-0.011,0.006-0.022,0.014-0.034,0.02
				c-12.049,7.229-25.895,11.05-40.042,11.05c-7.143-0.001-14.223-0.989-21.038-2.893c20.757-19.119,33.043-46.352,33.043-75.137
				c0-28.786-12.287-56.02-33.043-75.137c6.815-1.904,13.895-2.893,21.038-2.893c14.146,0,27.992,3.821,40.049,11.055
				c0.016,0.01,0.031,0.019,0.047,0.029c0.006,0.004,0.012,0.008,0.019,0.012c23.743,14.253,37.916,39.269,37.916,66.935
				C395.555,434.12,381.388,459.131,357.647,473.39z M409.96,484.489c-7.804,0-15.516-1.169-22.887-3.426
				c20.402-19.113,32.491-46.183,32.491-74.604c0-28.424-12.09-55.494-32.49-74.604c7.371-2.257,15.081-3.426,22.886-3.426
				c43.026,0,78.03,35.004,78.03,78.03S452.986,484.489,409.96,484.489z"/>
			<circle cx="60.023" cy="63.526" r="12.005"/>
			<circle cx="207.681" cy="63.526" r="12.005"/>
			<path d="M133.852,284.412c24.824,0,46.978-17.7,52.678-42.086c1.509-6.456-2.501-12.913-8.957-14.422
				c-6.463-1.516-12.913,2.502-14.422,8.957c-3.137,13.421-15.732,23.541-29.299,23.541s-26.162-10.121-29.299-23.541
				c-1.51-6.457-7.968-10.464-14.422-8.957c-6.456,1.509-10.466,7.966-8.957,14.422C86.874,266.712,109.028,284.412,133.852,284.412
				z"/>
		</g>
	</g>
</g>
<g>
</g>
<g>
</g>
<g>
</g>
<g>
</g>
<g>
</g>
<g>
</g>
<g>
</g>
<g>
</g>
<g>
</g>
<g>
</g>
<g>
</g>
<g>
</g>
<g>
</g>
<g>
</g>
<g>
</g>
</svg>
