<?xml version="1.0" encoding="iso-8859-1"?>
<!-- Generator: Adobe Illustrator 19.0.0, SVG Export Plug-In . SVG Version: 6.00 Build 0)  -->
<svg version="1.1" id="Layer_1" xmlns="http://www.w3.org/2000/svg" xmlns:xlink="http://www.w3.org/1999/xlink" x="0px" y="0px"
	 viewBox="0 0 300.197 300.197" style="enable-background:new 0 0 300.197 300.197;" xml:space="preserve">
<g>
	<g>
		<g>
			<path d="M297.978,67.265L232.931,2.219c-2.955-2.956-7.755-2.958-10.713,0c-9.65,9.65-201.293,201.293-210.96,210.96
				c-1.024,1.023-1.807,2.43-2.092,4.007c-0.005,0.028-0.015,0.055-0.02,0.083l-9.039,53.323c-0.066,0.388-0.101,0.779-0.106,1.173
				c-0.194,15.685,12.447,28.433,28.072,28.433c0.119,0,0.239,0,0.359-0.002c0.393-0.005,0.785-0.04,1.173-0.106l53.323-9.038
				c0.028-0.005,0.056-0.015,0.084-0.02c1.558-0.282,2.97-1.055,4.007-2.092c10.221-10.221,204.537-204.537,210.96-210.96
				C300.937,75.02,300.937,70.223,297.978,67.265z M27.721,285.041c-6.859-0.186-12.38-5.713-12.565-12.565l6.477-38.212
				l44.301,44.301L27.721,285.041z M81.663,272.869l-54.335-54.335l11.105-11.105l54.334,54.334L81.663,272.869z M103.48,251.051
				l-54.334-54.334L172.893,72.969l54.334,54.334L103.48,251.051z M237.939,116.591l-54.334-54.334l11.105-11.105
				c6.602,6.602,47.721,47.721,54.334,54.334L237.939,116.591z M259.757,94.774c-6.602-6.602-47.721-47.721-54.334-54.334
				l22.152-22.153l54.334,54.334L259.757,94.774z"/>
			<path d="M147.294,116.551l-54.566,54.566c-10.046,10.047-10.047,26.305,0,36.353c10.046,10.047,26.305,10.047,36.353,0
				l54.566-54.566c10.047-10.047,10.047-26.305,0-36.353C173.599,106.504,157.34,106.503,147.294,116.551z M172.933,142.191
				l-54.566,54.566c-4.117,4.115-10.812,4.115-14.928,0c-4.116-4.116-4.116-10.812,0-14.928l54.566-54.566
				c4.117-4.116,10.811-4.115,14.928,0C177.049,131.379,177.049,138.075,172.933,142.191z"/>
		</g>
	</g>
</g>
<g>
</g>
<g>
</g>
<g>
</g>
<g>
</g>
<g>
</g>
<g>
</g>
<g>
</g>
<g>
</g>
<g>
</g>
<g>
</g>
<g>
</g>
<g>
</g>
<g>
</g>
<g>
</g>
<g>
</g>
</svg>
