<?xml version="1.0" encoding="iso-8859-1"?>
<!-- Generator: Adobe Illustrator 19.0.0, SVG Export Plug-In . SVG Version: 6.00 Build 0)  -->
<svg version="1.1" id="Layer_1" xmlns="http://www.w3.org/2000/svg" xmlns:xlink="http://www.w3.org/1999/xlink" x="0px" y="0px"
	 viewBox="0 0 512 512" style="enable-background:new 0 0 512 512;" xml:space="preserve">
<g>
	<g>
		<g>
			<path d="M256,392.588c-23.658,0-42.189,15.056-42.189,34.279c0,19.222,18.531,34.279,42.189,34.279s42.189-15.056,42.189-34.279
				C298.189,407.644,279.658,392.588,256,392.588z M256,440.051c-12.431,0-21.095-6.949-21.095-13.184s8.664-13.184,21.095-13.184
				c12.431,0,21.095,6.949,21.095,13.184S268.431,440.051,256,440.051z"/>
			<path d="M248.525,296.076c0.968-5.744-2.903-11.185-8.647-12.154c-5.75-0.983-11.185,2.902-12.155,8.646
				c-0.815,4.837-7.029,9.841-16.013,9.841s-15.198-5.003-16.013-9.84c-0.968-5.744-6.406-9.615-12.154-8.648
				c-5.744,0.969-9.615,6.411-8.647,12.154c2.68,15.893,18.161,27.428,36.813,27.428S245.845,311.968,248.525,296.076z"/>
			<path d="M316.301,292.569c-0.815,4.837-7.028,9.84-16.013,9.84s-15.198-5.004-16.013-9.841
				c-0.968-5.743-6.411-9.615-12.155-8.646c-5.744,0.968-9.615,6.41-8.647,12.154c2.68,15.892,18.162,27.427,36.814,27.427
				c18.652,0,34.134-11.536,36.813-27.428c0.968-5.743-2.903-11.184-8.647-12.154C322.706,282.955,317.269,286.824,316.301,292.569z
				"/>
			<path d="M511.376,122.525c-3.422-17.107-20.122-28.247-37.233-24.822c-5.333,1.067-10.504,2.215-15.479,3.435
				c0.04-25.497-6.224-51.496-18.693-77.499c-7.544-15.733-26.48-22.395-42.213-14.851c-15.732,7.544-22.393,26.481-14.849,42.212
				c18.383,38.334,16.09,74.436-6.815,107.305c-13.168,18.896-29.883,32.113-38.521,38.221
				c-21.45-21.118-50.117-34.047-81.574-34.047c-31.454,0-60.122,12.928-81.571,34.046c-8.67-6.13-25.366-19.339-38.523-38.22
				C113,125.437,110.707,89.334,129.09,51.001c7.544-15.731,0.883-34.668-14.849-42.212C98.507,1.244,79.572,7.907,72.028,23.638
				C59.56,49.642,53.296,75.642,53.337,101.137c-4.975-1.22-10.146-2.369-15.48-3.435c-17.102-3.419-33.809,7.714-37.232,24.822
				c-1.658,8.287,0.012,16.724,4.7,23.757c4.688,7.032,11.835,11.817,20.122,13.474c27.004,5.401,40.68,11.492,46.29,14.533
				c3.366,6.46,7.216,12.813,11.441,18.979c-25.319,10.819-42.811,39.655-43.706,41.152c-1.988,3.33-1.988,7.483,0,10.813
				c1.102,1.846,27.399,45.22,62.496,45.22c12.203,0,23.924-2.684,34.017-7.673c-0.141,2.54-0.223,5.096-0.223,7.673
				c0,25.64,7.101,50.382,20.537,71.549c7.534,11.871,11.495,26.171,11.457,41.378v0.281c0,56.607,39.587,102.66,88.246,102.66
				c48.659,0,88.245-46.052,88.245-102.66v-0.307c-0.039-15.182,3.924-29.481,11.458-41.352
				c13.435-21.167,20.537-45.909,20.537-71.549c0-2.577-0.08-5.134-0.223-7.673c10.093,4.989,21.814,7.673,34.017,7.673
				c35.097,0,61.393-43.375,62.496-45.22c1.988-3.33,1.988-7.483,0-10.813c-0.894-1.498-18.387-30.332-43.706-41.152
				c4.224-6.166,8.075-12.52,11.441-18.979c5.609-3.042,19.286-9.132,46.289-14.533c8.287-1.657,15.434-6.442,20.122-13.474
				C511.364,139.249,513.034,130.812,511.376,122.525z M101.967,269.36c-16.246,0-32.616-18.086-40.799-29.532
				c7.307-10.221,21.145-25.728,35.592-28.931c17.232,19.978,35.335,33.47,44.889,39.898
				C135.178,261.557,119.621,269.36,101.967,269.36z M149.682,230.742c-11.358-8.035-31.047-23.891-47.482-47.026
				c-4.964-6.988-9.346-14.277-13.026-21.665c-0.853-1.714-2.157-3.163-3.772-4.193c-6.51-4.148-22.416-12.105-55.819-18.787
				c-2.762-0.553-5.144-2.147-6.707-4.492c-1.562-2.345-2.119-5.157-1.566-7.919c1.141-5.702,6.709-9.412,12.411-8.274
				c10.018,2.004,19.39,4.3,27.856,6.826c3.37,1.005,7.019,0.265,9.731-1.976c2.712-2.239,4.129-5.683,3.779-9.181
				c-2.637-26.354,2.735-53.707,15.964-81.297c2.515-5.244,8.827-7.463,14.07-4.95c5.244,2.516,7.464,8.827,4.95,14.071
				C88.16,87.574,91.03,130.804,118.6,170.365c14.208,20.391,31.662,34.752,42.033,42.247
				C156.526,218.3,152.857,224.361,149.682,230.742z M337.892,350.7c-9.693,15.271-14.79,33.498-14.742,52.682v0.281
				c0,44.976-30.124,81.565-67.15,81.565c-37.026,0-67.151-36.59-67.151-81.565v-0.253c0.049-19.211-5.049-37.436-14.742-52.709
				c-11.286-17.783-17.251-38.616-17.251-60.246c0-58.933,44.476-106.879,99.144-106.879s99.144,47.946,99.144,106.879
				C355.144,312.084,349.179,332.917,337.892,350.7z M450.832,239.828c-8.183,11.447-24.553,29.532-40.799,29.532
				c-17.655,0-33.211-7.802-39.682-18.565c9.554-6.43,27.658-19.922,44.889-39.898C429.687,214.1,443.525,229.605,450.832,239.828z
				 M489.124,134.58c-1.563,2.345-3.945,3.938-6.708,4.492c-33.402,6.682-49.308,14.639-55.818,18.788
				c-1.615,1.029-2.918,2.479-3.772,4.193c-3.68,7.388-8.062,14.678-13.026,21.665c-16.435,23.134-36.122,38.99-47.482,47.026
				c-3.176-6.38-6.844-12.442-10.95-18.128c10.352-7.483,27.817-21.852,42.032-42.25c27.569-39.563,30.439-82.792,8.527-128.486
				c-2.515-5.244-0.294-11.556,4.95-14.071c1.467-0.702,3.017-1.036,4.544-1.036c3.933,0,7.715,2.21,9.527,5.988
				c13.229,27.59,18.601,54.942,15.964,81.296c-0.35,3.499,1.066,6.942,3.779,9.181c2.712,2.24,6.36,2.98,9.731,1.975
				c8.466-2.526,17.839-4.821,27.854-6.826c5.704-1.139,11.272,2.571,12.413,8.274C491.243,129.424,490.687,132.236,489.124,134.58z
				"/>
		</g>
	</g>
</g>
<g>
</g>
<g>
</g>
<g>
</g>
<g>
</g>
<g>
</g>
<g>
</g>
<g>
</g>
<g>
</g>
<g>
</g>
<g>
</g>
<g>
</g>
<g>
</g>
<g>
</g>
<g>
</g>
<g>
</g>
</svg>
