<?xml version="1.0" encoding="iso-8859-1"?>
<!-- Generator: Adobe Illustrator 16.0.0, SVG Export Plug-In . SVG Version: 6.00 Build 0)  -->
<!DOCTYPE svg PUBLIC "-//W3C//DTD SVG 1.1//EN" "http://www.w3.org/Graphics/SVG/1.1/DTD/svg11.dtd">
<svg version="1.1" id="Capa_1" xmlns="http://www.w3.org/2000/svg" xmlns:xlink="http://www.w3.org/1999/xlink" x="0px" y="0px"
	 width="369.949px" height="369.949px" viewBox="0 0 369.949 369.949" style="enable-background:new 0 0 369.949 369.949;"
	 xml:space="preserve">
<g>
	<path d="M184.975,0C82.824,0,0.003,82.818,0.003,184.972s82.821,184.978,184.972,184.978c102.153,0,184.972-82.824,184.972-184.978
		C369.946,82.812,287.135,0,184.975,0z M288.077,139.365c0,7.354-5.969,13.331-13.331,13.331c-7.367,0-13.33-5.978-13.33-13.331
		V127.56l-55.515,55.5l27.418,27.396c1.321,1.333,2.288,2.883,2.948,4.528l24.368,24.367v-14.946c0-7.362,5.956-13.331,13.33-13.331
		c7.362,0,13.331,5.969,13.331,13.331v60.469h-57.322c-7.368,0-13.343-5.976-13.343-13.331c0-7.361,5.975-13.33,13.343-13.33h11.812
		l-55.508-55.515l-27.392,27.399c-1.342,1.327-2.885,2.301-4.533,2.949L129.98,257.42h14.961c7.365,0,13.331,5.969,13.331,13.33
		c0,7.356-5.966,13.331-13.331,13.331H84.467V226.76c0-7.356,5.975-13.337,13.336-13.337c7.365,0,13.331,5.98,13.331,13.337v11.811
		l55.511-55.505l-27.406-27.4c-1.321-1.327-2.294-2.871-2.945-4.519l-24.374-24.374v14.958c0,7.362-5.959,13.331-13.331,13.331
		c-7.368,0-13.331-5.969-13.331-13.331V81.263h57.325c7.362,0,13.331,5.972,13.331,13.331c0,7.362-5.969,13.331-13.331,13.331
		h-11.812l55.506,55.502l27.388-27.388c1.345-1.327,2.882-2.3,4.533-2.951l24.367-24.368h-14.958c-7.367,0-13.33-5.978-13.33-13.336
		c0-7.356,5.963-13.334,13.33-13.334h60.469V139.365z"/>
</g>
<g>
</g>
<g>
</g>
<g>
</g>
<g>
</g>
<g>
</g>
<g>
</g>
<g>
</g>
<g>
</g>
<g>
</g>
<g>
</g>
<g>
</g>
<g>
</g>
<g>
</g>
<g>
</g>
<g>
</g>
</svg>
