<?xml version="1.0" encoding="iso-8859-1"?>
<!-- Generator: Adobe Illustrator 19.0.0, SVG Export Plug-In . SVG Version: 6.00 Build 0)  -->
<svg version="1.1" id="Capa_1" xmlns="http://www.w3.org/2000/svg" xmlns:xlink="http://www.w3.org/1999/xlink" x="0px" y="0px"
	 viewBox="0 0 463 463" style="enable-background:new 0 0 463 463;" xml:space="preserve">
<g>
	<path d="M461.931,115.641l-24-40C436.576,73.382,434.134,72,431.5,72s-5.076,1.382-6.431,3.641l-24,40
		c-0.699,1.166-1.069,2.5-1.069,3.859V152h-17v-32.5c0-1.359-0.37-2.693-1.069-3.859l-24-40C356.576,73.382,354.134,72,351.5,72
		s-5.076,1.382-6.431,3.641l-24,40c-0.699,1.166-1.069,2.5-1.069,3.859V152h-17v-32.5c0-1.359-0.37-2.693-1.069-3.859l-24-40
		C276.576,73.382,274.134,72,271.5,72s-5.076,1.382-6.431,3.641l-24,40c-0.699,1.166-1.069,2.5-1.069,3.859V152h-17v-32.5
		c0-1.359-0.37-2.693-1.069-3.859l-24-40C196.576,73.382,194.134,72,191.5,72s-5.076,1.382-6.431,3.641l-24,40
		c-0.699,1.166-1.069,2.5-1.069,3.859V152h-17v-32.5c0-1.359-0.37-2.693-1.069-3.859l-24-40C116.576,73.382,114.134,72,111.5,72
		s-5.076,1.382-6.431,3.641l-24,40C80.37,116.807,80,118.141,80,119.5V152H63v-32.5c0-1.359-0.37-2.693-1.069-3.859l-24-40
		C36.576,73.382,34.134,72,31.5,72s-5.076,1.382-6.431,3.641l-24,40C0.37,116.807,0,118.141,0,119.5v264c0,4.142,3.358,7.5,7.5,7.5
		h48c4.142,0,7.5-3.358,7.5-7.5V343h17v40.5c0,4.142,3.358,7.5,7.5,7.5h48c4.142,0,7.5-3.358,7.5-7.5V343h17v40.5
		c0,4.142,3.358,7.5,7.5,7.5h48c4.142,0,7.5-3.358,7.5-7.5V343h17v40.5c0,4.142,3.358,7.5,7.5,7.5h48c4.142,0,7.5-3.358,7.5-7.5V343
		h17v40.5c0,4.142,3.358,7.5,7.5,7.5h48c4.142,0,7.5-3.358,7.5-7.5V343h17v40.5c0,4.142,3.358,7.5,7.5,7.5h48
		c4.142,0,7.5-3.358,7.5-7.5v-264C463,118.141,462.63,116.807,461.931,115.641z M383,199h17v97h-17V199z M400,167v17h-17v-17H400z
		 M303,199h17v97h-17V199z M320,167v17h-17v-17H320z M223,199h17v97h-17V199z M240,167v17h-17v-17H240z M143,199h17v97h-17V199z
		 M160,167v17h-17v-17H160z M63,199h17v97H63V199z M80,167v17H63v-17H80z M48,376H15V121.578l16.5-27.5l16.5,27.5V376z M63,328v-17
		h17v17H63z M128,376H95V121.578l16.5-27.5l16.5,27.5V376z M143,328v-17h17v17H143z M208,376h-33V121.578l16.5-27.5l16.5,27.5V376z
		 M223,328v-17h17v17H223z M288,376h-33V121.578l16.5-27.5l16.5,27.5V376z M303,328v-17h17v17H303z M368,376h-33V121.578l16.5-27.5
		l16.5,27.5V376z M383,328v-17h17v17H383z M448,376h-33V121.578l16.5-27.5l16.5,27.5V376z"/>
	<path d="M31.5,160c-4.142,0-7.5,3.358-7.5,7.5v16c0,4.142,3.358,7.5,7.5,7.5s7.5-3.358,7.5-7.5v-16C39,163.358,35.642,160,31.5,160
		z"/>
	<path d="M111.5,160c-4.142,0-7.5,3.358-7.5,7.5v16c0,4.142,3.358,7.5,7.5,7.5s7.5-3.358,7.5-7.5v-16
		C119,163.358,115.642,160,111.5,160z"/>
	<path d="M191.5,160c-4.142,0-7.5,3.358-7.5,7.5v16c0,4.142,3.358,7.5,7.5,7.5s7.5-3.358,7.5-7.5v-16
		C199,163.358,195.642,160,191.5,160z"/>
	<path d="M271.5,160c-4.142,0-7.5,3.358-7.5,7.5v16c0,4.142,3.358,7.5,7.5,7.5s7.5-3.358,7.5-7.5v-16
		C279,163.358,275.642,160,271.5,160z"/>
	<path d="M351.5,160c-4.142,0-7.5,3.358-7.5,7.5v16c0,4.142,3.358,7.5,7.5,7.5s7.5-3.358,7.5-7.5v-16
		C359,163.358,355.642,160,351.5,160z"/>
	<path d="M424,167.5v16c0,4.142,3.358,7.5,7.5,7.5s7.5-3.358,7.5-7.5v-16c0-4.142-3.358-7.5-7.5-7.5S424,163.358,424,167.5z"/>
	<path d="M31.5,304c-4.142,0-7.5,3.358-7.5,7.5v16c0,4.142,3.358,7.5,7.5,7.5s7.5-3.358,7.5-7.5v-16C39,307.358,35.642,304,31.5,304
		z"/>
	<path d="M111.5,304c-4.142,0-7.5,3.358-7.5,7.5v16c0,4.142,3.358,7.5,7.5,7.5s7.5-3.358,7.5-7.5v-16
		C119,307.358,115.642,304,111.5,304z"/>
	<path d="M191.5,304c-4.142,0-7.5,3.358-7.5,7.5v16c0,4.142,3.358,7.5,7.5,7.5s7.5-3.358,7.5-7.5v-16
		C199,307.358,195.642,304,191.5,304z"/>
	<path d="M271.5,304c-4.142,0-7.5,3.358-7.5,7.5v16c0,4.142,3.358,7.5,7.5,7.5s7.5-3.358,7.5-7.5v-16
		C279,307.358,275.642,304,271.5,304z"/>
	<path d="M351.5,304c-4.142,0-7.5,3.358-7.5,7.5v16c0,4.142,3.358,7.5,7.5,7.5s7.5-3.358,7.5-7.5v-16
		C359,307.358,355.642,304,351.5,304z"/>
	<path d="M431.5,304c-4.142,0-7.5,3.358-7.5,7.5v16c0,4.142,3.358,7.5,7.5,7.5s7.5-3.358,7.5-7.5v-16
		C439,307.358,435.642,304,431.5,304z"/>
</g>
<g>
</g>
<g>
</g>
<g>
</g>
<g>
</g>
<g>
</g>
<g>
</g>
<g>
</g>
<g>
</g>
<g>
</g>
<g>
</g>
<g>
</g>
<g>
</g>
<g>
</g>
<g>
</g>
<g>
</g>
</svg>
