<?xml version="1.0" encoding="iso-8859-1"?>
<!-- Generator: Adobe Illustrator 19.0.0, SVG Export Plug-In . SVG Version: 6.00 Build 0)  -->
<svg version="1.1" id="Capa_1" xmlns="http://www.w3.org/2000/svg" xmlns:xlink="http://www.w3.org/1999/xlink" x="0px" y="0px"
	 viewBox="0 0 512.001 512.001" style="enable-background:new 0 0 512.001 512.001;" xml:space="preserve">
<g>
	<g>
		<path d="M402.734,231.565c3.188-4.537,2.095-10.798-2.442-13.987c-4.537-3.187-10.799-2.094-13.987,2.442
			c-13.954,19.858-13.956,47.595,0,67.453c1.955,2.78,5.065,4.268,8.223,4.268c1.994,0,4.008-0.593,5.763-1.826
			c4.537-3.188,5.629-9.45,2.442-13.987C393.702,263.075,393.702,244.417,402.734,231.565z"/>
	</g>
</g>
<g>
	<g>
		<path d="M370.8,231.565c3.188-4.537,2.095-10.798-2.442-13.987c-4.538-3.187-10.798-2.094-13.987,2.442
			c-13.954,19.858-13.955,47.595,0,67.453c1.954,2.78,5.064,4.268,8.223,4.268c1.994,0,4.008-0.593,5.763-1.826
			c4.537-3.188,5.629-9.45,2.442-13.987C361.767,263.075,361.767,244.417,370.8,231.565z"/>
	</g>
</g>
<g>
	<g>
		<path d="M510.94,228.768c-8.6-17.187-25.331-33.373-48.386-46.809c-20.45-11.916-44.678-20.879-70.659-26.205
			c3.204-16.453-1.974-35.062-2.74-37.665c-2.656-9.034-9.19-16.217-17.924-19.707c-8.606-3.439-18.124-2.759-26.116,1.865
			c-9.186,5.324-24.032,11.669-42.593,11.669c-28.34,0-52.784,8.924-72.656,26.524c-11.3,10.009-20.786,22.512-28.923,38.122
			c-56.974,20.203-99.969,45.881-120.782,59.579c-2.401-16.552-8.201-31.837-16.92-44.19c-12.472-17.669-29.395-27.399-47.65-27.399
			c-2.25,0-4.577,0.163-6.918,0.484c-3.197,0.44-5.987,2.388-7.501,5.238c-1.513,2.85-1.564,6.253-0.137,9.148
			c9.378,19.017,14.757,46.062,14.757,74.197c0,28.142-5.378,55.191-14.757,74.208c-1.427,2.896-1.377,6.301,0.136,9.15
			c1.513,2.85,4.304,4.799,7.501,5.238c2.293,0.314,4.621,0.475,6.918,0.475c18.256,0,35.178-9.729,47.649-27.395
			c8.682-12.298,14.465-27.505,16.887-43.977c19.015,12.517,56.606,35.071,106.506,54.31l-15.65,27.002
			c-3.185,5.506-2.968,12.219,0.568,17.518c3.111,4.662,8.224,7.366,13.703,7.365c0.725,0,1.457-0.047,2.192-0.144
			c32.233-4.237,51.136-22.553,59.209-32.502c13.87,3.538,27.811,6.459,41.535,8.694c12.089,1.967,24.289,3.173,36.404,3.623
			c-0.848,4.85-1.71,10.694-2.22,16.679c-0.765,8.968-3.089,36.255,15.352,41.31c1.515,0.416,3.001,0.612,4.461,0.612
			c14.024-0.001,25.504-18.186,34.136-34.634c5.829-11.105,10.706-22.515,13.344-28.977c50.603-9.953,94.388-33.924,115.138-63.285
			c1.879-2.657,2.352-6.062,1.27-9.133c-1.081-3.07-3.585-5.423-6.715-6.317l-24.503-6.984l33.174-25.201
			C511.879,238.333,513.1,233.088,510.94,228.768z M46.837,303.713c-6.084,8.618-13.413,14.497-21.27,17.201
			c6.697-19.486,10.303-42.766,10.303-67.295c0-24.528-3.607-47.809-10.306-67.295c7.857,2.705,15.188,8.586,21.273,17.205
			c9.353,13.249,14.503,31.038,14.503,50.09C61.339,272.675,56.189,290.467,46.837,303.713z M302.521,131.996
			c18.222,0,36.431-4.97,52.655-14.371c3.588-2.075,6.93-1.265,8.604-0.596c2.977,1.19,5.203,3.64,6.112,6.729
			c2.634,8.947,3.82,20.862,2.18,28.694c-27.555-3.59-55.731-3.108-83.883,1.47c-18.942,3.084-38.168,7.448-57.422,13.026
			C248.768,143.732,272.813,131.996,302.521,131.996z M192.147,356.151l13.644-23.541c6.413,2.207,12.837,4.288,19.239,6.225
			C218.31,345.151,207.584,352.624,192.147,356.151z M360.465,368.082c-8.791,17.492-14.592,24.044-17.32,26.414
			c-0.861-2.74-1.905-9.095-0.41-22.539c0.611-5.491,1.498-10.728,2.267-14.738c7.14-0.235,14.257-0.725,21.31-1.489
			C364.596,359.563,362.621,363.793,360.465,368.082z M446.725,262.613c-3.029,2.3-4.497,6.114-3.793,9.85
			c0.703,3.738,3.456,6.755,7.114,7.799l28.827,8.218c-21.223,21.081-57.303,37.809-98.206,44.953
			c-0.042,0.007-0.082,0.02-0.124,0.028c-14.265,2.487-28.984,3.782-43.767,3.847c-15.033,0.103-30.276-1.109-45.361-3.564
			c-15.26-2.485-30.81-5.853-46.222-10.014c-13.371-3.608-26.999-7.912-40.504-12.79c-54.22-19.596-95.586-44.606-114.668-57.202
			c19.823-13.095,63.72-39.593,121.339-59.551c0.055-0.019,0.105-0.045,0.16-0.064c26.74-9.248,53.62-16.107,79.895-20.385
			c28.713-4.669,57.431-4.783,85.359-0.335c28.07,4.456,54.235,13.414,75.669,25.905c16.004,9.326,28.607,20.256,36.317,31.374
			L446.725,262.613z"/>
	</g>
</g>
<g>
	<g>
		<path d="M305.941,210.316c-0.363-5.533-5.145-9.726-10.676-9.36c-1.073,0.07-26.581,1.798-52.542,8.095
			c-38.822,9.417-58.505,24.411-58.505,44.569c0,16.078,21.093,22.108,28.025,24.09c10.803,3.089,25.173,5.583,42.713,7.41
			c0.353,0.036,0.705,0.055,1.052,0.055c5.077,0,9.435-3.839,9.973-9c0.574-5.515-3.43-10.451-8.945-11.025
			c-40.563-4.227-50.663-10.823-52.676-12.564c2.076-16.778,54.308-29.086,92.224-31.594
			C302.116,220.627,306.305,215.847,305.941,210.316z"/>
	</g>
</g>
<g>
	<g>
		<path d="M439.717,213.49c-12.919,0-12.942,20.078,0,20.078C452.636,233.568,452.657,213.49,439.717,213.49z"/>
	</g>
</g>
<g>
	<g>
		<path d="M287.121,267.032c-12.919,0-12.941,20.078,0,20.078C300.04,287.111,300.061,267.032,287.121,267.032z"/>
	</g>
</g>
<g>
</g>
<g>
</g>
<g>
</g>
<g>
</g>
<g>
</g>
<g>
</g>
<g>
</g>
<g>
</g>
<g>
</g>
<g>
</g>
<g>
</g>
<g>
</g>
<g>
</g>
<g>
</g>
<g>
</g>
</svg>
