<?xml version="1.0" encoding="iso-8859-1"?>
<!-- Generator: Adobe Illustrator 19.0.0, SVG Export Plug-In . SVG Version: 6.00 Build 0)  -->
<svg version="1.1" id="Layer_1" xmlns="http://www.w3.org/2000/svg" xmlns:xlink="http://www.w3.org/1999/xlink" x="0px" y="0px"
	 viewBox="0 0 511.999 511.999" style="enable-background:new 0 0 511.999 511.999;" xml:space="preserve">
<g>
	<g>
		<path d="M383.166,134.203l-1.359-3.325c-2.239-5.48-8.496-8.105-13.974-5.868c-5.48,2.239-8.106,8.495-5.869,13.975l1.359,3.325
			c1.696,4.153,5.7,6.667,9.925,6.667c1.35,0,2.723-0.257,4.049-0.799C382.777,145.941,385.404,139.684,383.166,134.203z"/>
	</g>
</g>
<g>
	<g>
		<path d="M350.286,28.013c-5.919,0-10.717,4.798-10.717,10.717v2.679c0,5.918,4.798,10.717,10.717,10.717
			c5.919,0,10.717-4.799,10.717-10.717V38.73C361.003,32.811,356.205,28.013,350.286,28.013z"/>
	</g>
</g>
<g>
	<g>
		<path d="M460.209,34.19c-7.894-6.971-18.879-12.547-32.649-16.572c-0.15-0.044-0.301-0.085-0.452-0.122l-22.581-5.541
			c-0.025-0.005-0.05-0.008-0.076-0.014c-0.031-0.008-0.059-0.019-0.09-0.026l-36.892-8.431c-24.066-8.696-51.14-0.73-66.078,19.548
			c-0.407,0.556-0.803,1.111-1.245,1.748c-11.472,16.78-13.922,38.105-6.553,57.045c0.03,0.076,0.061,0.153,0.092,0.228
			l62.439,150.202c2.598,6.78,1.708,14.078-2.455,20.055c-4.016,5.782-10.85,9.233-18.28,9.233h-7.064
			c-2.316-17.909-10.424-34.466-23.403-47.445c-15.535-15.535-36.194-24.091-58.173-24.091h-35.184
			c-50.018,0-94.721,30.235-113.602,75.983H82.641c-25.694,0-46.597,20.909-46.597,46.608v0.354c0,5.918,4.798,10.717,10.717,10.717
			h52.61h39.921h31.347h21.459c2.906,10.888,10.131,20.026,19.719,25.47l-57.694,57.693c-3.065,3.065-3.982,7.674-2.323,11.679
			c1.659,4.005,5.566,6.616,9.901,6.616h59.865v76.155c0,5.919,4.798,10.717,10.717,10.717c5.919,0,10.717-4.798,10.717-10.717
			v-76.155h40.336l20.953,20.953c2.093,2.093,4.836,3.14,7.578,3.139c2.742,0,5.486-1.047,7.578-3.139
			c4.185-4.185,4.185-10.97,0-15.156l-24.092-24.092c-2.009-2.009-4.736-3.139-7.578-3.139h-44.775v-50.554
			c14.339-3.826,25.651-15.133,29.479-29.469h63.501c27.638,0,53.461-13.622,69.076-36.443c15.606-22.82,18.941-51.825,8.923-77.59
			c-0.023-0.057-0.045-0.113-0.068-0.168l-21.115-51.693c-2.238-5.48-8.494-8.106-13.974-5.869
			c-5.48,2.238-8.106,8.494-5.869,13.974l21.079,51.607c7.415,19.147,4.923,40.688-6.668,57.639
			c-11.616,16.976-30.825,27.111-51.385,27.111h-51.33c5.772-8.112,9.437-18.075,9.437-29.107c0-13.112-5.317-25.771-14.977-35.652
			c-9.259-9.456-21.16-14.879-32.649-14.879h-6.098c-39.017,0-69.734,3.868-93.025,11.754c17.716-14.471,40.229-22.91,64.228-22.91
			h35.184c16.253,0,31.529,6.326,43.017,17.813c11.487,11.486,17.813,26.759,17.813,43.006c0,5.919,4.798,10.717,10.717,10.717
			h17.094c14.449,0,27.864-6.893,35.876-18.427c8.326-11.953,10.073-26.593,4.796-40.167c-0.03-0.076-0.061-0.153-0.092-0.229
			L313.527,73.95c-4.752-12.317-3.142-26.167,4.265-37c0.29-0.419,0.581-0.827,0.869-1.22c9.408-12.772,26.668-17.674,41.977-11.918
			c0.451,0.169,0.914,0.309,1.385,0.417l29.234,6.68V57.87h-31.39c-6.978,0-13.246,3.302-17.187,9.045
			c-3.974,5.772-4.789,12.834-2.239,19.37c0.02,0.053,0.042,0.106,0.063,0.158l9.932,24.315c1.697,4.153,5.7,6.667,9.925,6.667
			c1.35,0,2.722-0.257,4.049-0.799c5.479-2.238,8.106-8.494,5.869-13.974l-9.537-23.349h41.234h17.608
			c1.241,0,2.251,1.01,2.251,2.252v13.15c0,5.919,4.798,10.717,10.717,10.717h7.052c20.045,0,36.352-16.307,36.352-36.352v-0.482
			C475.954,54.989,470.657,43.417,460.209,34.19z M89.133,302.238H59.709c3.957-8.726,12.747-14.811,22.932-14.811h8.676
			C90.286,292.313,89.557,297.26,89.133,302.238z M221.564,403.697h-33.992l33.992-33.992V403.697z M232.282,333.114
			c-7.175,0-13.47-3.78-17.043-9.442h31.222h2.873C245.758,329.335,239.461,333.114,232.282,333.114z M240.362,244.034h6.098
			c5.679,0,12.159,3.155,17.328,8.435c5.715,5.846,8.864,13.184,8.864,20.661c0,15.676-14.401,29.107-26.192,29.107h-65.106v-14.093
			c0-5.918-4.798-10.717-10.717-10.717c-5.919,0-10.717,4.799-10.717,10.717v14.093h-9.913v-14.093
			c0-5.918-4.798-10.717-10.717-10.717c-5.919,0-10.717,4.799-10.717,10.717v14.093H110.68c2.117-17.991,9.997-30.205,25.32-39.389
			C156.827,250.365,191.939,244.034,240.362,244.034z M454.52,69.069c0,6.962-4.794,12.825-11.253,14.463v-1.977
			c0-13.061-10.625-23.686-23.685-23.686h-6.891V36.03l9.077,2.228c10.616,3.125,18.775,7.162,24.253,11.999
			c5.798,5.121,8.499,10.945,8.499,18.33V69.069z"/>
	</g>
</g>
<g>
</g>
<g>
</g>
<g>
</g>
<g>
</g>
<g>
</g>
<g>
</g>
<g>
</g>
<g>
</g>
<g>
</g>
<g>
</g>
<g>
</g>
<g>
</g>
<g>
</g>
<g>
</g>
<g>
</g>
</svg>
