<?xml version="1.0" encoding="iso-8859-1"?>
<!-- Generator: Adobe Illustrator 19.0.0, SVG Export Plug-In . SVG Version: 6.00 Build 0)  -->
<svg version="1.1" id="Capa_1" xmlns="http://www.w3.org/2000/svg" xmlns:xlink="http://www.w3.org/1999/xlink" x="0px" y="0px"
	 viewBox="0 0 512.001 512.001" style="enable-background:new 0 0 512.001 512.001;" xml:space="preserve">
<g>
	<g>
		<path d="M447.175,184.995c-0.956-1.067-18.226-20.064-43.321-29.609c16.962-20.814,22.417-45.904,22.711-47.307
			c1.569-7.483-2.741-14.948-10.006-17.331c-1.363-0.446-25.817-8.266-52.322-3.985c4.281-26.505-3.538-50.96-3.984-52.321
			c-2.382-7.266-9.848-11.573-17.331-10.006c-1.402,0.294-26.492,5.75-47.306,22.711c-9.545-25.095-28.542-42.365-29.61-43.321
			c-5.695-5.101-14.316-5.101-20.012,0c-1.067,0.956-20.064,18.226-29.61,43.321C195.57,30.185,170.48,24.73,169.078,24.436
			c-7.479-1.567-14.949,2.741-17.331,10.006c-0.447,1.361-8.266,25.816-3.984,52.322c-26.505-4.281-50.959,3.538-52.322,3.984
			c-7.265,2.383-11.575,9.848-10.006,17.331c0.294,1.402,5.75,26.492,22.711,47.307c-25.094,9.545-42.365,28.542-43.321,29.609
			c-5.101,5.696-5.101,14.317,0,20.013c0.956,1.067,18.226,20.064,43.321,29.609c-16.962,20.814-22.417,45.904-22.711,47.307
			c-1.569,7.483,2.741,14.948,10.006,17.331c12.166,3.987,33.208,7.069,52.323,3.98c-4.283,26.507,3.537,50.964,3.984,52.326
			c2.053,6.261,7.882,10.328,14.243,10.328c5.612,0,31.282-7.458,50.394-23.033c6.707,17.632,18.073,31.397,24.616,38.357v42.385
			c-19.073-19.484-45.647-31.597-75.001-31.597h-30c-8.284,0-15,6.716-15,15c0,57.897,47.103,105,105,105h60
			c57.897,0,105-47.103,105-105c0-8.284-6.716-15-15-15h-30c-29.354,0-55.927,12.113-75,31.596v-42.385
			c6.542-6.96,17.909-20.725,24.616-38.357c20.814,16.962,45.904,22.417,47.306,22.711c7.483,1.569,14.95-2.743,17.331-10.006
			c0.447-1.361,8.266-25.818,3.984-52.325c17.922,2.894,38.91,0.414,52.323-3.981c7.265-2.383,11.575-9.848,10.006-17.331
			c-0.294-1.402-5.75-26.492-22.711-47.307c25.094-9.545,42.365-28.542,43.321-29.609
			C452.276,199.312,452.276,190.691,447.175,184.995z M226,482.001c-36.219,0-66.523-25.809-73.493-60H166
			c36.219,0,66.523,25.809,73.493,60H226z M346,422.001h13.493c-6.97,34.191-37.274,60-73.493,60h-13.493
			C279.477,447.81,309.781,422.001,346,422.001z M392.438,116.213c-8.027,19.178-19.847,33.329-40.049,37.165
			c-3.249-7.495-7.344-14.542-12.17-21.015C353.608,116.812,371.763,113.554,392.438,116.213z M334.783,58.542
			c2.636,20.447-0.473,38.75-16.145,52.24c-6.472-4.826-13.52-8.92-21.015-12.169C301.471,78.352,315.719,66.501,334.783,58.542z
			 M255.999,37.432c12.592,16.503,18.924,33.872,12.152,53.276c-8.143-0.942-16.153-0.943-24.301,0
			C237.057,71.248,243.463,53.862,255.999,37.432z M171.781,132.364c-4.826,6.472-8.92,13.52-12.17,21.015
			c-20.262-3.848-32.111-18.095-40.071-37.161C139.994,113.583,158.287,116.688,171.781,132.364z M98.431,195.003
			c16.503-12.593,33.871-18.925,53.276-12.152c-0.942,8.134-0.943,16.153,0,24.301C132.242,213.946,114.857,207.534,98.431,195.003z
			 M119.563,273.789c4.438-10.605,12.316-24.447,25.015-31.779c4.359-2.517,9.392-4.315,15.034-5.386
			c3.249,7.495,7.344,14.542,12.17,21.015C158.394,273.188,140.237,276.451,119.563,273.789z M177.215,58.543
			c19.108,7.976,33.319,19.837,37.162,40.07c-7.496,3.249-14.543,7.343-21.015,12.169C177.803,97.389,174.551,79.213,177.215,58.543
			z M177.217,331.461c-2.636-20.447,0.473-38.75,16.145-52.24c6.472,4.826,13.52,8.92,21.015,12.169
			C210.529,311.651,196.281,323.502,177.217,331.461z M256.001,352.571c-12.592-16.503-18.924-33.872-12.152-53.276
			c8.143,0.942,16.153,0.943,24.301,0C274.943,318.754,268.537,336.141,256.001,352.571z M256,270.001c-41.355,0-75-33.645-75-75
			s33.645-75,75-75s75,33.645,75,75S297.356,270.001,256,270.001z M334.785,331.46c-19.108-7.976-33.319-19.837-37.162-40.07
			c7.496-3.249,14.543-7.343,21.015-12.169C334.198,292.613,337.449,310.789,334.785,331.46z M340.219,257.639
			c4.826-6.472,8.92-13.52,12.17-21.015c20.262,3.848,32.111,18.095,40.071,37.161C372.009,276.421,353.712,273.314,340.219,257.639
			z M360.293,207.152c0.942-8.134,0.943-16.153,0-24.301c19.465-6.794,36.85-0.382,53.276,12.149
			C397.066,207.592,379.698,213.925,360.293,207.152z"/>
	</g>
</g>
<g>
	<g>
		<circle cx="226" cy="195.001" r="15"/>
	</g>
</g>
<g>
	<g>
		<circle cx="286" cy="165.001" r="15"/>
	</g>
</g>
<g>
</g>
<g>
</g>
<g>
</g>
<g>
</g>
<g>
</g>
<g>
</g>
<g>
</g>
<g>
</g>
<g>
</g>
<g>
</g>
<g>
</g>
<g>
</g>
<g>
</g>
<g>
</g>
<g>
</g>
</svg>
