<?xml version="1.0" encoding="iso-8859-1"?>
<!-- Generator: Adobe Illustrator 19.0.0, SVG Export Plug-In . SVG Version: 6.00 Build 0)  -->
<svg version="1.1" id="Layer_1" xmlns="http://www.w3.org/2000/svg" xmlns:xlink="http://www.w3.org/1999/xlink" x="0px" y="0px"
	 viewBox="0 0 511.99 511.99" style="enable-background:new 0 0 511.99 511.99;" xml:space="preserve">
<g>
	<g>
		<path d="M260.666,181.519c-21.704-5.579-37.736-9.699-56.617-14.552l-21.128-60.702l30.608,45.703l11.074-29.003
			c4.964-13.001-1.56-27.568-14.561-32.532c-24.846-9.487-39.584-14.836-47.102-17.5c-4.118-1.459-8.527-1.877-12.845-1.215
			L81.649,82.222c-11.6,1.651-18.052,14.359-12.52,24.702l34.75,64.967l-13.937,36.934c-2.196,5.822-2.248,12.236-0.146,18.092
			l12.096,33.697l-52.689-5.749c-10.814-1.182-20.526,6.627-21.704,17.433c-1.18,10.808,6.626,20.526,17.433,21.704l83.746,9.137
			c14.44,1.574,25.48-12.498,20.708-26.089l-18.007-51.293l41.923,65.123l-29.701,83.652c-3.638,10.245,1.72,21.499,11.964,25.137
			c10.252,3.641,21.503-1.728,25.137-11.964L213.619,295c2.029-5.714,1.31-12.044-1.946-17.158l-28.885-45.367l6.718-17.593
			l-6.689-1.72c-15.176-3.9-23.046-17.156-23.851-24.836l-7.194-68.72l23.329,67.03c1.862,5.346,6.272,9.403,11.755,10.813
			c6.674,1.715,58.841,15.123,65.393,16.807h0.001c8.987,2.302,18.236-3.068,20.573-12.161
			C275.149,193.059,269.712,183.844,260.666,181.519z M119.846,130.077l-9.519-17.798l17.254-2.457L119.846,130.077z"/>
	</g>
</g>
<g>
	<g>
		<circle cx="213.212" cy="37.3" r="37.3"/>
	</g>
</g>
<g>
	<g>
		<path d="M417.495,328.537V286.04c0-6.181-5.01-11.192-11.192-11.192h-67.111c-6.181,0-11.192,5.011-11.192,11.192v42.497h-44.836
			V286.04c0-6.181-5.01-11.192-11.192-11.192h-43.159c2.849,7.088,3.401,14.922,1.536,22.384h30.432v84.994h-44.728v-44.192
			l-22.384,61.221c0,0,0,31.154,0,36.661H148.94v-20.921c-11.814-4.602-19.928-14.76-22.384-26.398v47.32H81.829v-84.994h44.726
			v22.761l15.669-45.144c-20.01,0-37.97,0-71.588,0c-6.181,0-11.192,5.011-11.192,11.192v107.379c0,6.181,5.01,11.192,11.192,11.192
			h67.111h55.92v42.497c0,6.181,5.01,11.192,11.192,11.192h67.111c6.181,0,11.192-5.011,11.192-11.192v-42.497H328v42.497
			c0,6.181,5.01,11.192,11.192,11.192h67.111c6.181,0,11.192-5.011,11.192-11.192v-42.497c40.778,0,67.111-31.123,67.111-64.882
			C484.608,359.932,458.588,328.537,417.495,328.537z M260.78,489.605h-44.728c0-12.298,0-72.651,0-84.995h44.728V489.605z
			 M328,393.419v42.497h-44.728v-84.994H328V393.419z M395.112,489.605h-44.726c0-12.298,0-72.651,0-84.995h44.726
			C395.112,416.908,395.112,477.262,395.112,489.605z M395.112,382.227h-44.726c0-12.298,0-72.652,0-84.994h44.726
			C395.112,309.53,395.112,369.883,395.112,382.227z M417.495,435.916c0-12.298,0-72.652,0-84.994
			c28.209,0,44.728,20.883,44.728,42.497C462.223,415.122,445.648,435.916,417.495,435.916z"/>
	</g>
</g>
<g>
</g>
<g>
</g>
<g>
</g>
<g>
</g>
<g>
</g>
<g>
</g>
<g>
</g>
<g>
</g>
<g>
</g>
<g>
</g>
<g>
</g>
<g>
</g>
<g>
</g>
<g>
</g>
<g>
</g>
</svg>
