<?xml version="1.0" encoding="iso-8859-1"?>
<!-- Generator: Adobe Illustrator 19.0.0, SVG Export Plug-In . SVG Version: 6.00 Build 0)  -->
<svg version="1.1" id="Capa_1" xmlns="http://www.w3.org/2000/svg" xmlns:xlink="http://www.w3.org/1999/xlink" x="0px" y="0px"
	 viewBox="0 0 512 512" style="enable-background:new 0 0 512 512;" xml:space="preserve">
<g>
	<g>
		<path d="M351.713,0H160.287L71.5,88.787v334.427L160.287,512h191.426l88.787-88.787V88.787L351.713,0z M161.232,41.48l24.853,60
			l-13.105,13.105l-60-24.853L161.232,41.48z M101.5,117.449l60,24.853v227.396l-60,24.853V117.449z M161.233,470.52l-48.252-48.252
			l60-24.853l13.105,13.105L161.233,470.52z M188.949,482l24.853-60h84.396l24.853,60H188.949z M191.5,373.507V138.493L209.993,120
			h92.015l18.493,18.493v235.015L302.007,392h-92.014L191.5,373.507z M298.198,90h-84.396L188.95,30h134.101L298.198,90z
			 M350.767,41.48l48.252,48.252l-60,24.853l-13.105-13.105L350.767,41.48z M350.768,470.52l-24.853-60l13.105-13.105l60,24.853
			L350.768,470.52z M410.5,394.551l-60-24.853V142.302l60-24.853V394.551z"/>
	</g>
</g>
<g>
</g>
<g>
</g>
<g>
</g>
<g>
</g>
<g>
</g>
<g>
</g>
<g>
</g>
<g>
</g>
<g>
</g>
<g>
</g>
<g>
</g>
<g>
</g>
<g>
</g>
<g>
</g>
<g>
</g>
</svg>
