<?xml version="1.0" encoding="iso-8859-1"?>
<!-- Generator: Adobe Illustrator 19.0.0, SVG Export Plug-In . SVG Version: 6.00 Build 0)  -->
<svg version="1.1" id="Capa_1" xmlns="http://www.w3.org/2000/svg" xmlns:xlink="http://www.w3.org/1999/xlink" x="0px" y="0px"
	 viewBox="0 0 496.144 496.144" style="enable-background:new 0 0 496.144 496.144;" xml:space="preserve">
<g>
	<g>
		<g>
			<path d="M440.072,336c-7.72,0-15.232,1.664-22.208,4.688c-2.12-4.472-4.72-8.672-7.776-12.496
				c5.888-9.008,5.984-18.8,5.984-26.96c0-14.832-2.064-29.576-6.144-43.832l-6.12-21.424c-2.48-8.696-3.736-17.68-3.736-26.704
				c0-28.928,12.744-56.144,34.976-74.664l6.224-5.192c4.32-3.6,6.8-8.888,6.8-14.512c0-10.424-8.48-18.904-18.896-18.904h-2.208
				c-3.288,0-6.528,0.864-9.376,2.496l-5.296,3.024c-32.64,18.656-58.312,48.144-72.272,83.048
				c-7.928,19.832-11.952,40.72-11.952,62.088V308c0,1.672-0.16,3.312-0.448,4.936c-9.32,5.512-17.112,13.304-22.624,22.624
				c-1.616,0.28-3.264,0.44-4.928,0.44c-15.44,0-28-12.56-28-28v-3.936c0-27.088-19.336-50.256-45.984-55.096l-42.016-7.64v-3.04
				c21.504-11.032,37.864-30.624,44.592-54.288h2.44c13.08,0,25.376-5.096,34.624-14.344c9.248-9.248,14.344-21.544,14.344-34.624
				V96h-24.408C251.56,42.392,206.72,0,152.072,0h-8h-8h-8C73.424,0,28.584,42.392,24.48,96H0.072v39.032
				c0,13.08,5.096,25.376,14.344,34.624C23.664,178.904,35.96,184,49.04,184h10.44c6.728,23.656,23.08,43.256,44.592,54.288v3.04
				l-42.016,7.64c-26.648,4.84-45.984,28.008-45.984,55.096V336c0,22.056,17.944,40,40,40h16.064
				c0.64,18.32,6.424,35.856,16.984,50.984l1.96,2.8c29.024,41.592,76.528,66.368,127.2,66.36c0.248,0,0.504,0,0.752,0l1.984-0.008
				c30.528-0.152,60.672-9.16,86.368-25.528c-2.112,5.4-3.312,11.256-3.312,17.392v8h112v-8c0-16.336-8.216-30.768-20.712-39.44
				c5.52-2.416,10.76-5.368,15.624-8.832c8.768,5.352,18.744,8.272,29.088,8.272c30.88,0,56-25.128,56-56S470.952,336,440.072,336z
				 M344.072,246.648c0-19.312,3.64-38.2,10.808-56.136c12.632-31.568,35.84-58.24,65.352-75.104l5.296-3.024
				c0.44-0.248,0.936-0.384,1.44-0.384h2.208c1.6,0,2.896,1.296,2.896,2.896c0,0.864-0.376,1.672-1.048,2.224l-6.224,5.192
				c-25.888,21.568-40.728,53.264-40.728,86.96c0,10.512,1.464,20.976,4.352,31.096l6.12,21.416
				c3.664,12.832,5.52,26.104,5.52,39.448c0,5.744-0.048,10.928-1.92,15.456c-5.192-3.864-10.96-6.952-17.184-9.112
				c1.928-3.448,3.112-7.36,3.112-11.576c0-13.232-10.768-24-24-24c-6.168,0-11.744,2.408-16,6.24V246.648z M368.072,296
				c0,4.416-3.592,8-8,8c-4.408,0-8-3.584-8-8c0-4.416,3.592-8,8-8C364.48,288,368.072,291.584,368.072,296z M360.072,320
				c23.736,0,43.448,17.336,47.28,40h-94.56C316.624,337.336,336.336,320,360.072,320z M271.52,341.416
				c7.248,6.2,16.528,10.056,26.68,10.488c-0.688,2.64-1.232,5.336-1.576,8.096h-32.76
				C267.896,354.672,270.568,348.344,271.52,341.416z M264.072,112v23.032c0,8.808-3.432,17.088-9.656,23.312
				c-6.088,6.088-14.16,9.456-22.744,9.6c0.232-2.624,0.4-5.264,0.4-7.944v-42.128c6.848-3.816,14.576-5.872,22.632-5.872H264.072z
				 M178.552,20.088c33.744,10.672,58.664,41.184,61.208,77.768c-7.856,1.92-15.24,5.336-21.816,10.136l-60.76-30.384
				c15.6-5.456,26.888-20.168,26.888-37.608C184.072,32.72,181.968,25.976,178.552,20.088z M144.072,16c13.232,0,24,10.768,24,24
				s-10.768,24-24,24s-24-10.768-24-24S130.84,16,144.072,16z M49.04,168c-8.808,0-17.088-3.432-23.312-9.656
				s-9.656-14.512-9.656-23.312V112h9.368c11.4,0,22.136,4.104,30.632,11.528V160c0,2.704,0.168,5.36,0.408,8H49.04z M40.384,97.856
				c2.768-39.872,32.136-72.512,70.496-80.144c-4.296,6.376-6.808,14.04-6.808,22.288c0,17.44,11.288,32.152,26.888,37.608
				L65.384,110.4C58.056,104.312,49.528,100.088,40.384,97.856z M72.072,160v-35.056l72-36l72,36V160c0,39.696-32.304,72-72,72
				S72.072,199.696,72.072,160z M168.072,244.592v1.056c-2.208,3.024-9.056,10.352-24,10.352c-15.016,0-21.856-7.392-24-10.336
				v-1.072c7.64,2.168,15.672,3.408,24,3.408S160.432,246.76,168.072,244.592z M56.072,360c-13.232,0-24-10.768-24-24v-31.936
				c0-19.344,13.816-35.896,32.84-39.36l43.584-7.928c5.088,6.064,16,15.224,35.576,15.224s30.488-9.16,35.568-15.224l43.584,7.928
				c19.032,3.464,32.848,20.016,32.848,39.36V336c0,13.232-10.768,24-24,24h-16h-24v-32h16v16h16v-16h16v-16h-72
				c-9.6,0-18.128,4.336-24,11.056c-5.872-6.72-14.4-11.056-24-11.056h-72v16h16v16h16v-16h16v32H56.072z M176.072,328v32h-8
				c-8.824,0-16-7.176-16-16c0-8.824,7.176-16,16-16H176.072z M136.072,344c0,8.824-7.176,16-16,16h-8v-32h8
				C128.896,328,136.072,335.176,136.072,344z M309.544,449.608c-25.248,19.536-56.712,30.368-88.6,30.528l-1.984,0.008
				c-45.624,0.392-88.6-22.024-114.776-59.52l-1.96-2.8C93.56,405.408,88.76,391.032,88.12,376h31.952c9.6,0,18.128-4.336,24-11.056
				c5.872,6.72,14.4,11.056,24,11.056h25.472c-0.896,2.512-1.472,5.184-1.472,8v6.68l6.568,1.184
				c41.792,7.608,78.096,23.072,107.904,45.968c3.152,2.416,6.456,4.544,9.84,6.496L309.544,449.608z M399.064,480h-77.976
				c3.56-13.792,16.104-24,30.992-24h15.992C382.952,456,395.496,466.208,399.064,480z M360.072,440
				c-15.992,0-31.128-5.136-43.776-14.848c-29.6-22.736-65.04-38.584-105.472-47.176c1.408-1.232,3.24-1.976,5.248-1.976h16h199.536
				C427.576,412.496,396.84,440,360.072,440z M440.072,432c-5.632,0-11.104-1.216-16.168-3.464
				c3.856-4.072,7.344-8.512,10.376-13.296c1.896,0.472,3.832,0.76,5.792,0.76c13.232,0,24-10.768,24-24
				c0-10.44-6.744-19.256-16.072-22.544l0.544-9.456H423.52c-0.176-1.384-0.368-2.76-0.632-4.112
				c5.336-2.544,11.184-3.888,17.184-3.888c22.056,0,40,17.944,40,40C480.072,414.056,462.128,432,440.072,432z M442.096,399.592
				c1.592-4.152,2.896-8.448,3.872-12.888c1.272,1.416,2.104,3.24,2.104,5.296C448.072,395.696,445.504,398.672,442.096,399.592z"/>
			<rect x="136.072" y="32" width="16" height="16"/>
			<rect x="176.072" y="136" width="16" height="16"/>
			<rect x="96.072" y="136" width="16" height="16"/>
			<path d="M183.664,178.528l-15.168-5.104c-0.256,0.76-6.632,18.576-24.424,18.576s-24.168-17.816-24.424-18.576l-15.168,5.104
				c0.408,1.208,10.168,29.472,39.592,29.472S183.256,179.736,183.664,178.528z"/>
		</g>
	</g>
</g>
<g>
</g>
<g>
</g>
<g>
</g>
<g>
</g>
<g>
</g>
<g>
</g>
<g>
</g>
<g>
</g>
<g>
</g>
<g>
</g>
<g>
</g>
<g>
</g>
<g>
</g>
<g>
</g>
<g>
</g>
</svg>
