<?xml version="1.0" encoding="iso-8859-1"?>
<!-- Generator: Adobe Illustrator 19.0.0, SVG Export Plug-In . SVG Version: 6.00 Build 0)  -->
<svg version="1.1" id="Layer_1" xmlns="http://www.w3.org/2000/svg" xmlns:xlink="http://www.w3.org/1999/xlink" x="0px" y="0px"
	 viewBox="0 0 511.931 511.931" style="enable-background:new 0 0 511.931 511.931;" xml:space="preserve">
<g>
	<g>
		<path d="M351.952,223.227c-5.889,0-10.67,4.78-10.67,10.67c0,5.891,4.781,10.663,10.67,10.663c5.891,0,10.671-4.772,10.671-10.663
			C362.623,228.007,357.843,223.227,351.952,223.227z"/>
	</g>
</g>
<g>
	<g>
		<path d="M509.15,283.319l-77.566-85.043c-0.188-0.195-0.375-0.391-0.563-0.57l-71.74-67.725c-2.484-2.344-5.938-3.359-9.296-2.734
			l-25.325,4.75c-12.123-15.021-31.823-35.175-60.507-52.54c-30.746-18.614-65.522-30.16-103.346-34.308
			c-10.686-1.172-21.606-1.742-32.776-1.734c-0.391-0.016-0.797-0.023-1.188,0.008C89.41,43.603,49.401,50.399,7.438,63.748
			c-5.047,1.609-8.155,6.671-7.296,11.897s5.405,9.045,10.717,8.936c0.438-0.008,45.166-0.664,98.627,11.804
			c31.23,7.28,59.133,17.536,82.974,30.487c22.372,12.163,41.166,26.739,56.086,43.471c-5.921,6.116-14.576,16.732-28.152,35.878
			l-70.756,17.311c-4.172,1.023-7.327,4.444-7.999,8.679c-0.672,4.241,1.25,8.475,4.905,10.74
			c0.688,0.438,15.576,9.601,37.823,16.725c-10.702,16.459-22.481,34.939-35.261,55.359
			c-43.104,68.85-83.224,136.715-83.629,137.402c-1.953,3.297-1.984,7.375-0.078,10.719c1.89,3.311,5.421,5.373,9.264,5.373h170.632
			c4.031,0,7.702-2.266,9.515-5.842l59.852-118.203c26.152,4.766,109.172,19.357,143.09,19.357c6.108,0,10.498-0.453,13.795-1.422
			c25.059-7.328,38.104-26.934,38.65-27.762c1.125-1.734,1.734-3.766,1.734-5.828v-20.123c0-0.015,0-0.031,0-0.062v-18.137
			C511.931,287.835,510.931,285.273,509.15,283.319z M108.97,74.396c-10.701-2.359-20.981-4.219-30.589-5.694
			c11.514-1.766,22.81-2.938,33.855-3.524L108.97,74.396z M157.823,88.307c-9.015-3.211-18.373-6.14-28.044-8.78l5.219-14.701
			c7.702,0.172,15.264,0.648,22.7,1.438c2.437,0.265,4.859,0.562,7.265,0.89L157.823,88.307z M197.505,105.414
			c-6.358-3.28-12.951-6.397-19.794-9.326l8.483-25.13c7.998,1.805,15.841,4.008,23.465,6.593L197.505,105.414z M490.607,295.299
			l-23.528-5.17c-5.749-1.266-11.436,2.391-12.701,8.139c-1.266,5.75,2.375,11.436,8.124,12.686l28.105,6.172v8.107
			c-3.485,4.159-12.047,12.907-25.045,16.719c-0.328,0.094-2.202,0.578-7.811,0.563c-37.683,0-145.949-20.232-147.043-20.436
			c-0.047-0.016-0.094-0.016-0.156-0.031c-0.031,0-0.078-0.016-0.109-0.031c-0.172-0.016-16.186-2.686-39.65-12.623
			c-5.422-2.295-11.686,0.234-13.982,5.656c-2.297,5.438,0.234,11.686,5.655,13.982c12.421,5.266,22.935,8.67,30.637,10.811
			L238.75,447.189H93.41c14.404-24.092,43.197-71.959,73.489-120.391c14.436-23.059,27.559-43.619,39.308-61.563
			c9.639,1.813,19.075,2.711,28.262,2.711c20.919,0,40.464-4.686,57.773-13.997c5.187-2.789,7.124-9.257,4.343-14.443
			c-2.797-5.188-9.264-7.132-14.451-4.344c-23.59,12.693-51.462,14.936-82.832,6.663c-5.453-1.438-10.546-3.085-15.154-4.772
			l95.877-23.466c5.719-1.398,9.219-7.171,7.828-12.889c-1.406-5.726-7.188-9.226-12.904-7.827l-22.17,5.429
			c3.891-4.991,6.859-8.521,9.108-11.014c2.094,2.563,5.155,3.944,8.28,3.944c2.094,0,4.203-0.609,6.046-1.89
			c4.843-3.344,6.062-9.991,2.719-14.834c-15.67-22.669-36.745-42.299-62.773-58.5l13.373-30.66
			c7.78,3.492,15.326,7.413,22.606,11.772c47.979,28.699,68.882,66.779,69.085,67.154c2.78,5.187,9.233,7.14,14.42,4.375
			c5.202-2.773,7.155-9.233,4.39-14.428c-0.141-0.25-0.719-1.328-1.766-3.07l10.312-1.938l67.507,63.733l74.521,81.699V295.299z"/>
	</g>
</g>
<g>
</g>
<g>
</g>
<g>
</g>
<g>
</g>
<g>
</g>
<g>
</g>
<g>
</g>
<g>
</g>
<g>
</g>
<g>
</g>
<g>
</g>
<g>
</g>
<g>
</g>
<g>
</g>
<g>
</g>
</svg>
