<?xml version="1.0" encoding="iso-8859-1"?>
<!-- Generator: Adobe Illustrator 19.0.0, SVG Export Plug-In . SVG Version: 6.00 Build 0)  -->
<svg version="1.1" id="Capa_1" xmlns="http://www.w3.org/2000/svg" xmlns:xlink="http://www.w3.org/1999/xlink" x="0px" y="0px"
	 viewBox="0 0 512 512" style="enable-background:new 0 0 512 512;" xml:space="preserve">
<g>
	<g>
		<path d="M420.589,271.819c0-5.544-4.495-10.039-10.039-10.039c-5.543,0-10.039,4.494-10.039,10.039
			c0,22.867-18.608,41.471-41.481,41.471c-7.323,0-14.513-1.931-20.799-5.589c-12.75-7.406-20.672-21.155-20.672-35.882
			c0-14.713,7.907-28.457,20.634-35.876c0.064-0.036,0.128-0.072,0.193-0.11c0.001-0.001,0.003-0.001,0.004-0.002
			c6.255-3.593,13.393-5.492,20.64-5.492c6.879,0,13.418,1.624,19.438,4.827c4.896,2.604,10.975,0.748,13.578-4.147
			c2.604-4.894,0.747-10.974-4.147-13.578c-7.842-4.172-16.597-6.593-25.506-7.082c4.308-8.498,6.675-18,6.675-27.795
			c0-33.939-27.61-61.549-61.549-61.549c-15.967,0-30.53,6.112-41.481,16.114v-17.51c0-24.842,15.984-46.01,38.202-53.794
			c-0.61,2.415-0.938,4.942-0.938,7.544c0,16.988,13.826,30.809,30.82,30.809c16.988,0,30.808-13.822,30.808-30.809
			c0-3.777-0.686-7.395-1.935-10.742h30.344c5.544,0,10.039-4.494,10.039-10.039S398.884,42.55,393.34,42.55h-70.313
			c-23.69,0-44.908,10.752-59.057,27.623c-2.736-15.378-8.848-32.919-22.015-46.086C213.12-4.747,163.3,0.239,161.192,0.465
			c-4.696,0.504-8.405,4.213-8.909,8.91c-0.227,2.107-5.21,51.927,23.625,80.763c21.098,21.09,53.412,24.086,70.072,24.086
			c0.064,0,0.125-0.001,0.19-0.001c-0.125,1.785-0.21,3.58-0.21,5.396v17.51c-10.95-10.003-25.515-16.114-41.481-16.114
			c-33.939,0-61.549,27.61-61.549,61.549c0,9.794,2.366,19.296,6.676,27.793c-32.386,1.753-58.196,28.648-58.196,61.463
			c0,32.818,25.824,59.716,58.223,61.455c-4.326,8.51-6.702,18.032-6.702,27.851c0,32.825,25.821,59.728,58.216,61.465
			c-4.328,8.512-6.707,18.034-6.707,27.851c0,33.944,27.615,61.559,61.559,61.559c33.944,0,61.559-27.615,61.559-61.559
			c0-9.825-2.375-19.345-6.7-27.852c32.391-1.741,58.209-28.642,58.209-61.464c0-9.825-2.374-19.344-6.698-27.851
			C394.767,331.532,420.589,304.636,420.589,271.819z M334.124,62.628c5.917,0,10.731,4.819,10.731,10.742
			c0,5.918-4.814,10.732-10.731,10.732c-5.923,0-10.742-4.814-10.742-10.732C323.382,67.446,328.201,62.628,334.124,62.628z
			 M245.837,94.145c-13.542,0-39.773-2.256-55.731-18.207c-15.909-15.909-18.168-42.301-18.184-55.837
			c13.544,0.017,39.933,2.278,55.838,18.182c15.918,15.918,18.17,42.331,18.184,55.862
			C245.909,94.145,245.873,94.145,245.837,94.145z M307.521,141.092c22.867,0,41.471,18.604,41.471,41.471
			c0,14.72-7.914,28.471-20.568,35.839l-0.026,0.015c-0.002,0.001-0.004,0.002-0.006,0.003c-0.001,0.001-0.002,0.001-0.003,0.002
			l-0.043,0.025c-0.064,0.036-0.13,0.071-0.193,0.108c-6.236,3.59-13.369,5.487-20.631,5.487c-7.333,0-14.535-1.938-20.83-5.604
			c-12.737-7.416-20.651-21.163-20.651-35.877C266.04,159.696,284.648,141.092,307.521,141.092z M256.001,230.338
			c7.247,0,14.384,1.899,20.636,5.49c12.859,7.393,20.846,21.183,20.846,35.991c0,14.809-7.986,28.595-20.851,35.984
			c-6.236,3.59-13.369,5.487-20.631,5.487c-7.322,0-14.516-1.932-20.809-5.589c-12.751-7.406-20.673-21.155-20.673-35.882
			c0-14.714,7.914-28.46,20.655-35.878C241.466,232.275,248.666,230.338,256.001,230.338z M204.48,141.092
			c22.873,0,41.481,18.604,41.481,41.471c0,14.815-7.986,28.605-20.852,35.994c-6.234,3.59-13.368,5.487-20.63,5.487
			s-14.395-1.897-20.631-5.487c-0.059-0.035-0.12-0.068-0.18-0.101c-0.003-0.002-0.005-0.003-0.007-0.004
			c-0.001,0-0.002-0.001-0.002-0.001c-12.737-7.416-20.651-21.167-20.651-35.887C163.01,159.696,181.613,141.092,204.48,141.092z
			 M152.971,313.289c-22.873,0-41.482-18.603-41.482-41.471c0-22.873,18.608-41.481,41.481-41.481c7.247,0,14.384,1.899,20.64,5.492
			c0.011,0.006,0.023,0.013,0.034,0.019c0.054,0.032,0.11,0.063,0.167,0.095c12.725,7.419,20.631,21.162,20.631,35.874
			c0,14.807-7.983,28.594-20.84,35.984C167.366,311.392,160.234,313.289,152.971,313.289z M204.481,402.606
			c-22.868,0-41.471-18.608-41.471-41.481c0-14.733,7.922-28.485,20.681-35.896c6.276-3.653,13.465-5.585,20.79-5.585
			c7.248,0,14.385,1.899,20.636,5.49c12.859,7.393,20.846,21.183,20.846,35.991c0,14.807-7.987,28.598-20.843,35.989
			C218.867,400.706,211.729,402.606,204.481,402.606z M256.001,491.922c-22.873,0-41.481-18.608-41.481-41.481
			c0-14.725,7.924-28.479,20.676-35.893c6.289-3.655,13.483-5.588,20.806-5.588c7.261,0,14.395,1.897,20.631,5.487
			c0.001,0.001,0.003,0.002,0.005,0.003c12.859,7.393,20.846,21.183,20.846,35.991C297.482,473.314,278.874,491.922,256.001,491.922
			z M307.521,402.606c-7.323,0-14.517-1.932-20.805-5.587c-12.753-7.415-20.677-21.169-20.677-35.894
			c0-14.724,7.924-28.478,20.676-35.893c6.288-3.655,13.482-5.587,20.806-5.587c7.247,0,14.384,1.899,20.64,5.492
			c12.849,7.396,20.831,21.185,20.831,35.989C348.99,383.997,330.387,402.606,307.521,402.606z"/>
	</g>
</g>
<g>
	<g>
		<path d="M401.314,234.925c-12.919,0-12.941,20.078,0,20.078C414.233,255.003,414.254,234.925,401.314,234.925z"/>
	</g>
</g>
<g>
</g>
<g>
</g>
<g>
</g>
<g>
</g>
<g>
</g>
<g>
</g>
<g>
</g>
<g>
</g>
<g>
</g>
<g>
</g>
<g>
</g>
<g>
</g>
<g>
</g>
<g>
</g>
<g>
</g>
</svg>
