<?xml version="1.0" encoding="iso-8859-1"?>
<!-- Generator: Adobe Illustrator 18.0.0, SVG Export Plug-In . SVG Version: 6.00 Build 0)  -->
<!DOCTYPE svg PUBLIC "-//W3C//DTD SVG 1.1//EN" "http://www.w3.org/Graphics/SVG/1.1/DTD/svg11.dtd">
<svg version="1.1" id="Capa_1" xmlns="http://www.w3.org/2000/svg" xmlns:xlink="http://www.w3.org/1999/xlink" x="0px" y="0px"
	 viewBox="0 0 240.643 240.643" style="enable-background:new 0 0 240.643 240.643;" xml:space="preserve">
<g>
	<path d="M59.896,142.874c5.691-12.644,5.691-32.454,0-45.1c-4.893-10.865-11.875-12.487-15.602-12.487
		c-3.729,0-10.711,1.623-15.598,12.487c-5.693,12.646-5.693,32.455-0.002,45.099c4.889,10.866,11.871,12.489,15.6,12.489
		C48.021,155.362,55.004,153.74,59.896,142.874z M42.375,103.931c0.732-1.629,1.428-2.631,1.92-3.191
		c0.494,0.561,1.19,1.563,1.924,3.192c3.93,8.732,3.93,24.054,0,32.785c-0.734,1.63-1.43,2.632-1.924,3.193
		c-0.492-0.562-1.188-1.564-1.92-3.193C38.443,127.984,38.443,112.665,42.375,103.931z"/>
	<path d="M215.457,79.454c-0.002,0-0.004,0-0.008,0c-6.729,0-13.055,2.62-17.811,7.377c-3.77,3.77-6.197,8.522-7.043,13.682H179.34
		c-3.457-7.11-8.883-11.443-15.326-11.443h-8.039c-12.518-29.93-41.865-49.682-74.652-49.682H44.297
		c-0.215,0-0.428,0.015-0.637,0.032c-12.545,0.298-23.904,9.358-32.035,25.628c-15.5,30.997-15.5,79.561,0,110.557
		c8.268,16.539,19.869,25.648,32.666,25.65c0.002,0,0.004,0,0.004,0c0.008,0,0.016-0.001,0.021-0.001h37.006
		c32.787,0,62.135-19.748,74.652-49.674h8.039c6.445,0,11.873-4.337,15.33-11.452l11.256-0.001
		c1.979,11.934,12.371,21.063,24.855,21.063c13.889,0,25.188-11.303,25.188-25.195c0-5.811-1.982-11.299-5.469-15.674
		c3.486-4.377,5.469-9.865,5.469-15.678C240.643,90.754,229.344,79.454,215.457,79.454z M25.041,168.896
		c-13.393-26.781-13.393-70.358,0-97.141c5.516-11.035,12.533-17.364,19.252-17.364c6.721,0,13.74,6.329,19.258,17.365
		c13.389,26.778,13.389,70.354,0,97.136c-5.514,11.024-12.525,17.351-19.238,17.361h-0.016c-0.004,0-0.006,0.001-0.01,0.001
		C37.568,186.249,30.555,179.924,25.041,168.896z M163.693,136.58h-12.891c-3.207,0-6.059,2.039-7.096,5.073
		c-9.123,26.677-34.193,44.601-62.385,44.601H70.414c2.357-3.105,4.555-6.657,6.553-10.653c15.496-30.998,15.496-79.559,0-110.552
		c-2-3.999-4.197-7.554-6.557-10.661h10.912c28.191,0,53.262,17.927,62.385,44.608c1.037,3.034,3.889,5.073,7.096,5.073h12.891
		c1.498,0.995,4.699,6.648,4.699,16.256C168.393,129.932,165.191,135.585,163.693,136.58z M220.156,126.965
		c3.385,1.772,5.486,5.233,5.486,9.03c0,5.622-4.57,10.195-10.188,10.195c-5.621,0-10.195-4.575-10.195-10.199
		c0-0.623,0.066-1.276,0.195-1.942c0.424-2.198-0.156-4.471-1.58-6.197c-1.426-1.727-3.547-2.726-5.785-2.726l-14.896,0.002
		c0.131-1.557,0.199-3.158,0.199-4.803c0-1.648-0.068-3.252-0.199-4.813h14.896c2.24,0,4.361-1.001,5.787-2.729
		c1.424-1.728,2.002-4.001,1.576-6.199c-0.129-0.67-0.193-1.304-0.193-1.938c0-2.724,1.061-5.284,2.984-7.209
		c1.924-1.924,4.482-2.983,7.209-2.983h0.002c5.617,0,10.188,4.571,10.188,10.189c0,3.8-2.102,7.262-5.486,9.034
		c-2.471,1.295-4.02,3.854-4.02,6.644C216.137,123.111,217.686,125.67,220.156,126.965z"/>
</g>
<g>
</g>
<g>
</g>
<g>
</g>
<g>
</g>
<g>
</g>
<g>
</g>
<g>
</g>
<g>
</g>
<g>
</g>
<g>
</g>
<g>
</g>
<g>
</g>
<g>
</g>
<g>
</g>
<g>
</g>
</svg>
