<svg xmlns="http://www.w3.org/2000/svg" xmlns:xlink="http://www.w3.org/1999/xlink" version="1.1" x="0px" y="0px" viewBox="0 0 100 125" enable-background="new 0 0 100 100" xml:space="preserve"><path d="M25.567,54.076c-0.26-0.126-0.573-0.017-0.699,0.243c-1.044,2.155-3.038,4.233-4.25,5.378l0.029-0.244  c0.198-1.681,0.008-2.675,0-2.716c-0.056-0.283-0.33-0.467-0.613-0.411c-0.283,0.055-0.468,0.329-0.414,0.613  c0.002,0.009,0.165,0.891-0.012,2.392l-0.191,1.619c-0.025,0.212,0.081,0.418,0.269,0.52c0.079,0.043,0.165,0.064,0.251,0.064  c0.119,0,0.237-0.04,0.333-0.119c0.158-0.13,3.883-3.217,5.542-6.64C25.936,54.515,25.827,54.202,25.567,54.076z"/><path d="M75.91,33.408c-2.745-2.005-6.551-0.881-6.712-0.832c-0.331,0.101-0.518,0.451-0.418,0.782c0.1,0.332,0.45,0.52,0.782,0.42  c0.034-0.01,3.373-0.987,5.607,0.644c1.808,1.321,1.579,3.886,1.577,3.91c-0.036,0.345,0.215,0.654,0.56,0.689  c0.022,0.002,0.044,0.003,0.065,0.003c0.318,0,0.59-0.24,0.624-0.563C78.009,38.328,78.308,35.16,75.91,33.408z"/><path d="M58.552,37.768c0.1,0.09,0.225,0.134,0.35,0.134c0.143,0,0.285-0.058,0.389-0.173c0.194-0.214,0.177-0.545-0.037-0.739  c-0.013-0.011-1.276-1.165-1.756-2.515c-0.482-1.352-0.287-3.091-0.283-3.127c0.034-0.287-0.17-0.548-0.457-0.582  c-0.287-0.033-0.548,0.17-0.582,0.457c-0.01,0.081-0.232,2.008,0.336,3.603C57.081,36.431,58.492,37.714,58.552,37.768z"/><path d="M57.096,38.23c-0.013-0.012-1.276-1.165-1.757-2.515c-0.481-1.352-0.287-3.091-0.282-3.127  c0.034-0.287-0.17-0.548-0.457-0.582c-0.288-0.033-0.548,0.17-0.582,0.457c-0.01,0.081-0.232,2.008,0.336,3.603  c0.571,1.603,1.982,2.887,2.042,2.941c0.1,0.09,0.225,0.134,0.35,0.134c0.143,0,0.285-0.058,0.389-0.173  C57.327,38.755,57.31,38.424,57.096,38.23z"/><path d="M53.064,36.862c-0.482-1.352-0.287-3.091-0.283-3.127c0.034-0.287-0.17-0.548-0.457-0.582  c-0.288-0.033-0.548,0.17-0.582,0.457c-0.01,0.081-0.232,2.008,0.336,3.603c0.571,1.603,1.982,2.887,2.041,2.941  c0.1,0.09,0.225,0.134,0.35,0.134c0.143,0,0.285-0.058,0.389-0.173c0.194-0.214,0.177-0.545-0.038-0.739  C54.808,39.365,53.545,38.212,53.064,36.862z"/><path d="M64.588,58.024c-5.029-1.87-6.476-2.959-6.5-2.977c-0.227-0.178-0.554-0.139-0.733,0.087  c-0.179,0.227-0.141,0.556,0.085,0.735c0.06,0.047,1.523,1.181,6.783,3.136c0.06,0.022,0.122,0.033,0.182,0.033  c0.213,0,0.412-0.13,0.491-0.341C64.997,58.426,64.859,58.124,64.588,58.024z"/><path d="M65.703,59.067c-0.129,0.258-0.025,0.573,0.233,0.702l1.444,0.724c0.075,0.038,0.155,0.056,0.234,0.056  c0.192,0,0.377-0.106,0.468-0.289c0.13-0.258,0.025-0.573-0.233-0.702l-1.444-0.724C66.147,58.704,65.832,58.808,65.703,59.067z"/><path d="M34.906,44.802c-0.249-0.147-0.57-0.063-0.716,0.186c-0.147,0.249-0.063,0.57,0.186,0.716  c0.993,0.584,2.529,1.493,2.693,1.602c0.089,0.059,0.19,0.088,0.289,0.088c0.169,0,0.335-0.082,0.436-0.233  c0.16-0.241,0.095-0.565-0.146-0.726C37.408,46.275,35.162,44.953,34.906,44.802z"/><path d="M56.684,20.844c-0.048,0.008-0.123,0.02-0.206,0.035c-0.286,0.05-0.477,0.323-0.425,0.609  c0.051,0.283,0.322,0.472,0.605,0.422c0.077-0.013,0.145-0.025,0.19-0.032c0.285-0.045,0.48-0.313,0.435-0.599  C57.238,20.993,56.97,20.799,56.684,20.844z"/><path d="M67.06,19.571c-4.652,0.264-8.666,0.99-8.706,0.997c-0.284,0.052-0.473,0.324-0.421,0.609  c0.046,0.253,0.266,0.429,0.514,0.429c0.031,0,0.063-0.003,0.095-0.009c0.039-0.007,3.989-0.721,8.577-0.982  c0.289-0.016,0.509-0.264,0.493-0.552C67.596,19.775,67.344,19.555,67.06,19.571z"/><path d="M22.532,75.435c0.047,0,0.094-0.006,0.142-0.02c2.725-0.765,4.605-0.965,4.624-0.967c0.287-0.03,0.496-0.287,0.467-0.574  c-0.03-0.287-0.286-0.496-0.574-0.467c-0.08,0.008-1.981,0.209-4.799,1.001c-0.278,0.078-0.441,0.367-0.362,0.645  C22.093,75.284,22.303,75.435,22.532,75.435z"/><path d="M19.936,76.65c0.091,0,0.183-0.024,0.267-0.073c0.361-0.214,0.945-0.515,0.951-0.518c0.257-0.132,0.358-0.448,0.226-0.705  c-0.132-0.257-0.448-0.358-0.705-0.226c-0.025,0.013-0.617,0.318-1.006,0.549c-0.249,0.147-0.33,0.469-0.183,0.717  C19.583,76.559,19.757,76.65,19.936,76.65z"/><path d="M33.091,43.838l-0.768-0.366c-0.261-0.124-0.573-0.014-0.698,0.247c-0.124,0.261-0.014,0.573,0.247,0.698l0.768,0.366  c0.073,0.035,0.149,0.051,0.225,0.051c0.195,0,0.383-0.11,0.473-0.298C33.462,44.275,33.352,43.963,33.091,43.838z"/><path d="M84.124,19.885c-7.637-4.958-21.271-3.25-32.123-0.993L44.248,5.488c-0.219-0.38-0.663-0.548-1.079-0.41  c-0.416,0.138-0.67,0.539-0.618,0.974c0.397,3.349-0.315,9.51-1.227,15.313c-1.166,0.279-2.186,0.516-2.99,0.677  c-0.542,0.108-0.899,0.586-0.849,1.137c0.05,0.55,0.487,0.956,1.04,0.965c0.665,0.011,1.449,0.025,2.322,0.046  c-1.015,5.952-2.082,10.892-2.104,10.995c-0.008,0.037-0.01,0.075-0.013,0.112c-1.8,1.077-2.909,1.805-3.371,2.115  c-1.301-0.191-2.728-0.37-4.294-0.529c-13.621-1.39-22.463,4.822-22.833,5.088c-0.277,0.199-0.38,0.562-0.249,0.877  c0.131,0.315,0.462,0.497,0.798,0.441c0.022-0.004,2.294-0.379,6.262-0.379c3.864,0,7.366,0.709,10.33,1.663  c-5.318,4.349-11.656,12.142-13.793,19.102c-1.183,3.853-0.631,6.033-0.096,8.141c0.536,2.116,1.091,4.304-0.135,8.545  c-2.563,8.862,0.895,14.128,1.044,14.348c0.139,0.206,0.369,0.323,0.607,0.323c0.084,0,0.169-0.014,0.251-0.044  c0.316-0.115,0.513-0.431,0.477-0.766c-0.718-6.756,0.105-10.715,6.727-14.941c6.546-4.178,21.555-2.646,21.706-2.631  c0.338,0.036,0.655-0.165,0.768-0.485c0.113-0.32-0.009-0.676-0.294-0.859c-3.164-2.038-5.984-2.628-11.102-3.698  c-2.054-0.429-4.382-0.916-7.282-1.606c-5.337-1.269-5.973-2.59-6.04-2.965c-0.094-0.524,0.492-1.018,0.674-1.157  c1.342-0.742,2.919-1.241,4.519-1.264c0.03,0,0.06-0.001,0.09-0.001c4.342,0,6.233,4.494,6.311,4.685  c0.105,0.258,0.347,0.435,0.624,0.455c0.278,0.021,0.543-0.118,0.685-0.357c1.296-2.189,1.655-3.298,2.108-4.703  c0.143-0.441,0.29-0.898,0.481-1.432c1.601-4.475,14.766-6.131,20.105-6.423c0.866,0.766,4.015,3.276,10.184,5.35  c6.876,2.311,13.25,9.089,13.313,9.157c0.139,0.149,0.333,0.233,0.536,0.233c0.014,0,0.028,0,0.043-0.001  c0.218-0.013,0.419-0.122,0.548-0.297c4.491-6.108-6.494-16.571-10.01-19.669c1.632-0.561,4.583-1.746,7.618-3.809  c3.906-2.656,6.918-6.851,8.365-8.867c0.273-0.38,0.489-0.681,0.644-0.879c0.448-0.573,0.685-0.735,0.778-0.78  c0.119,0.127,0.507,0.706,0.79,3.033c0.43,3.53-0.236,8.364-0.672,10.932c-0.088,0.521,0.213,1.016,0.716,1.177  c0.502,0.161,1.034-0.066,1.266-0.54c1.093-2.242,3.68-8.167,4.091-14.749C92.5,29.401,89.844,23.598,84.124,19.885z M44.128,8.206  l6.366,11.006c-2.751,0.597-5.287,1.213-7.45,1.738c-0.058,0.014-0.113,0.027-0.17,0.041C43.576,16.416,44.138,11.665,44.128,8.206z   M42.336,24.229c3.312,0.093,7.507,0.263,11.437,0.573l1.17,2.024c-1.703,0.754-3.712,1.698-5.996,2.864  c-3.54,1.807-6.365,3.365-8.518,4.61C40.821,32.421,41.596,28.589,42.336,24.229z M90.555,37.04  c-0.276,4.425-1.624,8.626-2.717,11.389c0.318-2.584,0.544-5.742,0.233-8.295c-0.333-2.736-0.89-4.019-1.862-4.289  c-1.06-0.295-1.939,0.83-2.315,1.31c-0.173,0.221-0.397,0.533-0.68,0.927c-1.398,1.947-4.307,6-7.999,8.509  c-4.238,2.882-8.419,3.996-8.461,4.007c-0.266,0.07-0.471,0.283-0.53,0.552c-0.059,0.269,0.038,0.548,0.25,0.723  c4.024,3.306,13.429,12.607,11.217,17.772c-1.871-1.857-7.274-6.842-13.232-8.844c-6.859-2.305-9.835-5.199-9.863-5.226  c-0.146-0.146-0.345-0.222-0.552-0.213c-0.048,0.002-4.838,0.238-9.83,1.215c-6.902,1.35-10.903,3.435-11.89,6.194  c-0.199,0.556-0.35,1.023-0.496,1.475c-0.35,1.083-0.623,1.927-1.322,3.247c-1.021-1.671-3.286-4.404-7.125-4.341  c-3.958,0.056-8.181,2.637-9.414,5.753c-0.149,0.376,0.035,0.802,0.412,0.951c0.376,0.149,0.802-0.035,0.951-0.412  c0.268-0.678,0.779-1.381,1.461-2.036c0.387,1.657,2.718,2.974,7.119,4.02c2.92,0.694,5.258,1.183,7.321,1.614  c3.196,0.668,5.465,1.142,7.462,1.904c-5.036-0.208-14.067-0.067-19.028,3.099c-4.555,2.907-7.194,5.749-7.55,11.516  c-0.371-2.194-0.409-5.167,0.64-8.794c1.337-4.623,0.705-7.114,0.148-9.312c-0.529-2.087-0.986-3.889,0.077-7.35  c2.15-7,8.759-14.902,14.031-18.962c5.076,1.901,8.202,4.334,8.266,4.385c0.135,0.107,0.296,0.159,0.455,0.159  c0.216,0,0.429-0.095,0.574-0.277c0.252-0.317,0.199-0.778-0.118-1.029c-0.356-0.283-8.868-6.936-21.147-6.936  c-1.151,0-2.161,0.03-3.021,0.074c3.599-1.719,10.295-4.055,18.894-3.177c6.62,0.675,10.617,1.685,12.805,2.413  c2.377,0.791,3.193,1.43,3.194,1.431c0.31,0.26,0.772,0.219,1.032-0.091c0.26-0.31,0.219-0.772-0.091-1.032  c-0.111-0.093-2.356-1.9-10.333-3.302c2.026-1.275,6.027-3.67,12.09-6.765c6.717-3.429,11.129-4.95,12.027-5.247  c3.453,0.644,4.019,1.266,4.109,1.427c0.196,0.354,0.642,0.482,0.996,0.285c0.354-0.196,0.481-0.642,0.285-0.996  c-0.545-0.981-2.433-2.215-12.279-3.052c-4.414-0.376-9.273-0.566-12.915-0.662c0.494-0.119,1.012-0.244,1.551-0.375  c10.653-2.586,30.483-7.398,39.937-1.261C88.569,24.518,91.002,29.876,90.555,37.04z M55.554,24.954  c1.148,0.106,2.166,0.218,3.071,0.333c-0.665,0.259-1.443,0.575-2.328,0.951L55.554,24.954z"/><text x="0" y="115" fill="#000000" font-size="5px" font-weight="bold" font-family="'Helvetica Neue', Helvetica, Arial-Unicode, Arial, Sans-serif">Created by Artzgeo</text><text x="0" y="120" fill="#000000" font-size="5px" font-weight="bold" font-family="'Helvetica Neue', Helvetica, Arial-Unicode, Arial, Sans-serif">from the Noun Project</text></svg>