<?xml version="1.0" encoding="iso-8859-1"?>
<!-- Generator: Adobe Illustrator 19.0.0, SVG Export Plug-In . SVG Version: 6.00 Build 0)  -->
<svg version="1.1" id="Capa_1" xmlns="http://www.w3.org/2000/svg" xmlns:xlink="http://www.w3.org/1999/xlink" x="0px" y="0px"
	 viewBox="0 0 512 512" style="enable-background:new 0 0 512 512;" xml:space="preserve">
<g>
	<g>
		<path d="M413.683,320.822l-24.632-183.098c-1.564-11.605-8.243-21.681-18.324-27.644c-10.079-5.963-22.121-6.962-33.041-2.747
			l-10.562,4.075c-12.989,5.005-26.471,8.828-40.074,11.36c-2.389,0.444-4.488,0.853-6.398,1.224
			c-9.199,1.786-13.396,2.602-24.653,2.602c-27.136,0-44.604-4.897-71.276-15.186l-10.562-4.076
			c-10.922-4.217-22.965-3.216-33.043,2.747c-10.08,5.963-16.759,16.037-18.325,27.646L98.165,320.824L0,351.463v5.592
			c0,27.672,22.514,50.186,50.186,50.186h411.628c27.672,0,50.186-22.514,50.186-50.186v-5.596L413.683,320.822z M390.592,263.272
			l2.047,15.208h-34.006v-15.208H390.592z M137.867,139.755c0.939-6.962,4.947-13.008,10.995-16.586
			c6.046-3.577,13.27-4.178,19.825-1.648l10.564,4.076c28.461,10.979,47.205,16.205,76.748,16.205
			c12.72,0,17.989-1.024,27.554-2.881c1.875-0.364,3.936-0.765,6.282-1.202c14.516-2.703,28.902-6.781,42.761-12.122l10.566-4.076
			c6.553-2.529,13.776-1.929,19.823,1.648c6.049,3.578,10.055,9.623,10.994,16.584l14.569,108.311h-29.916V235.39h-15.208v12.673
			h-20.277V235.39H307.94v12.673H123.299L137.867,139.755z M343.425,263.272v15.208h-20.277v-15.208H343.425z M121.256,263.272
			H307.94v15.208H119.208L121.256,263.272z M117.163,293.688H307.94v12.673h15.208v-12.673h20.277v12.673h15.208v-12.673h36.053
			l3.41,25.347H113.753L117.163,293.688z M461.814,392.032H50.186c-17.43,0-31.924-12.815-34.552-29.519l90.582-28.272h299.419
			l90.732,28.275C493.736,379.219,479.243,392.032,461.814,392.032z"/>
	</g>
</g>
<g>
	<g>
		<g>
			
				<rect x="143.968" y="205.223" transform="matrix(-0.99 -0.1414 0.1414 -0.99 271.5912 444.0809)" width="15.209" height="14.338"/>
			
				<rect x="136.006" y="159.005" transform="matrix(0.1487 -0.9889 0.9889 0.1487 -30.5143 297.77)" width="43.384" height="15.208"/>
		</g>
	</g>
</g>
<g>
	<g>
		<path d="M364.987,172.703c-0.667-9.17-5.41-17.394-13.014-22.565c-7.603-5.17-16.995-6.557-25.769-3.804l-24.827,7.789
			l4.552,14.511l24.826-7.789c4.313-1.351,8.928-0.671,12.667,1.871c3.737,2.54,6.069,6.583,6.396,11.09l2.012,27.665l15.168-1.103
			L364.987,172.703z"/>
	</g>
</g>
<g>
	<g>
		
			<rect x="62.798" y="353.994" transform="matrix(0.9052 -0.4249 0.4249 0.9052 -145.0972 72.611)" width="54.878" height="15.207"/>
	</g>
</g>
<g>
	<g>
		<rect x="362.455" y="357.559" width="80.095" height="15.208"/>
	</g>
</g>
<g>
	<g>
		<g>
			<rect x="261.069" y="357.561" width="15.208" height="15.208"/>
			<rect x="291.485" y="357.561" width="15.208" height="15.208"/>
			<rect x="321.901" y="357.561" width="15.208" height="15.208"/>
		</g>
	</g>
</g>
<g>
</g>
<g>
</g>
<g>
</g>
<g>
</g>
<g>
</g>
<g>
</g>
<g>
</g>
<g>
</g>
<g>
</g>
<g>
</g>
<g>
</g>
<g>
</g>
<g>
</g>
<g>
</g>
<g>
</g>
</svg>
