<?xml version="1.0" encoding="iso-8859-1"?>
<!-- Generator: Adobe Illustrator 18.0.0, SVG Export Plug-In . SVG Version: 6.00 Build 0)  -->
<!DOCTYPE svg PUBLIC "-//W3C//DTD SVG 1.1//EN" "http://www.w3.org/Graphics/SVG/1.1/DTD/svg11.dtd">
<svg version="1.1" id="Capa_1" xmlns="http://www.w3.org/2000/svg" xmlns:xlink="http://www.w3.org/1999/xlink" x="0px" y="0px"
	 viewBox="0 0 388.559 388.559" style="enable-background:new 0 0 388.559 388.559;" xml:space="preserve">
<g>
	<g>
		<g>
			<g>
				<g>
					<path d="M211.349,279.199c-1.969,0-3.9-0.8-5.299-2.2c-1.4-1.39-2.201-3.319-2.201-5.3c0-1.979,0.801-3.91,2.201-5.3
						c1.399-1.4,3.33-2.2,5.299-2.2c1.98,0,3.91,0.8,5.311,2.2c1.391,1.39,2.189,3.32,2.189,5.3c0,1.98-0.799,3.91-2.189,5.3
						C215.259,278.399,213.329,279.199,211.349,279.199z"/>
				</g>
				<g>
					<path d="M211.349,221.239c-1.969,0-3.9-0.8-5.299-2.2c-1.4-1.399-2.201-3.33-2.201-5.3s0.801-3.9,2.201-5.31
						c1.389-1.391,3.33-2.19,5.299-2.19c1.98,0,3.91,0.8,5.311,2.19c1.391,1.4,2.189,3.34,2.189,5.31s-0.799,3.9-2.189,5.3
						C215.259,220.439,213.319,221.239,211.349,221.239z"/>
				</g>
				<g>
					<path d="M211.349,163.269c-1.969,0-3.9-0.8-5.299-2.19c-1.4-1.4-2.201-3.33-2.201-5.3c0-1.98,0.801-3.91,2.201-5.31
						c1.399-1.391,3.33-2.19,5.299-2.19c1.971,0,3.91,0.8,5.311,2.19c1.391,1.399,2.189,3.329,2.189,5.31
						c0,1.97-0.799,3.9-2.189,5.3C215.259,162.47,213.329,163.269,211.349,163.269z"/>
				</g>
			</g>
			<g>
				<path d="M129.712,295.654c-0.602,0-1.211-0.073-1.82-0.225l-19.148-4.776c-1.93-0.482-3.59-1.71-4.615-3.415
					c-1.023-1.705-1.328-3.748-0.848-5.678l17.307-69.363c1.002-4.021,5.078-6.464,9.092-5.462l19.15,4.777
					c1.93,0.481,3.59,1.711,4.613,3.416c1.023,1.705,1.33,3.747,0.848,5.677l-17.307,69.362
					C136.134,293.377,133.073,295.654,129.712,295.654z M119.651,277.914l4.594,1.146l13.676-54.809l-4.596-1.146L119.651,277.914z"
					/>
			</g>
			<g>
				<g>
					<path d="M258.847,295.654c-3.361,0-6.42-2.276-7.272-5.687l-17.309-69.362c-0.48-1.93-0.176-3.972,0.848-5.677
						c1.025-1.705,2.686-2.935,4.615-3.416l19.148-4.777c4.021-0.995,8.09,1.443,9.094,5.462l17.307,69.363
						c0.48,1.93,0.176,3.972-0.848,5.678c-1.025,1.705-2.686,2.934-4.615,3.415l-19.146,4.776
						C260.06,295.581,259.448,295.654,258.847,295.654z M250.638,224.252l13.676,54.809l4.594-1.146l-13.674-54.809L250.638,224.252
						z"/>
				</g>
				<path d="M388.421,286.729l-5.172-26.764c-0.008-0.035-19.971-89.287-28.891-115.55c-18.59-54.747-53.328-76.637-67.633-83.592
					l-52.867-27.228c-0.336-0.195-0.689-0.365-1.057-0.506c-2.053-0.845-4.385-0.75-6.367,0.303
					c-2.189,1.164-3.662,3.332-3.936,5.795c-0.047,0.428-0.109,0.833-0.16,1.255c-1.748,2.505-11.295,7.637-27.916,7.637
					c-17.256,0-26.863-5.524-28.057-7.903c-0.014,0.01-0.029,0.018-0.043,0.027c-0.039-0.322-0.086-0.627-0.123-0.953
					c-0.273-2.463-1.748-4.631-3.939-5.794c-2.193-1.164-4.82-1.17-7.016-0.018c0,0-54.83,28.091-54.838,28.095
					c-15.068,7.669-48.205,29.87-66.207,82.882C25.282,170.679,5.317,259.929,5.312,259.965l-5.174,26.764
					c-0.766,3.957,1.734,7.812,5.658,8.728c0,0,45.168,10.471,45.734,10.471c2.447,0,4.789-1.203,6.205-3.289
					c0,0,16.537-24.381,16.551-24.4c0.199-0.299,0.896-1.82,0.996-2.179c0.006-0.021,1.461-5.442,1.461-5.442
					c3.512,34.148,16.912,79.703,16.912,79.703c0.822,3.355,3.834,5.717,7.295,5.717h93.367h0.105h93.227
					c3.455,0,6.463-2.361,7.285-5.718c0,0,13.377-45.556,16.883-79.698l1.439,5.382c0.006,0.02,0.016,0.037,0.021,0.057
					c0.098,0.357,0.793,1.874,0.99,2.169c0.016,0.024,0.029,0.051,0.047,0.075l16.51,24.335c1.414,2.086,3.756,3.289,6.205,3.289
					c0.566,0,45.73-10.471,45.73-10.471C386.687,294.54,389.187,290.686,388.421,286.729z M235.776,51.543l9.002,4.725
					c-4.195,20.054-18.039,52.724-42.844,60.033v-10.136C210.761,100.77,229.054,85.774,235.776,51.543z M194.423,63.077
					c8.342,0,16.715-1.199,23.846-3.545c-6.775,21.152-18.561,30.461-23.936,33.744c-5.402-3.326-17.174-12.668-23.928-33.801
					C177.571,61.86,186.015,63.077,194.423,63.077z M152.903,51.602c6.738,34.254,25.084,49.244,33.914,54.627v10.131
					c-24.881-7.182-38.783-39.873-43.018-59.989L152.903,51.602z M48.216,289.952l-31.982-7.463l2.332-12.059l37.129,8.497
					L48.216,289.952z M62.681,265.139l-41.045-9.393c4.914-21.641,19.586-85.359,26.768-106.507
					C59.271,117.24,76.228,98.05,88.54,87.586c6.652-5.655,12.711-9.45,17.131-11.841c8.524,33.939,4.883,55.573,0.045,68.002
					c-4.916,12.627-11.732,18.166-13.307,19.32c-1.744,0.947-3.113,2.576-3.666,4.643L62.681,265.139z M89.728,222.079
					l12.814-47.903c8.754-7.153,35.428-35.542,16.938-105.063l10.59-5.547c2.756,11.16,7.766,24.721,15.484,36.888
					c11.07,17.45,25.232,28.169,41.264,31.343v186.832h-85.877C97.368,306.535,88.956,272.481,89.728,222.079z M106.847,341.039
					l-1.816-7.411h81.787v7.411H106.847z M201.935,341.036v-7.408h81.641l-1.813,7.408H201.935z M287.657,318.628h-85.723V131.759
					c15.951-3.221,30.045-13.926,41.07-31.306c7.738-12.198,12.756-25.801,15.508-36.978l10.635,5.582
					c-18.414,69.351,8.033,97.781,16.844,105.028l12.865,48.089C299.61,272.536,291.216,306.557,287.657,318.628z M325.878,265.139
					l-25.861-96.671c-0.305-1.898-1.336-3.661-3.002-4.856c-0.088-0.066-0.178-0.126-0.27-0.188c-0.053-0.033-0.1-0.072-0.152-0.105
					c-0.332-0.218-8.215-5.493-13.703-19.614c-4.828-12.426-8.461-34.047,0.031-67.961c13.301,7.197,41.533,27.258,57.234,73.494
					c7.182,21.148,21.855,84.866,26.768,106.507L325.878,265.139z M340.345,289.952l-7.48-11.024l37.129-8.497l2.33,12.059
					L340.345,289.952z"/>
			</g>
		</g>
	</g>
</g>
<g>
</g>
<g>
</g>
<g>
</g>
<g>
</g>
<g>
</g>
<g>
</g>
<g>
</g>
<g>
</g>
<g>
</g>
<g>
</g>
<g>
</g>
<g>
</g>
<g>
</g>
<g>
</g>
<g>
</g>
</svg>
