<?xml version="1.0" encoding="iso-8859-1"?>
<!-- Generator: Adobe Illustrator 18.0.0, SVG Export Plug-In . SVG Version: 6.00 Build 0)  -->
<!DOCTYPE svg PUBLIC "-//W3C//DTD SVG 1.1//EN" "http://www.w3.org/Graphics/SVG/1.1/DTD/svg11.dtd">
<svg version="1.1" id="Capa_1" xmlns="http://www.w3.org/2000/svg" xmlns:xlink="http://www.w3.org/1999/xlink" x="0px" y="0px"
	 viewBox="0 0 250.584 250.584" style="enable-background:new 0 0 250.584 250.584;" xml:space="preserve">
<g>
	<path d="M214.861,209.064c-0.012-0.074,0.016-0.144-0.017-0.217c-0.069-0.148-0.141-0.278-0.211-0.425
		c-0.069-0.148-0.137-0.295-0.218-0.439c-5.697-11.839-12.015-19.461-11.198-33.878c0.448-7.899,3.303-15.57,2.837-23.567
		c-1.207-20.72-22.751-28.646-24.019-50.252c5.136-2.321,5.971-8.394,7.264-13.575c0.3-0.453,0.534-0.969,0.599-1.61
		c5.006-48.881-25.697-91.37-77.932-84.337C58.746,7.932,34.56,50.124,41.647,101.864c0.121,0.885,0.733,1.362,1.455,1.513
		c1.725,4.657,6.483,8.022,11.783,7.63c0.511-0.038,1.073-0.251,1.617-0.39c-13.301,15.272-3.035,39.983-2.417,59.517
		c0.523,16.508-7.294,25.682-13.963,39.121c-2.363,4.761-5.078,11.087-4.785,16.602c0.343,6.464,1.244,10.096,7.376,12.695
		c0.407,0.173,0.79,0.192,1.155,0.155c8.054,4.432,15.036-18.249,17.387-23.458c5.275-11.689,15.888-21.072,16.692-34.562
		c0.505-8.465-3.98-14.827-6.141-22.642c-5.214-18.855-4.102-33.268,10.019-47.552c0.551-0.558,0.739-1.189,0.685-1.788
		c2.356-1.11,4.446-2.806,6.213-4.826c1.363,2.303,3.08,4.138,4.985,5.599c-0.586,0.222-0.981,0.99-0.465,1.65
		c17.956,22.976-6.917,50.916-3.507,76.652c2.383,17.987,8.14,2.406,11.039,31.858c0.756,7.687-0.606,14.71,0.168,22.346
		c-0.017,0.071-0.079,0.1-0.086,0.179c-0.469,5.841,5.814,9.441,11.045,8.163c6.161-1.505,10.824-10.49,8.795-16.452
		c-0.247-0.725-0.804-1.063-1.393-1.165c-3.846-26.812-10.1-51.367-2.899-78.639c4.227-16.006,4.565-28.533-1.291-43.444
		c3.381-2.083,6.163-5.322,7.672-9.7c2.617,3.577,6.309,5.498,10.196,6.024c-4.774,8.751-6.965,17.617-5.555,27.864
		c3.238,23.537,17.739,31.627,11.906,58.949c-3.803,17.809-8.643,40.983,12.372,46.397c3.755,2.742,9.627,1.932,12.454-2.07
		c1.933-2.735,2.179-6.342,1.131-9.47c-0.701-2.094-2.226-4.897-4.345-6.134c-12.726-14.798,4.552-40.603,1.423-57.619
		c-0.894-4.865-1.8-6.923-3.66-10.898c-7.672-16.392-8.445-33.65,1.594-50.007c0.176-0.287,0.256-0.568,0.307-0.843
		c1.01-0.366,1.966-0.927,2.884-1.579c-1.831,3.421-2.509,6.89-1.859,11.581c3.211,23.172,23.041,21.754,20.82,54.041
		c-1.388,20.172-4.592,38.873,16.13,49.91c2.614,3.802,8.158,5.278,12.189,2.728C214.149,217.666,216.183,212.868,214.861,209.064z
		 M64.457,152.057c1.967,8.663,6.081,14.95,6.544,24.283c0.563,11.365-2.182,16.237-7.654,25.721
		c-2.083,3.61-15.018,30.787-20.706,30.366c-5.57-11.232,16.834-43.196,17.537-54.698c1.538-25.148-17.411-51.307,7.078-71.81
		c1.91,2.184,4.639,3.685,7.957,4.056c0.226,0.025,0.427-0.037,0.65-0.024C65.396,121.715,60.839,136.124,64.457,152.057z
		 M106.964,186.354c1.363,16.455,5.663,33.342,9.758,49.474c-0.805,3.505-0.794,7.096-4.181,9.531
		c-2.304,1.657-6.464,1.404-8.37-0.789c0.174-0.252,0.356-0.505,0.343-0.866c-0.391-10.79,1.794-21.922-0.03-32.611
		c-0.942-5.519-5.764-16.052-7.246-20.424c-5.106-15.065-1.566-22.755,2.466-37.534c4.347-15.934,7.778-29.557-3.95-42.291
		c4.658,2.687,10.175,3.178,15.101,1.672C120.901,139.281,104.744,159.548,106.964,186.354z M144.141,133.075
		c1.089,14.916,13.846,22.886,14.076,39.143c0.248,17.58-15.851,37.382-1.041,50.666c-0.174,0.457-0.194,0.994,0.023,1.505
		c0.734,1.735,2.577,2.686,3.493,4.39c1.012,1.884,1.413,4.415,0.367,6.381c-0.856,1.609-2.507,2.594-4.263,2.917
		c-0.184-0.189-0.332-0.413-0.626-0.488c-29.954-7.676-5.145-52.43-9.99-71.109c-1.236-4.764-4.511-9.019-6.686-13.275
		c-8.329-16.295-9.504-28.846-4.075-46.13c5.262-0.09,10.555-2.641,13.807-7.422c1.612,2.137,3.618,3.315,5.721,3.826
		C149.553,112.187,143.366,122.463,144.141,133.075z M163.287,92.219c-7.186,4.628-10.923,4.28-11.212-1.043
		c-0.623-2.815-5.401-3.004-5.883,0c-2.009,12.527-15.733,13.935-22.214,4.207c0.002-0.023,0.008-0.042,0.01-0.066
		c0.238-3.019-4.892-3.769-5.346-0.724c-2.157,14.464-21.396,19.353-26.823,3.36c-0.731-2.153-3.686-2.706-4.915-0.642
		c-3.848,6.464-17.964,10.58-19.348-0.958c-0.197-1.641-1.938-1.931-2.769-0.948c-0.921-0.3-2.011-0.072-2.513,0.873
		c-0.859,1.615-0.767,3.373-1.558,5.006c-1.084,2.236-3.205,3.979-5.648,4.45c-3.843,0.741-7.166-1.657-9.101-4.798
		c-1.6-39.789,10.269-80.481,53.4-90.615c52.925-12.435,88.841,21.412,83.706,74.78c-0.041,0.424,0.037,0.77,0.119,1.111
		c-0.568,3.094-0.725,6.732-2.65,8.801c-4.477,4.812-9.411-4.036-11.036-7.432c-0.005-0.084,0.004-0.162-0.002-0.246
		c-0.192-2.698-3.936-3.352-4.78-0.647C164.069,88.486,163.589,90.329,163.287,92.219z M208.425,216.537
		c-1.589,0.948-3.365,1.021-5.017,0.549c0.031-0.488-0.095-0.987-0.658-1.36c-18.874-12.518-19.097-27.062-16.447-47.503
		c0.952-7.343,3.321-7.515,2.489-15.201c-1.958-18.09-31.807-33.947-20.714-54.508c0.333-0.617-0.067-1.268-0.603-1.53
		c0.307-0.558,0.639-1.091,0.882-1.713c2.326,3.235,5.407,5.8,9.348,5.907c0.246,6.919,1.468,12.786,5.371,19.093
		c4.619,7.462,9.749,11.807,13.798,20.22c6.035,12.54,4.263,16.137,2.449,29.879c-2.301,17.429,1.454,24.57,11.8,36.642
		c-0.153,0.299-0.234,0.64-0.179,0.999C211.415,211.122,211.525,214.688,208.425,216.537z"/>
	<path d="M83.885,28.084c-1.318-0.053-2.604,0.154-3.86,0.538c-0.316,0.065-0.603,0.196-0.869,0.387
		c-7.998,3.06-14.549,13.74-18.235,20.211c-4.491,7.886-12.129,22.296-6.992,31.235c3.917,6.816,11.479,5.684,15.166-0.479
		c3.589-5.998,4.486-14.229,6.324-20.834c2.551-9.171,5.099-18.342,7.654-27.512c0.107-0.385,0.125-0.741,0.076-1.066
		c0.343-0.105,0.68-0.298,1.025-0.359C85.416,29.988,85.051,28.131,83.885,28.084z"/>
</g>
</svg>
