<?xml version="1.0" encoding="iso-8859-1"?>
<!-- Generator: Adobe Illustrator 19.0.0, SVG Export Plug-In . SVG Version: 6.00 Build 0)  -->
<svg version="1.1" id="Layer_1" xmlns="http://www.w3.org/2000/svg" xmlns:xlink="http://www.w3.org/1999/xlink" x="0px" y="0px"
	 viewBox="0 0 512.001 512.001" style="enable-background:new 0 0 512.001 512.001;" xml:space="preserve">
<g>
	<g>
		<path d="M234.826,231.229c-9.347-27.764-39.538-42.751-67.307-33.409c-5.709,1.921-8.781,8.107-6.86,13.817
			c1.922,5.709,8.105,8.779,13.817,6.86c16.365-5.508,34.167,3.326,39.675,19.691c2.668,7.925,2.09,16.416-1.63,23.906
			c-3.719,7.491-10.134,13.087-18.062,15.755c-7.927,2.668-16.418,2.091-23.908-1.626c-7.49-3.717-13.086-10.133-15.754-18.065
			c-2.047-6.083-2.191-12.539-0.414-18.672c1.677-5.786-1.656-11.836-7.442-13.511c-5.783-1.676-11.836,1.656-13.511,7.442
			c-3.019,10.423-2.779,21.385,0.693,31.699c4.527,13.453,14.021,24.338,26.731,30.647c7.451,3.698,15.483,5.565,23.566,5.565
			c5.705,0,11.434-0.93,17-2.803c13.449-4.527,24.33-14.021,30.64-26.729C238.371,259.085,239.354,244.678,234.826,231.229z"/>
	</g>
</g>
<g>
	<g>
		<path d="M402.17,174.902c-9.346-27.764-39.541-42.75-67.308-33.406c-13.449,4.528-24.33,14.023-30.637,26.738
			c-6.307,12.713-7.286,27.12-2.759,40.57c7.462,22.166,28.205,36.187,50.395,36.187c5.605,0,11.304-0.896,16.902-2.779
			C396.529,232.862,411.515,202.669,402.17,174.902z M361.803,221.535c-16.359,5.507-34.153-3.327-39.662-19.691
			c-2.669-7.929-2.091-16.421,1.626-23.916c3.716-7.493,10.129-13.089,18.053-15.757c3.301-1.111,6.659-1.638,9.965-1.638
			c13.08,0,25.312,8.265,29.709,21.329C387.004,198.227,378.17,216.024,361.803,221.535z"/>
	</g>
</g>
<g>
	<g>
		<path d="M289.941,85.209c-4.527-13.45-14.019-24.331-26.729-30.641c-12.712-6.311-27.118-7.294-40.568-2.766
			c-27.763,9.347-42.749,39.54-33.407,67.308c4.527,13.449,14.021,24.329,26.731,30.637c7.451,3.697,15.483,5.563,23.565,5.563
			c5.705,0,11.434-0.93,16.999-2.803c13.454-4.527,24.339-14.021,30.648-26.731C293.488,113.066,294.47,98.659,289.941,85.209z
			 M267.641,116.076c-3.718,7.491-10.133,13.086-18.066,15.754c-7.928,2.668-16.418,2.091-23.908-1.625
			c-7.49-3.716-13.086-10.129-15.753-18.053c-5.507-16.368,3.326-34.166,19.69-39.675c3.279-1.104,6.654-1.651,10.014-1.651
			c4.764,0,9.5,1.101,13.893,3.282c7.491,3.719,13.087,10.133,15.755,18.061C271.936,100.097,271.357,108.587,267.641,116.076z"/>
	</g>
</g>
<g>
	<g>
		<path d="M235.875,427.514c-0.863-18.076-16.007-32.236-34.478-32.236h-76.985c-5.076,0-9.848-1.977-13.429-5.557
			c-0.791-0.792-1.502-1.641-2.134-2.537h22.925c16.986,0,30.919-13.032,31.719-29.681c0.404-8.614-2.646-16.787-8.586-23.012
			c-5.855-6.135-14.075-9.655-22.642-9.655H69.077c-18.452,0-35.799,7.185-48.849,20.237C7.184,358.131,0,375.48,0,393.925
			c0,38.089,30.988,69.078,69.077,69.078H202.04c9.208,0,18.137-3.821,24.498-10.484
			C232.993,445.758,236.309,436.883,235.875,427.514z M210.76,437.454c-2.298,2.408-5.395,3.734-8.719,3.734H69.077
			c-26.06,0-47.262-21.202-47.262-47.262c0-12.622,4.917-24.496,13.843-33.43c8.927-8.927,20.794-13.843,33.42-13.843h63.275
			c2.583,0,4.987,1.03,6.771,2.9c1.783,1.869,2.698,4.33,2.577,6.917c-0.236,4.907-4.689,8.901-9.928,8.901h-37.27
			c-6.024,0-10.908,4.883-10.908,10.908c0,10.889,4.243,21.137,11.954,28.862c7.708,7.708,17.959,11.954,28.862,11.954h76.985
			c6.694,0,12.385,5.141,12.687,11.445C214.238,431.88,213.058,435.047,210.76,437.454z"/>
	</g>
</g>
<g>
	<g>
		<path d="M491.769,298.614c-13.049-13.047-30.395-20.232-48.845-20.232h-63.275c-8.478,0-16.701,3.519-22.555,9.655
			c-5.94,6.225-8.99,14.398-8.585,23.025c0.8,16.631,14.732,29.656,31.717,29.656h22.929c-0.629,0.894-1.341,1.74-2.129,2.528
			c-3.588,3.589-8.361,5.565-13.437,5.565h-76.985c-18.471,0-33.614,14.159-34.477,32.249c-0.433,9.362,2.883,18.241,9.339,25.003
			c6.36,6.662,15.289,10.483,24.495,10.483h132.963c38.089,0,69.077-30.994,69.077-69.088
			C512,329.007,504.815,311.659,491.769,298.614z M442.923,394.732H309.96c-3.323,0-6.419-1.325-8.716-3.733
			c-2.299-2.408-3.481-5.579-3.327-8.914c0.301-6.319,5.993-11.459,12.687-11.459h76.985c10.904,0,21.155-4.245,28.864-11.954
			c7.707-7.708,11.953-17.958,11.953-28.862c0-6.024-4.884-10.908-10.908-10.908h-37.271c-5.239,0-9.692-3.988-9.927-8.877
			c-0.122-2.599,0.794-5.061,2.576-6.931c1.784-1.87,4.19-2.9,6.86-2.9h63.187c12.623,0,24.492,4.916,33.42,13.843
			c8.928,8.927,13.843,20.794,13.843,33.42C490.185,373.526,468.984,394.732,442.923,394.732z"/>
	</g>
</g>
<g>
</g>
<g>
</g>
<g>
</g>
<g>
</g>
<g>
</g>
<g>
</g>
<g>
</g>
<g>
</g>
<g>
</g>
<g>
</g>
<g>
</g>
<g>
</g>
<g>
</g>
<g>
</g>
<g>
</g>
</svg>
