<?xml version="1.0" encoding="iso-8859-1"?>
<!-- Generator: Adobe Illustrator 19.0.0, SVG Export Plug-In . SVG Version: 6.00 Build 0)  -->
<svg version="1.1" id="Layer_1" xmlns="http://www.w3.org/2000/svg" xmlns:xlink="http://www.w3.org/1999/xlink" x="0px" y="0px"
	 viewBox="0 0 512 512" style="enable-background:new 0 0 512 512;" xml:space="preserve">
<g>
	<g>
		<path d="M268.29,234.276c-9.514-2.002-18.442-2.404-26.536-1.189c-4.609,0.691-7.786,4.988-7.095,9.596
			c0.692,4.611,4.983,7.788,9.597,7.097c6.1-0.91,13.016-0.573,20.558,1.013c0.586,0.124,1.17,0.183,1.746,0.183
			c3.907-0.001,7.413-2.729,8.25-6.704C275.771,239.711,272.851,235.236,268.29,234.276z"/>
	</g>
</g>
<g>
	<g>
		<path d="M511.633,459.806c-0.99-3.251-3.834-5.589-7.213-5.935c-48.79-4.997-81.033-21.775-95.836-49.869
			c-12.367-23.472-10.635-50.124-9.489-67.761c0.422-6.49,0.755-11.614,0.327-15.551c-2.363-21.782-20.432-35.704-27.466-40.348
			c-17.84-45.043-52.973-76.134-104.473-92.444c-41.427-13.12-82.717-12.879-100.353-12.78c-3.057,0.019-5.473,0.03-6.952-0.024
			c-14.006-0.536-18.948-14.485-19.185-15.174c-1.453-4.403-6.187-6.816-10.607-5.388c-4.436,1.431-6.871,6.189-5.44,10.624
			c0.34,1.054,8.627,25.815,34.586,26.804c1.851,0.073,4.429,0.056,7.694,0.037c16.842-0.097,56.266-0.324,95.159,11.991
			c47.336,14.991,79.236,43.589,94.815,84.999c0.698,1.853,2.048,3.416,3.773,4.39c0.197,0.112,19.736,11.343,21.667,29.133
			c0.269,2.482-0.036,7.188-0.39,12.636c-1.193,18.341-3.188,49.038,11.399,76.724c12.916,24.513,36.115,41.69,69.185,51.314
			c-11.131-0.434-25.043-2.824-41.957-8.865c-15.372-5.489-28.283-15.702-38.371-30.357c-22.251-32.321-23.618-75.607-23.63-76.031
			c-0.101-4.23-3.318-7.732-7.525-8.189c-4.207-0.473-8.102,2.272-9.109,6.38c-0.044,0.179-4.803,18.034-19.957,24.342
			c-12.708,5.289-29.722,1.61-50.571-10.93c-2.793-1.681-6.305-1.602-9.022,0.204c-2.715,1.805-4.148,5.012-3.68,8.239
			l12.447,85.851H147.446c5.006-4.93,12.545-9.872,23.326-11.341c11.431-1.559,24.323-0.516,35.695,0.403
			c18.467,1.494,33.052,2.671,39.486-7.294c4.741-7.344,4.454-19.639-0.9-38.696c-4.593-16.347-12.843-36.909-23.855-59.46
			c-14.119-28.914-12.017-63.697,4.786-79.187c3.426-3.16,3.644-8.499,0.485-11.927c-3.159-3.426-8.498-3.643-11.926-0.485
			c-19.165,17.668-22.728,47.556-16.978,74.254c-8.763-3.806-21.646-12.362-35.685-31.568l7.598-22.307
			c0.812-2.384,0.516-5.009-0.807-7.152l-24.433-39.597c-2.447-3.967-7.645-5.197-11.614-2.75c-3.967,2.448-5.198,7.647-2.75,11.614
			l22.345,36.212l-19.079,56.018c-0.629,1.848-0.599,3.855,0.086,5.682l7.947,21.21h-9.873c-5.36-5.289-5.239-10.914-1.876-40.035
			l0.544-4.717c4.371-38.125-9.693-60.011-10.294-60.925c-2.562-3.892-7.797-4.971-11.689-2.41
			c-3.893,2.561-4.973,7.796-2.41,11.689c0.018,0.027,1.333,2.13,2.91,6.099c-14.029-14.282-21.137-36.999-24.729-55.825
			c-3.673-19.252-4.324-37.545-4.356-47.497c3.739-0.199,5.498-0.421,5.892-0.476c4.599-0.645,7.794-4.884,7.17-9.487
			s-4.872-7.836-9.475-7.234c-0.089,0.012-9.138,1.141-36.104,0.408c-14.55-0.397-23.963-0.379-29.755-0.257
			c-1.012-10.19,0.619-18.503,3.287-19.551c6.725-2.64,15.416-8.616,24.617-14.943c7.741-5.324,16.877-11.602,23.784-14.934
			l0.421,3.171c0.613,4.62,4.853,7.881,9.476,7.257c4.62-0.612,7.87-4.854,7.257-9.475l-2.721-20.523l14.777,17.524
			c1.176,1.394,2.086,2.194,3.811,2.594c1.694,0.856,16.159,9.354,21.126,51.139c0.511,4.291,4.155,7.444,8.37,7.444
			c0.333,0,0.668-0.02,1.007-0.061c4.628-0.549,7.934-4.749,7.385-9.377c-5.557-46.734-22.965-60.401-30.025-64.078L77.533,34.839
			c-2.417-2.867-6.435-3.794-9.864-2.278c-3.429,1.516-5.448,5.111-4.955,8.828l3.8,28.66c-9.335,3.408-20.342,10.973-31.052,18.337
			c-8.012,5.509-16.296,11.207-21.219,13.14c-6.356,2.495-13.985,9.353-14.237,27.855c-0.125,9.189,1.609,17.541,1.682,17.891
			c0.884,4.197,4.812,7.068,9.076,6.662c0.081-0.008,8.487-0.756,35.653-0.017c6.235,0.17,11.546,0.244,16.067,0.255
			c0.042,26.639,4.304,104.256,51.211,127.468c0.371,5.615,0.314,12.011-0.503,19.138l-0.541,4.704
			c-3.729,32.285-5.126,44.367,10.067,56.919c1.512,1.249,3.413,1.933,5.375,1.933h25.249c2.768,0,5.36-1.357,6.936-3.632
			c1.576-2.273,1.939-5.177,0.968-7.768l-11.159-29.785l5.311-15.595c20.301,23.935,38.774,30.27,48.199,31.893
			c0.769,1.842,1.577,3.648,2.432,5.4c24.736,50.658,28.122,76.196,25.903,81.277c-3.245,1.628-15.75,0.617-24.107-0.059
			c-12.227-0.986-26.085-2.107-39.333-0.305c-32.983,4.492-44.506,32.173-44.979,33.349c-1.049,2.602-0.737,5.554,0.832,7.879
			c1.569,2.324,4.191,3.718,6.995,3.718h149.873c2.45,0,4.779-1.065,6.381-2.917c1.604-1.852,2.323-4.31,1.97-6.734l-11.469-79.111
			c19.357,8.678,36.355,10.063,50.679,4.102c6.835-2.845,12.213-7.04,16.405-11.569c3.281,16.968,9.94,39.467,23.426,59.057
			c12.141,17.634,27.819,29.976,46.598,36.682c20.782,7.421,37.861,9.945,51.481,9.945c28.083,0,41.464-10.732,42.272-11.405
			C511.569,466.582,512.623,463.055,511.633,459.806z"/>
	</g>
</g>
<g>
	<g>
		<path d="M59.075,99.23c-5.353,0-9.708,4.348-9.708,9.692s4.355,9.691,9.708,9.691c5.353,0,9.708-4.347,9.708-9.691
			S64.428,99.23,59.075,99.23z"/>
	</g>
</g>
<g>
</g>
<g>
</g>
<g>
</g>
<g>
</g>
<g>
</g>
<g>
</g>
<g>
</g>
<g>
</g>
<g>
</g>
<g>
</g>
<g>
</g>
<g>
</g>
<g>
</g>
<g>
</g>
<g>
</g>
</svg>
