<?xml version="1.0" encoding="iso-8859-1"?>
<!-- Generator: Adobe Illustrator 19.1.0, SVG Export Plug-In . SVG Version: 6.00 Build 0)  -->
<svg version="1.1" id="Capa_1" xmlns="http://www.w3.org/2000/svg" xmlns:xlink="http://www.w3.org/1999/xlink" x="0px" y="0px"
	 viewBox="0 0 74.904 74.904" style="enable-background:new 0 0 74.904 74.904;" xml:space="preserve">
<g>
	<path d="M46.841,23.632c-1.637-5.89-2.703-11.383-2.928-12.577l0.574-2.79c0.083-0.402-0.034-0.819-0.314-1.12l-0.627-0.673
		c0.578-0.285,0.801-0.688,0.801-1.245V2.708C44.347,1.215,43.132,0,41.639,0H33c-1.493,0-2.708,1.215-2.708,2.708v2.519
		c0,0.614,0.272,1.039,0.99,1.327l-0.551,0.592c-0.28,0.301-0.396,0.717-0.314,1.12l0.574,2.79
		c-0.225,1.194-1.292,6.687-2.928,12.577c-2.193,7.893-4.334,15.959-4.334,20.257c0,4.558,1.773,26.516,1.848,27.448
		c0.009,0.111,0.032,0.219,0.069,0.323c0.047,0.133,1.204,3.244,5.38,3.244h12.851c4.175,0,5.332-3.112,5.379-3.244
		c0.037-0.104,0.06-0.213,0.069-0.323c0.075-0.933,1.849-22.89,1.849-27.448C51.175,39.591,49.034,31.525,46.841,23.632z
		 M43.267,19.975c0.138,0.563,0.283,1.141,0.434,1.728h-0.725C43.156,21.158,43.257,20.578,43.267,19.975z M32.828,2.708
		c0-0.092,0.08-0.172,0.172-0.172h8.639c0.091,0,0.172,0.08,0.172,0.172v1.631c-0.818,0.11-2.363,0.214-4.491,0.214
		c-2.128,0-3.674-0.104-4.491-0.214V2.708z M33.531,11.27c0.029-0.16,0.027-0.323-0.005-0.482l-0.493-2.393l0.656-0.704h7.527
		l0.656,0.705l-0.493,2.392c-0.032,0.159-0.035,0.322-0.006,0.482c0.007,0.039,0.451,2.471,1.238,5.93
		c-0.973-1.865-2.922-3.143-5.167-3.143c-2.221,0-4.155,1.251-5.137,3.084C33.085,13.714,33.524,11.308,33.531,11.27z
		 M40.736,19.883c0,1.815-1.477,3.291-3.292,3.291c-1.814,0-3.29-1.476-3.29-3.291c0-1.815,1.476-3.292,3.29-3.292
		C39.259,16.591,40.736,18.068,40.736,19.883z M31.625,20.026c0.014,0.584,0.113,1.148,0.288,1.678h-0.709
		C31.35,21.133,31.491,20.573,31.625,20.026z M30.507,24.311c0.007-0.024,0.013-0.048,0.02-0.072h2.597
		c0.137,0,0.266-0.027,0.389-0.067c1.037,0.952,2.415,1.538,3.93,1.538c1.48,0,2.829-0.559,3.858-1.471h3.076
		c0.007,0.024,0.013,0.048,0.02,0.073c0.706,2.54,1.623,5.842,2.424,9.104c-0.993-0.821-2.409-1.688-3.978-1.688
		c-1.544,0-2.308,0.419-3.192,0.905c-0.76,0.417-1.621,0.89-3.305,1.271c-2.55,0.576-6.354,0.034-8.303-0.318
		C28.853,30.268,29.789,26.896,30.507,24.311z M44.077,72.355l2.852-2.852c-0.053,0.665-0.093,1.162-0.113,1.42
		C46.636,71.27,45.937,72.283,44.077,72.355z M47.082,67.568c-0.009,0.008-0.021,0.011-0.029,0.019l-4.781,4.781h-2.534l3.619-3.619
		c0.248-0.247,0.248-0.649,0-0.896s-0.649-0.248-0.896,0l-4.393,4.392c-0.036,0.036-0.056,0.081-0.081,0.123h-2.576l3.505-3.503
		c0.248-0.247,0.248-0.649,0-0.896c-0.248-0.248-0.649-0.248-0.896,0l-4.401,4.4h-2.533l3.627-3.626
		c0.248-0.247,0.248-0.649,0-0.896s-0.649-0.248-0.896,0l-4.19,4.189c-0.026,0.026-0.038,0.059-0.059,0.088
		c-0.854-0.314-1.269-0.845-1.434-1.13l2.075-2.075c0.248-0.247,0.248-0.649,0-0.896c-0.248-0.248-0.649-0.248-0.896,0l-1.345,1.345
		c-0.43-5.429-1.699-21.758-1.699-25.478c0-2.116,0.641-5.498,1.48-9.066c2.017,0.371,6.055,0.954,8.88,0.317
		c1.859-0.42,2.844-0.961,3.636-1.396c0.821-0.451,1.363-0.748,2.582-0.748c2.298,0,4.403,2.613,4.423,2.64
		c0.027,0.035,0.066,0.051,0.099,0.078c0.735,3.234,1.274,6.236,1.274,8.175C48.64,47.26,47.598,60.981,47.082,67.568z"/>
	<path d="M44.223,50.175H42.89c-0.451-2.18-2.749-3.844-5.507-3.844c-2.758,0-5.056,1.664-5.507,3.844h-1.333
		c-0.361,0-0.705,0.154-0.946,0.424c-0.241,0.27-0.355,0.629-0.314,0.988l1.44,12.595c0.073,0.64,0.615,1.124,1.259,1.124h10.799
		c0.644,0,1.186-0.484,1.259-1.124l1.441-12.595c0.041-0.359-0.073-0.719-0.314-0.988C44.929,50.33,44.584,50.175,44.223,50.175z
		 M41.651,62.77h-8.536l-1.15-10.059h1.149c0.376,0,0.733-0.167,0.974-0.457c0.241-0.289,0.341-0.67,0.273-1.041
		c-0.02-0.108-0.029-0.189-0.029-0.254c0-1.134,1.397-2.092,3.051-2.092c1.654,0,3.052,0.958,3.052,2.092
		c0,0.069-0.009,0.152-0.028,0.254c-0.068,0.37,0.031,0.752,0.273,1.041c0.241,0.289,0.598,0.457,0.974,0.457h1.149L41.651,62.77z"
		/>
</g>
<g>
</g>
<g>
</g>
<g>
</g>
<g>
</g>
<g>
</g>
<g>
</g>
<g>
</g>
<g>
</g>
<g>
</g>
<g>
</g>
<g>
</g>
<g>
</g>
<g>
</g>
<g>
</g>
<g>
</g>
</svg>
