<?xml version="1.0" encoding="iso-8859-1"?>
<!-- Generator: Adobe Illustrator 19.0.0, SVG Export Plug-In . SVG Version: 6.00 Build 0)  -->
<svg version="1.1" id="Layer_1" xmlns="http://www.w3.org/2000/svg" xmlns:xlink="http://www.w3.org/1999/xlink" x="0px" y="0px"
	 viewBox="0 0 512 512" style="enable-background:new 0 0 512 512;" xml:space="preserve">
<g>
	<g>
		<path d="M418.482,310.857c4.329,0,7.837-3.509,7.837-7.837V7.837c0-4.328-3.508-7.837-7.837-7.837H268.957
			c-4.329,0-7.837,3.509-7.837,7.837v31.512c-2.756,2.401-5.252,5.109-7.423,8.059c-12.21-5.513-25.742-8.585-39.978-8.585
			c-13.888,0-27.106,2.928-39.08,8.19c-9.248-12.362-23.795-19.805-39.514-19.805c-11.123,0-22.037,3.816-30.735,10.746
			c-3.384,2.697-3.942,7.628-1.246,11.012c2.698,3.384,7.628,3.942,11.013,1.246c6.02-4.796,13.269-7.331,20.967-7.331
			c9.931,0,19.178,4.359,25.509,11.705c-1.842,1.201-3.645,2.458-5.399,3.777c-5.079-5.539-12.342-8.898-20.11-8.898
			c-15.032,0-27.261,12.262-27.261,27.334c0,10.45,6.034,19.729,14.861,24.307c-0.805,2.054-1.54,4.143-2.208,6.262
			c-11.432-5.565-19.161-17.437-19.161-30.569c0-4.328-3.508-7.837-7.837-7.837c-4.329,0-7.837,3.509-7.837,7.837
			c0,20.773,12.554,38.808,31.304,46.15c-0.646,4.543-0.987,9.184-0.987,13.902c0,36.657,20.164,68.673,49.947,85.487
			c-16.47,10.488-30.549,24.45-41.207,41.025c-13.911,21.631-21.264,46.639-21.264,72.318v6.907c0,4.328,3.508,7.837,7.837,7.837
			c4.329,0,7.837-3.509,7.837-7.837v-6.907c0-44.143,25.26-85.211,64.604-105.524c9.448,3.061,19.517,4.721,29.967,4.721
			c18.462,0,35.744-5.164,50.488-14.126c0.514,0.21,1.028,0.413,1.543,0.643c13.482,6.044,23.432,17.521,27.704,31.119
			l-32.578-19.068c-3.737-2.186-8.536-0.931-10.723,2.805c-2.187,3.735-0.931,8.536,2.805,10.722l110.242,64.526
			c-1.168,2.317-2.512,4.515-4.001,6.591l-47.763-28.155c-3.727-2.197-8.533-0.958-10.731,2.771
			c-2.198,3.728-0.957,8.533,2.771,10.731l44.314,26.121c-2.203,1.598-4.532,3.016-6.961,4.241l-40.782-22.502
			c-3.788-2.09-8.556-0.714-10.646,3.076c-2.091,3.79-0.715,8.557,3.075,10.648l25.675,14.167
			c-4.227-0.015-8.444-0.568-12.549-1.658c-2.276-0.6-4.538-1.371-6.717-2.286l-70.862-29.892c-3.986-1.682-8.585,0.183-10.268,4.17
			c-1.683,3.987,0.184,8.585,4.17,10.268l70.878,29.9c0.976,0.411,1.968,0.789,2.963,1.154v50.874h-44.86
			c-4.329,0-7.837,3.509-7.837,7.837s3.508,7.837,7.837,7.837h52.604c0.03,0,0.061,0.004,0.091,0.004
			c0.03,0,0.061-0.004,0.091-0.004h24.825c27.648,0,50.141,22.582,50.141,50.34c0,5.127-4.145,9.299-9.24,9.299h-77.836
			c-0.014,0-0.027-0.002-0.041-0.002h-82.944c-49.324,0-89.453-40.128-89.453-89.454v-3.051c0-4.328-3.508-7.837-7.837-7.837
			c-4.329,0-7.837,3.509-7.837,7.837v3.051c0,57.968,47.159,105.127,105.126,105.127h42.266c0.014,0,0.027,0.002,0.041,0.002h10.211
			v11.46c0,4.328,3.508,7.837,7.837,7.837h149.525c4.329,0,7.837-3.509,7.837-7.837V344.733c0-4.328-3.508-7.837-7.837-7.837
			c-4.329,0-7.837,3.509-7.837,7.837v151.594H276.793v-3.624h92.628c13.736,0,24.914-11.202,24.914-24.972
			c0-36.4-29.525-66.014-65.815-66.014h-17.078v-47.221c2.286,0.243,4.585,0.372,6.887,0.372c8.601,0,16.983-1.717,24.729-4.88
			c0.372-0.126,0.734-0.279,1.083-0.461c8.308-3.566,15.847-8.807,22.091-15.398c0.385-0.341,0.742-0.719,1.061-1.141
			c4.185-4.63,7.746-9.883,10.508-15.656c0.363-0.759,0.643-1.538,0.863-2.325v88.253c0,4.328,3.508,7.837,7.837,7.837
			c4.329,0,7.837-3.509,7.837-7.837V209.193c0-4.328-3.508-7.837-7.837-7.837c-4.329,0-7.837,3.509-7.837,7.837v98.01
			c-0.98-3.553-3.271-6.735-6.638-8.7l-60.746-35.556c-1.528-21.878-13.924-41.633-32.901-52.66
			c20.264-17.974,33.065-44.232,33.065-73.435c0-4.576-0.322-9.077-0.929-13.489c19.174-7.053,32.434-25.553,32.434-46.564
			c0-27.344-22.181-49.591-49.445-49.591c-5.778,0-11.405,0.991-16.707,2.899V15.673h133.849V303.02
			C410.645,307.348,414.153,310.857,418.482,310.857z M123.538,76.8c0-6.43,5.198-11.661,11.588-11.661
			c3.214,0,6.222,1.361,8.375,3.613c-5.311,5.51-9.985,11.64-13.903,18.271C125.991,85.026,123.538,81.156,123.538,76.8z
			 M213.72,219.207c-45.242,0-82.047-36.944-82.047-82.355s36.807-82.355,82.047-82.355c45.241,0,82.048,36.944,82.048,82.355
			S258.962,219.207,213.72,219.207z M297.89,87.103c-3.906-6.625-8.564-12.751-13.86-18.258c2.154-2.307,5.199-3.705,8.468-3.705
			c6.39,0,11.588,5.231,11.588,11.661C304.086,81.227,301.575,85.135,297.89,87.103z M293.5,42.885
			c18.622-0.002,33.772,15.214,33.772,33.915c0,13.647-8.16,25.75-20.192,31.067c-0.699-2.26-1.479-4.486-2.333-6.673
			c8.915-4.538,15.011-13.847,15.011-24.393c0-15.073-12.229-27.335-27.261-27.335c-7.825,0-15.116,3.39-20.191,8.979
			c-1.544-1.164-3.127-2.28-4.74-3.352c1.774-2.135,3.798-4.059,6.033-5.698C279.391,45.135,286.273,42.885,293.5,42.885z"/>
	</g>
</g>
<g>
	<g>
		<path d="M386.499,27.212c-4.329,0-7.837,3.509-7.837,7.837v114.953c0,4.328,3.508,7.837,7.837,7.837s7.837-3.509,7.837-7.837
			V35.049C394.336,30.721,390.828,27.212,386.499,27.212z"/>
	</g>
</g>
<g>
	<g>
		<circle cx="158.49" cy="136.85" r="7.837"/>
	</g>
</g>
<g>
	<g>
		<circle cx="268.957" cy="136.85" r="7.837"/>
	</g>
</g>
<g>
	<g>
		<path d="M213.717,118.746c-17.718,0-32.133,14.414-32.133,32.133v35.479c0,11.236,9.142,20.377,20.378,20.377h23.516
			c11.236,0,20.378-9.141,20.378-20.377v-35.479C245.856,133.161,231.442,118.746,213.717,118.746z M230.183,186.358
			c0,2.55-2.155,4.703-4.704,4.703h-23.516c-2.55,0-4.704-2.155-4.704-4.703v-35.479c0-9.076,7.383-16.459,16.466-16.459
			c9.076,0,16.459,7.383,16.459,16.459V186.358z"/>
	</g>
</g>
<g>
</g>
<g>
</g>
<g>
</g>
<g>
</g>
<g>
</g>
<g>
</g>
<g>
</g>
<g>
</g>
<g>
</g>
<g>
</g>
<g>
</g>
<g>
</g>
<g>
</g>
<g>
</g>
<g>
</g>
</svg>
