<?xml version="1.0" encoding="iso-8859-1"?>
<!-- Generator: Adobe Illustrator 19.0.0, SVG Export Plug-In . SVG Version: 6.00 Build 0)  -->
<svg version="1.1" id="Capa_1" xmlns="http://www.w3.org/2000/svg" xmlns:xlink="http://www.w3.org/1999/xlink" x="0px" y="0px"
	 viewBox="0 0 512 512" style="enable-background:new 0 0 512 512;" xml:space="preserve">
<g>
	<g>
		<path d="M483.733,308.178l-4.943-9.68c-16.587-32.485-48.243-53.635-84.073-56.816c-2.372-24.108-11.11-46.374-24.509-65.089
			l4.188-2.513c31.444-18.867,50.978-53.367,50.978-90.037v-9.043c0-8.284-6.716-15-15-15s-15,6.716-15,15v9.043
			c0,26.193-13.952,50.836-36.413,64.312l-9.234,5.541c-4.64-4.106-9.563-7.898-14.737-11.343
			c3.269-33.623-15.72-63.746-44.62-76.335l40.611-40.611c5.858-5.858,5.858-15.355,0-21.213c-5.857-5.858-15.355-5.858-21.213,0
			l-49.394,49.394L210.981,4.394c-5.857-5.858-15.355-5.858-21.213,0c-5.858,5.858-5.858,15.355,0,21.213l40.611,40.611
			c-28.789,12.54-47.901,42.592-44.62,76.335c-5.174,3.445-10.097,7.237-14.737,11.343l-9.234-5.54
			c-22.461-13.476-36.413-38.119-36.413-64.312v-9.043c0-8.284-6.716-15-15-15s-15,6.716-15,15v9.043
			c0,36.67,19.533,71.17,50.978,90.037l4.188,2.513c-13.321,18.607-22.04,40.721-24.471,64.668
			c-39.389,0.24-74.928,22.12-92.86,57.237l-4.943,9.68c-3.768,7.378-0.841,16.413,6.537,20.181
			c7.384,3.77,16.416,0.836,20.182-6.537l4.943-9.681c12.674-24.821,37.665-40.379,65.447-40.868V347
			c0,15.775,2.729,30.922,7.724,45.006C108.71,421.525,95.374,458.445,95.374,497c0,8.284,6.716,15,15,15s15-6.716,15-15
			c0-26.98,7.981-52.981,22.772-75.051C172.389,458.131,213.645,482,260.374,482s87.985-23.869,112.228-60.051
			c14.791,22.07,22.772,48.071,22.772,75.051c0,8.284,6.716,15,15,15s15-6.716,15-15c0-38.555-13.336-75.476-37.724-104.994
			c4.995-14.084,7.724-29.231,7.724-45.006v-75.074c24.204,3.242,45.37,18.031,56.697,40.215l4.943,9.68
			c3.768,7.379,12.803,10.305,20.182,6.537C484.574,324.591,487.501,315.556,483.733,308.178z M260.374,90.001
			c22.759,0,40.953,16.703,44.396,37.508c-13.911-4.857-28.849-7.508-44.396-7.508s-30.485,2.65-44.396,7.508
			C219.42,106.707,237.61,90.001,260.374,90.001z M260.374,150.001c24.499,0,47.064,8.436,64.946,22.552
			c-13.272,23.039-37.766,37.448-64.946,37.448s-51.674-14.409-64.946-37.448C213.31,158.436,235.875,150.001,260.374,150.001z
			 M155.374,347v-92c0-22.257,6.967-42.915,18.826-59.919c16.531,23.81,42.199,39.729,71.174,43.849v51.085
			c0,50.939-19.41,98.889-54.715,135.427C169.026,406.196,155.374,378.165,155.374,347z M260.374,452
			c-15.813,0-30.818-3.521-44.281-9.809c19.143-20.822,34.062-44.85,44.281-71.395c10.204,26.505,25.109,50.542,44.281,71.395
			C291.192,448.479,276.187,452,260.374,452z M365.374,347c0,31.165-13.652,59.196-35.285,78.443
			c-35.305-36.538-54.715-84.488-54.715-135.428V238.93c28.975-4.12,54.643-20.039,71.174-43.849
			c11.859,17.004,18.826,37.662,18.826,59.919V347z"/>
	</g>
</g>
<g>
	<g>
		<circle cx="200.369" cy="287" r="15"/>
	</g>
</g>
<g>
	<g>
		<circle cx="200.369" cy="347" r="15"/>
	</g>
</g>
<g>
	<g>
		<circle cx="320.369" cy="285" r="15"/>
	</g>
</g>
<g>
	<g>
		<circle cx="320.369" cy="345" r="15"/>
	</g>
</g>
<g>
</g>
<g>
</g>
<g>
</g>
<g>
</g>
<g>
</g>
<g>
</g>
<g>
</g>
<g>
</g>
<g>
</g>
<g>
</g>
<g>
</g>
<g>
</g>
<g>
</g>
<g>
</g>
<g>
</g>
</svg>
