<?xml version="1.0" encoding="iso-8859-1"?>
<!-- Generator: Adobe Illustrator 19.0.0, SVG Export Plug-In . SVG Version: 6.00 Build 0)  -->
<svg version="1.1" id="Capa_1" xmlns="http://www.w3.org/2000/svg" xmlns:xlink="http://www.w3.org/1999/xlink" x="0px" y="0px"
	 viewBox="0 0 512 512" style="enable-background:new 0 0 512 512;" xml:space="preserve">
<g>
	<g>
		<rect x="272.222" y="304.158" width="15.208" height="15.208"/>
	</g>
</g>
<g>
	<g>
		<path d="M289.544,449.439c10.664-8.765,17.332-21.149,18.778-34.872l10.887-103.432c1.84-17.484-5.177-34.604-18.772-45.797
			l-1.347-1.109V256c0-11.721-8.888-21.403-20.277-22.668V217.98h134.614l-15.607-13.377
			c-44.245-37.924-71.392-90.783-76.441-148.839l-2.644-30.418h-30.678C284.612,10.833,271.552,0,256,0
			c-15.552,0-28.612,10.833-32.055,25.347h-30.678l-2.644,30.417c-5.049,58.056-32.197,110.914-76.441,148.839L98.574,217.98h43.367
			v85.671h15.208V217.98h76.04v15.352c-11.39,1.265-20.277,10.946-20.277,22.668v8.439l-1.091,0.898
			c-13.677,11.262-20.682,28.483-18.738,46.067l11.432,103.433c1.494,13.518,8.076,25.727,18.535,34.416v17.123h-2.535
			c-15.373,0-27.881,12.507-27.881,27.881V512h126.733v-17.743c0-15.374-12.508-27.881-27.881-27.881h-2.535v-16.45L289.544,449.439
			z M256,15.208c7.06,0,13.152,4.155,16.006,10.139h-32.013C242.848,19.363,248.94,15.208,256,15.208z M138.447,202.772
			c16.906-17.094,31.021-36.581,42.092-58.138c14.075-27.405,22.565-56.861,25.234-87.553l1.436-16.527h97.582l1.437,16.527
			c2.669,30.692,11.159,60.148,25.234,87.553c11.071,21.557,25.186,41.043,42.092,58.138H138.447z M263.604,217.98v15.208h-15.208
			V217.98H263.604z M228.119,256c0-4.193,3.411-7.604,7.604-7.604h40.554c4.193,0,7.604,3.411,7.604,7.604v7.604h-55.762V256z
			 M291.485,481.584c6.989,0,12.673,5.685,12.673,12.673v2.535h-96.317v-2.535c0-6.989,5.685-12.673,12.673-12.673H291.485z
			 M238.257,466.376v-15.208h35.485v15.208H238.257z M281.849,435.96h-50.889c-6.365-6.016-10.36-14.017-11.33-22.794l-10.368-93.8
			h47.751v-15.208h-48.998c0.382-9.593,4.464-18.671,11.509-25.347h73.207c8.347,7.91,12.564,19.211,11.351,30.731l-10.887,103.432
			C292.265,421.829,288.263,429.898,281.849,435.96z"/>
	</g>
</g>
<g>
	<g>
		<path d="M211.346,170.49c-1.509,4.698-3.154,9.404-4.89,13.986l14.221,5.387c1.828-4.824,3.56-9.778,5.147-14.721L211.346,170.49z
			"/>
	</g>
</g>
<g>
	<g>
		<path d="M226.001,85.851c-1.036,24.558-4.561,48.249-10.475,70.416l14.693,3.921c6.2-23.238,9.893-48.032,10.976-73.695
			L226.001,85.851z"/>
	</g>
</g>
<g>
	<g>
		<path d="M241.295,55.502l-15.199,0.52c0.158,4.637,0.238,9.291,0.238,13.833l-0.002,1.094l15.208,0.041l0.002-1.135
			C241.542,65.141,241.459,60.312,241.295,55.502z"/>
	</g>
</g>
<g>
	<g>
		<path d="M300.654,170.491l-14.479,4.652c1.588,4.944,3.319,9.896,5.147,14.72l14.221-5.387
			C303.808,179.893,302.162,175.188,300.654,170.491z"/>
	</g>
</g>
<g>
	<g>
		<path d="M285.999,85.851l-15.194,0.642c1.083,25.663,4.776,50.457,10.976,73.695l14.693-3.921
			C290.56,134.099,287.035,110.409,285.999,85.851z"/>
	</g>
</g>
<g>
	<g>
		<path d="M285.904,56.022l-15.199-0.52c-0.164,4.81-0.247,9.638-0.247,14.353l0.002,1.135l15.208-0.041l-0.002-1.094
			C285.666,65.313,285.746,60.659,285.904,56.022z"/>
	</g>
</g>
<g>
	<g>
		<rect x="141.941" y="318.859" width="15.208" height="15.208"/>
	</g>
</g>
<g>
	<g>
		<path d="M408.586,93.215l-14.529,4.492c1.414,4.58,2.615,9.287,3.565,13.991l14.907-3.008
			C411.48,103.487,410.153,98.28,408.586,93.215z"/>
	</g>
</g>
<g>
	<g>
		<path d="M414.896,124.481l-15.133,1.503c0.472,4.76,0.712,9.617,0.712,14.436h15.208
			C415.683,135.1,415.419,129.738,414.896,124.481z"/>
	</g>
</g>
<g>
	<g>
		<path d="M380.432,40.347l-11.844,9.539c8.408,10.44,15.311,21.966,20.516,34.259l14.004-5.929
			C397.354,64.626,389.725,51.884,380.432,40.347z"/>
	</g>
</g>
<g>
	<g>
		<path d="M97.064,124.88c-0.496,5.126-0.747,10.354-0.747,15.539h15.208c0-4.698,0.228-9.434,0.676-14.075L97.064,124.88z"/>
	</g>
</g>
<g>
	<g>
		<path d="M131.568,40.347c-9.383,11.648-17.069,24.522-22.843,38.264l14.02,5.893c5.224-12.43,12.177-24.076,20.668-34.616
			L131.568,40.347z"/>
	</g>
</g>
<g>
	<g>
		<path d="M103.289,93.618c-1.551,5.066-2.863,10.273-3.899,15.478l14.915,2.969c0.937-4.705,2.123-9.413,3.525-13.993
			L103.289,93.618z"/>
	</g>
</g>
<g>
</g>
<g>
</g>
<g>
</g>
<g>
</g>
<g>
</g>
<g>
</g>
<g>
</g>
<g>
</g>
<g>
</g>
<g>
</g>
<g>
</g>
<g>
</g>
<g>
</g>
<g>
</g>
<g>
</g>
</svg>
