<?xml version="1.0" encoding="iso-8859-1"?>
<!-- Generator: Adobe Illustrator 19.0.0, SVG Export Plug-In . SVG Version: 6.00 Build 0)  -->
<svg version="1.1" id="Capa_1" xmlns="http://www.w3.org/2000/svg" xmlns:xlink="http://www.w3.org/1999/xlink" x="0px" y="0px"
	 viewBox="0 0 463.004 463.004" style="enable-background:new 0 0 463.004 463.004;" xml:space="preserve">
<g>
	<path d="M411.304,203.498c-3.018-3.685-6.252-7.252-9.698-10.71l36.663,6.111c0.411,0.068,0.823,0.102,1.233,0.102
		c1.762,0,3.483-0.621,4.848-1.777c1.683-1.425,2.652-3.518,2.652-5.723c0-20.6-8.909-42.066-25.763-62.081
		c-4.764-5.656-9.517-10.443-13.602-14.222l17.684-4.421c2.438-0.609,4.408-2.399,5.248-4.767c0.841-2.368,0.44-5-1.067-7.01
		c-16.417-21.889-42.636-33.228-59.796-38.622l9.956-6.638c2.189-1.459,3.453-3.959,3.332-6.587c-0.122-2.628-1.611-5-3.926-6.251
		c-16.513-8.926-38.603-13.112-65.636-12.399c-9.294,0.239-17.528,1.029-23.716,1.813c0.401-1.521,0.817-3.104,1.229-4.686
		c1.21-4.644,2.156-8.379,2.813-11.104c1.409-5.852,2.052-8.522-0.284-11.575C292.056,1.098,289.836,0,287.501,0
		c-21.859,0-43.493,12.518-56,31.21C218.994,12.518,197.36,0,175.501,0c-2.335,0-4.555,1.097-5.974,2.952
		c-2.336,3.053-1.692,5.724-0.284,11.575c0.656,2.724,1.603,6.46,2.813,11.103c0.412,1.583,0.828,3.166,1.229,4.687
		c-6.188-0.784-14.422-1.574-23.716-1.813c-27.047-0.704-49.122,3.474-65.635,12.399c-2.314,1.251-3.804,3.623-3.926,6.251
		c-0.121,2.628,1.143,5.128,3.332,6.587l9.956,6.638C76.137,65.772,49.918,77.111,33.501,99c-1.508,2.01-1.908,4.642-1.067,7.01
		c0.84,2.367,2.811,4.157,5.248,4.767l17.684,4.421c-4.085,3.778-8.838,8.565-13.602,14.222
		C24.911,149.434,16.001,170.9,16.001,191.5c0,2.205,0.97,4.298,2.652,5.723c1.364,1.156,3.085,1.777,4.848,1.777
		c0.41,0,0.822-0.033,1.233-0.102l36.663-6.111c-3.447,3.458-6.68,7.025-9.698,10.71c-21.277,25.977-32.949,58.524-35.682,99.504
		c-0.166,2.493,0.921,4.906,2.898,6.434c1.978,1.529,4.584,1.97,6.957,1.181l14.949-4.984
		c4.803,50.632,18.271,97.938,33.034,114.809c1.556,1.778,3.86,2.725,6.214,2.54c2.356-0.18,4.489-1.459,5.758-3.451
		c3.311-5.202,6.901-10.766,9.771-15.13c26.697,34.426,59.359,49.288,60.844,49.951c1.974,0.88,4.229,0.866,6.193-0.035
		c1.962-0.903,3.44-2.609,4.055-4.681c1.337-4.507,2.856-9.465,4.169-13.59c26.12,19.674,57.625,26.486,59.096,26.796
		c0.022,0.005,0.044,0.006,0.066,0.01c0.205,0.041,0.412,0.074,0.621,0.098c0.041,0.005,0.083,0.012,0.124,0.016
		c0.24,0.024,0.482,0.039,0.726,0.039c0.003,0,0.005,0,0.008,0s0.005,0,0.008,0c0.244,0,0.486-0.015,0.726-0.039
		c0.041-0.004,0.082-0.011,0.123-0.016c0.209-0.024,0.416-0.057,0.621-0.098c0.022-0.005,0.045-0.006,0.067-0.011
		c1.471-0.31,32.974-7.121,59.097-26.797c1.313,4.126,2.832,9.084,4.169,13.591c0.614,2.071,2.093,3.777,4.055,4.681
		c1.964,0.901,4.22,0.915,6.193,0.035c1.484-0.663,34.144-15.521,60.844-49.951c2.87,4.364,6.461,9.928,9.771,15.13
		c1.269,1.992,3.401,3.271,5.758,3.451c2.354,0.177,4.658-0.762,6.214-2.54c14.763-16.871,28.231-64.177,33.034-114.809
		l14.949,4.984c2.372,0.79,4.979,0.347,6.957-1.181s3.064-3.94,2.898-6.434C444.253,262.022,432.582,229.475,411.304,203.498z
		 M305.046,277.888c-2.003-6.338-4.264-12.21-6.374-17.195c-3.268-7.722-6.43-13.973-8.507-17.856
		c-4.42-8.265-5.356-9.26-7.776-10.265c-2.798-1.163-6.035-0.524-8.183,1.616c-2.789,2.782-2.933,7.214-0.423,10.164
		c3.266,4.988,22.22,39.893,22.22,67.148c0,14.981-2.873,26.012-8.539,32.781c-4.225,5.049-10.063,7.608-17.353,7.608
		c-16.76,0-31.109-12.493-31.109-16.39v-8c0-9.098,7.402-16.5,16.5-16.5c2.543,0,4.913-1.289,6.295-3.423
		c1.383-2.135,1.589-4.824,0.549-7.146c-0.374-0.834-9.406-20.433-30.844-20.433c-21.437,0-30.47,19.599-30.844,20.433
		c-1.04,2.32-0.834,5.011,0.549,7.145c1.382,2.135,3.752,3.424,6.295,3.424c9.098,0,16.5,7.402,16.5,16.5v8
		c0,3.896-14.349,16.39-31.109,16.39c-7.289,0-13.127-2.56-17.353-7.608c-5.665-6.77-8.538-17.799-8.538-32.781
		c0-27.253,18.955-62.164,22.22-67.149c2.505-2.947,2.366-7.372-0.416-10.155c-2.146-2.145-5.384-2.786-8.186-1.626
		c-2.423,1.004-3.359,1.998-7.78,10.266c-2.077,3.885-5.239,10.136-8.507,17.856c-2.11,4.985-4.371,10.858-6.374,17.196
		c-1.565-2.722-3.232-5.427-4.925-8.168c-8.865-14.353-18.032-29.193-18.032-54.221c0-22.64,4.827-42.552,13.869-58.772
		c0.858-0.882,1.48-1.958,1.823-3.126c9.996-16.398,24.53-28.714,42.944-35.825l0.611-0.229c8.834-3.181,16.712-2.816,22.184,1.03
		c4.882,3.432,7.57,9.44,7.57,16.921v8c0,4.143,3.357,7.5,7.5,7.5s7.5-3.357,7.5-7.5v-8c0-7.479,2.688-13.489,7.57-16.92
		c5.471-3.846,13.351-4.211,22.108-1.059l0.602,0.223c18.467,7.131,33.029,19.466,43.036,35.882c0.342,1.151,0.955,2.21,1.797,3.082
		c9.057,16.226,13.887,36.143,13.887,58.791c0,25.027-9.167,39.868-18.032,54.221C308.278,272.461,306.611,275.166,305.046,277.888z
		 M231.501,307.12c-2.967-3.488-6.679-6.324-10.888-8.259c2.699-2.129,6.305-3.861,10.888-3.861c4.585,0,8.191,1.734,10.89,3.86
		C238.181,300.795,234.469,303.631,231.501,307.12z M231.501,350.901c2.262,2.303,4.997,4.516,8.167,6.569
		c9.24,5.987,20.336,9.421,30.442,9.421c3.092,0,6.057-0.318,8.882-0.929C274.378,380.609,254.501,392,231.501,392
		s-42.877-11.391-47.492-26.038c2.825,0.611,5.79,0.929,8.882,0.929c10.106,0,21.202-3.434,30.443-9.421
		C226.505,355.416,229.24,353.203,231.501,350.901z M82.877,174.66c-2.64-6.311-3.82-16.687-3.953-25.237
		c8.103-1.544,24.274-3.058,38.717,4.995C104.69,160.601,93.126,167.33,82.877,174.66z M380.126,174.66
		c-10.248-7.33-21.812-14.059-34.762-20.241c14.448-8.055,30.622-6.538,38.716-4.998C383.945,157.974,382.766,168.35,380.126,174.66
		z M75.836,117.62c2.392-1.693,3.577-4.625,3.036-7.505s-2.709-5.181-5.552-5.892l-19.962-4.99
		c23.243-21.999,58.98-28.269,59.376-28.335c3.035-0.507,5.454-2.815,6.1-5.824c0.646-3.01-0.612-6.107-3.173-7.814l-12.44-8.294
		c33.842-10.976,78.289-2.218,78.785-2.116c2.551,0.52,5.185-0.321,6.965-2.218c1.78-1.897,2.449-4.581,1.77-7.093
		c-2.017-7.445-4.134-15.471-5.659-21.473c17.134,3.77,33.105,17.156,39.391,34.049c0.028,0.074,0.063,0.143,0.093,0.216
		c0.054,0.131,0.107,0.262,0.168,0.39c0.051,0.107,0.106,0.209,0.161,0.312c0.059,0.111,0.118,0.221,0.183,0.329
		c0.064,0.107,0.133,0.21,0.202,0.313c0.067,0.1,0.134,0.199,0.206,0.296c0.073,0.098,0.148,0.192,0.225,0.285
		c0.079,0.097,0.16,0.193,0.245,0.286c0.076,0.083,0.154,0.163,0.232,0.242c0.095,0.096,0.192,0.19,0.293,0.282
		c0.076,0.068,0.154,0.133,0.232,0.198c0.111,0.092,0.223,0.182,0.34,0.268c0.078,0.057,0.157,0.111,0.237,0.165
		c0.121,0.082,0.244,0.163,0.371,0.239c0.087,0.052,0.177,0.1,0.266,0.148c0.123,0.067,0.246,0.133,0.373,0.193
		c0.106,0.05,0.215,0.094,0.323,0.139c0.089,0.037,0.173,0.08,0.264,0.114c0.03,0.011,0.061,0.018,0.091,0.029
		c0.119,0.043,0.241,0.077,0.362,0.114c0.116,0.035,0.232,0.073,0.348,0.102c0.118,0.03,0.238,0.05,0.358,0.074
		c0.122,0.024,0.243,0.052,0.364,0.07c0.117,0.017,0.236,0.025,0.355,0.037c0.124,0.012,0.249,0.029,0.373,0.035
		c0.121,0.006,0.243,0.002,0.364,0.002c0.122,0,0.244,0.004,0.365-0.002c0.123-0.006,0.247-0.022,0.37-0.034
		c0.12-0.012,0.24-0.02,0.358-0.037c0.119-0.018,0.237-0.045,0.356-0.068c0.123-0.024,0.247-0.046,0.368-0.076
		c0.111-0.028,0.222-0.064,0.333-0.098c0.127-0.038,0.255-0.075,0.38-0.12c0.028-0.01,0.057-0.016,0.086-0.027
		c0.086-0.032,0.165-0.072,0.249-0.107c0.116-0.048,0.232-0.095,0.345-0.149c0.121-0.057,0.237-0.12,0.354-0.183
		c0.096-0.052,0.193-0.103,0.286-0.159c0.121-0.072,0.237-0.149,0.353-0.228c0.085-0.058,0.171-0.115,0.254-0.176
		c0.112-0.083,0.219-0.169,0.325-0.257c0.083-0.068,0.165-0.137,0.245-0.209c0.097-0.088,0.19-0.179,0.282-0.271
		c0.082-0.082,0.163-0.165,0.242-0.251c0.082-0.09,0.16-0.184,0.237-0.278c0.079-0.096,0.156-0.192,0.231-0.292
		c0.07-0.095,0.136-0.192,0.202-0.29c0.07-0.104,0.139-0.209,0.204-0.317c0.064-0.107,0.123-0.216,0.181-0.326
		c0.056-0.104,0.112-0.207,0.163-0.315c0.061-0.128,0.114-0.258,0.168-0.389c0.03-0.073,0.066-0.142,0.093-0.217
		c6.285-16.893,22.257-30.279,39.391-34.049c-1.524,6.002-3.643,14.026-5.659,21.473c-0.68,2.51-0.009,5.191,1.769,7.089
		c1.778,1.897,4.415,2.734,6.962,2.223c0.501-0.102,44.946-8.86,78.79,2.115l-12.44,8.294c-2.559,1.705-3.813,4.8-3.171,7.807
		c0.643,3.007,3.059,5.318,6.09,5.83c0.402,0.068,36.141,6.338,59.384,28.337l-19.962,4.99c-2.84,0.71-5.003,3.01-5.547,5.886
		c-0.544,2.877,0.64,5.809,3.024,7.506c0.415,0.296,38.569,27.857,44.16,64.918l-35.977-5.997
		c4.356-13.729,3.764-30.893,3.651-33.377c-0.143-3.142-2.23-5.86-5.229-6.81c-1.649-0.522-37.432-11.45-64.509,10.95
		c-1.348-0.551-2.711-1.097-4.085-1.638c-11.664-19.112-28.784-33.53-50.571-41.943l-0.764-0.283
		c-13.564-4.883-26.309-3.86-35.89,2.872c-2.451,1.722-4.6,3.792-6.445,6.132c-1.845-2.339-3.995-4.409-6.445-6.132
		c-9.58-6.735-22.326-7.754-35.965-2.845l-0.773,0.289c-21.744,8.396-38.843,22.806-50.496,41.914
		c-1.37,0.54-2.73,1.084-4.074,1.634c-27.076-22.399-62.859-11.471-64.509-10.95c-2.999,0.949-5.087,3.668-5.229,6.81
		c-0.113,2.484-0.705,19.648,3.651,33.377l-35.977,5.997C37.274,145.473,75.427,117.911,75.836,117.62z M417.875,288.385
		c-2.197-0.731-4.607-0.409-6.535,0.877c-1.926,1.285-3.15,3.388-3.317,5.697c-1.779,24.619-5.972,50.182-11.805,71.979
		c-3.85,14.387-8.251,26.447-12.63,34.819c-0.502-0.775-1.013-1.563-1.525-2.349c-2.295-3.526-4.161-6.346-5.544-8.379
		c-2.96-4.352-4.747-6.979-8.892-7.037c-2.522-0.002-4.915,1.21-6.332,3.3c-18.017,26.575-41.408,42.442-53.257,49.317
		c-0.329-1.065-0.672-2.167-1.017-3.267c-4.021-12.802-4.976-15.844-9.486-17.084c-2.497-0.686-5.216-0.025-7.119,1.731
		c-21.274,19.637-51.786,28.048-58.92,29.808c-7.136-1.751-37.563-10.106-58.906-29.806c-1.902-1.759-4.621-2.417-7.121-1.733
		c-4.511,1.24-5.466,4.282-9.486,17.084c-0.346,1.1-0.688,2.201-1.017,3.267c-11.853-6.878-35.24-22.743-53.253-49.312
		c-1.396-2.063-3.743-3.306-6.231-3.306c-0.034,0-0.069,0-0.104,0c-4.145,0.059-5.932,2.686-8.892,7.037
		c-1.383,2.033-3.249,4.853-5.544,8.379c-0.513,0.786-1.023,1.573-1.525,2.349c-4.379-8.372-8.78-20.433-12.63-34.819
		c-5.833-21.798-10.025-47.36-11.805-71.979c-0.167-2.31-1.392-4.412-3.317-5.697c-1.928-1.286-4.338-1.608-6.535-0.877L32,292.762
		c3.735-32.486,14.023-58.662,31.305-79.759c15.162-18.51,36.469-33.953,64.8-46.919c-5.313,14.709-8.103,31.304-8.103,49.416
		c0,29.286,11.239,47.482,20.271,62.104c6.565,10.629,11.751,19.025,11.751,29.175c0,0.346,0.031,0.683,0.077,1.016
		c-0.061,1.241-0.098,2.478-0.098,3.706c0,18.598,4.049,32.865,12.035,42.408c1.276,1.525,2.647,2.915,4.102,4.178
		c-0.087,0.458-0.137,0.929-0.137,1.413c0,13.174,6.94,25.386,19.543,34.388C199.382,402.343,214.994,407,231.501,407
		c16.509,0,32.119-4.657,43.958-13.112c12.602-9.002,19.542-21.214,19.542-34.388c0-0.483-0.05-0.954-0.137-1.412
		c1.455-1.264,2.827-2.654,4.103-4.179c7.986-9.543,12.035-23.811,12.035-42.408c0-1.228-0.038-2.465-0.098-3.706
		c0.045-0.333,0.077-0.671,0.077-1.016c0-10.149,5.186-18.546,11.751-29.175c9.031-14.621,20.271-32.817,20.271-62.104
		c0-18.112-2.79-34.706-8.106-49.417c28.332,12.966,49.64,28.409,64.803,46.92c17.281,21.097,27.569,47.272,31.305,79.759
		L417.875,288.385z"/>
	<path d="M167.501,193c-4.143,0-7.5,3.357-7.5,7.5v15c0,4.143,3.357,7.5,7.5,7.5s7.5-3.357,7.5-7.5v-15
		C175.001,196.357,171.644,193,167.501,193z"/>
	<path d="M295.502,193c-4.143,0-7.5,3.357-7.5,7.5v15c0,4.143,3.357,7.5,7.5,7.5s7.5-3.357,7.5-7.5v-15
		C303.002,196.357,299.645,193,295.502,193z"/>
</g>
<g>
</g>
<g>
</g>
<g>
</g>
<g>
</g>
<g>
</g>
<g>
</g>
<g>
</g>
<g>
</g>
<g>
</g>
<g>
</g>
<g>
</g>
<g>
</g>
<g>
</g>
<g>
</g>
<g>
</g>
</svg>
