<?xml version="1.0" encoding="iso-8859-1"?>
<!-- Generator: Adobe Illustrator 19.0.0, SVG Export Plug-In . SVG Version: 6.00 Build 0)  -->
<svg version="1.1" id="Layer_1" xmlns="http://www.w3.org/2000/svg" xmlns:xlink="http://www.w3.org/1999/xlink" x="0px" y="0px"
	 viewBox="0 0 512 512" style="enable-background:new 0 0 512 512;" xml:space="preserve">
<g>
	<g>
		<path d="M391.412,288.485c-5.632,0-10.199,4.567-10.199,10.199v9.332c0,5.632,4.567,10.199,10.199,10.199
			c5.632,0,10.199-4.567,10.199-10.199v-9.332C401.611,293.052,397.044,288.485,391.412,288.485z"/>
	</g>
</g>
<g>
	<g>
		<path d="M391.412,330.458c-5.632,0-10.199,4.567-10.199,10.199v78.719c0,39.825-32.401,72.225-72.225,72.225
			c-38.043,0-69.288-29.572-72.01-66.932h3.323c5.291,0,9.703-4.045,10.16-9.316l3.713-42.69h38.269
			c19.596,0,35.538-15.942,35.538-35.537v-26.606c0-13.774-11.206-24.98-24.98-24.98s-24.98,11.206-24.98,24.98v9.649h-19.283
			l4.735-54.462h39.627c21.856,0,39.636-17.781,39.636-39.636v-30.909c0-15.093-12.278-27.372-27.371-27.372
			c-15.093,0-27.372,12.279-27.372,27.372v12.859H268.49l0.732-8.418c0.454-5.208,1.936-10.182,4.406-14.785
			c4.814-8.971,7.217-19.092,6.953-29.267l-1.296-49.899c-0.276-10.596-4.232-20.856-11.141-28.893l-0.134-0.156
			c-3.343-3.888-5.434-8.633-6.046-13.722l-2.707-22.503c-0.616-5.124-4.965-8.981-10.127-8.981h-12.37v-21.2
			C236.761,4.567,232.194,0,226.562,0s-10.199,4.567-10.199,10.199v21.2h-13.351c-5.239,0-9.626,3.969-10.148,9.182l-2.234,22.284
			c-0.521,5.193-2.573,10.046-5.935,14.035c-6.725,7.979-10.578,18.119-10.85,28.552l-1.3,50.101
			c-0.264,10.177,2.141,20.296,6.954,29.268c2.47,4.604,3.952,9.578,4.404,14.783l0.732,8.419h-19.504v-12.859
			c0-15.093-12.278-27.372-27.371-27.372s-27.372,12.279-27.372,27.372v30.909c0,21.856,17.781,39.636,39.636,39.636h39.626
			l4.737,54.462h-19.283v-9.649c0-13.774-11.206-24.98-24.98-24.98c-13.774,0-24.98,11.206-24.98,24.98v26.606
			c0,19.595,15.942,35.537,35.538,35.537h38.269l3.713,42.69c0.458,5.271,4.869,9.316,10.16,9.316h3.692
			C219.271,473.288,259.691,512,308.987,512c51.073,0,92.623-41.551,92.623-92.623v-78.719
			C401.611,335.024,397.044,330.458,391.412,330.458z M266.715,228.421h31.478c5.632,0,10.199-4.567,10.199-10.199v-23.058
			c0-3.845,3.128-6.973,6.973-6.973c3.845,0,6.972,3.128,6.972,6.973v30.909c0,10.607-8.631,19.238-19.238,19.238h-37.853
			L266.715,228.421z M150.026,245.31c-10.607,0-19.238-8.631-19.238-19.238v-30.909c0-3.845,3.128-6.973,6.973-6.973
			s6.972,3.128,6.972,6.973v23.058c0,5.632,4.567,10.199,10.199,10.199h31.477l1.469,16.889H150.026z M288.219,340.569
			c5.632,0,10.199-4.567,10.199-10.199v-19.849c0-2.526,2.056-4.581,4.581-4.581s4.581,2.056,4.581,4.581v26.606
			c0,8.348-6.792,15.139-15.14,15.139h-36.496l1.017-11.696H288.219z M160.683,352.265c-8.348,0-15.14-6.791-15.14-15.139v-26.606
			c0-2.526,2.056-4.581,4.581-4.581c2.525,0,4.581,2.056,4.581,4.581v19.849c0,5.632,4.567,10.199,10.199,10.199h31.255
			l1.017,11.696H160.683z M222.177,404.272l-17.951-206.434c-0.695-7.979-2.966-15.604-6.753-22.662
			c-3.14-5.851-4.709-12.454-4.536-19.093l1.299-50.102c0.151-5.823,2.302-11.483,6.055-15.936
			c6.024-7.147,9.701-15.84,10.635-25.144l1.314-13.104h27.845l1.627,13.521c1.097,9.119,4.843,17.621,10.825,24.578l0.126,0.148
			c0.002,0.003,0.005,0.006,0.007,0.009c3.858,4.486,6.068,10.216,6.222,16.131l1.296,49.899c0.173,6.639-1.395,13.241-4.534,19.092
			c-3.787,7.055-6.059,14.679-6.755,22.663l-17.951,206.434H222.177z"/>
	</g>
</g>
<g>
	<g>
		<path d="M212.143,96.892c-5.632,0-10.199,4.567-10.199,10.199v6.12c0,5.632,4.567,10.199,10.199,10.199
			s10.199-4.567,10.199-10.199v-6.12C222.343,101.46,217.775,96.892,212.143,96.892z"/>
	</g>
</g>
<g>
	<g>
		<path d="M242.741,96.892c-5.632,0-10.199,4.567-10.199,10.199v6.12c0,5.632,4.567,10.199,10.199,10.199
			c5.632,0,10.199-4.567,10.199-10.199v-6.12C252.94,101.46,248.373,96.892,242.741,96.892z"/>
	</g>
</g>
<g>
</g>
<g>
</g>
<g>
</g>
<g>
</g>
<g>
</g>
<g>
</g>
<g>
</g>
<g>
</g>
<g>
</g>
<g>
</g>
<g>
</g>
<g>
</g>
<g>
</g>
<g>
</g>
<g>
</g>
</svg>
