<?xml version="1.0" encoding="iso-8859-1"?>
<!-- Generator: Adobe Illustrator 18.0.0, SVG Export Plug-In . SVG Version: 6.00 Build 0)  -->
<!DOCTYPE svg PUBLIC "-//W3C//DTD SVG 1.1//EN" "http://www.w3.org/Graphics/SVG/1.1/DTD/svg11.dtd">
<svg version="1.1" id="Capa_1" xmlns="http://www.w3.org/2000/svg" xmlns:xlink="http://www.w3.org/1999/xlink" x="0px" y="0px"
	 viewBox="0 0 490.86 490.86" style="enable-background:new 0 0 490.86 490.86;" xml:space="preserve">
<path id="XMLID_120_" d="M245.438,0h-0.014C157.934,0,86.976,70.938,86.987,158.45c-0.011,77.684,55.934,142.187,129.701,155.718
	v151.485c0,13.923,11.293,25.208,25.211,25.208c13.914,0,25.202-11.285,25.202-25.208V318.632v-3.382
	c46.739-6.408,86.951-33.099,111.435-71.034c15.969-24.731,25.338-54.134,25.338-85.766C403.895,70.943,332.961,0,245.438,0z
	 M245.424,288.337c-34.691,0-67.305-13.514-91.838-38.04c-9.205-9.2-16.852-19.541-22.809-30.691
	c-17.58-48.709-7.028-105.377,31.949-144.346c21.453-21.457,49.971-33.267,80.32-33.267c30.344,0,58.863,11.818,80.313,33.273
	c17.804,17.799,27.604,41.465,27.604,66.64c0,25.164-9.8,48.83-27.604,66.629c-30.688,30.706-80.647,30.706-111.364,0
	c-25.863-25.883-25.852-67.982,0.014-93.864c21.991-22.017,57.803-21.981,79.826,0c6.564,6.563,6.564,17.205,0,23.771
	c-6.566,6.565-17.198,6.556-23.763,0.01c-8.88-8.905-23.388-8.921-32.299-0.02c-12.765,12.779-12.765,33.572-0.019,46.338
	c17.598,17.594,46.25,17.594,63.842,0c11.453-11.455,17.756-26.675,17.756-42.864c0-16.198-6.303-31.42-17.756-42.876
	c-15.118-15.107-35.189-23.427-56.551-23.427c-21.369,0-41.438,8.313-56.555,23.421c-40.617,40.617-40.617,106.704-0.02,147.323
	c23.386,23.376,53.866,36.933,86.571,38.96C264.133,287.255,254.907,288.337,245.424,288.337z"/>
<g>
</g>
<g>
</g>
<g>
</g>
<g>
</g>
<g>
</g>
<g>
</g>
<g>
</g>
<g>
</g>
<g>
</g>
<g>
</g>
<g>
</g>
<g>
</g>
<g>
</g>
<g>
</g>
<g>
</g>
</svg>
