<?xml version="1.0" encoding="iso-8859-1"?>
<!-- Generator: Adobe Illustrator 19.0.0, SVG Export Plug-In . SVG Version: 6.00 Build 0)  -->
<svg version="1.1" id="Layer_1" xmlns="http://www.w3.org/2000/svg" xmlns:xlink="http://www.w3.org/1999/xlink" x="0px" y="0px"
	 viewBox="0 0 512 512" style="enable-background:new 0 0 512 512;" xml:space="preserve">
<g>
	<g>
		<circle cx="314.731" cy="205.163" r="8.258"/>
	</g>
</g>
<g>
	<g>
		<path d="M426.667,297.29h-8.258V8.258c0-4.561-3.697-8.258-8.258-8.258H101.849c-4.561,0-8.258,3.697-8.258,8.258V297.29h-8.258
			c-4.561,0-8.258,3.697-8.258,8.258v198.194c0,4.561,3.697,8.258,8.258,8.258h341.333c4.561,0,8.258-3.697,8.258-8.258V305.548
			C434.925,300.988,431.227,297.29,426.667,297.29z M110.108,16.516h291.785V297.29H110.108V16.516z M418.409,495.484H93.591
			V313.806h324.817V495.484z"/>
	</g>
</g>
<g>
	<g>
		<path d="M393.634,330.323H289.032c-4.561,0-8.258,3.697-8.258,8.258v55.054c0,4.561,3.697,8.258,8.258,8.258h104.602
			c4.561,0,8.258-3.697,8.258-8.258v-55.054C401.892,334.02,398.195,330.323,393.634,330.323z M385.376,385.376H297.29v-38.538
			h88.086V385.376z"/>
	</g>
</g>
<g>
	<g>
		<path d="M217.462,198.194c-22.768,0-41.29,18.522-41.29,41.29c0,22.768,18.522,41.29,41.29,41.29
			c22.768,0,41.29-18.522,41.29-41.29C258.753,216.716,240.23,198.194,217.462,198.194z M217.462,264.258
			c-13.661,0-24.774-11.113-24.774-24.774c0-13.661,11.113-24.774,24.774-24.774c13.661,0,24.774,11.113,24.774,24.774
			C242.237,253.145,231.123,264.258,217.462,264.258z"/>
	</g>
</g>
<g>
	<g>
		<path d="M281.699,141.847c-13.661,0-24.774,11.113-24.774,24.774c0,13.661,11.113,24.774,24.774,24.774
			c13.661,0,24.774-11.113,24.774-24.774C306.473,152.96,295.36,141.847,281.699,141.847z M281.699,174.879
			c-4.554,0-8.258-3.704-8.258-8.258c0-4.554,3.704-8.258,8.258-8.258s8.258,3.704,8.258,8.258
			C289.957,171.175,286.253,174.879,281.699,174.879z"/>
	</g>
</g>
<g>
	<g>
		<path d="M332.99,139.23c-3.593-14.496-10.575-28.065-20.324-39.448c-2.275-2.656-5.974-3.592-9.238-2.335
			c-2.845,1.096-5.837,1.651-8.891,1.651c-12.765,0-23.605-9.953-24.676-22.657c-0.295-3.494-2.764-6.421-6.158-7.3
			c-7.877-2.04-16.026-3.075-24.219-3.075c-53.125,0-96.344,43.219-96.344,96.344v66.065c0,16.94,4.463,33.602,12.906,48.184
			c1.532,2.645,4.304,4.122,7.155,4.122c1.404,0,2.828-0.359,4.13-1.113c3.946-2.285,5.294-7.338,3.009-11.285
			c-6.99-12.071-10.684-25.871-10.684-39.908v-25.606c18.824-3.836,33.032-20.519,33.032-40.459c0-16.278-9.534-30.69-23.72-37.362
			c13.427-25.238,39.991-42.466,70.516-42.466c5.021,0,10.018,0.468,14.916,1.394c4.4,18.164,20.966,31.638,40.138,31.638
			c3.007,0,5.979-0.323,8.885-0.963c6.992,9.355,11.878,20.185,14.23,31.615c0.493,2.397,2.025,4.453,4.182,5.611
			c18.82,10.103,30.51,29.631,30.51,50.961v25.636c0,14.036-3.693,27.836-10.682,39.907c-2.285,3.946-0.938,8.999,3.009,11.284
			c3.948,2.286,8.999,0.938,11.284-3.009c8.443-14.583,12.905-31.243,12.905-48.182v-25.636
			C368.86,176.699,355.212,152.671,332.99,139.23z M176.172,162.409c0,10.766-6.905,19.945-16.516,23.354v-23.354
			c0-7.63,1.099-15.004,3.107-21.998C170.813,144.571,176.172,152.959,176.172,162.409z"/>
	</g>
</g>
<g>
</g>
<g>
</g>
<g>
</g>
<g>
</g>
<g>
</g>
<g>
</g>
<g>
</g>
<g>
</g>
<g>
</g>
<g>
</g>
<g>
</g>
<g>
</g>
<g>
</g>
<g>
</g>
<g>
</g>
</svg>
