<?xml version="1.0" encoding="iso-8859-1"?>
<!-- Generator: Adobe Illustrator 19.0.0, SVG Export Plug-In . SVG Version: 6.00 Build 0)  -->
<svg version="1.1" id="Layer_1" xmlns="http://www.w3.org/2000/svg" xmlns:xlink="http://www.w3.org/1999/xlink" x="0px" y="0px"
	 viewBox="0 0 512.001 512.001" style="enable-background:new 0 0 512.001 512.001;" xml:space="preserve">
<g>
	<g>
		<circle cx="407.751" cy="36.787" r="8.258"/>
	</g>
</g>
<g>
	<g>
		<circle cx="431.116" cy="13.43" r="8.258"/>
	</g>
</g>
<g>
	<g>
		<path d="M308.488,198.343c-7.799-7.799-18.168-12.093-29.196-12.093s-21.398,4.294-29.197,12.093
			c-7.799,7.799-12.093,18.168-12.093,29.196s4.294,21.398,12.093,29.197c7.799,7.799,18.168,12.094,29.197,12.094
			c11.029,0,21.398-4.295,29.196-12.094c7.799-7.799,12.094-18.168,12.094-29.197S316.287,206.141,308.488,198.343z
			 M296.809,245.057c-4.68,4.68-10.901,7.256-17.518,7.256c-6.617,0-12.839-2.578-17.518-7.256
			c-4.68-4.68-7.256-10.901-7.256-17.518c0-6.617,2.577-12.839,7.256-17.518s10.901-7.256,17.518-7.256
			c6.617,0,12.839,2.577,17.518,7.256c4.68,4.68,7.256,10.901,7.256,17.518C304.065,234.156,301.488,240.377,296.809,245.057z"/>
	</g>
</g>
<g>
	<g>
		<path d="M354.881,292.151c-3.21-3.24-8.439-3.266-11.678-0.057c-17.088,16.92-39.784,26.24-63.91,26.24
			c-24.296-0.002-47.107-9.435-64.235-26.562c-35.244-35.245-35.387-92.73-0.32-128.143c3.21-3.24,3.183-8.469-0.057-11.678
			c-3.239-3.21-8.468-3.184-11.678,0.057c-41.445,41.853-41.275,109.79,0.378,151.444c20.247,20.247,47.205,31.397,75.911,31.397
			c28.507,0,55.331-11.016,75.532-31.019C358.064,300.619,358.089,295.392,354.881,292.151z"/>
	</g>
</g>
<g>
	<g>
		<path d="M512.001,87.395c0-8.087-3.149-15.691-8.869-21.41c-5.719-5.719-13.323-8.869-21.41-8.869s-15.691,3.149-21.41,8.869
			c-3.225,3.225-3.225,8.454,0,11.678c3.225,3.225,8.454,3.225,11.678,0c2.6-2.6,6.056-4.031,9.732-4.031
			c3.677,0,7.133,1.431,9.732,4.031c2.6,2.6,4.031,6.056,4.031,9.732c0,3.677-1.431,7.133-4.031,9.732L320.166,268.414
			c-10.918,10.918-25.435,16.931-40.875,16.931s-29.957-6.013-40.875-16.931s-16.931-25.435-16.931-40.875
			s6.013-29.957,16.931-40.875l120.68-120.68c2.599-2.6,6.056-4.031,9.731-4.031s7.133,1.431,9.732,4.031
			c5.367,5.367,5.367,14.098,0,19.465l-15.571,15.571c-5.719,5.719-8.869,13.323-8.869,21.41c0,8.089,3.149,15.691,8.869,21.41
			c5.719,5.719,13.323,8.869,21.41,8.869s15.691-3.149,21.41-8.869l42.822-42.822c3.225-3.225,3.225-8.454,0-11.678
			c-3.225-3.225-8.454-3.225-11.678,0l-42.822,42.822c-2.6,2.6-6.056,4.031-9.732,4.031c-3.677,0-7.133-1.431-9.732-4.032
			c-2.6-2.599-4.031-6.056-4.031-9.731c0-3.675,1.431-7.133,4.031-9.732l15.571-15.571c11.806-11.806,11.806-31.015,0-42.822
			c-5.719-5.719-13.323-8.869-21.41-8.869c-8.089,0-15.691,3.149-21.41,8.869l-76.682,76.682
			c-23.853-9.979-49.152-15.04-75.294-15.04C87.674,115.947,0,203.621,0,311.388s87.674,195.441,195.441,195.441
			s195.442-87.674,195.442-195.441c0-26.142-5.061-51.441-15.04-75.294l127.289-127.289
			C508.852,103.087,512.001,95.482,512.001,87.395z M141.344,481.947c-21.55-6.851-41.341-17.681-58.51-31.624
			c2.098-17.732,17.289-31.579,35.533-31.579c19.731,0,35.785,16.054,35.785,35.785
			C154.152,465.186,149.419,475.176,141.344,481.947z M195.442,490.313c-12.275,0-24.263-1.244-35.85-3.61
			c7.084-9.072,11.076-20.341,11.076-32.174c0-28.838-23.463-52.301-52.301-52.301c-22.875,0-42.46,14.902-49.502,35.501
			c-32.329-32.389-52.347-77.07-52.347-126.34c0-98.66,80.265-178.925,178.925-178.925c21.627,0,42.615,3.791,62.564,11.253
			l-31.268,31.268c-14.038,14.038-21.769,32.702-21.769,52.553c0,19.852,7.731,38.517,21.769,52.553
			c14.038,14.038,32.701,21.769,52.553,21.769c19.852,0,38.516-7.731,52.553-21.769l31.268-31.268
			c7.463,19.949,11.254,40.938,11.254,62.565C374.367,410.048,294.102,490.313,195.442,490.313z"/>
	</g>
</g>
<g>
	<g>
		<path d="M79.829,253.581c-13.661,0-24.774,11.113-24.774,24.774c0,13.661,11.113,24.774,24.774,24.774
			c13.661,0,24.774-11.113,24.774-24.774C104.603,264.695,93.49,253.581,79.829,253.581z M79.829,286.614
			c-4.554,0-8.258-3.704-8.258-8.258c0-4.554,3.704-8.258,8.258-8.258c4.554,0,8.258,3.704,8.258,8.258
			S84.383,286.614,79.829,286.614z"/>
	</g>
</g>
<g>
	<g>
		<circle cx="112.861" cy="228.804" r="8.258"/>
	</g>
</g>
<g>
	<g>
		<circle cx="293.768" cy="398.37" r="8.258"/>
	</g>
</g>
<g>
	<g>
		<path d="M227.698,357.083c-22.768,0-41.29,18.522-41.29,41.29c0,3.605,0.472,7.2,1.404,10.685
			c1.178,4.407,5.707,7.025,10.111,5.845c4.406-1.178,7.023-5.705,5.845-10.111c-0.56-2.094-0.845-4.253-0.845-6.418
			c0-13.661,11.113-24.774,24.774-24.774c13.661,0,24.774,11.113,24.774,24.774c0,13.661-11.113,24.774-24.774,24.774
			c-2.164,0-4.324-0.284-6.418-0.843c-4.405-1.178-8.933,1.44-10.11,5.846c-1.177,4.406,1.44,8.933,5.846,10.11
			c3.486,0.932,7.08,1.404,10.683,1.404c22.768,0,41.29-18.522,41.29-41.29C268.987,375.605,250.466,357.083,227.698,357.083z"/>
	</g>
</g>
<g>
</g>
<g>
</g>
<g>
</g>
<g>
</g>
<g>
</g>
<g>
</g>
<g>
</g>
<g>
</g>
<g>
</g>
<g>
</g>
<g>
</g>
<g>
</g>
<g>
</g>
<g>
</g>
<g>
</g>
</svg>
