<?xml version="1.0" encoding="iso-8859-1"?>
<!-- Generator: Adobe Illustrator 18.0.0, SVG Export Plug-In . SVG Version: 6.00 Build 0)  -->
<!DOCTYPE svg PUBLIC "-//W3C//DTD SVG 1.1//EN" "http://www.w3.org/Graphics/SVG/1.1/DTD/svg11.dtd">
<svg version="1.1" id="Capa_1" xmlns="http://www.w3.org/2000/svg" xmlns:xlink="http://www.w3.org/1999/xlink" x="0px" y="0px"
	 viewBox="0 0 421.223 421.223" style="enable-background:new 0 0 421.223 421.223;" xml:space="preserve">
<g>
	<g>
		<g>
			<path d="M175.032,171.366c-9.711,0-17.611-7.901-17.611-17.612c0-9.712,7.9-17.613,17.611-17.613
				c9.712,0,17.613,7.901,17.613,17.613C192.645,163.465,184.744,171.366,175.032,171.366z M175.032,146.141
				c-4.197,0-7.611,3.415-7.611,7.613c0,4.197,3.415,7.612,7.611,7.612c4.198,0,7.613-3.415,7.613-7.612
				C182.645,149.556,179.229,146.141,175.032,146.141z"/>
		</g>
		<g>
			<path d="M246.102,171.366c-9.712,0-17.613-7.901-17.613-17.612c0-9.712,7.901-17.613,17.613-17.613
				c9.712,0,17.613,7.901,17.613,17.613C263.716,163.465,255.814,171.366,246.102,171.366z M246.102,146.141
				c-4.198,0-7.613,3.415-7.613,7.613c0,4.197,3.415,7.612,7.613,7.612c4.198,0,7.613-3.415,7.613-7.612
				C253.716,149.556,250.301,146.141,246.102,146.141z"/>
		</g>
	</g>
	<path d="M354.517,306.151c-5.988-2.373-12.181-4.827-18.043-8.07c-21.033-11.633-48.722-25.382-61.432-31.617
		c17.447-15.509,30.04-36.794,36.71-62.362c5.8-22.234,5.213-39.974,5.132-41.841v-58.859c0-27.581-11.168-53.568-31.447-73.176
		C265.277,10.735,238.687,0,210.567,0c-28.121,0-54.71,10.735-74.869,30.227c-20.279,19.607-31.447,45.595-31.447,73.175v58.859
		c-0.082,1.867-0.668,19.606,5.132,41.841c6.673,25.583,19.278,46.879,36.742,62.391c-12.728,6.244-40.365,19.969-61.373,31.589
		c-5.863,3.243-12.055,5.697-18.044,8.07c-19.883,7.879-40.444,16.027-40.444,52.213v57.857c0,2.761,2.239,5,5,5H389.96
		c2.762,0,5-2.239,5-5v-57.857C394.96,322.179,374.4,314.031,354.517,306.151z M303.228,291.781
		c9.573,4.914,19.585,10.172,28.406,15.051c5.14,2.842,10.323,5.056,15.408,7.104c-38.528,9.273-71.002,11.845-97.839,10.692
		C278.24,315.436,296.612,298.649,303.228,291.781z M287.427,236.249c-85.489,8.114-142.729-13.703-156.05-19.461
		c1.022-13.506,3.33-25.782,6.202-36.597c10.424,1.504,37.262,4.873,68.542,4.873c27.686,0,58.842-2.65,85.134-11.564
		c4.559,11.74,8.16,24.524,8.402,35.997C296.818,218.24,292.881,227.409,287.427,236.249z M140.42,170.471
		c6.336-19.814,14.046-33.398,17.33-38.69c22.724,2.467,53.493,4.527,92.974,4.527c7.022,0,14.339-0.071,21.919-0.211
		c2.65,4.351,8.912,15.062,14.743,28.149C235.397,181.567,161.356,173.321,140.42,170.471z M305.448,184.254
		c-5.636-19.698-15.579-38.49-21.32-48.422c7.344-0.203,14.926-0.473,22.756-0.821v27.365c0,0.081,0.002,0.167,0.006,0.248
		C306.901,162.869,307.247,171.571,305.448,184.254z M210.567,10c22.559,0,43.33,7.563,59.763,20.208
		C230.317,76.58,143.454,73.983,119.74,72.322C132.976,36.054,168.69,10,210.567,10z M114.25,103.402
		c0-7.31,0.873-14.426,2.518-21.256c4.861,0.405,13.53,0.959,24.582,0.959c10.544,0,23.257-0.504,36.896-2.124
		c44.919-5.334,79.229-20.605,99.681-44.269c17.857,16.964,28.956,40.592,28.956,66.69v21.601
		c-115.392,5.143-177.56-6.797-192.633-10.226V103.402z M114.244,162.63c0.004-0.084,0.006-0.169,0.006-0.253v-37.321
		c6.201,1.367,16.97,3.441,32.578,5.438c-7.195,12.453-21.051,40.856-24.963,80.18C113.342,185.193,114.225,163.018,114.244,162.63z
		 M130.806,231.264c0.004-1.278,0.03-2.54,0.058-3.799c15.736,6.453,57.259,20.622,118.472,20.622c9.698,0,19.91-0.37,30.576-1.171
		c-5.825,7.261-12.898,14.049-21.494,19.882c-6.295,4.272-10.414,8.234-14.048,11.73c-7.788,7.491-12.488,12.012-33.803,12.012
		c-21.314,0-26.015-4.521-33.802-12.012c-3.634-3.496-7.753-7.458-14.048-11.73C148.151,256.914,137.951,244.288,130.806,231.264z
		 M154.762,273.4c0.778,0.559,1.545,1.133,2.339,1.672c5.591,3.794,9.384,7.443,12.731,10.663
		c8.599,8.271,15.391,14.805,40.734,14.805s32.136-6.533,40.735-14.805c3.348-3.22,7.141-6.869,12.731-10.663
		c0.807-0.547,1.585-1.13,2.375-1.698c4.689,2.284,15.158,7.416,27.423,13.62c-10.165,9.74-37.555,31.714-79.258,33.754
		c-12.635-2.363-23.413-5.513-32.396-8.859c-25.46-9.482-40.821-21.873-47.739-28.442C143.539,278.888,150.986,275.24,154.762,273.4
		z M89.59,306.832c11.005-6.087,23.864-12.766,35.411-18.627c6.163,6.406,22.849,21.419,52.919,32.768
		c22.334,8.429,47.532,13.102,74.893,13.892c2.768,0.08,5.557,0.12,8.371,0.12c31.237,0,65.254-4.929,101.264-14.661
		c7.147,3.368,13.02,7.298,16.971,13.672c-69.499,46.127-142.124,56.06-215.933,29.46c-43.308-15.608-74.535-39.966-86.807-50.539
		C80.958,311.147,85.29,309.211,89.59,306.832z M36.263,358.365c0-27.315,12.366-34.145,30.016-41.276
		c4.892,4.497,16.953,14.966,34.917,26.53c-19.092,18.448-41.801,32.599-64.933,40.488V358.365z M106.473,411.223v-28.804
		c0-2.761-2.239-5-5-5c-2.761,0-5,2.239-5,5v28.804h-60.21V394.64c26.359-8.355,52.305-24.422,73.679-45.605
		c9.661,5.762,20.68,11.603,32.918,16.956c4.668,5.326,28.225,30.775,63.845,45.232h-2.083H106.473z M384.96,411.223h-60.209
		v-28.804c0-2.761-2.238-5-5-5s-5,2.239-5,5v28.804h-62.732c-36.897-1.513-67.163-21.136-84.961-35.971
		c25.342,8.355,50.925,12.574,76.363,12.574c6.604,0,13.197-0.283,19.773-0.851c40.995-3.537,81.375-18.19,120.119-43.554
		c1.068,4.18,1.646,9.085,1.646,14.945V411.223z"/>
</g>
<g>
</g>
<g>
</g>
<g>
</g>
<g>
</g>
<g>
</g>
<g>
</g>
<g>
</g>
<g>
</g>
<g>
</g>
<g>
</g>
<g>
</g>
<g>
</g>
<g>
</g>
<g>
</g>
<g>
</g>
</svg>
