<?xml version="1.0" encoding="iso-8859-1"?>
<!-- Generator: Adobe Illustrator 19.0.0, SVG Export Plug-In . SVG Version: 6.00 Build 0)  -->
<svg version="1.1" id="Capa_1" xmlns="http://www.w3.org/2000/svg" xmlns:xlink="http://www.w3.org/1999/xlink" x="0px" y="0px"
	 viewBox="0 0 512 512" style="enable-background:new 0 0 512 512;" xml:space="preserve">
<g>
	<g>
		<path d="M384,76.8H128c-14.138,0-25.6,11.462-25.6,25.6v366.933c0,23.564,19.102,42.667,42.667,42.667h221.867
			c23.564,0,42.667-19.102,42.667-42.667V102.4C409.6,88.262,398.138,76.8,384,76.8z M392.533,469.333
			c0,14.138-11.461,25.6-25.6,25.6H145.067c-14.138,0-25.6-11.461-25.6-25.6V102.4c0-4.713,3.82-8.533,8.533-8.533h256
			c4.713,0,8.533,3.82,8.533,8.533V469.333z"/>
	</g>
</g>
<g>
	<g>
		<path d="M405.333,138.496c-23.517-12.885-49.988-19.415-76.8-18.944c-26.804-0.497-53.275,6.003-76.8,18.859
			c-20.931,11.355-44.459,17.061-68.267,16.555c-23.807,0.506-47.336-5.199-68.267-16.555c-0.47-0.342-0.975-0.635-1.505-0.875
			c-4.295-1.941-9.349-0.033-11.29,4.262c-1.941,4.295-0.033,9.349,4.262,11.29c23.525,12.856,49.996,19.356,76.8,18.859
			c26.797,0.523,53.267-5.947,76.8-18.773c20.931-11.355,44.459-17.061,68.267-16.555c23.807-0.506,47.336,5.199,68.267,16.555
			c0.47,0.342,0.975,0.635,1.505,0.875c4.295,1.941,9.349,0.033,11.29-4.262C411.537,145.492,409.628,140.437,405.333,138.496z"/>
	</g>
</g>
<g>
	<g>
		<path d="M366.934,0H145.067C121.503,0,102.4,19.103,102.4,42.667v25.6c0,14.138,11.461,25.6,25.6,25.6h256
			c14.138,0,25.6-11.462,25.6-25.6v-25.6C409.6,19.103,390.497,0,366.934,0z M392.535,68.267h-0.001c0,4.713-3.82,8.533-8.533,8.533
			H128c-4.713,0-8.533-3.82-8.533-8.533v-25.6c0-14.138,11.461-25.6,25.6-25.6h221.867c14.138,0,25.6,11.462,25.6,25.6V68.267z"/>
	</g>
</g>
<g>
	<g>
		<path d="M153.6,51.2c-4.713,0-8.533,3.82-8.533,8.533v25.6c0,4.713,3.821,8.533,8.533,8.533c4.713,0,8.533-3.821,8.533-8.533
			v-25.6C162.133,55.021,158.313,51.2,153.6,51.2z"/>
	</g>
</g>
<g>
	<g>
		<path d="M187.733,51.2c-4.713,0-8.533,3.82-8.533,8.533v25.6c0,4.713,3.82,8.533,8.533,8.533c4.713,0,8.533-3.821,8.533-8.533
			v-25.6C196.267,55.021,192.446,51.2,187.733,51.2z"/>
	</g>
</g>
<g>
	<g>
		<path d="M221.867,51.2c-4.713,0-8.533,3.82-8.533,8.533v25.6c0,4.713,3.82,8.533,8.533,8.533s8.533-3.821,8.533-8.533v-25.6
			C230.4,55.021,226.58,51.2,221.867,51.2z"/>
	</g>
</g>
<g>
	<g>
		<path d="M256,51.2c-4.713,0-8.533,3.82-8.533,8.533v25.6c0,4.713,3.82,8.533,8.533,8.533s8.533-3.821,8.533-8.533v-25.6
			C264.533,55.021,260.713,51.2,256,51.2z"/>
	</g>
</g>
<g>
	<g>
		<path d="M290.133,51.2c-4.713,0-8.533,3.82-8.533,8.533v25.6c0,4.713,3.82,8.533,8.533,8.533c4.713,0,8.533-3.821,8.533-8.533
			v-25.6C298.667,55.021,294.846,51.2,290.133,51.2z"/>
	</g>
</g>
<g>
	<g>
		<path d="M324.267,51.2c-4.713,0-8.533,3.82-8.533,8.533v25.6c0,4.713,3.82,8.533,8.533,8.533c4.713,0,8.533-3.821,8.533-8.533
			v-25.6C332.8,55.021,328.979,51.2,324.267,51.2z"/>
	</g>
</g>
<g>
	<g>
		<path d="M358.4,51.2c-4.713,0-8.533,3.82-8.533,8.533v25.6c0,4.713,3.82,8.533,8.533,8.533c4.713,0,8.533-3.821,8.533-8.533v-25.6
			C366.934,55.021,363.113,51.2,358.4,51.2z"/>
	</g>
</g>
<g>
	<g>
		<path d="M401.067,196.267H110.933c-4.713,0-8.533,3.82-8.533,8.533v221.867c0,4.713,3.82,8.533,8.533,8.533h290.133
			c4.713,0,8.533-3.82,8.533-8.533V204.8C409.6,200.087,405.78,196.267,401.067,196.267z M392.534,418.133L392.534,418.133H119.467
			v-204.8h273.067V418.133z"/>
	</g>
</g>
<g>
	<g>
		<path d="M337.067,269.141c-0.487-3.116-1.288-6.175-2.389-9.131c-1.123-2.985-2.552-5.844-4.267-8.533
			c-1.776-2.74-3.836-5.285-6.144-7.595c-4.428-4.535-9.744-8.109-15.616-10.496c-2.957-1.098-6.015-1.898-9.131-2.389
			c-3.1-0.525-6.246-0.726-9.387-0.597c-3.234-0.029-6.464,0.257-9.643,0.853c-6.344,1.429-12.365,4.034-17.749,7.68
			c-5.61,3.839-10.445,8.703-14.251,14.336c-1.823,2.694-3.394,5.551-4.693,8.533c-1.184,2.758-2.126,5.613-2.816,8.533
			c-1.536,3.584-11.52,24.576-29.099,29.696c-6.344,1.429-12.365,4.034-17.749,7.68c-2.784,1.916-5.384,4.087-7.765,6.485
			c-2.404,2.376-4.576,4.976-6.485,7.765c-1.83,2.69-3.401,5.547-4.693,8.533c-2.546,5.855-3.964,12.137-4.181,18.517
			c-0.101,3.141,0.099,6.284,0.597,9.387c0.497,3.234,1.326,6.408,2.475,9.472c2.288,6.053,5.837,11.551,10.411,16.128
			c4.614,4.549,10.14,8.069,16.213,10.325c2.952,1.132,6.011,1.961,9.131,2.475c2.54,0.401,5.108,0.6,7.68,0.597l0.939-0.171
			c3.16-0.1,6.303-0.5,9.387-1.195c6.346-1.423,12.367-4.028,17.749-7.68c2.819-1.904,5.448-4.076,7.851-6.485
			c2.372-2.382,4.515-4.982,6.4-7.765c1.856-2.689,3.456-5.546,4.779-8.533c1.272-2.917,2.272-5.945,2.987-9.045
			c3.499-14.421,22.101-25.685,29.781-29.184c6.094-1.457,11.875-4.001,17.067-7.509c5.61-3.805,10.446-8.641,14.251-14.251
			c1.855-2.69,3.455-5.546,4.779-8.533c1.276-2.944,2.276-6.001,2.987-9.131c0.692-3.085,1.091-6.227,1.195-9.387
			C337.766,275.387,337.566,272.244,337.067,269.141z M320.085,277.931c-0.064,2.096-0.321,4.181-0.768,6.229
			c-0.464,2.076-1.121,4.105-1.963,6.059c-0.868,2.029-1.925,3.972-3.157,5.803c-1.28,1.897-2.737,3.669-4.352,5.291
			c-1.62,1.617-3.392,3.074-5.291,4.352c-1.83,1.233-3.773,2.29-5.803,3.157c-1.983,0.844-4.039,1.501-6.144,1.963l-1.536,0.512
			c-1.365,0.597-33.963,14.933-40.277,41.216c-0.466,2.076-1.123,4.104-1.963,6.059c-0.897,2.032-1.982,3.974-3.243,5.803
			c-1.283,1.895-2.74,3.666-4.352,5.291c-1.62,1.617-3.392,3.074-5.291,4.352c-1.831,1.232-3.774,2.289-5.803,3.157
			c-1.982,0.844-4.039,1.501-6.144,1.963c-2.047,0.457-4.133,0.714-6.229,0.768c-2.015,0.187-4.043,0.187-6.059,0
			c-1.981-0.318-3.924-0.832-5.803-1.536c-1.882-0.721-3.684-1.636-5.376-2.731c-3.414-2.211-6.322-5.119-8.533-8.533
			c-1.096-1.691-2.011-3.493-2.731-5.376c-0.704-1.878-1.219-3.822-1.536-5.803c-0.195-2.015-0.195-4.044,0-6.059
			c0.271-2.204,0.757-4.376,1.451-6.485c0.464-2.076,1.121-4.105,1.963-6.059c0.867-2.029,1.925-3.972,3.157-5.803
			c1.278-1.898,2.736-3.67,4.352-5.291c1.626-1.61,3.397-3.067,5.291-4.352c1.831-1.232,3.774-2.289,5.803-3.157
			c2.121-0.91,4.32-1.624,6.571-2.133c27.648-8.021,40.363-39.083,40.875-40.363c0.032-0.426,0.032-0.854,0-1.28
			c0.466-2.076,1.123-4.104,1.963-6.059c0.871-2.028,1.928-3.97,3.157-5.803c2.605-3.823,5.905-7.123,9.728-9.728
			c1.831-1.232,3.774-2.289,5.803-3.157c1.982-0.844,4.039-1.501,6.144-1.963c2.019-0.451,4.076-0.709,6.144-0.768h1.365
			c1.392-0.092,2.789-0.092,4.181,0c1.981,0.318,3.924,0.832,5.803,1.536c7.923,2.901,14.166,9.144,17.067,17.067
			c0.708,1.877,1.222,3.821,1.536,5.803C320.279,273.887,320.279,275.916,320.085,277.931z"/>
	</g>
</g>
<g>
	<g>
		<path d="M161.451,466.091c-0.406-1.047-1.015-2.004-1.792-2.816c-2.454-2.421-6.124-3.128-9.301-1.792
			c-2.144,0.776-3.832,2.464-4.608,4.608c-0.417,1.016-0.635,2.102-0.64,3.2c-0.023,4.713,3.778,8.552,8.491,8.576
			c1.115-0.013,2.217-0.245,3.243-0.683c1.034-0.432,1.987-1.038,2.816-1.792c1.597-1.61,2.488-3.79,2.475-6.059
			C162.162,468.214,161.928,467.103,161.451,466.091z"/>
	</g>
</g>
<g>
	<g>
		<path d="M193.792,463.275c-0.803-0.788-1.762-1.399-2.816-1.792c-3.178-1.336-6.847-0.629-9.301,1.792
			c-0.777,0.812-1.386,1.769-1.792,2.816c-0.417,1.016-0.635,2.102-0.64,3.2c-0.023,4.713,3.778,8.552,8.491,8.576
			c4.713,0,8.533-3.82,8.533-8.533C196.235,467.074,195.351,464.91,193.792,463.275z"/>
	</g>
</g>
<g>
	<g>
		<path d="M229.717,466.091c-0.425-1.037-1.051-1.981-1.841-2.776c-3.322-3.343-8.724-3.361-12.068-0.04
			c-0.777,0.812-1.386,1.769-1.792,2.816c-0.417,1.016-0.635,2.102-0.64,3.2c-0.023,4.713,3.778,8.552,8.491,8.576
			c2.268,0.013,4.448-0.877,6.059-2.475c0.751-0.831,1.357-1.783,1.792-2.816c0.478-1.013,0.711-2.123,0.683-3.243
			C230.387,468.218,230.155,467.117,229.717,466.091z"/>
	</g>
</g>
<g>
	<g>
		<path d="M263.851,466.091c-0.776-2.144-2.464-3.832-4.608-4.608c-3.178-1.336-6.847-0.629-9.301,1.792
			c-0.777,0.812-1.386,1.769-1.792,2.816c-0.417,1.016-0.635,2.102-0.64,3.2c-0.023,4.713,3.778,8.552,8.491,8.576
			c1.098-0.005,2.185-0.223,3.2-0.64C263.56,475.436,265.642,470.45,263.851,466.091z"/>
	</g>
</g>
<g>
	<g>
		<path d="M297.984,466.091c-0.406-1.047-1.015-2.004-1.792-2.816c-2.454-2.421-6.124-3.128-9.301-1.792
			c-1.055,0.391-2.015,1.002-2.816,1.792c-1.559,1.635-2.443,3.799-2.475,6.059c0.013,1.115,0.245,2.217,0.683,3.243
			c0.434,1.033,1.04,1.986,1.792,2.816c1.61,1.597,3.79,2.488,6.059,2.475c1.098-0.005,2.185-0.223,3.2-0.64
			C297.693,475.436,299.775,470.45,297.984,466.091z"/>
	</g>
</g>
<g>
	<g>
		<path d="M332.117,466.091c-0.406-1.047-1.015-2.004-1.792-2.816c-2.454-2.421-6.124-3.128-9.301-1.792
			c-1.034,0.432-1.987,1.038-2.816,1.792c-0.777,0.812-1.386,1.769-1.792,2.816c-0.417,1.016-0.635,2.102-0.64,3.2
			c-0.023,4.713,3.778,8.552,8.491,8.576c1.098-0.005,2.185-0.223,3.2-0.64C331.826,475.436,333.908,470.45,332.117,466.091z"/>
	</g>
</g>
<g>
	<g>
		<path d="M366.251,466.091c-0.406-1.047-1.015-2.004-1.792-2.816c-0.803-0.788-1.762-1.399-2.816-1.792
			c-4.336-1.768-9.286,0.289-11.093,4.608c-0.902,2.068-0.902,4.418,0,6.485c0.434,1.033,1.04,1.986,1.792,2.816
			c1.61,1.597,3.79,2.488,6.059,2.475c2.268,0.013,4.448-0.877,6.059-2.475c0.751-0.831,1.357-1.783,1.792-2.816
			C367.164,470.511,367.164,468.156,366.251,466.091z"/>
	</g>
</g>
<g>
</g>
<g>
</g>
<g>
</g>
<g>
</g>
<g>
</g>
<g>
</g>
<g>
</g>
<g>
</g>
<g>
</g>
<g>
</g>
<g>
</g>
<g>
</g>
<g>
</g>
<g>
</g>
<g>
</g>
</svg>
