<svg xmlns="http://www.w3.org/2000/svg" xmlns:xlink="http://www.w3.org/1999/xlink" version="1.1" x="0px" y="0px" viewBox="0 0 64 80" style="enable-background:new 0 0 64 64;" xml:space="preserve"><rect x="5" y="31" style="" width="54" height="30" fill="none" stroke="#000000" stroke-width="2" stroke-linejoin="round" stroke-miterlimit="10"/><path style="" d="M40.435,11.536l-9.9,9.9  c-1.953,1.953-5.118,1.953-7.071,0l0,0c-1.953-1.953-1.953-5.118,0-7.071l9.9-9.9c1.953-1.953,5.118-1.953,7.071,0l0,0  C42.388,6.417,42.388,9.583,40.435,11.536z" fill="none" stroke="#000000" stroke-width="2" stroke-linejoin="round" stroke-miterlimit="10"/><line style="" x1="28.414" y1="9.414" x2="35.485" y2="16.485" fill="none" stroke="#000000" stroke-width="2" stroke-linejoin="round" stroke-miterlimit="10"/><path style="" d="M40.872,11  c-0.138,0.183-0.271,0.369-0.437,0.536l-9.9,9.899c-1.953,1.953-5.118,1.953-7.071,0c-1.953-1.953-1.953-5.118,0-7.071L26.828,11H5  v16h54V11H40.872z" fill="none" stroke="#000000" stroke-width="2" stroke-linejoin="round" stroke-miterlimit="10"/><rect x="25" y="45" style="" width="14" height="8" fill="none" stroke="#000000" stroke-width="2" stroke-linejoin="round" stroke-miterlimit="10"/><rect x="25" y="53" style="" width="14" height="8" fill="none" stroke="#000000" stroke-width="2" stroke-linejoin="round" stroke-miterlimit="10"/><rect x="25" y="37" style="" width="14" height="8" fill="none" stroke="#000000" stroke-width="2" stroke-linejoin="round" stroke-miterlimit="10"/><rect x="9" y="37" style="" width="12" height="16" fill="none" stroke="#000000" stroke-width="2" stroke-linejoin="round" stroke-miterlimit="10"/><path style="" d="M51,42v-3h-4v3l-2.894,1.447  C43.428,43.786,43,44.479,43,45.236V54c0,1.105,0.895,2,2,2h8c1.105,0,2-0.895,2-2v-8.764c0-0.758-0.428-1.45-1.106-1.789L51,42z" fill="none" stroke="#000000" stroke-width="2" stroke-linejoin="round" stroke-miterlimit="10"/><path style="" d="M51,39h-4  c-1.105,0-2-0.895-2-2v0c0-1.105,0.895-2,2-2h4c1.105,0,2,0.895,2,2v0C53,38.105,52.105,39,51,39z" fill="none" stroke="#000000" stroke-width="2" stroke-linejoin="round" stroke-miterlimit="10"/><line style="" x1="49" y1="46" x2="49" y2="52" fill="none" stroke="#000000" stroke-width="2" stroke-linejoin="round" stroke-miterlimit="10"/><line style="" x1="46" y1="49" x2="52" y2="49" fill="none" stroke="#000000" stroke-width="2" stroke-linejoin="round" stroke-miterlimit="10"/><rect x="3" y="27" style="" width="58" height="4" fill="none" stroke="#000000" stroke-width="2" stroke-linejoin="round" stroke-miterlimit="10"/><line style="" x1="36" y1="49" x2="34" y2="49" fill="none" stroke="#000000" stroke-width="2" stroke-linejoin="round" stroke-miterlimit="10"/><line style="" x1="9" y1="45" x2="21" y2="45" fill="none" stroke="#000000" stroke-width="2" stroke-linejoin="round" stroke-miterlimit="10"/><text x="0" y="79" fill="#000000" font-size="5px" font-weight="bold" font-family="'Helvetica Neue', Helvetica, Arial-Unicode, Arial, Sans-serif">Created by Massupa  Kaewgahya</text><text x="0" y="84" fill="#000000" font-size="5px" font-weight="bold" font-family="'Helvetica Neue', Helvetica, Arial-Unicode, Arial, Sans-serif">from the Noun Project</text></svg>