<?xml version="1.0" encoding="iso-8859-1"?>
<!-- Generator: Adobe Illustrator 19.0.0, SVG Export Plug-In . SVG Version: 6.00 Build 0)  -->
<svg version="1.1" id="Layer_1" xmlns="http://www.w3.org/2000/svg" xmlns:xlink="http://www.w3.org/1999/xlink" x="0px" y="0px"
	 viewBox="0 0 512 512" style="enable-background:new 0 0 512 512;" xml:space="preserve">
<g>
	<g>
		<path d="M395.507,44.227l-23.281-3.508c0,0-61.312-37.492-116.227-40.719c-54.914,3.227-116.211,40.719-116.211,40.719
			l-23.297,3.508c0,0-91.383,230.805-71.031,244.414C139.78,351.719,66.421,512,202.663,512V335.969
			c6.695,7,13.844,12.875,21.336,17.328v105.359c0,17.688,32,32,32,32s32.008-14.312,32.008-32V353.281
			c7.5-4.438,14.641-10.312,21.328-17.312V512c136.25,0,62.891-160.281,157.203-223.359
			C486.897,275.031,395.507,44.227,395.507,44.227z M439.35,234.664h-80.781c1.5-7.117,2.657-14.258,3.453-21.328h71.109
			C435.569,221.344,437.631,228.422,439.35,234.664z M426.413,192h-63.094c0-0.43,0.016-0.867,0.016-1.305
			c0-7.078-0.422-13.75-1.203-20.031h57.172C421.898,178.289,424.257,185.383,426.413,192z M382.617,69.93
			c3.64,9.492,8.484,22.195,13.859,36.734h-21.75L382.617,69.93z M370.132,128h34.156c2.516,6.93,5.062,14.078,7.625,21.336h-46.344
			L370.132,128z M347.304,51.297c8.453,4.398,13.625,7.523,13.797,7.625l1.812,1.117l-18.953,88.273
			c-3.469-2.633-7.594-5.375-12.453-8.023L347.304,51.297z M308.054,33.766c6.828,2.531,13.328,5.227,19.297,7.883l-15.969,89.977
			c-4.016-1.32-8.344-2.531-12.969-3.594L308.054,33.766z M266.672,22.578c6.867,1.039,13.804,2.578,20.632,4.453l-9.984,97.578
			c-3.406-0.352-6.969-0.617-10.648-0.789V22.578z M245.335,22.578V123.82c-3.68,0.172-7.234,0.438-10.656,0.789l-9.977-97.578
			C231.522,25.156,238.46,23.617,245.335,22.578z M203.944,33.765l9.641,94.266c-4.625,1.063-8.945,2.274-12.961,3.594
			l-15.969-89.977C190.616,38.992,197.116,36.296,203.944,33.765z M150.897,58.93c0.172-0.102,5.344-3.227,13.805-7.633
			l15.789,88.992c-4.852,2.648-8.984,5.391-12.445,8.023l-18.961-88.273L150.897,58.93z M129.39,69.93l7.891,36.734h-21.75
			C120.913,92.125,125.749,79.422,129.39,69.93z M107.709,128h34.156l4.579,21.336h-46.352
			C102.647,142.078,105.201,134.93,107.709,128z M92.703,170.664h57.179c-0.797,6.281-1.211,12.953-1.211,20.031
			c0,0.438,0.008,0.875,0.008,1.305H85.601C87.749,185.383,90.109,178.289,92.703,170.664z M78.866,213.336h71.117
			c0.805,7.07,1.961,14.211,3.445,21.328H72.655C74.374,228.422,76.428,221.344,78.866,213.336z M63.929,275.625
			c0.265-3.516,1.086-9.57,3.336-19.625h91.617c2.195,7.25,4.719,14.391,7.539,21.344H66.093
			C65.374,276.75,64.663,276.188,63.929,275.625z M181.335,488.828c-5.891-1.14-11.141-2.781-15.711-4.937
			c-7.211-3.422-12.891-8.078-17.742-14.547h33.453V488.828z M181.335,448h-44.344c-2.375-6.594-4.359-13.781-6.156-21.344h50.5V448
			z M181.335,405.344h-55.078c-0.281-1.406-0.562-2.781-0.844-4.188c-1.141-5.688-2.281-11.406-3.516-17.156h59.438V405.344z
			 M181.335,362.656h-64.5c-1.922-7.141-4.102-14.281-6.68-21.312h71.18V362.656z M181.336,320L181.336,320h-80.54
			c-4.047-7.75-8.594-14.828-13.648-21.344h89.227c1.594,3,3.25,5.938,4.961,8.812V320z M266.671,457.344
			c-0.883,1.312-3.508,4.265-9.172,8.062c-0.5,0.328-1,0.656-1.5,0.969c-0.492-0.312-0.992-0.641-1.492-0.969
			c-5.664-3.797-8.289-6.75-9.172-8.062V448h21.336V457.344z M266.671,426.656h-21.336v-21.312h21.336V426.656z M266.671,384
			h-21.336v-29h21.336V384z M284.569,329.812c-1.797,1.422-3.578,2.703-5.359,3.844h-46.414c-1.781-1.141-3.562-2.422-5.352-3.844
			c-10.242-8.062-20.227-20.219-28.891-35.125c-8.68-14.938-15.898-32.383-20.883-50.477c-5.016-18.211-7.672-36.711-7.672-53.516
			c0-5.414,0.281-10.57,0.828-15.469c0.523-0.773,5.57-7.922,17.633-14.992c21.625-12.68,48.672-15.344,67.539-15.344h0.008
			c18.875,0,45.906,2.664,67.531,15.344c12.062,7.07,17.125,14.211,17.641,14.992c0.547,4.898,0.828,10.055,0.828,15.469
			c0,16.805-2.656,35.305-7.672,53.516c-4.984,18.094-12.203,35.539-20.891,50.477C304.788,309.594,294.804,321.75,284.569,329.812z
			 M330.663,488.844v-19.5h33.469C358.351,477.109,349.226,485.297,330.663,488.844z M375.007,448h-44.344v-21.344h50.5
			C379.382,434.218,377.382,441.406,375.007,448z M386.601,401.156c-0.282,1.406-0.563,2.782-0.844,4.188h-55.094V384h59.438
			C388.882,389.75,387.726,395.469,386.601,401.156z M395.163,362.656h-64.5v-21.312h71.188
			C399.257,348.375,397.085,355.516,395.163,362.656z M411.21,320.001h-80.547V320v-12.531c1.719-2.875,3.375-5.797,4.969-8.812
			h89.219C419.804,305.173,415.257,312.251,411.21,320.001z M445.913,277.344H345.585c2.828-6.953,5.344-14.094,7.547-21.344h91.609
			c2.25,10.055,3.078,16.109,3.328,19.625C447.351,276.188,446.632,276.75,445.913,277.344z"/>
	</g>
</g>
<g>
	<g>
		<path d="M239.358,203.766v-0.008l-43.555-21.336v0.008c-1.422-0.695-3.008-1.094-4.688-1.094c-5.891,0-10.672,4.773-10.672,10.664
			c0,4.211,2.445,7.836,5.984,9.57l-0.008,0.008l16.852,8.25c-0.383,1.102-0.602,2.273-0.602,3.508
			c0,5.891,4.773,10.664,10.664,10.664c3.75,0,7.039-1.938,8.938-4.859l7.703,3.773l0.008-0.008
			c1.415,0.696,3.001,1.094,4.689,1.094c5.891,0,10.664-4.773,10.664-10.664C245.335,209.125,242.897,205.5,239.358,203.766z"/>
	</g>
</g>
<g>
	<g>
		<path d="M331.569,192c0-5.891-4.781-10.664-10.688-10.664c-1.672,0-3.266,0.398-4.688,1.094v-0.008l-43.547,21.336v0.008
			c-3.539,1.734-5.977,5.359-5.977,9.57c0,5.891,4.773,10.664,10.664,10.664c1.688,0,3.266-0.398,4.688-1.094l0.016,0.008
			l7.688-3.773c1.906,2.922,5.188,4.859,8.938,4.859c5.906,0,10.672-4.773,10.672-10.664c0-1.234-0.219-2.406-0.609-3.508
			l16.859-8.25l-0.016-0.008C329.116,199.836,331.569,196.211,331.569,192z"/>
	</g>
</g>
<g>
	<g>
		<path d="M266.671,277.344h-21.336c-5.891,0-10.664,4.766-10.664,10.656s4.773,10.656,10.664,10.656h21.336
			c5.898,0,10.664-4.766,10.664-10.656S272.569,277.344,266.671,277.344z"/>
	</g>
</g>
<g>
</g>
<g>
</g>
<g>
</g>
<g>
</g>
<g>
</g>
<g>
</g>
<g>
</g>
<g>
</g>
<g>
</g>
<g>
</g>
<g>
</g>
<g>
</g>
<g>
</g>
<g>
</g>
<g>
</g>
</svg>
