<?xml version="1.0" encoding="iso-8859-1"?>
<!-- Generator: Adobe Illustrator 19.0.0, SVG Export Plug-In . SVG Version: 6.00 Build 0)  -->
<svg version="1.1" id="Layer_1" xmlns="http://www.w3.org/2000/svg" xmlns:xlink="http://www.w3.org/1999/xlink" x="0px" y="0px"
	 viewBox="0 0 512 512" style="enable-background:new 0 0 512 512;" xml:space="preserve">
<g>
	<g>
		<g>
			<path d="M93.868,273.067c3.115,0,6.025-0.35,8.926-0.691c0.589,8.755,2.082,22.434,5.828,36.753
				c-13.491,4.557-23.287,17.195-23.287,32.205c0,18.816,15.309,34.133,34.133,34.133c18.816,0,34.133-15.317,34.133-34.133
				c0-16.597-11.913-30.43-27.631-33.476c-4.506-15.787-5.888-31.59-6.315-39.62c32.742-12.587,48.913-47.241,55.509-66.432
				c21.905,19.149,48.623,28.595,80.836,28.595c32.179,0,58.88-9.429,80.777-28.544c6.554,19.098,22.724,53.82,55.578,66.398
				c-0.418,7.953-1.783,23.723-6.323,39.603c-15.718,3.046-27.631,16.879-27.631,33.476c0,18.816,15.309,34.133,34.133,34.133
				c18.816,0,34.133-15.317,34.133-34.133c0-15.01-9.805-27.648-23.296-32.205c3.763-14.353,5.248-28.041,5.837-36.753
				c2.901,0.341,5.811,0.691,8.926,0.691c56.687,0,76.8-55.168,76.8-102.4c0-3.763-2.466-7.083-6.067-8.166
				c-3.584-1.092-7.484,0.299-9.566,3.43c-4.745,7.108-17.587,21.803-27.034,21.803c-4.745,0-17.067-6.135-17.067-34.133
				c0-37.82-37.35-68.267-68.267-68.267c-4.719,0-8.533,3.814-8.533,8.533c0,4.71,3.814,8.533,8.533,8.533
				c20.617,0,51.2,21.495,51.2,51.2c0,40.499,22.323,51.2,34.133,51.2c8.619,0,16.768-4.437,23.518-9.89
				c-4.344,25.83-17.613,61.09-57.651,61.09c-46.302,0-64.23-55.134-67.763-67.925c5.47-6.443,10.581-13.619,15.343-21.555
				c2.423-4.036,1.118-9.284-2.927-11.708c-4.045-2.432-9.284-1.118-11.708,2.927c-22.758,37.931-52.966,55.595-95.078,55.595
				s-72.329-17.664-95.087-55.595c-2.432-4.045-7.671-5.359-11.708-2.927c-4.045,2.424-5.35,7.672-2.927,11.708
				c4.753,7.919,9.847,15.07,15.3,21.495C157.936,201.242,140.059,256,93.868,256c-40.038,0-53.308-35.26-57.66-61.09
				c6.75,5.453,14.899,9.89,23.526,9.89c11.802,0,34.133-10.701,34.133-51.2c0-29.705,30.583-51.2,51.2-51.2
				c4.71,0,8.533-3.823,8.533-8.533c0-4.719-3.823-8.533-8.533-8.533c-30.925,0-68.267,30.447-68.267,68.267
				c0,27.998-12.322,34.133-17.067,34.133c-9.387,0-22.272-14.694-27.042-21.811c-2.091-3.115-5.99-4.514-9.574-3.422
				c-3.593,1.092-6.05,4.403-6.05,8.166C17.068,217.899,37.181,273.067,93.868,273.067z M392.534,324.267h0.017
				c9.404,0.009,17.05,7.654,17.05,17.067c0,9.412-7.654,17.067-17.067,17.067s-17.067-7.654-17.067-17.067
				c0-9.412,7.646-17.058,17.05-17.067H392.534z M119.468,324.267h0.017c9.404,0.009,17.05,7.654,17.05,17.067
				c0,9.412-7.654,17.067-17.067,17.067c-9.412,0-17.067-7.654-17.067-17.067c0-9.412,7.646-17.058,17.05-17.067H119.468z"/>
			<path d="M171.205,96.862c1.254,3.328,4.437,5.538,7.996,5.538h153.6c3.558,0,6.741-2.21,7.987-5.538l25.6-68.267
				c1.135-3.021,0.469-6.417-1.715-8.789c-2.193-2.364-5.521-3.294-8.619-2.415l-55.501,15.855L261.326,1.869
				c-3.115-2.492-7.543-2.492-10.658,0L211.44,33.246l-55.492-15.855c-3.106-0.879-6.434,0.051-8.619,2.415
				c-2.185,2.372-2.85,5.769-1.724,8.789L171.205,96.862z M210.988,50.867c2.662,0.768,5.521,0.179,7.672-1.544l37.342-29.867
				l37.333,29.867c2.159,1.724,5.001,2.295,7.68,1.544l43.452-12.416l-17.579,46.882H185.115l-17.579-46.882L210.988,50.867z"/>
			<path d="M168.79,370.125c-2.953-3.678-8.32-4.267-11.989-1.323c-3.678,2.935-4.275,8.311-1.331,11.989
				c1.493,1.877,37.419,45.875,100.531,45.875c63.104,0,99.029-43.998,100.523-45.875c2.953-3.678,2.355-9.054-1.331-11.989
				c-3.661-2.944-9.037-2.355-11.989,1.331c-0.316,0.393-32.205,39.467-87.202,39.467C201.593,409.6,169.422,370.901,168.79,370.125
				z"/>
			<path d="M212.43,447.548c2.108-4.215,0.401-9.344-3.814-11.452c-0.768-0.384-19.183-9.429-46.481-9.429
				c-2.628,0-5.111,1.212-6.724,3.277c-1.621,2.074-2.193,4.77-1.553,7.322l5.879,23.543
				c-50.807,0.154-106.001,2.458-140.169,36.625c-3.336,3.328-3.336,8.73,0,12.066c1.664,1.664,3.849,2.5,6.033,2.5
				s4.361-0.836,6.033-2.5c31.633-31.633,88.687-31.633,139.034-31.633c2.628,0,5.103-1.22,6.724-3.285
				c1.613-2.074,2.193-4.77,1.553-7.322l-5.734-22.946c16.853,1.775,27.665,6.997,27.767,7.049
				C205.211,453.478,210.322,451.755,212.43,447.548z"/>
			<path d="M256.001,443.733c-28.237,0-51.2,22.963-51.2,51.2c0,3.413,0.341,6.852,1.024,10.223
				c0.939,4.617,5.453,7.603,10.061,6.673c4.617-0.939,7.603-5.444,6.665-10.061c-0.452-2.253-0.683-4.557-0.683-6.835
				c0-18.825,15.309-34.133,34.133-34.133c18.816,0,34.133,15.309,34.133,34.133c0,2.278-0.239,4.582-0.691,6.835
				c-0.939,4.617,2.048,9.122,6.673,10.061c0.572,0.111,1.135,0.171,1.698,0.171c3.977,0,7.535-2.799,8.354-6.844
				c0.683-3.371,1.033-6.81,1.033-10.223C307.201,466.697,284.229,443.733,256.001,443.733z"/>
			<path d="M352.257,460.809l5.888-23.543c0.64-2.551,0.06-5.248-1.553-7.322c-1.621-2.065-4.096-3.277-6.724-3.277
				c-27.298,0-45.713,9.045-46.49,9.429c-4.215,2.108-5.922,7.236-3.814,11.452c2.108,4.216,7.228,5.931,11.452,3.814
				c0.128-0.06,10.786-5.299,27.776-7.066l-5.734,22.963c-0.64,2.551-0.068,5.248,1.553,7.322c1.613,2.065,4.096,3.285,6.724,3.285
				c50.338,0,107.401,0,139.034,31.633c1.664,1.664,3.849,2.5,6.033,2.5c2.185,0,4.361-0.836,6.033-2.5
				c3.328-3.337,3.328-8.738,0-12.066C458.267,463.266,403.073,460.962,352.257,460.809z"/>
			<path d="M221.868,298.667V281.6c0-4.719-3.823-8.533-8.533-8.533c-4.719,0-8.533,3.814-8.533,8.533v17.067
				c0,4.71,3.814,8.533,8.533,8.533C218.045,307.2,221.868,303.377,221.868,298.667z"/>
			<path d="M273.068,358.4c0-9.412-7.654-17.067-17.067-17.067c-9.412,0-17.067,7.654-17.067,17.067
				c0,9.412,7.654,17.067,17.067,17.067C265.413,375.467,273.068,367.812,273.068,358.4z"/>
			<path d="M307.201,298.667V281.6c0-4.719-3.823-8.533-8.533-8.533c-4.719,0-8.533,3.814-8.533,8.533v17.067
				c0,4.71,3.814,8.533,8.533,8.533C303.378,307.2,307.201,303.377,307.201,298.667z"/>
		</g>
	</g>
</g>
<g>
</g>
<g>
</g>
<g>
</g>
<g>
</g>
<g>
</g>
<g>
</g>
<g>
</g>
<g>
</g>
<g>
</g>
<g>
</g>
<g>
</g>
<g>
</g>
<g>
</g>
<g>
</g>
<g>
</g>
</svg>
