<svg xmlns="http://www.w3.org/2000/svg" xmlns:xlink="http://www.w3.org/1999/xlink" xml:space="preserve" version="1.1" style="shape-rendering:geometricPrecision;text-rendering:geometricPrecision;image-rendering:optimizeQuality;" viewBox="0 0 267 447.5" x="0px" y="0px" fill-rule="evenodd" clip-rule="evenodd"><defs><style type="text/css">
    .fil0 {fill:black}
  </style></defs><path class="fil0" d="M145 0c12,23 19,44 21,64 -10,19 -30,37 -61,57 23,-8 42,-10 59,-19 -11,48 -55,85 -125,115 17,-57 41,-113 70,-165 -34,50 -58,106 -75,164 -3,-65 10,-113 30,-148l2 30c2,-20 7,-37 15,-54 7,-8 15,-16 23,-22 -2,6 -2,11 -1,14 2,-6 3,-12 5,-17 12,-9 24,-15 37,-19z"/><path class="fil0" d="M22 330c9,-109 53,-219 123,-330 -77,87 -125,206 -145,358 16,-19 22,-28 22,-28zm-4 -1c8,-98 44,-191 91,-277 -58,87 -89,190 -103,294 4,-6 9,-12 12,-17z"/><path class="fil0" d="M10 357c283,-22 32,-33 130,-53 35,-5 78,-5 127,1 -109,3 -137,9 -101,21 57,20 4,34 -156,31z"/></svg>
