<?xml version="1.0" encoding="iso-8859-1"?>
<!-- Generator: Adobe Illustrator 19.0.0, SVG Export Plug-In . SVG Version: 6.00 Build 0)  -->
<svg version="1.1" id="Capa_1" xmlns="http://www.w3.org/2000/svg" xmlns:xlink="http://www.w3.org/1999/xlink" x="0px" y="0px"
	 viewBox="0 0 511.999 511.999" style="enable-background:new 0 0 511.999 511.999;" xml:space="preserve">
<g>
	<g>
		<path d="M256.039,176.371c-83.026,0-150.572,67.546-150.572,150.572c0.001,108.517,111.947,181.389,210.904,137.941
			c3.793-1.665,5.518-6.089,3.853-9.883c-1.665-3.794-6.091-5.517-9.883-3.853c-88.93,39.042-189.873-26.31-189.873-124.205
			c0-74.753,60.817-135.571,135.571-135.571s135.571,60.817,135.571,135.571c0,42.211-19.229,81.304-52.757,107.254
			c-3.275,2.535-3.875,7.246-1.34,10.522c2.535,3.275,7.245,3.875,10.522,1.34c37.226-28.813,58.575-72.229,58.575-119.116
			C406.611,243.917,339.065,176.371,256.039,176.371z"/>
	</g>
</g>
<g>
	<g>
		<path d="M399.171,209.855c-21.169-25.844-48.376-45.219-79.281-56.592c4.103-7.36,3.449-16.548-1.972-23.303l23.865-48.055
			c3.813-7.68-2.335-16.518-10.816-15.692C326.47,28.966,294.687,0,256.247,0c-38.462,0-70.259,28.998-74.728,66.276
			c-8.624-1.272-15.287,7.695-11.348,15.629l23.864,48.054c-5.376,6.701-6.115,15.889-1.96,23.323
			c-69.992,25.934-121.154,93.222-121.154,173.661c0,28.834,6.492,56.492,19.297,82.21c1.312,2.635,3.964,4.159,6.72,4.159
			c5.503,0,9.208-5.824,6.708-10.846c-46.793-93.976,2.648-208.461,104.001-238.582c1.74,0.237,94.693,0.269,96.657-0.001
			c32.696,9.702,61.456,28.857,83.262,55.478c2.625,3.204,7.35,3.675,10.556,1.049C401.326,217.786,401.796,213.06,399.171,209.855z
			 M305.087,122.071c-4.957,0-32.788,0-41.609,0V72.527c14.264,16.2,37.886,22.594,59.106,14.313L305.087,122.071z M256.247,15.001
			c32.511,0,59.092,25.869,60.247,58.102c-18.119,6.696-38.905-1.289-47.546-19.229l-6.214-12.897
			c-2.369-4.931-9.106-5.741-12.579-1.466c-5.172,6.316-7.777,29.63-34.236,35.242c-6.72,1.308-13.582,0.77-19.923-1.467
			C197.053,40.968,223.675,15.001,256.247,15.001z M189.37,86.84c21.516,8.401,45.031,1.666,59.107-14.318v49.549
			c-5.725,0-31.956,0-41.609,0L189.37,86.84z M302.945,148.895c-1.246,0.3-92.914,0.246-93.938,0
			c-6.903-1.691-5.635-11.822,1.403-11.822c11.029,0,80.029,0,91.13,0C308.586,137.072,309.84,147.223,302.945,148.895z"/>
	</g>
</g>
<g>
	<g>
		<path d="M419.429,240.239c-1.948-3.656-6.489-5.043-10.148-3.094c-3.656,1.947-5.041,6.489-3.095,10.147
			c59.461,111.66-21.207,249.708-150.21,249.708c-52.927,0-101.95-24.103-134.5-66.13c-2.538-3.275-7.249-3.872-10.523-1.337
			c-3.274,2.536-3.873,7.247-1.337,10.523c35.413,45.722,88.759,71.944,146.361,71.944
			C396.536,511.999,484.046,361.587,419.429,240.239z"/>
	</g>
</g>
<g>
</g>
<g>
</g>
<g>
</g>
<g>
</g>
<g>
</g>
<g>
</g>
<g>
</g>
<g>
</g>
<g>
</g>
<g>
</g>
<g>
</g>
<g>
</g>
<g>
</g>
<g>
</g>
<g>
</g>
</svg>
