<?xml version="1.0" encoding="UTF-8" standalone="no"?>
<!-- Generator: Adobe Illustrator 14.0.0, SVG Export Plug-In . SVG Version: 6.00 Build 43363)  -->

<svg
   xmlns:dc="http://purl.org/dc/elements/1.1/"
   xmlns:cc="http://creativecommons.org/ns#"
   xmlns:rdf="http://www.w3.org/1999/02/22-rdf-syntax-ns#"
   xmlns:svg="http://www.w3.org/2000/svg"
   xmlns="http://www.w3.org/2000/svg"
   xmlns:sodipodi="http://sodipodi.sourceforge.net/DTD/sodipodi-0.dtd"
   xmlns:inkscape="http://www.inkscape.org/namespaces/inkscape"
   version="1.1"
   id="Layer_1"
   x="0px"
   y="0px"
   width="192.756"
   height="192.756"
   viewBox="0 0 192.756 192.756"
   enable-background="new 0 0 612 792"
   xml:space="preserve"
   inkscape:version="0.91 r13725"
   sodipodi:docname="roadrunner.svg"><metadata
     id="metadata61"><rdf:RDF><cc:Work
         rdf:about=""><dc:format>image/svg+xml</dc:format><dc:type
           rdf:resource="http://purl.org/dc/dcmitype/StillImage" /><dc:title></dc:title></cc:Work></rdf:RDF></metadata><defs
     id="defs59" /><sodipodi:namedview
     pagecolor="#ffffff"
     bordercolor="#666666"
     borderopacity="1"
     objecttolerance="10"
     gridtolerance="10"
     guidetolerance="10"
     inkscape:pageopacity="0"
     inkscape:pageshadow="2"
     inkscape:window-width="1440"
     inkscape:window-height="852"
     id="namedview57"
     showgrid="false"
     fit-margin-top="0"
     fit-margin-left="0"
     fit-margin-right="0"
     fit-margin-bottom="0"
     inkscape:zoom="0.2979798"
     inkscape:cx="97"
     inkscape:cy="96.756"
     inkscape:window-x="0"
     inkscape:window-y="22"
     inkscape:window-maximized="1"
     inkscape:current-layer="Layer_1" /><g
     id="g3"
     transform="translate(-209,-300)"><polygon
       points="209,492.756 209,300 209,300 401.756,300 401.756,492.756 "
       id="polygon5"
       style="clip-rule:evenodd;fill:#ffffff;fill-rule:evenodd" /><path
       d="m 248.705,451.843 c 0,0 -2.758,0.638 -5.233,0.142 -2.475,-0.495 -4.526,-1.061 -8.203,-3.536 -3.677,-2.475 -7.001,-5.304 -12.021,-4.03 0,0 -1.344,-1.061 -1.839,-1.061 0,0 -0.141,0.354 0,1.697 0,0 -1.768,0 -2.333,0.141 0,0 -1.202,-0.989 -1.414,-0.989 0,0 -0.354,1.272 0,2.263 0,0 -0.354,1.06 0.565,2.475 0.919,1.415 4.738,5.304 7.284,6.436 2.545,1.131 5.021,0.919 7.637,0.777 2.617,-0.141 8.981,0 11.88,0.637 2.899,0.637 6.223,2.476 7.567,2.264 1.344,-0.213 8.416,-2.829 11.385,-3.678 2.97,-0.849 12.658,-4.031 20.295,-5.657 7.637,-1.627 10.537,-1.697 10.537,-1.697 0,0 5.658,1.131 13.153,-3.606 l 5.162,-0.354 c 0,0 5.021,1.061 7.92,2.758 2.899,1.697 3.89,3.111 4.88,2.546 0.99,-0.566 9.688,-6.647 14.921,-9.759 5.232,-3.111 16.406,-7.709 16.406,-7.709 0,0 -1.062,0.85 -1.273,1.415 0,0 -1.696,0.919 -2.121,2.263 -0.425,1.344 0.142,3.536 2.334,6.931 2.191,3.394 5.162,6.718 7.92,5.798 0,0 0.989,1.273 2.898,1.061 0,0 -1.201,-1.768 -1.414,-1.839 0,0 0.283,-0.989 -0.494,-3.04 -0.778,-2.051 -3.042,-6.576 -2.688,-8.557 0.354,-1.979 1.768,-6.152 4.454,-6.082 2.688,0.071 5.092,4.243 6.86,7.284 1.768,3.041 2.828,6.506 2.262,13.083 -0.565,6.576 0.425,6.93 0.778,7.142 l -0.708,2.122 c 0,0 1.627,-10e-4 3.041,-1.839 0,0 2.546,-0.707 4.667,-5.657 0,0 0.142,2.333 0.142,3.111 0,0.778 0.495,1.697 1.061,1.839 l -0.495,1.768 c 0,0 0.99,0.637 2.829,-1.414 0,0 2.122,-0.354 3.748,-2.758 1.626,-2.404 2.898,-6.436 1.768,-11.103 -1.132,-4.667 -4.455,-5.586 -4.455,-5.586 0,0 -1.202,-2.122 -4.172,-2.334 0,0 -3.395,-2.334 -5.516,-3.961 -2.122,-1.626 -6.294,-5.586 -7.991,-7.212 -1.697,-1.627 -2.546,-2.899 -3.89,-2.829 -1.343,0.071 -4.242,2.051 -7,3.89 -2.759,1.838 -9.123,6.223 -15.841,9.405 -6.718,3.182 -15.628,6.436 -17.607,7.354 l -1.626,-1.839 c 0,0 4.313,-5.162 3.605,-8.98 0,0 2.121,-3.396 -0.424,-6.437 0,0 0.707,-5.444 -3.041,-11.95 -3.748,-6.506 -6.506,-10.748 -12.588,-18.173 -6.081,-7.425 -7.637,-11.032 -7.99,-11.739 0,0 3.394,0.424 4.949,-0.354 1.557,-0.778 3.749,-2.546 0.283,-7.496 0,0 -0.141,-2.9 0.354,-5.375 0.495,-2.475 0.919,-4.879 0.425,-6.789 0,0 0.282,-1.839 5.444,-7.354 5.163,-5.516 7.213,-8.557 7.001,-13.578 -0.212,-5.021 -2.546,-9.334 -4.243,-8.91 -1.696,0.424 -1.768,4.525 -1.768,4.525 0,0 -0.919,-3.748 -4.455,-7.849 -3.535,-4.102 -6.223,-5.092 -7.354,-4.385 -1.132,0.708 0.283,2.97 0.283,2.97 0,0 -3.394,-1.909 -9.405,-1.697 -6.011,0.212 -10.819,1.909 -5.799,4.667 0,0 -4.879,0.919 -8.769,3.677 -3.889,2.758 -5.516,5.728 -2.687,6.576 2.829,0.848 10.537,-0.565 10.537,-0.565 0,0 -2.404,1.697 7.637,3.465 0,0 -1.131,0.99 1.343,2.263 2.476,1.273 6.86,3.89 8.062,6.718 1.202,2.829 0.142,7.072 0.142,7.072 0,0 -1.909,-0.142 -2.263,0.141 0,0 0.141,-1.697 -1.131,-1.626 -1.273,0.07 -3.041,2.263 -3.041,2.263 0,0 -3.536,2.617 -5.162,5.728 0,0 -1.061,-0.212 -2.758,-0.071 0,0 -0.212,-0.637 0.424,-1.768 0,0 -2.97,0.212 -4.879,2.97 -1.909,2.758 1.131,4.738 1.768,5.092 0,0 0.212,2.829 1.485,4.172 0,0 -0.424,3.253 -1.131,5.162 -0.708,1.909 -1.91,3.606 -0.708,3.536 1.202,-0.07 5.94,-1.131 7.85,-2.333 0,0 4.243,4.313 7.425,7.496 3.182,3.183 8.274,8.769 10.82,12.305 2.545,3.536 5.516,9.405 5.657,18.598 0,0 -5.233,-0.141 -11.244,3.253 0,0 -1.627,-1.202 -6.293,3.324 0,0 -6.506,0.777 -7.071,2.404 0,0 -4.526,-0.92 -3.677,0.777 0,0 -2.404,-1.556 -3.536,-2.192 -1.132,-0.636 -2.263,-0.565 -1.91,0.778 0.354,1.344 1.485,2.758 1.485,2.758 0,0 -4.031,-1.132 -6.859,-3.96 -2.829,-2.828 -6.718,-7.496 -7.425,-20.648 -0.707,-13.153 0.636,-18.527 0.424,-28.074 -0.212,-9.546 -6.789,-16.124 -9.477,-18.74 -2.687,-2.616 -8.273,-6.506 -3.111,2.687 0,0 -4.243,-4.102 -11.809,-6.859 -7.567,-2.758 -14.992,-4.243 -16.477,-2.546 -1.485,1.697 2.758,2.617 7.92,4.809 0,0 -7.637,0.778 -11.668,2.758 -4.03,1.98 -7.142,4.809 -9.405,16.335 -2.263,11.527 -1.839,21.71 -1.273,24.821 0.566,3.111 2.476,3.96 3.748,-0.212 1.273,-4.173 3.536,-10.607 3.96,-11.314 0,0 0.566,1.202 2.263,-0.425 1.697,-1.626 5.445,-7.284 10.253,-9.051 4.809,-1.768 7.991,0.566 7.991,0.566 0,0 -1.697,0.565 0.283,3.182 1.98,2.617 6.223,6.435 8.062,9.617 1.838,3.182 2.829,6.152 3.607,8.981 0,0 -1.132,-3.112 -2.9,-2.405 -1.768,0.708 -1.626,5.729 -0.212,9.477 1.415,3.747 4.243,9.546 8.769,14.284 0,0 -2.051,-1.132 -2.617,-0.07 -0.566,1.061 2.546,5.374 5.87,7.071 3.323,1.697 9.051,3.324 11.031,3.536 0,0 -5.375,0.919 -5.303,2.191 0.071,1.273 2.192,2.264 7.284,1.132 5.091,-1.132 10.537,-2.404 12.304,-2.333 0,0 1.626,1.061 2.263,1.484 l -3.182,1.344 c 0,0 -1.768,-1.132 -2.546,-0.99 -0.778,0.142 -3.111,2.404 -5.233,3.818 -2.122,1.415 -8.273,5.799 -15.84,6.859 -7.566,1.062 -14.143,2.334 -15.699,0.566 -1.556,-1.769 -1.131,-3.748 -1.131,-3.748 0,0 1.273,-2.758 -0.919,-4.313 -2.192,-1.556 -5.021,-2.334 -9.264,-1.769 -4.243,0.566 -5.657,2.476 -5.728,2.688 0,0 -1.839,0.283 -2.192,1.344 0,0 1.626,0.07 2.192,0.494 0,0 0,0.849 2.05,1.132 2.051,0.283 5.092,0.778 6.718,1.202 1.626,0.421 2.545,0.848 3.606,3.534 l 0,0 z"
       id="path7"
       inkscape:connector-curvature="0"
       style="clip-rule:evenodd;fill-rule:evenodd" /><path
       d="m 300.314,372.706 c 0,0 2.537,-1.139 4.743,-4.853 2.206,-3.713 1.029,-4.375 0.515,-4.375 -0.515,0 -4.007,0.846 -6.287,4.007 -2.279,3.162 -2.684,5.367 -1.875,5.919 0,0 0.588,-1.801 2.169,-2.022 1.581,-0.22 0.735,1.324 0.735,1.324 l 0,0 z"
       id="path9"
       inkscape:connector-curvature="0"
       style="clip-rule:evenodd;fill:#ffffff;fill-rule:evenodd" /><path
       d="m 296.602,371.088 c 0,0 1.066,-2.243 1.875,-3.529 0.809,-1.286 1.728,-3.419 2.169,-4.338 0.441,-0.919 0.992,-1.912 -0.332,-1.213 -1.323,0.699 -3.713,3.382 -4.448,4.485 -0.735,1.103 -2.059,3.566 -1.397,4.706 0,0 0.882,-1.838 1.802,-1.838 0.919,0 0.294,1.287 0.147,1.654 l 0.184,0.073 0,0 z"
       id="path11"
       inkscape:connector-curvature="0"
       style="clip-rule:evenodd;fill:#ffffff;fill-rule:evenodd" /><path
       d="m 300.131,328.001 c -2.3,-0.265 -5.882,-0.441 -8.603,0.184 -2.721,0.625 -3.199,1.507 -1.471,2.169 1.728,0.662 4.89,1.14 4.89,1.14 0,0 -3.382,0.294 -6.544,1.36 -3.162,1.065 -7.169,3.088 -9.117,4.926 -1.949,1.838 -1.765,3.529 2.206,3.272 3.971,-0.257 7.757,-0.846 10.809,-1.14 3.052,-0.294 4.963,-0.11 6.764,0.294 0,0 -3.492,-0.073 -5.294,0.221 -1.801,0.294 -5.293,0.845 -3.198,1.507 2.096,0.662 5.184,1.434 7.5,2.022 2.316,0.588 7.169,2.095 8.088,3.787 0,0 -1.618,-1.213 -3.529,-1.838 -1.912,-0.625 -4.963,-1.25 -4.963,-0.588 0,0.662 3.309,1.912 5.515,3.64 2.206,1.728 4.338,3.97 4.338,6.838 0,2.868 -0.037,4.117 -0.367,4.889 0,0 2.205,-0.294 1.911,2.243 -0.294,2.537 -0.772,3.823 -1.618,4.595 0,0 0.516,-1.691 0.699,-2.941 0.183,-1.25 0.625,-3.088 -0.552,-3.125 -1.177,-0.037 -2.059,0.735 -2.059,0.735 0,0 0.11,-0.514 0.441,-0.772 0,0 -1.69,0.368 -2.059,0.294 0,0 -0.846,0.956 -1.103,1.029 0,0 0.404,-1.397 0.294,-2.059 -0.11,-0.662 -0.588,-0.993 -1.875,0.478 0,0 0.882,0 0.441,1.14 -0.441,1.14 -1.213,2.868 -1.434,3.272 0,0 1.581,-1.471 3.418,-2.206 1.839,-0.735 3.383,-0.809 3.346,1.029 -0.037,1.838 -1.875,5.993 -6.066,8.64 0,0 5.625,-1.03 7.757,1.36 0,0 0.036,-2.206 0.33,-4.228 0.295,-2.022 0.993,-4.963 0.368,-6.948 0,0 -0.073,-1.36 2.573,-4.338 2.647,-2.978 5.772,-6.507 7.758,-9.375 1.984,-2.868 2.94,-7.757 1.359,-11.948 -1.581,-4.191 -2.684,-4.118 -3.125,-1.949 -0.441,2.169 -0.221,5.809 -0.771,7.169 0,0 -0.294,-2.279 -1.618,-5.478 -1.323,-3.198 -2.757,-5.809 -5.257,-8.125 -2.5,-2.316 -5.257,-4.007 -4.706,-2.39 0.551,1.618 1.25,2.537 3.125,4.779 10e-4,0.002 -3.822,-3.012 -8.601,-3.564 l 0,0 z"
       id="path13"
       inkscape:connector-curvature="0"
       style="clip-rule:evenodd;fill:#426ab3;fill-rule:evenodd" /><path
       d="m 293.895,371.031 c 0,0 -0.526,-1.843 0.475,-3.16 0,0 -2.121,-0.44 -2.686,0 -0.476,0.368 1.105,3.477 2.211,3.16 l 0,0 z"
       id="path15"
       inkscape:connector-curvature="0"
       style="clip-rule:evenodd;fill:#426ab3;fill-rule:evenodd" /><path
       d="m 302.534,429.501 c 0,0 -1.317,1.369 -1.844,2.106 0,0 -2.265,-0.104 -3.108,-0.104 -0.843,0 -1.264,-0.211 -0.053,-0.633 1.212,-0.421 3.899,-1.054 5.005,-1.369 l 0,0 z"
       id="path17"
       inkscape:connector-curvature="0"
       style="clip-rule:evenodd;fill:#426ab3;fill-rule:evenodd" /><path
       d="m 299.953,432.504 -1.528,2.159 c 0,0 -2.581,-0.79 -3.74,-1.475 -1.159,-0.685 -2.581,-1.791 -1.159,-1.528 1.422,0.264 5.478,0.791 6.427,0.844 l 0,0 z"
       id="path19"
       inkscape:connector-curvature="0"
       style="clip-rule:evenodd;fill:#426ab3;fill-rule:evenodd" /><path
       d="m 297.898,435.453 c 0,0 -1.738,2.845 -1.106,3.951 0,0 -2.844,-1.37 -5.373,-3.793 -2.529,-2.423 -4.162,-5.163 -3.845,-5.426 0.315,-0.264 2.739,1.422 4.688,2.528 1.949,1.106 5.004,2.529 5.636,2.74 l 0,0 z"
       id="path21"
       inkscape:connector-curvature="0"
       style="clip-rule:evenodd;fill:#426ab3;fill-rule:evenodd" /><path
       d="m 297.504,379.284 -0.387,0.62 c 0,0 -3.641,-0.116 -5.5,2.285 0,0 0.736,-2.13 0.736,-3.408 10e-4,-0.001 2.092,1.006 5.151,0.503 l 0,0 z"
       id="path23"
       inkscape:connector-curvature="0"
       style="clip-rule:evenodd;fill:#ed1847;fill-rule:evenodd" /><path
       d="m 296.42,380.484 c 0,0 -3.95,0.426 -5.345,3.485 0,0.001 4.028,-1.742 5.345,-3.485 l 0,0 z"
       id="path25"
       inkscape:connector-curvature="0"
       style="clip-rule:evenodd;fill:#fabfbf;fill-rule:evenodd" /><path
       d="m 301.067,375.527 c 0,0 2.439,0.193 5.228,1.743 0,0 -3.408,-3.369 -7.513,-1.82 0,0 1.355,-0.039 1.588,0.039 0,0 0.542,0.775 -0.194,1.743 -0.736,0.968 -1.666,1.704 -4.531,1.588 -2.866,-0.117 -4.879,-1.084 -5.499,-4.066 -0.62,-2.982 -0.194,-6.7 1.278,-8.481 0,0 -1.045,2.401 0.232,3.912 1.277,1.511 2.633,2.169 4.879,1.549 0,0 -0.387,1.588 0.426,2.13 0.813,0.542 1.782,0.581 3.408,-0.193 0,0 0.426,0.077 1.936,-0.116 1.51,-0.194 4.57,-0.078 5.925,1.2 1.354,1.278 2.865,3.602 2.556,5.422 -0.31,1.82 -2.169,2.556 -5.267,2.362 -3.098,-0.194 -5.228,-0.62 -5.228,-0.62 0,0 0.349,-0.426 0.426,-0.968 0,0 -0.774,1.007 -3.717,2.246 -2.943,1.239 -6.196,2.672 -7.978,2.285 0,0 0.891,-1.781 1.433,-3.524 0.542,-1.743 0.813,-3.524 0.736,-3.873 l 0.581,0.387 c 0,0 0,1.045 -0.465,2.788 -0.465,1.743 -0.891,3.175 -1.549,3.524 0,0 2.285,0.039 5.306,-2.324 3.021,-2.362 3.214,-3.253 3.214,-3.253 0,0 1.472,-0.503 2.246,-1.472 0.776,-0.968 0.581,-1.743 0.543,-2.208 l 0,0 z"
       id="path27"
       inkscape:connector-curvature="0"
       style="clip-rule:evenodd;fill:#ffcc4e;fill-rule:evenodd" /><path
       d="m 291.115,366.194 c 0,0 -1.898,2.44 -1.743,6.428 0,0 -2.324,-0.929 -1.666,-3.098 0.659,-2.168 2.247,-3.097 3.409,-3.33 l 0,0 z"
       id="path29"
       inkscape:connector-curvature="0"
       style="clip-rule:evenodd;fill:#fdb933;fill-rule:evenodd" /><path
       d="m 322.778,440.102 c 0,0 2.115,1.575 2.61,2.295 0,0 -2.97,2.339 -3.6,3.914 0,0 -4.319,-2.34 -6.3,-2.475 10e-4,0 4.231,-0.495 7.29,-3.734 l 0,0 z"
       id="path31"
       inkscape:connector-curvature="0"
       style="clip-rule:evenodd;fill:#75bee9;fill-rule:evenodd" /><path
       d="m 292.498,437.401 c 0,0 -2.7,-2.385 -3.06,-2.835 0,0 -5.489,-1.26 -8.729,-4.679 -3.239,-3.42 -5.759,-7.199 -6.659,-14.128 -0.9,-6.93 -1.305,-12.194 -1.08,-16.288 0.225,-4.095 0.945,-13.994 0.72,-17.683 -0.225,-3.689 -1.035,-8.909 -5.264,-14.398 -4.23,-5.489 -6.884,-7.784 -7.604,-7.559 -0.72,0.225 0.54,2.25 1.439,3.554 0.9,1.305 3.104,5.625 3.104,5.625 0,0 -2.789,-2.97 -6.659,-5.489 -3.87,-2.52 -7.019,-4.364 -13.273,-6.344 -6.254,-1.979 -11.068,-2.025 -11.249,-1.305 -0.18,0.72 1.575,0.72 4.319,2.069 2.745,1.35 9.044,3.42 10.889,3.825 0,0 -3.825,-1.26 -9.449,-0.315 -5.625,0.945 -10.574,1.62 -12.914,4.364 -2.339,2.745 -4.094,7.424 -5.219,11.744 -1.125,4.32 -1.935,10.753 -2.115,16.108 -0.18,5.354 0.495,11.924 1.125,12.148 0.63,0.224 2.025,-4.185 2.925,-7.244 0.9,-3.059 2.294,-6.929 4.409,-10.979 2.115,-4.049 3.24,-6.299 4.994,-7.694 0,0 -1.979,2.88 -3.419,5.714 -1.439,2.834 -2.7,6.029 -2.25,6.299 0.45,0.27 2.16,-1.71 3.78,-3.645 1.62,-1.935 4.544,-5.714 12.058,-7.604 0,0 -1.035,0.72 -1.62,0.855 0,0 3.959,-0.405 7.019,1.89 3.06,2.294 5.489,5.939 5.489,5.939 0,0 -3.149,-3.06 -4.454,-4.004 -1.305,-0.945 -2.745,-1.485 -1.575,0.45 1.17,1.935 2.745,2.835 5.939,7.02 3.194,4.185 4.229,5.67 5.984,11.248 1.755,5.579 3.06,10.844 4.185,14.264 0,0 -1.8,-3.689 -2.565,-5.984 -0.765,-2.295 -3.779,-8.999 -4.814,-8.369 -1.035,0.63 -1.395,4.364 0.81,9.629 2.204,5.265 5.534,9.448 7.333,11.789 1.8,2.339 3.104,4.094 4.41,4.408 0,0 -1.26,-0.18 -2.205,-0.81 -0.945,-0.63 -3.915,-2.474 -4.004,-1.8 -0.09,0.675 1.484,3.061 3.734,4.545 2.25,1.484 4.589,3.284 11.023,4.319 6.435,1.035 3.734,1.08 7.829,0.855 0,0 -1.575,0.63 -4.095,0.899 -2.52,0.269 -6.434,0.944 -6.569,1.619 -0.135,0.676 0.945,0.855 3.33,0.766 2.385,-0.089 7.109,-1.53 9.044,-1.935 1.938,-0.403 4.953,-0.854 4.953,-0.854 l 0,0 z"
       id="path33"
       inkscape:connector-curvature="0"
       style="clip-rule:evenodd;fill:#75bee9;fill-rule:evenodd" /><path
       d="m 307.748,426.709 c -1.417,0.709 -4.478,2.687 -6.848,6.005 -2.37,3.318 -3.792,5.479 -2.897,6.69 0.896,1.211 4.635,4.582 7.375,3.792 2.74,-0.79 3.897,-4.214 4.53,-6.9 0.632,-2.687 0.526,-7.638 0,-9.008 -0.527,-1.369 -1.422,-0.947 -2.16,-0.579 l 0,0 z"
       id="path35"
       inkscape:connector-curvature="0"
       style="clip-rule:evenodd;fill:#426ab3;fill-rule:evenodd" /><path
       d="m 323.453,439.427 0.811,0.495 c 0,0 2.385,-2.969 2.924,-5.983 0,-0.001 -2.475,3.868 -3.735,5.488 l 0,0 z"
       id="path37"
       inkscape:connector-curvature="0"
       style="clip-rule:evenodd;fill:#426ab3;fill-rule:evenodd" /><path
       d="m 339.148,437.685 c -2.586,0.979 -7.103,2.823 -9.541,3.765 -2.439,0.941 -5.091,2.182 -7.146,5.391 0,0 1.498,1.069 2.012,1.669 0.514,0.599 1.625,0.171 2.994,-0.728 1.369,-0.899 4.835,-3.465 7.829,-5.391 2.995,-1.925 8.001,-4.791 11.809,-6.674 3.808,-1.883 6.974,-3.166 9.284,-4.022 2.31,-0.855 7.059,-2.438 8.898,-5.646 0,0 -0.557,1.711 -2.311,2.866 -1.754,1.155 -2.866,1.882 -2.866,1.882 0,0 0.855,0.215 1.155,0.429 0,0 -3.166,-0.129 -4.15,1.754 0,0 2.182,-0.686 3.037,0 0,0 -2.353,0.085 -3.722,0.898 -1.369,0.813 -2.524,1.925 -2.011,4.021 0.513,2.096 3.038,5.818 3.894,6.803 0.856,0.985 3.38,3.466 5.134,3.209 1.754,-0.257 1.969,-0.856 1.155,-2.952 -0.813,-2.097 -1.198,-2.995 -2.14,-5.563 -0.942,-2.568 -0.983,-4.406 0.685,-7.315 1.669,-2.909 4.021,-2.995 4.792,-2.61 0.771,0.386 2.738,1.241 5.947,6.503 3.208,5.263 2.695,8.6 2.781,10.055 0.085,1.454 -0.856,9.626 0.171,10.567 1.026,0.941 2.652,0.855 3.851,-0.771 1.197,-1.625 2.823,-3.552 3.551,-8.043 0.728,-4.492 -0.172,-8.728 -2.481,-9.284 -2.311,-0.556 -4.406,-0.385 -4.406,-0.385 0,0 1.754,-0.727 3.165,-0.599 0,0 -0.428,-0.984 -1.411,-1.412 -0.984,-0.428 -2.354,-0.343 -3.338,-0.129 0,0 1.156,-0.77 1.926,-0.77 0,0 -2.481,-2.739 -3.722,-4.835 0,0 3.722,4.192 4.791,5.091 0,0 1.583,0.215 2.866,2.439 0,0 1.969,0.214 2.781,2.695 0.812,2.481 0.6,6.974 -0.214,10.182 0,0 0.257,1.627 0.257,3.21 0,1.582 0.557,3.037 2.609,2.694 2.054,-0.342 4.15,-2.396 5.092,-5.818 0.942,-3.422 0.728,-6.888 -0.855,-9.797 -1.584,-2.91 -4.707,-3.338 -6.675,-2.396 0,0 0.599,-0.727 2.866,-0.94 0,0 -1.368,-1.284 -2.737,-1.498 -1.369,-0.214 -3.424,0.77 -3.424,0.77 0,0 0.984,-1.197 2.226,-1.325 0,0 -2.91,-1.883 -4.792,-3.337 -1.883,-1.455 -5.048,-4.193 -6.632,-5.818 -1.583,-1.626 -4.149,-4.492 -5.391,-4.407 -1.24,0.086 -4.705,2.824 -7.102,4.321 -2.396,1.497 -7.915,5.135 -11.209,6.76 -3.292,1.624 -6.458,3.42 -9.282,4.491 l 0,0 z"
       id="path39"
       inkscape:connector-curvature="0"
       style="clip-rule:evenodd;fill:#f7941e;fill-rule:evenodd" /><path
       d="m 365.459,447.738 c 0,0 0.471,0.942 1.07,1.412 0,0 -1.155,-0.129 -2.097,-0.771 10e-4,10e-4 0.728,-0.384 1.027,-0.641 l 0,0 z"
       id="path41"
       inkscape:connector-curvature="0"
       style="clip-rule:evenodd;fill:#ffcc4e;fill-rule:evenodd" /><path
       d="m 378.594,457.793 c 0,0 -0.771,0.042 -1.583,-0.257 0,0 0.043,0.897 -0.471,1.54 0,0 0.898,0.086 2.054,-1.283 l 0,0 z"
       id="path43"
       inkscape:connector-curvature="0"
       style="clip-rule:evenodd;fill:#ffcc4e;fill-rule:evenodd" /><path
       d="m 386.765,457.321 c 0,0 -0.642,0.984 -1.754,1.241 l 0.3,-1.369 c 0,0 0.898,0.343 1.454,0.128 l 0,0 z"
       id="path45"
       inkscape:connector-curvature="0"
       style="clip-rule:evenodd;fill:#ffcc4e;fill-rule:evenodd" /><path
       d="m 303.161,382.959 c 0,0 -2.744,-0.45 -3.194,-0.585 0,0 -1.71,0.855 -2.475,1.125 0,0 5.174,5.354 8.594,8.639 3.42,3.285 7.108,8.054 8.999,10.213 1.89,2.16 4.948,7.919 5.714,12.688 0.766,4.769 0.766,7.514 0.45,9.224 0,0 -0.495,-0.585 -0.54,-1.125 0,0 -6.524,0.314 -10.438,2.97 0,0 1.485,1.619 0.99,7.648 -0.495,6.029 -3.511,10.305 -5.67,10.395 -2.16,0.09 -4.814,-0.811 -6.344,-2.16 -1.53,-1.35 -1.845,-1.845 -2.34,-1.935 0,0 -2.97,1.8 -3.824,1.8 0,0 -1.305,0.765 -1.44,2.925 -0.135,2.159 -0.045,1.755 1.035,2.159 1.08,0.405 4.994,0.585 8.189,-0.27 3.194,-0.854 5.444,-2.34 6.524,-2.97 1.08,-0.63 1.935,-1.484 2.295,-1.305 l -0.855,1.08 c 0,0 1.35,-0.046 4.635,-0.315 3.285,-0.269 6.074,-0.72 9.494,-4.725 3.42,-4.004 6.929,-10.394 4.589,-12.373 0,0 -0.135,0.629 -0.495,0.854 0,0 0.181,-2.385 -0.135,-4.949 -0.314,-2.564 -1.529,-6.974 -3.555,-10.304 -2.024,-3.33 -5.579,-8.549 -8.054,-11.429 -2.475,-2.88 -11.429,-14.755 -12.149,-17.275 l 0,0 z"
       id="path47"
       inkscape:connector-curvature="0"
       style="clip-rule:evenodd;fill:#75bee9;fill-rule:evenodd" /><path
       d="m 292.216,447.68 c 0,0 -1.729,-0.272 -1.456,-2.092 0.273,-1.82 0.728,-3.82 1.637,-4.275 0,0 -0.669,-0.196 -1.398,-0.396 -0.729,-0.2 -1.061,-0.464 -2.983,1.26 -1.922,1.724 -7.424,5.568 -11.6,7.026 -4.176,1.458 -9.611,2.851 -15.047,3.314 -5.436,0.464 -10.142,0.795 -9.745,-4.508 0,0 -1.209,0.746 -1.905,0.497 0,0 2.237,-0.895 2.287,-2.236 0.05,-1.343 -1.491,-3.978 -4.773,-4.127 -3.281,-0.149 -7.755,0.1 -9.645,1.442 -1.89,1.342 -0.547,2.734 0.795,2.982 1.342,0.249 5.618,0.646 7.208,1.144 1.591,0.497 4.027,1.84 3.978,5.966 l -0.547,-1.441 c 0,0 -2.685,1.094 -6.115,0.248 -3.43,-0.845 -5.717,-1.74 -8.054,-3.679 -2.337,-1.939 -8.054,-5.718 -12.131,-3.381 0,0 3.729,1.84 5.071,2.784 1.342,0.944 4.424,2.784 8.203,3.828 3.778,1.044 6.413,1.144 6.413,1.144 0,0 -2.734,0.348 -6.065,-0.547 -3.331,-0.895 -5.767,-2.088 -7.955,-3.431 -2.188,-1.342 -5.419,-3.729 -8.253,-3.43 -2.833,0.298 -1.939,2.188 -1.342,2.883 0.597,0.696 5.469,7.06 9.993,6.861 0,0 -0.845,-1.641 -0.696,-2.089 0,0 1.044,2.089 2.237,2.287 0,0 1.442,0.05 2.287,-0.1 0,0 -0.597,-0.895 -0.646,-1.292 0,0 1.144,1.193 1.84,1.243 0.696,0.049 2.535,0 5.468,0.049 2.934,0.05 5.668,0.448 8.502,1.293 2.833,0.846 3.48,1.79 5.121,1.442 1.641,-0.349 8.452,-2.686 12.429,-3.978 3.978,-1.293 11.137,-3.679 14.915,-4.425 3.778,-0.746 9.228,-1.85 11.972,-2.266 l 0,0 z"
       id="path49"
       inkscape:connector-curvature="0"
       style="clip-rule:evenodd;fill:#f7941e;fill-rule:evenodd" /><path
       d="m 221.954,445.236 c 0,0 0.76,-0.466 0.98,-0.563 0,0 -0.515,-0.589 -1.348,-0.98 0,-10e-4 0.025,1.004 0.368,1.543 l 0,0 z"
       id="path51"
       inkscape:connector-curvature="0"
       style="clip-rule:evenodd;fill:#ffcc4e;fill-rule:evenodd" /><path
       d="m 218.719,445.358 c 0,0 -0.735,-0.563 -0.883,-0.857 0,0 -0.073,1.593 0.024,1.813 0,0 0.123,-0.612 0.859,-0.956 l 0,0 z"
       id="path53"
       inkscape:connector-curvature="0"
       style="clip-rule:evenodd;fill:#ffcc4e;fill-rule:evenodd" /><path
       d="m 236.17,444.501 c 0,0 -0.147,0.638 0.049,0.98 0,0 -0.857,-0.22 -1.397,-0.146 0,0 0.711,-0.662 1.348,-0.834 l 0,0 z"
       id="path55"
       inkscape:connector-curvature="0"
       style="clip-rule:evenodd;fill:#ffcc4e;fill-rule:evenodd" /></g></svg>