<?xml version="1.0" encoding="iso-8859-1"?>
<!-- Generator: Adobe Illustrator 19.0.0, SVG Export Plug-In . SVG Version: 6.00 Build 0)  -->
<svg version="1.1" id="Layer_1" xmlns="http://www.w3.org/2000/svg" xmlns:xlink="http://www.w3.org/1999/xlink" x="0px" y="0px"
	 viewBox="0 0 511.999 511.999" style="enable-background:new 0 0 511.999 511.999;" xml:space="preserve">
<g>
	<g>
		<circle cx="286.844" cy="95.896" r="7.75"/>
	</g>
</g>
<g>
	<g>
		<path d="M380.002,132.465c-41.587-25.311-42.277-26.685-50.58-43.224c-2.564-5.104-6.315-10.583-10.675-15.789
			c-2.118-2.53-6.729-7.36-6.744-7.372c-4.824-4.958-34.837-36.235-43.329-55.412c-1.222-2.759-3.85-4.632-6.857-4.885
			c-7.936-0.668-68.693-5.755-68.693-5.755c-3.063-0.257-6.029,1.216-7.674,3.825c-1.644,2.606-1.699,5.912-0.146,8.572
			l15.668,26.806L159.28,53.056c-2.18,0.723-3.961,2.321-4.915,4.41c-0.953,2.089-0.994,4.481-0.11,6.601l9.902,23.797
			l-33.807,20.28c-1.99,1.194-3.386,3.17-3.847,5.445c-0.459,2.275,0.06,4.638,1.43,6.511l19.262,26.332l-25.911,19.72
			c-1.953,1.485-3.143,3.764-3.248,6.214c-0.107,2.451,0.882,4.822,2.698,6.471l28.92,26.258l-17.47,16.825
			c-1.745,1.68-2.663,4.04-2.515,6.457c0.149,2.417,1.351,4.646,3.289,6.099l37.446,28.074l-15.312,30.043
			c-1.039,2.04-1.185,4.42-0.404,6.572c0.784,2.152,2.425,3.882,4.532,4.777c0.506,0.215,50.044,21.707,51.465,59.754
			c-3.489,11.637-6.006,19.703-7.291,23.371c-5.562,15.912-10.814,30.942-9.855,47.55c1.32,22.974,9.589,42.469,23.907,56.377
			c14.137,13.74,32.938,21.004,54.373,21.004c42.544,0,59.966-21.266,70.393-39.795c13.517-24.04,10.745-54.575-6.901-75.983
			c-18.052-21.894-39.043-23.003-43.068-23.003l-0.518,0.005c-6.343,0.165-12.242,2.791-16.612,7.393
			c-4.371,4.604-6.688,10.632-6.522,16.978c0.334,12.676,10.33,22.669,22.926,23.118c1.104,0.435,3.921,1.838,7.127,5.727
			c5.088,6.177,5.989,15.627,2.139,22.472c-5.423,9.654-9.724,15.57-28.966,15.57c-23.941,0-29.984-17.725-30.838-32.603
			c-0.415-7.115,2.791-16.308,7.231-29.03l0.043-0.125c3.631-10.397,40.997-78.442,49.004-91.917
			c10.082-16.979,14.164-39.357,11.493-63.014c-2.555-22.629-11.277-44.354-23.934-59.614c-3.647-4.54-9.41-12.24-9.41-12.24
			c-2.817-4.477-3.593-9.128-2.31-13.826c1.283-4.695,4.483-8.453,6.98-9.739c0,0,2.284-1.249,3.21-1.54
			c1.23-0.386,2.557-0.576,4.003-0.576c8.474,0,18.296,6.576,21.348,9.097l0.532,0.443l0.597,0.349
			c0.246,0.143,24.652,14.392,35.22,20.731c4.996,2.998,10.898,4.581,17.065,4.581c12.564,0,23.969-6.564,29.058-16.727
			C396.07,158.819,395.871,141.065,380.002,132.465z M173.611,292.63l14.664-28.773c1.824-3.578,0.808-7.948-2.404-10.357
			l-35.239-26.42l16.84-16.218c1.646-1.586,2.561-3.783,2.528-6.07c-0.033-2.285-1.013-4.455-2.706-5.992l-28.107-25.521
			l24.457-18.615c3.581-2.725,4.321-7.815,1.664-11.447l-18.703-25.569l32.165-19.294c3.513-2.108,4.951-6.472,3.377-10.254
			l-9.226-22.17l42.923-14.233c2.364-0.783,4.248-2.592,5.127-4.923c0.881-2.33,0.661-4.933-0.596-7.082l-12.79-21.881
			c15.39,1.289,37.898,3.174,48.191,4.037c4.336,8.13,10.944,17.267,17.801,25.811l0.005,0.009
			c-1.146-0.063-2.302-0.101-3.471-0.101c-21.777,0-42.724,11.037-52.969,21.29c-21.458,21.459-44.462,56.68-31.825,139.307
			c2.017,16.896,10.327,31.808,18.362,46.229c9.509,17.063,19.341,34.709,19.405,56.408c0.019,5.693-0.641,11.59-1.961,17.534
			c-0.215,0.736-0.893,3.069-1.871,6.412C207.438,313.045,185.436,298.983,173.611,292.63z M376.342,161.34
			c-2.312,4.618-7.922,7.603-14.289,7.603c-3.176,0-6.138-0.77-8.569-2.229c-9.761-5.855-31.14-18.349-34.841-20.511
			c-3.203-2.552-16.594-12.461-31.352-12.461c-5.519,0-10.591,1.382-15.081,4.108c-6.945,3.709-12.692,11.303-15.043,19.908
			c-1.74,6.364-2.429,16.132,4.073,26.671c0.686,1.224,2.66,4.083,10.748,14.148l0.086,0.104
			c22.54,27.135,27.674,75.589,10.986,103.689c-6.096,10.259-45.827,81.819-50.398,94.91l-0.043,0.127
			c-5.069,14.53-8.733,25.028-8.126,35.425c1.731,30.158,19.423,48.164,47.327,48.164c27.597,0,36.26-11.351,43.363-23.993
			c7.175-12.759,5.617-29.645-3.792-41.069c-7.931-9.617-16.149-11.723-18.646-11.723h-0.34c-3.991,0-7.199-3.099-7.303-7.051
			c-0.051-1.931,0.656-3.768,1.989-5.172c1.334-1.404,3.132-2.205,5.004-2.254l0.15-0.001c2.724,0,16.988,0.819,30.324,16.993
			c13.338,16.183,15.447,39.243,5.249,57.38c-9.173,16.296-22.303,31.377-56,31.377c-17.049,0-31.869-5.647-42.86-16.334
			c-11.303-10.979-17.85-26.706-18.93-45.482c-0.768-13.32,3.739-26.217,8.956-41.144c1.2-3.424,3.261-9.965,6.139-19.488
			l1.779-5.89c4.903-16.381,10.101-34.269,10.153-34.448l0.126-0.489c1.628-7.233,2.442-14.453,2.42-21.457
			c-0.076-25.962-11.455-46.381-21.494-64.396c-7.61-13.657-14.798-26.557-16.404-40.26l-0.039-0.291
			c-11.494-74.959,7.278-105.387,27.16-125.269c8.168-8.174,24.974-16.45,41.288-16.45c7.881,0,14.903,1.937,20.873,5.757
			c8.959,6.241,19.12,17.745,23.678,26.813c10.759,21.432,15.654,24.909,56.942,50.036l0.417,0.237
			C380.737,151.56,376.388,161.249,376.342,161.34z"/>
	</g>
</g>
<g>
</g>
<g>
</g>
<g>
</g>
<g>
</g>
<g>
</g>
<g>
</g>
<g>
</g>
<g>
</g>
<g>
</g>
<g>
</g>
<g>
</g>
<g>
</g>
<g>
</g>
<g>
</g>
<g>
</g>
</svg>
