<?xml version="1.0" encoding="iso-8859-1"?>
<!-- Generator: Adobe Illustrator 17.1.0, SVG Export Plug-In . SVG Version: 6.00 Build 0)  -->
<!DOCTYPE svg PUBLIC "-//W3C//DTD SVG 1.1//EN" "http://www.w3.org/Graphics/SVG/1.1/DTD/svg11.dtd">
<svg version="1.1" id="Capa_1" xmlns="http://www.w3.org/2000/svg" xmlns:xlink="http://www.w3.org/1999/xlink" x="0px" y="0px"
	 viewBox="0 0 492.559 492.559" style="enable-background:new 0 0 492.559 492.559;" xml:space="preserve">
<path d="M492.445,246.936c-0.391-2.215-1.756-4.139-3.719-5.238c-4.196-2.353-101.257-56.326-172.554-59.673
	c-2.55-6.745-7.878-19.163-16.506-31.668c-17.149-24.857-39.107-37.996-63.498-37.996c-4.142,0-7.5,3.357-7.5,7.5v69.946
	c-20.531,4.113-44.385,9.94-65.838,15.348l-39.73-33.26c-2.378-1.99-5.736-2.312-8.45-0.809c-2.713,1.503-4.22,4.521-3.792,7.594
	l5.333,38.315c-6.449,1.61-11.409,2.813-15.552,3.771c-8.295-0.933-51.819-20.867-89.772-39.932
	c-2.956-1.484-6.537-0.856-8.812,1.545c-2.275,2.402-2.707,6.012-1.063,8.884l33.452,58.433l-6.764,43.915
	c-0.434,2.813,0.764,5.631,3.091,7.271c2.327,1.641,5.381,1.823,7.887,0.469c19.723-10.655,50.837-25.568,59.802-26.204
	c4.843,3.307,10.589,6.611,17.152,9.865l-13.077,46.331c-0.638,2.261-0.18,4.689,1.237,6.563c1.418,1.873,3.631,2.974,5.98,2.974
	c21.269,0,46.958-16.518,57.916-36.135c3.731,1.189,7.588,2.107,15.821,3.116l-4.14,21.186c-0.741,3.794,1.522,7.529,5.228,8.629
	c2.197,0.651,4.486,0.981,6.806,0.981c15.942,0,30.206-15.331,38.54-26.61c25.668,2.027,32.626,2.736,42.894,3.783
	c0.248,0.025,0.498,0.051,0.749,0.076l-16.43,54.631c-0.683,2.271-0.251,4.731,1.164,6.635s3.646,3.025,6.019,3.025
	c43.175,0,65.354-46.205,71.69-62.055c3.891,0.067,9.395,0.218,15.134,0.375c8.574,0.234,17.44,0.478,22.259,0.478
	c0.002,0,0.003,0,0.005,0c2.521,0,3.511-0.066,4.221-0.166c63.604-8.908,111.125-63.383,113.116-65.698
	C492.211,251.426,492.836,249.152,492.445,246.936z M445.466,273.464h-71.181c-4.143,0-7.5,3.357-7.5,7.5s3.357,7.5,7.5,7.5h47.19
	c-13.737,7.251-29.251,13.157-45.812,15.494c-0.169,0.011-0.75,0.038-2.256,0.038c-0.002,0-0.004,0-0.006,0
	c-4.613,0-13.375-0.24-21.849-0.472c-7.849-0.215-15.263-0.418-18.971-0.418c-0.974,0-1.724,0.017-2.201,0.043
	c-3.079,0.171-5.742,2.218-6.709,5.146c-0.171,0.517-15.91,47.056-48.866,55.572l15.745-52.353c0.646-2.147,0.297-4.471-0.951-6.334
	s-3.264-3.069-5.495-3.29c-3.819-0.377-6.92-0.693-9.767-0.983c-10.916-1.112-18.128-1.848-47.473-4.147
	c-0.196-0.015-0.392-0.022-0.587-0.022c-2.457,0-4.775,1.207-6.181,3.253c-6.333,9.217-15.887,19.74-24.241,22.794l3.919-20.056
	c0.405-2.073-0.083-4.222-1.344-5.916c-1.261-1.695-3.179-2.779-5.281-2.986c-15.608-1.538-18.549-2.543-23-4.063
	c-0.838-0.286-1.754-0.599-2.804-0.937c-1.078-0.6-2.32-0.941-3.641-0.941c-3.515,0-6.465,2.418-7.278,5.682
	c-5.27,13.271-21.242,26.214-36.304,30.678l9.355-33.145l3.649,1.5c0.933,0.383,1.898,0.564,2.848,0.564
	c2.951,0,5.749-1.753,6.94-4.651c1.575-3.831-0.255-8.213-4.086-9.788l-11.271-4.632c-8.694-3.995-15.962-8.03-21.599-11.997
	c-1.856-1.307-4.192-1.97-6.943-1.97c-10.897,0-37.451,12.558-54.252,21.101l4.904-31.839c0.258-1.678-0.06-3.395-0.904-4.868
	l-22.581-39.443c6.17,2.984,13.143,6.317,20.25,9.636c44.905,20.97,51.388,21.082,54.439,21.082
	c0.898,0.033,1.714-0.082,2.502-0.264c5.647-1.3,12.744-3.035,23.01-5.63c3.709-0.938,6.119-4.517,5.591-8.306l-3.578-25.702
	l26.702,22.353c1.787,2.106,4.673,3.14,7.537,2.429l0.106-0.026c0.021-0.005,0.041-0.01,0.061-0.016
	c24.281-6.14,52.129-12.99,74.655-17.256l28.017-4.372c4.093-0.639,6.893-4.474,6.254-8.566c-0.638-4.092-4.467-6.896-8.566-6.254
	l-19.494,3.042l0-59.312c41.76,6.221,59.778,63.054,59.963,63.653c0.956,3.124,3.823,5.269,7.09,5.304
	c56.34,0.608,136.115,39.758,162.123,53.339C467.038,255.984,457.585,264.685,445.466,273.464z M393.852,238.738
	c0-3.332,2.701-6.033,6.033-6.033c3.332,0,6.033,2.701,6.033,6.033c0,3.332-2.701,6.033-6.033,6.033
	C396.553,244.771,393.852,242.07,393.852,238.738z M334.135,281.857c-12.153-16.334-12.405-38.467-0.626-55.074l0.528-0.745
	c2.398-3.377,7.079-4.17,10.458-1.772c3.377,2.398,4.171,7.08,1.772,10.458l-0.526,0.741c-8.006,11.286-7.834,26.334,0.429,37.439
	c2.473,3.322,1.782,8.021-1.541,10.494c-1.344,1-2.914,1.482-4.471,1.482C337.868,284.881,335.608,283.837,334.135,281.857z
	 M318.136,224.261c3.38,2.396,4.177,7.077,1.782,10.456l-0.525,0.741c-8.01,11.293-7.839,26.34,0.424,37.445
	c2.473,3.322,1.782,8.021-1.541,10.494c-1.344,1-2.914,1.482-4.471,1.482c-2.29,0-4.551-1.044-6.023-3.023
	c-12.153-16.334-12.404-38.467-0.625-55.074l0.523-0.739C310.074,222.666,314.756,221.867,318.136,224.261z M293.035,235.465
	c-8.005,11.287-7.834,26.334,0.429,37.439c2.473,3.322,1.782,8.021-1.541,10.494c-1.344,1-2.914,1.482-4.471,1.482
	c-2.29,0-4.551-1.044-6.023-3.023c-12.152-16.334-12.404-38.466-0.627-55.074l0.529-0.745c2.398-3.377,7.079-4.17,10.458-1.772
	c3.377,2.398,4.171,7.08,1.772,10.458L293.035,235.465z"/>
<g>
</g>
<g>
</g>
<g>
</g>
<g>
</g>
<g>
</g>
<g>
</g>
<g>
</g>
<g>
</g>
<g>
</g>
<g>
</g>
<g>
</g>
<g>
</g>
<g>
</g>
<g>
</g>
<g>
</g>
</svg>
