<?xml version="1.0" encoding="iso-8859-1"?>
<!-- Generator: Adobe Illustrator 18.0.0, SVG Export Plug-In . SVG Version: 6.00 Build 0)  -->
<!DOCTYPE svg PUBLIC "-//W3C//DTD SVG 1.1//EN" "http://www.w3.org/Graphics/SVG/1.1/DTD/svg11.dtd">
<svg version="1.1" id="Capa_1" xmlns="http://www.w3.org/2000/svg" xmlns:xlink="http://www.w3.org/1999/xlink" x="0px" y="0px"
	 viewBox="0 0 229.334 229.334" style="enable-background:new 0 0 229.334 229.334;" xml:space="preserve">
<g>
	<path d="M204.022,48.01c-4.506-13.302-10.522-25.672-25.941-27.921c-11.216-1.637-21.645,3.941-26.442,13.896
		C134.189,6.607,97.482,6.535,81.308,34.6c-15.492-20.06-49.892-5.304-52.259,18.109C18.9,49.876,9.592,53.162,3.839,62.959
		c-8.546,14.553-1.168,32.18,6.079,45.558c18.801,34.707,51.208,64.201,88.972,76.619c-5.299,6.138-10.024,13.909-5.857,22.055
		c4.162,8.138,14.858,8.095,22.688,8.437c8.657,0.378,21.716,1.115,27.317-7.15c4.911-7.248,1.994-16.847-2.803-23.477
		c37.718-10.421,67.621-48.484,83.888-82.533C233.727,82.369,231.696,49.66,204.022,48.01z M197.286,131.025
		c-16.17,22.34-34.22,40.502-61.182,49.285c-2.336,0.761-2.417,3.348-1.143,4.698c0.009,0.031-0.016,0.056-0.005,0.087
		c0.423,1.268,0.832,2.534,1.32,3.777c2.82,7.19,4.899,8.495,0.281,15.11c-3.635,5.208-3.334,4.899-8.885,5.56
		c-3.433,0.409-6.723,0.467-10.181,0.365c-3.669-0.109-10.344,0.482-13.668-1.293c-6.138-3.276-7.164-9.279-4.897-14.94
		c1.055-2.637,2.477-4.943,3.974-7.312c2.103,0.214,3.426-2.974,1.302-4.014c-21.108-10.333-40.957-21.208-58.079-37.671
		c-9.206-8.851-17.449-18.729-24.41-29.44c-7.497-11.536-34.496-59.353,7.588-57.991c0.771,0.025,1.27-0.339,1.627-0.818
		c0.98,0.052,2.012-0.407,2.35-1.538c2.923-9.799,9.003-18.708,19.387-21.563c10.375-2.852,17.666,2.085,26.171,7.032
		c0.457,0.266,0.936,0.339,1.406,0.329c0.92,0.606,2.266,0.576,3.142-0.642c7.413-10.312,17.511-18.431,30.556-19.717
		c15.955-1.572,23.299,7.794,33.205,18.067c1.612,1.672,4.011,0.812,4.957-0.83c0.489,0.093,0.993,0.056,1.359-0.342
		c6.589-7.176,15.453-12.358,25.5-9.787c11.437,2.927,14.875,12.663,18.547,22.58c0.541,1.462,1.733,2.159,2.967,2.285
		c0.325,0.56,0.868,0.999,1.654,1.174C245.754,63.19,211.643,111.19,197.286,131.025z"/>
	<path d="M87.805,149.001C70.367,124.937,54.14,102.087,41.352,75.1c-0.563-1.187-2.627-0.342-2.146,0.905
		c10.36,26.836,25.555,54.485,46.1,74.925C86.543,152.161,88.896,150.507,87.805,149.001z"/>
	<path d="M87.498,55.809c-0.537-1.604-2.887-0.96-2.533,0.698c6.787,31.774,16.213,65.281,29.272,95.085
		c0.725,1.653,3.288,0.459,2.852-1.203C108.794,118.721,97.887,86.866,87.498,55.809z"/>
	<path d="M142.961,62.383c-4.24,28.712-7.86,56.595-15.292,84.75c-0.4,1.515,1.816,2.091,2.324,0.641
		c9.365-26.746,16.464-56.42,16.337-84.935C146.321,60.979,143.251,60.415,142.961,62.383z"/>
	<path d="M186.664,71.755c-8.678,30.262-20.117,56.266-41.214,80.121c-1.36,1.537,0.81,3.762,2.273,2.272
		c21.411-21.8,38.632-50.619,43.262-81.202C191.405,70.168,187.481,68.908,186.664,71.755z"/>
</g>
<g>
</g>
<g>
</g>
<g>
</g>
<g>
</g>
<g>
</g>
<g>
</g>
<g>
</g>
<g>
</g>
<g>
</g>
<g>
</g>
<g>
</g>
<g>
</g>
<g>
</g>
<g>
</g>
<g>
</g>
</svg>
