<?xml version="1.0" encoding="iso-8859-1"?>
<!-- Generator: Adobe Illustrator 19.0.0, SVG Export Plug-In . SVG Version: 6.00 Build 0)  -->
<svg version="1.1" id="Capa_1" xmlns="http://www.w3.org/2000/svg" xmlns:xlink="http://www.w3.org/1999/xlink" x="0px" y="0px"
	 viewBox="0 0 511.999 511.999" style="enable-background:new 0 0 511.999 511.999;" xml:space="preserve">
<g>
	<g>
		<path d="M261.975,97.584c-0.13-0.64-0.319-1.27-0.569-1.87c-0.25-0.6-0.561-1.19-0.92-1.73c-0.36-0.55-0.78-1.06-1.24-1.52
			c-0.47-0.46-0.98-0.88-1.521-1.24c-0.55-0.36-1.13-0.67-1.729-0.92c-0.601-0.25-1.23-0.44-1.87-0.57c-1.29-0.26-2.62-0.26-3.91,0
			c-0.64,0.13-1.269,0.32-1.87,0.57c-0.6,0.25-1.18,0.56-1.73,0.92c-0.54,0.36-1.061,0.78-1.52,1.24c-0.46,0.46-0.88,0.97-1.24,1.52
			c-0.359,0.54-0.67,1.13-0.92,1.73c-0.25,0.6-0.439,1.23-0.569,1.87c-0.13,0.64-0.19,1.3-0.19,1.95c0,0.66,0.061,1.31,0.19,1.96
			c0.13,0.64,0.319,1.27,0.569,1.87c0.25,0.6,0.561,1.18,0.92,1.72c0.36,0.55,0.78,1.06,1.24,1.52c0.46,0.47,0.98,0.88,1.52,1.25
			c0.55,0.36,1.13,0.67,1.73,0.92c0.601,0.25,1.23,0.44,1.87,0.57c0.64,0.13,1.3,0.19,1.95,0.19c0.66,0,1.31-0.06,1.96-0.19
			c0.64-0.13,1.27-0.32,1.87-0.57s1.18-0.56,1.729-0.92c0.54-0.37,1.051-0.78,1.521-1.25c0.46-0.46,0.88-0.97,1.24-1.52
			c0.359-0.54,0.67-1.12,0.92-1.72c0.25-0.6,0.439-1.23,0.569-1.87c0.13-0.65,0.2-1.3,0.2-1.96
			C262.175,98.884,262.105,98.234,261.975,97.584z"/>
	</g>
</g>
<g>
	<g>
		<path d="M454.662,320.034c-0.002-0.001-0.004-0.002-0.005-0.004c-6.092-4.945-12.801-9.07-19.942-12.262h-0.001l-133.139-59.501
			v-71.88V63.54V9.999c0-5.523-4.478-9.999-9.999-9.999H131.01c-5.522,0-9.999,4.477-9.999,9.999v21.53H33.874
			c-5.523,0-9.999,4.477-9.999,9.999v53.541v112.847v89.766v19.293c0,57.89,9.612,86.099,69.131,110.796l17.918,8.004
			c0.003,0.001,0.006,0.002,0.009,0.003l137.91,61.636c0,0,0.001,0,0.001,0.001l15.06,6.73c11.701,5.23,24.134,7.854,36.62,7.854
			c10.92,0,21.882-2.008,32.419-6.036c15.839-6.054,29.328-16.154,39.364-29.206c8.297,2.455,16.837,3.693,25.39,3.693
			c11.554,0,23.129-2.239,34.146-6.713c21.734-8.825,38.945-25.412,48.461-46.705C496.944,389.799,486.401,345.798,454.662,320.034z
			 M141.008,19.999L141.008,19.999h140.568v33.542h-77.138V41.528c0-5.523-4.478-9.999-9.999-9.999h-53.431V19.999z
			 M204.438,128.536v-18.999h12.706c5.522,0,9.999-4.477,9.999-9.999s-4.478-9.999-9.999-9.999h-12.706V73.539h77.138v54.997
			H204.438z M281.577,148.535v17.853h-77.138v-17.853H281.577z M43.873,51.528h87.137h53.431V63.54v21.53H43.873V51.528z
			 M43.873,141.066h76.136c5.522,0,9.999-4.477,9.999-9.999c0-5.523-4.478-9.999-9.999-9.999H43.873v-15.999H184.44v54.997h-77.542
			c-5.522,0-9.999,4.477-9.999,9.999s4.478,9.999,9.999,9.999h77.542v17.853H43.873V141.066z M118.83,383.005
			c-0.009,0.259-0.023,0.517-0.034,0.775c-0.025,0.577-0.056,1.153-0.095,1.728c-0.019,0.289-0.041,0.577-0.064,0.865
			c-0.045,0.569-0.098,1.137-0.156,1.705c-0.027,0.261-0.051,0.523-0.081,0.783c-0.084,0.742-0.179,1.483-0.285,2.221
			c-0.011,0.075-0.019,0.15-0.03,0.225c-0.12,0.814-0.256,1.624-0.403,2.432c-0.043,0.234-0.091,0.467-0.136,0.701
			c-0.111,0.578-0.227,1.155-0.352,1.73c-0.06,0.275-0.122,0.55-0.185,0.825c-0.127,0.552-0.26,1.102-0.399,1.651
			c-0.065,0.258-0.129,0.516-0.197,0.772c-0.177,0.666-0.364,1.33-0.559,1.991c-0.037,0.125-0.07,0.251-0.108,0.376
			c-0.236,0.783-0.487,1.56-0.749,2.335c-0.074,0.217-0.153,0.432-0.228,0.649c-0.196,0.56-0.396,1.119-0.606,1.675
			c-0.101,0.269-0.205,0.536-0.31,0.804c-0.2,0.513-0.407,1.024-0.618,1.533c-0.11,0.263-0.218,0.527-0.331,0.789
			c-0.248,0.576-0.505,1.147-0.767,1.717c-0.082,0.178-0.16,0.357-0.243,0.535c-0.322,0.685-0.658,1.364-1.002,2.04l-9.852-4.402
			c-0.083-0.039-0.167-0.075-0.251-0.109C48.78,387.799,43.873,366.9,43.873,316.976v-10.05c0.462-0.009,0.924-0.024,1.385-0.024
			c40.592,0,73.616,33.026,73.616,73.62C118.875,381.351,118.857,382.179,118.83,383.005z M249.775,475.927L129.178,422.03
			c0.205-0.42,0.4-0.845,0.602-1.267c0.128-0.268,0.259-0.536,0.385-0.805c0.44-0.945,0.867-1.896,1.275-2.854
			c0.02-0.046,0.037-0.093,0.057-0.139c0.385-0.909,0.752-1.824,1.107-2.744c0.113-0.291,0.22-0.584,0.329-0.877
			c0.261-0.695,0.513-1.393,0.757-2.094c0.111-0.319,0.221-0.637,0.328-0.957c0.251-0.749,0.492-1.501,0.724-2.255
			c0.074-0.241,0.153-0.482,0.225-0.724c0.297-0.992,0.577-1.99,0.84-2.992c0.052-0.197,0.097-0.396,0.148-0.593
			c0.207-0.808,0.403-1.618,0.588-2.432c0.075-0.328,0.145-0.657,0.216-0.986c0.154-0.713,0.299-1.427,0.436-2.144
			c0.063-0.327,0.127-0.654,0.186-0.982c0.153-0.846,0.293-1.694,0.422-2.545c0.027-0.178,0.059-0.355,0.085-0.534
			c0.15-1.024,0.28-2.052,0.396-3.083c0.032-0.282,0.056-0.565,0.085-0.847c0.078-0.761,0.149-1.522,0.209-2.286
			c0.027-0.352,0.052-0.704,0.076-1.056c0.049-0.736,0.089-1.473,0.121-2.211c0.014-0.322,0.031-0.644,0.042-0.966
			c0.035-1.044,0.057-2.089,0.057-3.137c0-0.81-0.011-1.618-0.031-2.424c-0.006-0.228-0.018-0.455-0.026-0.683
			c-0.019-0.578-0.037-1.156-0.067-1.731c-0.011-0.208-0.027-0.414-0.04-0.621c-0.034-0.594-0.069-1.188-0.114-1.779
			c-0.014-0.18-0.033-0.359-0.048-0.539c-0.051-0.617-0.103-1.234-0.166-1.848c-0.015-0.143-0.033-0.284-0.049-0.427
			c-0.07-0.65-0.142-1.299-0.225-1.945c-0.013-0.102-0.029-0.203-0.043-0.305c-0.09-0.685-0.185-1.368-0.29-2.048
			c-0.011-0.074-0.025-0.147-0.037-0.221c-0.111-0.708-0.228-1.414-0.355-2.117c-0.007-0.039-0.016-0.078-0.023-0.117
			c-6.612-36.334-34.263-65.418-69.827-74.131c-0.004-0.001-0.008-0.002-0.012-0.003c-0.733-0.18-1.469-0.35-2.208-0.512
			c-0.046-0.01-0.093-0.02-0.139-0.03c-0.696-0.151-1.395-0.295-2.096-0.431c-0.091-0.018-0.182-0.035-0.273-0.052
			c-0.658-0.125-1.318-0.244-1.981-0.355c-0.135-0.023-0.27-0.045-0.404-0.067c-0.621-0.102-1.244-0.197-1.869-0.286
			c-0.177-0.025-0.353-0.05-0.53-0.074c-0.584-0.08-1.17-0.154-1.758-0.224c-0.22-0.026-0.44-0.051-0.66-0.076
			c-0.548-0.061-1.097-0.116-1.648-0.167c-0.259-0.024-0.518-0.047-0.778-0.069c-0.516-0.043-1.034-0.082-1.552-0.117
			c-0.295-0.02-0.591-0.039-0.887-0.056c-0.485-0.028-0.971-0.052-1.457-0.072c-0.33-0.014-0.661-0.027-0.993-0.038
			c-0.457-0.015-0.914-0.025-1.373-0.033c-0.361-0.006-0.722-0.012-1.084-0.014c-0.191-0.001-0.381-0.007-0.572-0.007
			c-0.172,0-0.346,0.008-0.518,0.009c-0.289,0.002-0.577-0.003-0.866,0.001v-68.998h140.566v68.435c0,2.466,0.906,4.787,2.465,6.575
			c0.935,1.072,2.105,1.952,3.456,2.556l139.031,62.134c0.02,0.009,0.04,0.019,0.061,0.028c1.213,0.543,2.403,1.121,3.574,1.725
			c0.112,0.058,0.227,0.113,0.339,0.171c1.148,0.599,2.273,1.228,3.378,1.883c0.071,0.042,0.143,0.083,0.214,0.126L249.775,475.927z
			 M367.913,442.369c-0.007,0.023-0.014,0.047-0.021,0.071c-0.163,0.531-0.336,1.058-0.512,1.585
			c-0.088,0.263-0.176,0.526-0.267,0.789c-0.145,0.419-0.294,0.837-0.448,1.253c-0.15,0.406-0.305,0.811-0.463,1.215
			c-0.121,0.311-0.24,0.622-0.365,0.931c-0.298,0.733-0.605,1.464-0.93,2.19c-0.425,0.95-0.875,1.883-1.338,2.807
			c-0.151,0.301-0.307,0.599-0.462,0.898c-0.327,0.631-0.664,1.255-1.009,1.874c-0.184,0.329-0.365,0.659-0.553,0.984
			c-0.404,0.698-0.822,1.386-1.249,2.068c-0.096,0.153-0.186,0.311-0.283,0.463c-0.016,0.025-0.027,0.051-0.042,0.075
			c-8.031,12.581-19.878,22.25-34.171,27.713c-17.592,6.725-36.679,6.231-53.738-1.396l-3.535-1.58l44.581-58.486l39.34-51.61
			c10.676,11.702,17.247,26.871,18.354,42.93v0.001C371.391,425.653,370.396,434.236,367.913,442.369z M366.942,360.419
			c-0.052-0.057-0.104-0.114-0.157-0.171c-0.601-0.647-1.212-1.285-1.834-1.917c-0.249-0.254-0.501-0.504-0.753-0.755
			c-0.505-0.5-1.011-0.999-1.53-1.489c-0.43-0.408-0.869-0.806-1.308-1.206c-0.393-0.357-0.781-0.718-1.181-1.07
			c-0.839-0.737-1.691-1.461-2.559-2.168c-0.033-0.027-0.065-0.056-0.098-0.083c-0.003-0.003-0.006-0.004-0.009-0.007
			c-4.859-3.944-10.227-7.391-15.992-10.298c-0.422-0.213-0.839-0.432-1.265-0.639c-0.352-0.171-0.711-0.33-1.066-0.497
			c-0.538-0.253-1.072-0.51-1.616-0.753l-133.138-59.501l-0.001-93.481h77.138v68.364c0,3.944,2.318,7.52,5.92,9.129l139.06,62.15
			c2.6,1.162,5.128,2.484,7.566,3.957l-6.266,8.219l-41.659,54.652C382.183,380.98,375.698,369.893,366.942,360.419z
			 M462.043,418.874c-13.8,30.876-47.023,47.024-79.026,40.022c0.049-0.109,0.097-0.217,0.146-0.325
			c0.001-0.003,0.002-0.005,0.004-0.008c0.004-0.008,0.007-0.017,0.011-0.026c0.445-0.997,0.865-2.004,1.273-3.017
			c0.128-0.318,0.254-0.636,0.379-0.955c0.317-0.813,0.622-1.63,0.915-2.452c0.191-0.534,0.372-1.07,0.552-1.607
			c0.19-0.568,0.378-1.137,0.557-1.709c0.185-0.588,0.363-1.176,0.535-1.766c0.08-0.277,0.156-0.555,0.234-0.833
			c0.393-1.397,0.752-2.8,1.075-4.207c0.002-0.007,0.004-0.015,0.005-0.022c1.696-7.398,2.433-14.906,2.245-22.358l15.675-20.564
			l42.981-56.387C468.329,363.093,473.576,393.073,462.043,418.874z"/>
	</g>
</g>
<g>
	<g>
		<path d="M164.843,129.112c-0.13-0.64-0.32-1.27-0.57-1.87s-0.559-1.18-0.92-1.73c-0.37-0.54-0.79-1.06-1.25-1.52
			s-0.97-0.88-1.52-1.24c-0.54-0.36-1.12-0.67-1.721-0.92c-0.609-0.25-1.239-0.44-1.869-0.57c-1.29-0.26-2.62-0.26-3.91,0
			c-0.641,0.13-1.271,0.32-1.87,0.57c-0.61,0.25-1.191,0.56-1.73,0.92c-0.55,0.36-1.06,0.78-1.52,1.24
			c-0.46,0.46-0.88,0.98-1.24,1.52c-0.36,0.55-0.67,1.13-0.92,1.73c-0.25,0.6-0.44,1.23-0.57,1.87c-0.13,0.65-0.199,1.3-0.199,1.96
			c0,0.65,0.069,1.3,0.199,1.95c0.129,0.64,0.32,1.27,0.57,1.87c0.25,0.6,0.56,1.18,0.92,1.73c0.36,0.54,0.78,1.06,1.24,1.52
			c0.46,0.46,0.97,0.88,1.52,1.24c0.54,0.36,1.12,0.671,1.73,0.921c0.6,0.25,1.229,0.44,1.87,0.57c0.64,0.13,1.3,0.2,1.95,0.2
			c0.649,0,1.309-0.07,1.96-0.2c0.63-0.13,1.26-0.32,1.869-0.57c0.601-0.25,1.181-0.56,1.721-0.921c0.55-0.36,1.059-0.78,1.52-1.24
			c0.46-0.46,0.88-0.98,1.25-1.52c0.36-0.55,0.67-1.13,0.92-1.73c0.25-0.6,0.441-1.23,0.57-1.87c0.13-0.65,0.191-1.3,0.191-1.95
			C165.034,130.412,164.973,129.762,164.843,129.112z"/>
	</g>
</g>
<g>
	<g>
		<path d="M81.679,168.109c-0.131-0.64-0.322-1.27-0.572-1.87c-0.25-0.6-0.56-1.18-0.92-1.73c-0.37-0.54-0.79-1.06-1.25-1.52
			s-0.97-0.88-1.52-1.24c-0.54-0.36-1.12-0.67-1.721-0.92c-0.609-0.25-1.239-0.44-1.87-0.57c-1.289-0.26-2.619-0.26-3.909,0
			c-0.641,0.13-1.271,0.32-1.87,0.57c-0.61,0.25-1.19,0.56-1.73,0.92c-0.55,0.36-1.06,0.78-1.52,1.24s-0.88,0.98-1.24,1.52
			c-0.36,0.55-0.67,1.13-0.92,1.73s-0.44,1.23-0.57,1.87c-0.13,0.65-0.2,1.3-0.2,1.96c0,2.63,1.07,5.21,2.931,7.07
			c0.46,0.46,0.97,0.87,1.52,1.24c0.54,0.36,1.12,0.671,1.73,0.921c0.6,0.25,1.229,0.44,1.87,0.57c0.64,0.13,1.3,0.2,1.949,0.2
			c0.66,0,1.311-0.07,1.96-0.2c0.631-0.13,1.261-0.32,1.87-0.57c0.6-0.25,1.181-0.56,1.721-0.921c0.55-0.37,1.06-0.78,1.52-1.24
			c1.86-1.86,2.93-4.44,2.93-7.07C81.868,169.409,81.808,168.759,81.679,168.109z"/>
	</g>
</g>
<g>
</g>
<g>
</g>
<g>
</g>
<g>
</g>
<g>
</g>
<g>
</g>
<g>
</g>
<g>
</g>
<g>
</g>
<g>
</g>
<g>
</g>
<g>
</g>
<g>
</g>
<g>
</g>
<g>
</g>
</svg>
