<?xml version="1.0" encoding="iso-8859-1"?>
<!-- Generator: Adobe Illustrator 18.0.0, SVG Export Plug-In . SVG Version: 6.00 Build 0)  -->
<!DOCTYPE svg PUBLIC "-//W3C//DTD SVG 1.1//EN" "http://www.w3.org/Graphics/SVG/1.1/DTD/svg11.dtd">
<svg version="1.1" id="Capa_1" xmlns="http://www.w3.org/2000/svg" xmlns:xlink="http://www.w3.org/1999/xlink" x="0px" y="0px"
	 viewBox="0 0 323.819 323.819" style="enable-background:new 0 0 323.819 323.819;" xml:space="preserve">
<g>
	<g>
		<path d="M317.983,203.465c-11.563-29.316-36.719-30.813-37.785-30.863c-0.115-0.005-0.23-0.008-0.346-0.008H154.679
			c-0.115,0-0.232,0.003-0.348,0.008c-1.064,0.05-26.223,1.547-37.783,30.864c-5.808,14.727-8.506,26.253-2.799,34.639
			c4.683,6.879,13.035,9.196,25.668,9.801c-0.08,0.93,0,27.216,0,27.216c0,18.004,14.648,32.65,32.652,32.65h90.393
			c18.004,0,32.65-14.646,32.65-32.65c0,0,0.08-26.286,0-27.216c12.146,0,21.529-3.279,25.668-9.801
			C326.217,229.541,323.789,218.193,317.983,203.465z M304.028,208.968c5.563,12.974,5.113,16.57,4.857,19l-30.646-40.374
			C278.239,187.594,294.647,187.087,304.028,208.968z M270.284,226.209l-28.418-37.438c-0.092-0.119-0.191-0.229-0.287-0.34v-0.837
			h17.83l34.414,45.34c-1.789,0.081-3.738,0.13-5.848,0.148C284.182,229.72,278.528,227.182,270.284,226.209z M184.873,187.594
			l8.076,10.639v24.191l-26.051-34.83H184.873z M207.95,187.594h18.629v105.178H207.95V187.594z M241.579,213.203l9.539,12.565
			h-9.539V213.203z M149.243,189.033l27.476,36.735h-4.65c-5.014,0-9.289,0.469-12.929,1.303l-22.154-29.187
			C141.144,192.959,145.731,190.376,149.243,189.033z M126.149,229.666c-0.668-0.982-1.588-4.587,3.039-17.242l15.664,20.637
			C133.856,232.873,127.558,231.735,126.149,229.666z M154.417,275.122v-24.454c0-3.942,0-9.899,17.652-9.899h20.881v52.004h-20.881
			C162.335,292.772,154.417,284.854,154.417,275.122z M280.112,275.122c0,9.732-7.918,17.65-17.65,17.65h-20.883v-52.004h20.883
			c15.871,0,17.65,6.283,17.65,9.899V275.122z"/>
		<path d="M169.813,258.443c-1.4-1.391-3.33-2.19-5.301-2.19c-1.98,0-3.91,0.8-5.31,2.19c-1.39,1.4-2.189,3.329-2.189,5.31
			c0,1.97,0.8,3.9,2.189,5.3c1.4,1.4,3.33,2.2,5.31,2.2c1.971,0,3.9-0.8,5.301-2.2c1.398-1.399,2.199-3.33,2.199-5.3
			C172.012,261.772,171.211,259.842,169.813,258.443z"/>
		<path d="M178.291,270.033c-1.979,0-3.91,0.8-5.309,2.189c-1.391,1.4-2.191,3.33-2.191,5.311c0,1.97,0.801,3.899,2.191,5.3
			c1.398,1.399,3.33,2.2,5.309,2.2c1.971,0,3.91-0.801,5.301-2.2c1.4-1.4,2.199-3.33,2.199-5.3c0-1.98-0.799-3.91-2.199-5.311
			C182.202,270.833,180.262,270.033,178.291,270.033z"/>
		<path d="M188.641,253.403c-1.398-1.4-3.34-2.2-5.309-2.2c-1.971,0-3.9,0.8-5.301,2.2c-1.4,1.399-2.199,3.329-2.199,5.3
			c0,1.979,0.799,3.91,2.199,5.31c1.391,1.391,3.33,2.19,5.301,2.19c1.98,0,3.91-0.8,5.309-2.19c1.391-1.399,2.191-3.33,2.191-5.31
			C190.832,256.732,190.032,254.802,188.641,253.403z"/>
		<path d="M270.022,256.253c-1.98,0-3.91,0.8-5.311,2.19c-1.389,1.4-2.189,3.329-2.189,5.31c0,1.97,0.801,3.9,2.189,5.3
			c1.4,1.4,3.34,2.2,5.311,2.2c1.971,0,3.9-0.8,5.301-2.2c1.398-1.399,2.199-3.33,2.199-5.3c0-1.98-0.801-3.91-2.199-5.31
			C273.932,257.052,272.002,256.253,270.022,256.253z"/>
		<path d="M256.243,270.033c-1.98,0-3.91,0.8-5.301,2.189c-1.4,1.4-2.199,3.33-2.199,5.311c0,1.97,0.799,3.899,2.199,5.3
			c1.391,1.399,3.32,2.2,5.301,2.2c1.969,0,3.91-0.801,5.299-2.2c1.4-1.4,2.201-3.33,2.201-5.3c0-1.98-0.801-3.91-2.201-5.311
			C260.153,270.833,258.211,270.033,256.243,270.033z"/>
		<path d="M256.502,264.012c1.389-1.399,2.189-3.33,2.189-5.31c0-1.971-0.801-3.9-2.189-5.3c-1.4-1.4-3.33-2.2-5.301-2.2
			c-1.98,0-3.91,0.8-5.311,2.2c-1.398,1.399-2.189,3.329-2.189,5.3c0,1.979,0.791,3.91,2.189,5.31c1.391,1.391,3.33,2.19,5.311,2.19
			C253.172,266.203,255.102,265.403,256.502,264.012z"/>
		<path d="M230.268,112.103V88.437c4.203-0.38,8.258-2.205,11.723-5.477c9.119-8.611,12.197-25.991,0.439-42.547
			c-17.268-24.317-60.246-24.384-62.037-24.366h-52.79c-0.021,0-0.045,0-0.068,0c-4.315,0-39.506,0.53-56.36,17.362
			c-2.604,2.602-4.643,5.443-6.11,8.508c-7.939-2.711-22.609-6.222-37.408-2.012C11.661,44.457,4.159,48.541,0.899,54.473
			C-2.023,59.79,2.248,80.4,12.651,84.162c-1.124,2.529-1.646,4.859-1.633,7.133c0.035,6.067,14.643,20.561,21.322,20.561
			c7.066,0,14.745-4.664,25.676-15.594c7.351-7.352,11.593-16.366,14.033-23.988c1.736,1.074,3.632,1.957,5.646,2.671
			c-2.344,4.003-3.123,8.503-3.123,12.705v24.454c0,18.004,14.647,32.651,32.651,32.651h90.393
			C215.621,144.755,230.268,130.107,230.268,112.103z M230.202,49.099c7.143,10.059,5.172,19.479,1.49,22.956
			c-1.242,1.173-3.229,2.411-6.416,0.231c-3.076-3.703-7.875-6.734-15.168-8.324l-15.943-31.774
			C206.791,34.099,222.885,38.797,230.202,49.099z M167.479,62.751L151.57,31.047h25.239l15.908,31.703H167.479z M127.593,31.047
			h7.195l15.908,31.703h-25.238l-15.113-30.116C119.679,31.148,127.395,31.047,127.593,31.047z M16.782,69.682
			c-0.396-0.373-2.464-7.56-2.562-8.179c0.777-0.788,4.163-3.364,17.54-7.17c5.063-1.441,10.229-1.607,14.918-1.168
			c-6.475,2.57-13.463,6.472-19.375,12.384c-1.543,1.543-2.955,3.004-4.256,4.399C18.028,70.533,16.794,69.691,16.782,69.682z
			 M47.409,85.654c-10.66,10.661-14.422,11.201-15.068,11.201c0,0-5.877-5.407-6.264-5.9c0.295-1.067,2-4.966,11.834-14.799
			c6.186-6.187,14.332-9.444,20.625-11.14C56.833,71.324,53.571,79.493,47.409,85.654z M95.372,36.24l13.219,26.341
			c-9.613,0.468-24.768,0.865-29.841-3.952c-0.737-0.7-1.492-1.721-1.492-3.976C77.258,45.3,85.532,39.652,95.372,36.24z
			 M89.573,112.103V87.649c0-3.941,0-9.898,17.651-9.898h90.393c17.65,0,17.65,5.957,17.65,9.898v24.454
			c0,9.733-7.918,17.651-17.65,17.651h-90.393C97.491,129.755,89.573,121.837,89.573,112.103z"/>
		<path d="M157.722,87.453c-1.399-1.4-3.33-2.2-5.299-2.2c-1.971,0-3.91,0.8-5.311,2.2c-1.391,1.39-2.189,3.33-2.189,5.3
			c0,1.979,0.799,3.91,2.189,5.3c1.4,1.4,3.33,2.2,5.311,2.2c1.969,0,3.909-0.8,5.299-2.2c1.4-1.39,2.201-3.33,2.201-5.3
			C159.923,90.783,159.122,88.852,157.722,87.453z"/>
		<path d="M119.882,85.253c-1.979,0-3.91,0.8-5.3,2.2c-1.399,1.39-2.2,3.33-2.2,5.3c0,1.979,0.801,3.91,2.2,5.3
			c1.39,1.4,3.32,2.2,5.3,2.2c1.971,0,3.91-0.8,5.301-2.2c1.399-1.39,2.199-3.33,2.199-5.3c0-1.97-0.8-3.9-2.199-5.3
			C123.782,86.052,121.852,85.253,119.882,85.253z"/>
		<path d="M192.461,92.753c0-1.97-0.799-3.91-2.199-5.3c-1.391-1.4-3.33-2.2-5.301-2.2c-1.969,0-3.898,0.8-5.299,2.2
			c-1.4,1.399-2.201,3.33-2.201,5.3c0,1.979,0.801,3.91,2.201,5.3c1.389,1.4,3.32,2.2,5.299,2.2c1.98,0,3.91-0.8,5.301-2.2
			C191.662,96.663,192.461,94.732,192.461,92.753z"/>
		<path d="M138.423,107.253c-1.98,0-3.91,0.8-5.311,2.19c-1.391,1.399-2.189,3.329-2.189,5.31c0,1.97,0.799,3.9,2.189,5.3
			c1.4,1.391,3.33,2.2,5.311,2.2c1.969,0,3.899-0.81,5.299-2.2c1.4-1.399,2.201-3.33,2.201-5.3c0-1.98-0.801-3.91-2.201-5.31
			C142.322,108.052,140.391,107.253,138.423,107.253z"/>
		<path d="M166.422,107.253c-1.971,0-3.91,0.8-5.3,2.19c-1.4,1.399-2.199,3.329-2.199,5.31c0,1.97,0.799,3.9,2.199,5.3
			c1.391,1.391,3.33,2.2,5.3,2.2c1.98,0,3.91-0.81,5.311-2.2c1.389-1.399,2.189-3.33,2.189-5.3c0-1.97-0.801-3.91-2.189-5.31
			C170.332,108.052,168.391,107.253,166.422,107.253z"/>
		<path d="M108.872,107.253c-1.97,0-3.9,0.8-5.3,2.19c-1.39,1.399-2.19,3.329-2.19,5.31c0,1.97,0.801,3.91,2.19,5.3
			c1.399,1.391,3.33,2.2,5.3,2.2c1.98,0,3.91-0.81,5.311-2.2c1.399-1.39,2.199-3.33,2.199-5.3c0-1.98-0.8-3.91-2.199-5.31
			C112.782,108.052,110.852,107.253,108.872,107.253z"/>
		<path d="M203.461,114.753c0-1.98-0.799-3.91-2.199-5.31c-1.391-1.391-3.32-2.19-5.301-2.19c-1.969,0-3.898,0.8-5.299,2.19
			c-1.4,1.399-2.201,3.329-2.201,5.31c0,1.97,0.801,3.9,2.201,5.3c1.389,1.391,3.33,2.2,5.299,2.2c1.98,0,3.91-0.81,5.301-2.2
			C202.662,118.663,203.461,116.722,203.461,114.753z"/>
	</g>
</g>
<g>
</g>
<g>
</g>
<g>
</g>
<g>
</g>
<g>
</g>
<g>
</g>
<g>
</g>
<g>
</g>
<g>
</g>
<g>
</g>
<g>
</g>
<g>
</g>
<g>
</g>
<g>
</g>
<g>
</g>
</svg>
