<svg xmlns="http://www.w3.org/2000/svg" xmlns:xlink="http://www.w3.org/1999/xlink" version="1.1" x="0px" y="0px" viewBox="0 0 100 125" enable-background="new 0 0 100 100" xml:space="preserve"><g><path d="M33.2,43.4c-0.3,0.2-0.3,0.6-0.1,0.8c0,0,3.6,4.7,0,10.7c-0.2,0.3-0.1,0.6,0.2,0.8c0.1,0.1,0.2,0.1,0.3,0.1   c0.2,0,0.4-0.1,0.5-0.3c4.1-6.7,0-12,0-12C33.9,43.2,33.5,43.2,33.2,43.4z"/><path d="M91.1,65.3c-1.5-2.1-2.1-3.1-2.5-3.5c0,0,0,0,0-0.1l0,0c0,0,0,0,0,0l0,0c-0.8-1.3-1.3-6.4-1.4-8.4c0.6-1.6,0.2-4.6,0.2-5.2   c0.2-1.6,1.6-7.1,2.4-9.5c0.5-1.7,1.8-2.9,3-4c0.5-0.4,0.9-0.9,1.3-1.3c0.9-1,1.2-1.7,1.1-2.2c-0.1-0.3-0.4-0.5-0.6-0.5   c-0.1,0-0.2,0-0.3,0c-8.8,2-12.8,15.2-12.9,15.4c-0.5,1.7-1.2,1.8-1.2,1.8c-0.6,0-2.3-0.5-4.2-1.3c-0.5-1.1-1.5-2-2.4-2.7   c-0.4-0.3-0.9-0.7-1-0.9c-0.2-0.6,0-0.9,0-0.9c0.1-0.2,0.1-0.5,0-0.6c-0.1-0.2-0.4-0.3-0.6-0.3c-1.1,0.2-2.8,1.3-4.2,2.2   c-1.6-0.4-3.2-0.8-5-1.1c-8.5-4.4-20.5-5.1-22.4-5.2c-1-1.1-1.2-3.5-1.2-4.5c1-1.6,0.6-2.4,0.5-2.6c-0.1-0.2-0.4-0.3-0.6-0.3   c-5.4,1-9.3,8.8-9.6,11.5c-1,0.8-1.9,1.8-2.7,2.8c-1.1,1.2-2.2,2.5-3.7,3.4c-2.1,1.3-7.6,1.9-12,2.4c-2.1,0.2-4.1,0.5-5.4,0.7   C5.2,50.4,5,50.7,5,51c0,0.3,0.3,0.6,0.6,0.7C7.4,51.9,9.8,52,13,52c1.6,0,3.3,0,5-0.1c1.3,0.3,3.2,1.1,5.4,2.1   c6.3,2.7,15.8,6.7,27,6.7c0.3,0,0.6,0,0.9,0c1,1.6,3.6,4.1,9.5,5.1c0.2,0,0.5-0.1,0.6-0.3c0.1-0.2,0.1-0.4,0-0.6   c0,0-0.6-0.9-0.8-1.6c-0.1-0.3-0.2-0.6-0.3-0.8c-0.2-0.4-0.4-0.8-0.4-1.5c0-0.2,0-0.5-0.1-0.7c3.3-0.4,6.2-0.9,8.9-1.6   c1.7,0.7,3.4,0.9,5.1,0.7c0.2,0,0.3-0.1,0.4-0.3c0.1-0.1,0.1-0.3,0.1-0.5c0,0-0.2-0.7,0.2-1.8c0,0,0,0,0,0c0.1,0,0.1-0.1,0.2-0.1   c0,0,0,0,0,0c0.9-0.4,1.7-0.7,2.4-1c0.8-0.4,1.6-0.7,2.2-0.9c0.3-0.1,0.6,0,0.7,0.3l1.3,3.2c1.1,2.8,2.8,5.3,5,7.5   c2.3,2.2,5.3,4.9,6.6,4.9c0.5,0,0.8-0.3,0.8-0.6c0.1-0.3,0-0.6-0.3-0.9C93.4,68.6,92.8,67.7,91.1,65.3z M71.4,43.3   c0.2,0.5,0.7,0.9,1.4,1.4c0.2,0.2,0.4,0.3,0.7,0.5c-1.5-0.6-3.2-1.2-4.3-1.6c0.8-0.5,1.5-0.9,2.1-1.2C71.2,42.7,71.3,43,71.4,43.3z    M38.5,30.9c-0.1,0.2-0.2,0.6-0.5,1c-0.1,0.1-0.1,0.2-0.1,0.3c0,0.2-0.1,4,1.7,5.7c0.1,0.1,0.2,0.1,0.4,0.2c0.1,0,9.1,0.3,17.2,3   c-7.6-1.2-15.5-1.9-20.5-1.9c-1.4,0-2.5,0.1-3.3,0.2c-1,0.1-1.8,0.4-2.6,0.8C31.6,37.4,34.6,32.1,38.5,30.9z M52.9,60.7   c0.3,0,0.7,0,1.1,0c1.4,0,3.3-0.1,4.8-0.4c0.1,0.2,0.1,0.4,0.1,0.5c0,1,0.3,1.5,0.5,2c0.1,0.2,0.2,0.4,0.3,0.7   c0.1,0.3,0.2,0.6,0.3,0.8C56,63.5,53.9,62,52.9,60.7z M73.2,58.1c-0.8,0-1.6,0-2.3-0.2c0.8-0.2,1.6-0.5,2.4-0.8   C73.2,57.5,73.2,57.9,73.2,58.1z M87.3,64.7c-2.1-2-3.7-4.4-4.7-7.1l-1.3-3.2c-0.3-0.7-0.9-1.1-1.6-1.1c-0.2,0-0.4,0-0.6,0.1   c-0.7,0.2-1.4,0.6-2.3,1c-0.8,0.3-1.7,0.7-2.7,1.1c-1.5,0.6-5.2,1.7-5.4,1.8c-2.9,0.8-6.1,1.3-9.7,1.7c0,0-0.1,0-0.1,0c0,0,0,0,0,0   c-2.6,0.7-7.2,0.4-7.2,0.4c0,0,0,0,0,0c0,0,0,0,0,0c-0.4,0-0.8,0-1.2,0c-11,0-20.4-4-26.6-6.6c-0.9-0.4-1.8-0.8-2.6-1.1   c3.5-0.1,6.1-0.3,6.2-0.3c0.3,0,0.6-0.3,0.6-0.6s-0.3-0.6-0.6-0.6c-0.1,0-4.4,0.2-9.4,0.4c0,0,0,0,0,0c-1.6,0-3.4,0.1-5,0.1   c-0.5,0-1.1,0-1.6,0c4.7-0.5,9.9-1.1,12.2-2.5c1.7-1,2.8-2.3,4-3.7c1.6-1.9,3.2-3.7,6-4.1c0.7-0.1,1.8-0.2,3.1-0.2   c7.5,0,21.4,1.5,31,4c0.3,0.1,5.3,1.6,7.5,2.9c0,0,0,0,0,0c0,0,0,0,0,0c1.7,0.7,3.9,1.5,4.9,1.5c0.2,0,1.6-0.1,2.3-2.6   c0.9-3.1,4.8-12.1,11-14.3c-0.1,0.1-0.2,0.3-0.4,0.5c-0.4,0.4-0.8,0.8-1.3,1.2c-1.3,1.2-2.7,2.5-3.3,4.6c-0.8,2.5-2.2,8.2-2.4,9.8   c0,0,0,0.1,0,0.1c0.1,0.9,0.4,3.6-0.1,4.8c0,0.1,0,0.2,0,0.3c0.1,0.7,0.6,7.2,1.6,9c0,0,0,0.1,0.1,0.1c0.3,0.4,3.4,4.7,4.6,6.5   C91.3,68.3,89.8,67.2,87.3,64.7z"/><path d="M29.4,45.1c-1.3,0-2.4,1.1-2.4,2.4c0,1.3,1.1,2.4,2.4,2.4c1.3,0,2.4-1.1,2.4-2.4C31.8,46.2,30.7,45.1,29.4,45.1z    M29.4,48.8c-0.7,0-1.2-0.6-1.2-1.2c0-0.7,0.6-1.2,1.2-1.2c0.7,0,1.2,0.6,1.2,1.2C30.6,48.2,30.1,48.8,29.4,48.8z"/><path d="M51.2,46.8c-0.1,0-10.2,1.8-13.2,2.1c-0.7,0.1-1.3,0.7-1.2,1.4c0.1,0.9,0.5,1.6,1.3,2c0.2,0.1,0.6,0.2,1.1,0.2   c3.1,0,10.7-2.7,12.6-4.8c0.2-0.2,0.2-0.5,0.1-0.7C51.7,46.9,51.4,46.7,51.2,46.8z M38.7,51.3c-0.4-0.2-0.7-0.6-0.7-1.1   c0-0.1,0.1-0.2,0.1-0.2c2.2-0.2,7.5-1.1,10.8-1.7C45.4,50.2,39.5,51.7,38.7,51.3z"/><circle cx="29.3" cy="47.6" r="0.6"/></g><text x="0" y="115" fill="#000000" font-size="5px" font-weight="bold" font-family="'Helvetica Neue', Helvetica, Arial-Unicode, Arial, Sans-serif">Created by parkjisun</text><text x="0" y="120" fill="#000000" font-size="5px" font-weight="bold" font-family="'Helvetica Neue', Helvetica, Arial-Unicode, Arial, Sans-serif">from the Noun Project</text></svg>