<?xml version="1.0"?>
<svg xmlns="http://www.w3.org/2000/svg" xmlns:xlink="http://www.w3.org/1999/xlink" version="1.1" id="Capa_1" x="0px" y="0px" viewBox="0 0 512 512" style="enable-background:new 0 0 512 512;" xml:space="preserve" width="512px" height="512px" class=""><g><g transform="matrix(1.25 0 0 -1.25 0 45)">
	<g>
		<g>
			<path style="fill:#AAAAAA" d="M409.6-328.089c0-25.134-20.378-45.511-45.511-45.511H45.511C20.378-373.6,0-353.222,0-328.089     V-9.511C0,15.622,20.378,36,45.511,36h318.578C389.222,36,409.6,15.622,409.6-9.511V-328.089z" data-original="#3B88C3" class="active-path" data-old_color="#3B88C3"/>
			<g>
				<path style="fill:#F5F8FA" d="M82.068-88.928H59.79c-18.113,0-25.657,13.221-25.657,26.044      c0,13.198,9.432,26.032,25.657,26.032h53.589c16.225,0,25.293-11.696,25.293-26.783v-214.756      c0-18.864-12.072-29.423-28.308-29.423c-16.213,0-28.297,10.559-28.297,29.423V-88.928z" data-original="#F5F8FA" class=""/>
				<path style="fill:#F5F8FA" d="M313.867-171.144c0,28.683-2.64,87.563-41.142,87.563c-38.491,0-41.131-58.88-41.131-87.563      c0-26.795,2.64-87.552,41.131-87.552C311.228-258.696,313.867-197.938,313.867-171.144 M172.715-171.144      c0,61.52,23.78,138.877,100.011,138.877s100.022-77.358,100.022-138.877c0-61.508-23.791-138.889-100.022-138.889      S172.715-232.652,172.715-171.144" data-original="#F5F8FA" class=""/>
			</g>
		</g>
	</g>
</g></g> </svg>
