<?xml version="1.0" encoding="iso-8859-1"?>
<!-- Generator: Adobe Illustrator 17.1.0, SVG Export Plug-In . SVG Version: 6.00 Build 0)  -->
<!DOCTYPE svg PUBLIC "-//W3C//DTD SVG 1.1//EN" "http://www.w3.org/Graphics/SVG/1.1/DTD/svg11.dtd">
<svg version="1.1" id="Capa_1" xmlns="http://www.w3.org/2000/svg" xmlns:xlink="http://www.w3.org/1999/xlink" x="0px" y="0px"
	 viewBox="0 0 462.176 462.176" style="enable-background:new 0 0 462.176 462.176;" xml:space="preserve">
<g>
	<path d="M456.512,258.303l-9.733-2.461c1.168-8.18,0.638-15.09-0.419-20.424l5.902,0.534c0.229,0.021,0.458,0.031,0.685,0.031
		c3.837,0,7.108-2.929,7.461-6.825c0.373-4.125-2.669-7.772-6.794-8.146l-17.277-1.563c-0.003,0-0.005-0.001-0.008-0.001
		l-55.103-4.985c0.586-18.287-2.166-35.748-8.048-51.751l38.45-38.449c20.321-20.323,20.321-53.391,0-73.714
		c-9.846-9.845-22.935-15.267-36.857-15.267s-27.012,5.422-36.857,15.267l-38.508,38.508c-14.627-5.38-30.464-8.194-46.918-8.194
		c-1.58,0-3.174,0.035-4.773,0.086l-4.985-55.102l-1.563-17.286c-0.373-4.125-4.028-7.162-8.146-6.794
		c-4.125,0.374-7.167,4.02-6.794,8.146l0.534,5.903c-5.334-1.057-12.244-1.587-20.424-0.419l-2.461-9.734
		c-1.015-4.016-5.091-6.45-9.11-5.433c-4.016,1.015-6.447,5.094-5.433,9.109l2.461,9.734c-7.752,2.861-13.58,6.61-17.77,10.075
		l-2.336-5.447c-1.633-3.806-6.042-5.571-9.849-3.938c-3.808,1.632-5.57,6.042-3.938,9.849l6.84,15.952l14.523,33.874
		c1.633,3.806,6.043,5.57,9.849,3.938c3.808-1.632,5.57-6.042,3.938-9.849l-12.774-29.792c3.224-3.458,10.153-9.256,22.368-12.344
		c12.231-3.094,21.097-1.274,25.545,0.224l4.573,50.542c-36.731,4.758-72.067,22.561-100.054,50.549
		c-15.825,15.825-28.391,34.001-37.189,53.449l-49.95-21.417c-0.002-0.001-0.004-0.001-0.006-0.002l-15.947-6.837
		c-3.807-1.631-8.215,0.131-9.849,3.938c-1.632,3.807,0.131,8.216,3.938,9.849l5.447,2.335c-3.465,4.191-7.215,10.019-10.076,17.772
		l-9.734-2.461c-4.007-1.016-8.094,1.416-9.109,5.433c-1.015,4.016,1.417,8.094,5.434,9.109l9.734,2.461
		c-1.168,8.18-0.639,15.09,0.419,20.424l-5.902-0.534c-4.122-0.366-7.772,2.668-8.146,6.794c-0.373,4.125,2.669,7.772,6.794,8.146
		l17.277,1.563c0.003,0,0.005,0.001,0.008,0.001l37.417,3.385c0.229,0.021,0.458,0.031,0.685,0.031c3.837,0,7.108-2.929,7.461-6.825
		c0.373-4.125-2.669-7.772-6.794-8.146l-32.994-2.984c-1.511-4.48-3.317-13.333-0.229-25.546
		c3.093-12.235,8.906-19.168,12.338-22.37l46.209,19.813c-4.363,12.47-7.217,25.336-8.421,38.339
		c-3.12,33.723,4.937,65.065,22.86,90.228l-34.551,34.551c-3.892,3.893-6.036,9.067-6.036,14.572s2.145,10.68,6.036,14.572
		c3.893,3.893,9.067,6.037,14.572,6.037c0.001,0,0,0,0.001,0c5.504,0,10.68-2.144,14.572-6.036l34.575-34.576
		c21.575,15.287,47.954,23.541,76.144,23.541c4.629,0,9.359-0.221,14.061-0.655c13.003-1.203,25.868-4.057,38.339-8.421
		l19.808,46.196c-3.218,3.433-10.184,9.271-22.365,12.35c-12.233,3.093-21.097,1.273-25.545-0.224l-2.985-33
		c-0.373-4.125-4.026-7.16-8.146-6.794c-4.125,0.374-7.167,4.02-6.794,8.146l3.385,37.416l1.563,17.286
		c0.353,3.896,3.624,6.825,7.461,6.825c0.227,0,0.455-0.01,0.685-0.031c4.125-0.374,7.167-4.02,6.794-8.146l-0.534-5.907
		c3.216,0.638,6.99,1.091,11.285,1.091c2.83,0,5.888-0.204,9.139-0.668l2.461,9.734c0.859,3.399,3.913,5.664,7.266,5.664
		c0.608,0,1.228-0.075,1.845-0.231c4.016-1.015,6.447-5.094,5.433-9.109l-2.461-9.735c7.752-2.86,13.58-6.61,17.77-10.075
		l2.336,5.447c1.22,2.843,3.987,4.546,6.897,4.546c0.985,0,1.988-0.196,2.951-0.609c3.808-1.632,5.57-6.042,3.938-9.849
		l-6.84-15.952l-21.417-49.951c19.448-8.799,37.624-21.365,53.449-37.19c27.986-27.987,45.79-63.323,50.548-100.053l50.536,4.571
		c1.511,4.48,3.317,13.333,0.229,25.546c-3.093,12.235-8.906,19.168-12.338,22.37l-29.797-12.776
		c-3.808-1.631-8.217,0.13-9.85,3.938c-1.632,3.807,0.131,8.216,3.938,9.849l33.873,14.524c0.002,0.001,0.005,0.002,0.007,0.003
		l15.946,6.837c0.964,0.413,1.965,0.609,2.951,0.609c2.909,0,5.678-1.704,6.897-4.546c1.632-3.807-0.131-8.216-3.938-9.849
		l-5.447-2.335c3.465-4.191,7.215-10.019,10.076-17.772l9.734,2.461c0.616,0.156,1.234,0.231,1.844,0.231
		c3.353,0,6.406-2.265,7.266-5.664C462.96,263.397,460.528,259.318,456.512,258.303z M348.52,61.156
		c7.012-7.012,16.334-10.874,26.25-10.874s19.238,3.862,26.25,10.874c14.474,14.475,14.474,38.026,0,52.501l-34.35,34.35
		c-5.779-11.075-13.21-21.254-22.228-30.272c-8.953-8.953-19.166-16.39-30.316-22.185L348.52,61.156z M88.365,381.742
		c-1.059,1.059-2.467,1.643-3.965,1.643s-2.906-0.583-3.967-1.644c-1.059-1.059-1.643-2.467-1.643-3.965s0.584-2.906,1.644-3.966
		l33.432-33.432c1.259,1.376,2.541,2.736,3.868,4.063c1.325,1.325,2.682,2.611,4.061,3.87L88.365,381.742z M318.862,318.863
		c-26.953,26.954-61.222,43.595-96.492,46.858c-4.244,0.393-8.509,0.592-12.679,0.592c-27.514,0-52.177-8.324-72.063-24.184
		c-0.061-0.051-0.124-0.1-0.187-0.149c-3.155-2.528-6.194-5.239-9.1-8.145c-23.956-23.956-35.281-57.349-31.888-94.029
		c3.265-35.271,19.905-69.54,46.859-96.493c26.953-26.954,61.222-43.595,96.493-46.858c4.243-0.393,8.509-0.592,12.679-0.592
		c16.169,0,31.353,2.877,45.163,8.464c0.513,0.286,1.051,0.509,1.606,0.665c12.859,5.442,24.496,13.265,34.58,23.349
		c23.956,23.955,35.28,57.348,31.888,94.029C362.457,257.64,345.817,291.909,318.862,318.863z"/>
	<path d="M343.651,193.162l-53.065,14.219l-35.791-35.791l14.219-53.065c1.072-4.001-1.302-8.114-5.303-9.186
		c-4.004-1.069-8.113,1.302-9.186,5.303l-15.34,57.248c-0.693,2.588,0.046,5.35,1.94,7.245l38.854,38.854l-13.101,48.892
		l-48.891,13.1l-35.792-35.792l13.101-48.891l30.767-8.244c4.001-1.072,6.375-5.185,5.303-9.186c-1.071-4-5.185-6.374-9.186-5.303
		l-30.766,8.244l-28.392-28.392c-2.93-2.929-7.678-2.929-10.607,0c-2.929,2.929-2.929,7.678,0,10.606l28.393,28.393l-13.1,48.891
		l-53.066,14.219c-4.001,1.072-6.375,5.185-5.303,9.186c1.071,4.001,5.185,6.375,9.186,5.304l53.065-14.219l35.791,35.791
		l-14.219,53.065c-1.072,4.001,1.302,8.114,5.303,9.186c0.65,0.174,1.304,0.257,1.946,0.257c3.312,0,6.342-2.21,7.239-5.561
		l14.219-53.065l48.892-13.101l28.455,28.455c1.465,1.464,3.385,2.197,5.304,2.197s3.839-0.732,5.304-2.197
		c2.929-2.929,2.929-7.678,0-10.606l-28.456-28.456l13.1-48.891l53.066-14.219c4.001-1.072,6.375-5.185,5.303-9.186
		C351.766,194.464,347.653,192.093,343.651,193.162z"/>
</g>
<g>
</g>
<g>
</g>
<g>
</g>
<g>
</g>
<g>
</g>
<g>
</g>
<g>
</g>
<g>
</g>
<g>
</g>
<g>
</g>
<g>
</g>
<g>
</g>
<g>
</g>
<g>
</g>
<g>
</g>
</svg>
