<?xml version="1.0" encoding="iso-8859-1"?>
<!-- Generator: Adobe Illustrator 19.0.0, SVG Export Plug-In . SVG Version: 6.00 Build 0)  -->
<svg version="1.1" id="Capa_1" xmlns="http://www.w3.org/2000/svg" xmlns:xlink="http://www.w3.org/1999/xlink" x="0px" y="0px"
	 viewBox="0 0 463 463" style="enable-background:new 0 0 463 463;" xml:space="preserve">
<g>
	<path d="M239,160.187V63h40.5c12.958,0,23.5-10.542,23.5-23.5S292.458,16,279.5,16h-38.312c-4.853,0-9.552-1.423-13.59-4.115
		l-11.906-7.937C211.819,1.365,207.312,0,202.655,0H183.5C170.542,0,160,10.542,160,23.5v16c0,12.958,10.542,23.5,23.5,23.5H224
		v97.187C143.933,164.109,80,230.478,80,311.5C80,395.037,147.962,463,231.5,463S383,395.037,383,311.5
		C383,230.478,319.067,164.109,239,160.187z M175,39.5v-16c0-4.687,3.813-8.5,8.5-8.5h19.155c1.684,0,3.314,0.493,4.716,1.428
		l11.907,7.938c6.51,4.341,14.086,6.635,21.911,6.635H279.5c4.687,0,8.5,3.813,8.5,8.5s-3.813,8.5-8.5,8.5h-96
		C178.813,48,175,44.187,175,39.5z M231.5,448C156.234,448,95,386.767,95,311.5S156.234,175,231.5,175S368,236.233,368,311.5
		S306.766,448,231.5,448z"/>
	<path d="M351.001,311.5c0-0.009-0.001-0.017-0.001-0.026C350.986,245.594,297.384,192,231.5,192
		c-65.888,0-119.493,53.6-119.5,119.487c0,0.004-0.001,0.009-0.001,0.013s0.001,0.009,0.001,0.013
		C112.007,377.4,165.612,431,231.5,431c65.884,0,119.486-53.594,119.5-119.474C351,311.517,351.001,311.509,351.001,311.5z
		 M310.472,379.866l-52.041-52.041c1.644-2.702,2.886-5.672,3.659-8.824h73.638C334.076,342.182,324.834,363.298,310.472,379.866z
		 M127.272,319h73.638c0.773,3.153,2.016,6.123,3.66,8.825l-42.363,42.362c-0.006,0.006-0.013,0.013-0.019,0.019l-9.66,9.659
		C138.166,363.298,128.924,342.182,127.272,319z M152.528,243.135l52.041,52.042c-1.644,2.702-2.886,5.672-3.659,8.824h-73.638
		C128.924,280.818,138.166,259.702,152.528,243.135z M212.319,341.29l-9.895,26.386c-0.073,0.194-0.261,0.324-0.468,0.324h-16.348
		L212.319,341.29z M233.365,327.887l5.158-13.753c1.455-3.879-0.511-8.202-4.389-9.656c-3.879-1.454-8.202,0.51-9.656,4.389
		l-5.15,13.734c-2.678-2.934-4.327-6.823-4.327-11.1c0-9.098,7.402-16.5,16.5-16.5s16.5,7.402,16.5,16.5
		C248,319.966,241.587,326.957,233.365,327.887z M250.679,281.715l9.896-26.39c0.073-0.194,0.261-0.324,0.468-0.324h16.35
		L250.679,281.715z M292.394,240h-31.35c-6.425,0-12.258,4.042-14.513,10.058L239,270.139v-62.868
		c23.182,1.652,44.298,10.894,60.866,25.256L292.394,240z M224,280.909c-3.153,0.773-6.123,2.016-8.825,3.66l-52.041-52.042
		c16.567-14.362,37.684-23.604,60.866-25.256V280.909z M170.608,383h31.348c6.424,0,12.257-4.041,14.513-10.057L224,352.86v62.868
		c-23.181-1.652-44.298-10.894-60.865-25.255L170.608,383z M239,342.091c3.152-0.773,6.122-2.015,8.824-3.659l52.041,52.041
		c-16.567,14.361-37.684,23.604-60.865,25.256V342.091z M262.091,304c-0.773-3.152-2.015-6.122-3.659-8.824l52.041-52.041
		c14.361,16.568,23.604,37.684,25.256,60.865H262.091z"/>
</g>
<g>
</g>
<g>
</g>
<g>
</g>
<g>
</g>
<g>
</g>
<g>
</g>
<g>
</g>
<g>
</g>
<g>
</g>
<g>
</g>
<g>
</g>
<g>
</g>
<g>
</g>
<g>
</g>
<g>
</g>
</svg>
