<?xml version="1.0" encoding="iso-8859-1"?>
<!-- Generator: Adobe Illustrator 19.0.0, SVG Export Plug-In . SVG Version: 6.00 Build 0)  -->
<svg version="1.1" id="Capa_1" xmlns="http://www.w3.org/2000/svg" xmlns:xlink="http://www.w3.org/1999/xlink" x="0px" y="0px"
	 viewBox="0 0 512 512" style="enable-background:new 0 0 512 512;" xml:space="preserve">
<g>
	<g>
		<path d="M405.392,170.049c-19.787-24.408-47.318-41.654-81.892-51.317V45h2.5c12.406,0,22.5-10.094,22.5-22.5S338.406,0,326,0H186
			c-12.407,0-22.5,10.094-22.5,22.5S173.593,45,186,45h2.5v73.731c-34.573,9.663-62.104,26.909-81.892,51.317
			c-21.969,27.1-33.108,61.59-33.108,102.51v1.596l90,201.942V512h185v-35.904l90-201.942v-1.596
			C438.5,231.638,427.36,197.148,405.392,170.049z M186,30c-4.136,0-7.5-3.364-7.5-7.5s3.364-7.5,7.5-7.5h140
			c4.136,0,7.5,3.364,7.5,7.5S330.136,30,326,30h-10h-7.5h-105H196H186z M203.5,58.667V45h105v13.667H203.5z M308.5,73.667v13.666
			h-105V73.667H308.5z M333.5,497h-155v-15h155V497z M336.131,467H175.869L125.49,353.961c0.337,0.017,0.674,0.039,1.01,0.039
			c14.194,0,21.459-8.019,27.297-14.462c5.52-6.092,8.993-9.538,16.193-9.538s10.673,3.446,16.192,9.536
			C192.022,345.98,199.291,354,213.49,354c14.199,0,21.468-8.02,27.308-14.464c5.52-6.09,8.993-9.536,16.192-9.536
			c7.199,0,10.673,3.446,16.192,9.536C279.022,345.98,286.29,354,300.49,354c14.2,0,21.468-8.02,27.308-14.464
			c5.52-6.09,8.993-9.536,16.192-9.536s10.673,3.446,16.192,9.536c5.701,6.291,12.781,14.062,26.325,14.429L336.131,467z
			 M393.681,337.87c-1.862,0.765-3.873,1.13-6.191,1.13c-7.199,0-10.673-3.446-16.192-9.536C365.458,323.02,358.19,315,343.99,315
			s-21.468,8.02-27.308,14.464c-5.52,6.09-8.993,9.536-16.192,9.536s-10.673-3.446-16.192-9.536
			C278.458,323.02,271.19,315,256.99,315s-21.468,8.02-27.308,14.464c-5.52,6.09-8.993,9.536-16.192,9.536
			c-7.199,0-10.673-3.446-16.192-9.536C191.458,323.02,184.19,315,169.99,315c-14.202,0-21.469,8.021-27.309,14.466
			c-5.517,6.089-8.988,9.534-16.182,9.534c-2.375,0-6.172-1.512-9.004-2.977L95.99,287.767c0.586,0.601,1.187,1.228,1.816,1.892
			c6.056,6.39,13.593,14.341,27.692,14.341c14.199,0,21.465-8.02,27.305-14.464c5.518-6.091,8.991-9.536,16.188-9.536
			c7.199,0,10.673,3.446,16.192,9.536C191.022,295.98,198.29,304,212.489,304c14.2,0,21.467-8.02,27.307-14.464
			c5.519-6.09,8.993-9.536,16.192-9.536c7.199,0,10.673,3.446,16.192,9.536C278.02,295.98,285.288,304,299.489,304
			s21.468-8.02,27.308-14.464c5.52-6.09,8.993-9.536,16.192-9.536c7.2,0,10.675,3.446,16.194,9.536
			c5.841,6.444,13.11,14.464,27.311,14.464c14.101,0,21.639-7.951,27.695-14.34c0.632-0.667,1.235-1.296,1.824-1.9L393.681,337.87z
			 M403.305,279.34c-5.85,6.17-9.514,9.66-16.811,9.66c-7.201,0-10.676-3.446-16.196-9.537C364.458,273.02,357.189,265,342.989,265
			c-14.2,0-21.468,8.02-27.308,14.464c-5.52,6.09-8.993,9.536-16.192,9.536c-7.2,0-10.674-3.446-16.193-9.537
			C277.456,273.02,270.187,265,255.988,265c-14.2,0-21.467,8.02-27.307,14.464c-5.519,6.09-8.993,9.536-16.192,9.536
			c-7.199,0-10.672-3.446-16.191-9.536C190.458,273.02,183.19,265,168.991,265c-14.198,0-21.465,8.02-27.304,14.464
			c-5.519,6.091-8.991,9.536-16.189,9.536c-7.294,0-10.958-3.49-16.806-9.659c-4.858-5.125-10.677-11.245-20.062-13.471
			c2.313-69.5,40.866-116.996,109.19-134.091l5.68-1.421v-28.025h105v28.025l5.68,1.421c68.324,17.094,106.878,64.59,109.19,134.091
			C413.983,268.095,408.163,274.215,403.305,279.34z"/>
	</g>
</g>
<g>
	<g>
		<rect x="278.5" y="117" width="15" height="15"/>
	</g>
</g>
<g>
	<g>
		<rect x="248.5" y="117" width="15" height="15"/>
	</g>
</g>
<g>
	<g>
		<rect x="218.5" y="117" width="15" height="15"/>
	</g>
</g>
<g>
</g>
<g>
</g>
<g>
</g>
<g>
</g>
<g>
</g>
<g>
</g>
<g>
</g>
<g>
</g>
<g>
</g>
<g>
</g>
<g>
</g>
<g>
</g>
<g>
</g>
<g>
</g>
<g>
</g>
</svg>
