<?xml version="1.0" encoding="iso-8859-1"?>
<!-- Generator: Adobe Illustrator 19.0.0, SVG Export Plug-In . SVG Version: 6.00 Build 0)  -->
<svg version="1.1" id="Capa_1" xmlns="http://www.w3.org/2000/svg" xmlns:xlink="http://www.w3.org/1999/xlink" x="0px" y="0px"
	 viewBox="0 0 402.8 402.8" style="enable-background:new 0 0 402.8 402.8;" xml:space="preserve">
<g>
	<g>
		<g>
			<path d="M186,87.2c-31.6,0-60,12.8-80.4,33.2C84.8,141.2,72,169.6,72,201.2c0,31.6,12.8,60,33.2,80.4
				c20.8,20.8,49.2,33.2,80.4,33.2c31.6,0,60-12.8,80.4-33.2c20.8-20.8,33.2-49.2,33.2-80.4c0-31.6-12.8-60-33.2-80.4
				C246,100,217.2,87.2,186,87.2z M272.4,208.8h12.4c-2,24.4-12.8,46-28.8,62.4c-16.4,16.4-38,26.8-62.4,28.8v-12.4
				c0-4-3.2-7.6-7.6-7.6c-4,0-7.6,3.2-7.6,7.6V300c-24.4-2-46-12.4-62.4-28.8c-16.4-16.4-26.8-38-28.8-62.4h12.4
				c4,0,7.6-3.2,7.6-7.6c0-4-3.2-7.6-7.6-7.6H87.2c2-24.4,12.4-46,28.8-62.4c16.4-16.4,38-26.8,62.4-28.8v12.4c0,4,3.2,7.6,7.6,7.6
				c4,0,7.6-3.2,7.6-7.6v-12.4c24.4,2,46,12.4,62.4,28.8c16.4,16.4,26.8,38,28.8,62.4h-12.4c-4,0-7.6,3.2-7.6,7.6
				C264.8,205.2,268,208.8,272.4,208.8z"/>
			<path d="M193.6,182.8v-45.2c0-4-3.2-7.6-7.6-7.6c-4,0-7.6,3.2-7.6,7.6v45.2c-2.4,1.2-4.8,2.4-6.4,4.4c-2,2-3.2,4-4.4,6.4H134
				c-4,0-7.6,3.2-7.6,7.6c0,4,3.2,7.6,7.6,7.6h33.6c0.8,2.4,2.4,4.4,4,6l0.4,0.4c3.6,3.6,8.4,6,14,6c5.6,0,10.4-2.4,14-6
				c3.6-3.6,6-8.4,6-14c0-5.6-2.4-10.4-6-14C198,185.2,196,184,193.6,182.8z M189.2,204.8c-0.8,0.8-2,1.6-3.6,1.6
				c-1.2,0-2.4-0.4-3.6-1.6l-0.4-0.4c-0.8-0.8-1.2-2-1.2-3.2s0.4-2.4,1.2-3.6c0.8-0.8,2-1.2,3.6-1.2c1.2,0,2.4,0.4,3.6,1.6
				c0.8,0.8,1.6,2,1.6,3.6C190.8,202.4,190.4,203.6,189.2,204.8z"/>
			<path d="M357.2,173.6c-3.2-3.2-8-5.2-12.8-5.2h-16.8c-6.4-26.8-20-50.8-38.8-70c-2.4-2.4-5.2-5.2-8-7.6v-62
				c0-8-3.2-15.2-8.4-20.4S260,0,252,0H120c-8,0-15.2,3.2-20.4,8.4s-8.4,12.4-8.4,20.4v62.4c-2.8,2.4-5.6,4.8-8,7.6
				c-26.4,26-42.8,62.4-42.8,102.4S56.8,277.6,83.2,304c2.4,2.4,5.2,5.2,8,7.6V374c0,8,3.2,15.2,8.4,20.4c5.2,5.2,12.4,8.4,20.4,8.4
				h132c7.6,0,14.8-3.2,20-8l0.4-0.4c5.2-5.2,8.4-12.4,8.4-20.4v-62.4c2.8-2.4,5.6-4.8,8-7.6c18.8-18.8,32.4-42.8,38.8-70h16.8
				c4.8,0,9.6-2,12.8-5.2s5.2-8,5.2-12.8v-29.6C362.4,181.2,360.4,176.8,357.2,173.6z M106,28.8c0-3.6,1.6-7.2,4-9.6
				c2.4-2.4,6-4,9.6-4h132c3.6,0,7.2,1.6,9.6,4c2.4,2.4,4,6,4,9.6v50.8c-0.4,0-0.4-0.4-0.8-0.4c-2-1.2-3.6-2.4-5.6-3.6
				c-0.4-0.4-1.2-0.4-1.6-0.8c-2-1.2-4-2.4-6-3.2c-0.4,0-0.8-0.4-1.2-0.4c-5.2-2.4-10-4.8-15.6-6.4c-0.4,0-1.2-0.4-1.6-0.4
				c-2.8-0.8-5.6-2-8.4-2.8c-0.4,0-1.2-0.4-1.6-0.4c-1.2-0.4-2.4-0.4-3.6-0.8c-1.2-0.4-2-0.4-3.2-0.8c-1.2-0.4-2.4-0.4-3.2-0.8
				c-1.2-0.4-2.4-0.4-3.6-0.8c-1.2,0-2-0.4-3.2-0.4s-2.4-0.4-4-0.4c-0.8,0-2-0.4-2.8-0.4c-1.6,0-2.8-0.4-4.4-0.4c-0.8,0-1.6,0-2.4,0
				c-2.4,0-4.8,0-6.8,0c-2.4,0-4.8,0-6.8,0c-0.8,0-1.6,0-2.4,0c-1.6,0-2.8,0-4.4,0.4c-0.8,0-2,0.4-2.8,0.4c-1.2,0-2.4,0.4-4,0.4
				c-1.2,0-2,0.4-3.2,0.4s-2.4,0.4-3.6,0.8c-1.2,0.4-2.4,0.4-3.2,0.8c-1.2,0.4-2,0.4-3.2,0.8c-1.2,0.4-2.4,0.4-3.6,0.8
				c-0.8,0-1.2,0.4-1.6,0.4c-2.8,0.8-5.6,1.6-8.4,2.8c-0.4,0-1.2,0.4-1.6,0.4c-5.2,2-10.4,4-15.6,6.4c-0.4,0-0.8,0.4-1.2,0.4
				c-2,1.2-4,2-6,3.2c-0.4,0.4-1.2,0.4-1.6,0.8c-2,1.2-4,2.4-5.6,3.6c0,0-0.4,0-0.8,0.4V28.8z M265.6,373.6c0,3.6-1.6,7.2-4,9.6
				l-0.4,0.4c-2.4,2.4-5.6,3.6-9.6,3.6h-132c-3.6,0-7.2-1.6-9.6-4c-2.4-2.4-4-6-4-9.6v-50.8c0.4,0.4,0.8,0.4,0.8,0.4
				c2,1.2,3.6,2.4,5.6,3.6c0.4,0.4,1.2,0.8,1.6,0.8c2,1.2,4,2,6,3.2c0.4,0.4,0.8,0.4,1.2,0.8c4.8,2.4,10,4.8,15.6,6.4
				c0.4,0.4,1.2,0.4,1.6,0.4c2.4,0.8,5.2,1.6,8,2.4c0.8,0.4,1.6,0.4,2.4,0.8c1.2,0.4,2.4,0.4,3.6,0.8c1.2,0.4,2,0.4,3.2,0.8
				c1.2,0.4,2,0.4,3.2,0.8c1.2,0.4,2.4,0.4,3.6,0.8c1.2,0,2,0.4,3.2,0.4c1.2,0,2.4,0.4,4,0.4c0.8,0,2,0.4,2.8,0.4
				c1.6,0,2.8,0.4,4.4,0.4c0.8,0,1.6,0,2.4,0c2.4,0,4.8,0,6.8,0c2.4,0,4.8,0,6.8,0c0.8,0,1.6,0,2.4,0c1.6,0,2.8,0,4.4-0.4
				c0.8,0,2-0.4,2.8-0.4c1.2,0,2.4-0.4,4-0.4c1.2,0,2-0.4,3.2-0.4s2.4-0.4,3.6-0.8c1.2-0.4,2-0.4,3.2-0.8c1.2-0.4,2-0.4,3.2-0.8
				c1.2-0.4,2.4-0.4,3.6-0.8c0.8,0,1.6-0.4,2-0.8c2.8-0.8,5.2-1.6,8-2.4c0.4,0,1.2-0.4,1.6-0.4c5.2-2,10.4-4,15.6-6.4
				c0.4,0,0.8-0.4,1.2-0.8c2-1.2,4-2,6-3.2c0.4-0.4,1.2-0.8,1.6-0.8c2-1.2,3.6-2.4,5.6-3.6c0.4,0,0.4,0,0.8-0.4V373.6z M315.2,220.8
				c0,0.4,0,0.8,0,0.8c-4.4,28-17.6,52.8-36.4,71.6c-3.2,3.2-6.4,6.4-10,9.2c-2.4,2-5.2,4-8,6c-0.4,0-0.4,0.4-0.8,0.4
				c-2.8,2-5.6,3.6-8.4,5.2c-0.4,0.4-1.2,0.8-1.6,0.8c-2.8,1.6-5.6,2.8-8.4,4.4c-0.8,0.4-1.2,0.8-2,0.8c-2.8,1.2-5.6,2.4-8.8,3.6
				c-4,1.2-7.6,2.4-11.6,3.6h-0.4c-1.6,0.4-3.6,0.8-5.2,1.2c-0.4,0-1.2,0.4-1.6,0.4c-1.6,0.4-2.8,0.4-4.4,0.8c-0.8,0-1.2,0.4-2,0.4
				c-1.2,0.4-2.8,0.4-4,0.4c-0.8,0-1.2,0-2,0.4c-1.6,0-2.8,0.4-4.4,0.4c-0.8,0-1.2,0-2,0c-2,0-4,0-6.4,0c-2,0-4.4,0-6.4,0
				c-0.8,0-1.2,0-2,0c-1.6,0-2.8,0-4.4-0.4c-0.8,0-1.6,0-2-0.4c-1.6,0-2.8-0.4-4-0.4c-0.8,0-1.2,0-2-0.4c-1.6-0.4-2.8-0.4-4.4-0.8
				c-0.4,0-1.2-0.4-1.6-0.4c-1.6-0.4-3.6-0.8-5.2-1.2h-0.4c-4-1.2-8-2.4-11.6-3.6c-2.8-1.2-6-2.4-8.8-3.6c-0.8-0.4-1.2-0.8-2-0.8
				c-2.8-1.2-5.6-2.8-8.4-4.4c-0.4-0.4-1.2-0.8-1.6-0.8c-2.8-1.6-5.6-3.2-8.4-5.2c-0.4,0-0.4-0.4-0.8-0.4c-2.8-2-5.2-4-8-6
				c-3.6-2.8-7.2-6-10.4-9.2c-24.4-23.2-38.8-56-38.8-92s14.8-68.8,38.4-92.4c3.2-3.2,6.4-6.4,10-9.2c2.4-2,5.2-4,8-6
				c0.4,0,0.4-0.4,0.8-0.4c2.8-2,5.6-3.6,8.4-5.2c0.4-0.4,1.2-0.8,1.6-0.8c2.8-1.6,5.6-2.8,8.4-4.4c0.8-0.4,1.2-0.8,2-0.8
				c2.8-1.2,5.6-2.4,8.8-3.6c4-1.2,7.6-2.4,11.6-3.6c0.4,0,0.4,0,0.8,0c1.6-0.4,3.6-0.8,5.2-1.2c0.4,0,1.2-0.4,1.6-0.4
				c1.6-0.4,2.8-0.4,4.4-0.8c0.8,0,1.2-0.4,2-0.4c1.2,0,2.8-0.4,4-0.4c0.8,0,1.6,0,2-0.4c1.6,0,2.8-0.4,4.4-0.4c0.8,0,1.2,0,2,0
				c2,0,4,0,6.4,0c2,0,4.4,0,6.4,0c0.8,0,1.2,0,2,0c1.6,0,2.8,0,4.4,0.4c0.8,0,1.6,0,2,0.4c1.2,0,2.8,0.4,4,0.4c0.8,0,1.2,0,2,0.4
				c1.6,0.4,2.8,0.4,4.4,0.8c0.4,0,1.2,0.4,1.6,0.4c1.6,0.4,3.6,0.8,5.2,1.2c0.4,0,0.4,0,0.8,0c4,1.2,8,2.4,11.6,3.6
				c2.8,1.2,6,2.4,8.8,3.6c0.8,0.4,1.2,0.8,2,0.8c2.8,1.2,5.6,2.8,8.4,4.4c0.4,0.4,1.2,0.8,1.6,0.8c2.8,1.6,5.6,3.2,8.4,5.2
				c0.4,0,0.4,0.4,0.8,0.4c2.8,2,5.2,4,8,6c3.6,2.8,7.2,6,10.4,9.2c18,19.2,31.2,44,35.6,71.6c0,0.4,0,0.8,0.4,1.2
				c0.8,6.4,1.6,12.8,1.6,19.6S316.4,214.4,315.2,220.8z M348,216c0,0.8-0.4,1.6-0.8,2.4c-0.4,0.4-1.2,0.8-2.4,0.8h-14.4v-0.4
				c0.4-3.6,0.8-7.2,0.8-10.8c0-2.4,0-4.4,0-6.8c0-2,0-4.4,0-6.8c0-3.6-0.4-7.2-0.8-10.8c0,0,0,0,0-0.4h14.4c0.8,0,1.6,0.4,2.4,0.8
				c0.4,0.4,0.8,1.2,0.8,2.4V216z"/>
		</g>
	</g>
</g>
<g>
</g>
<g>
</g>
<g>
</g>
<g>
</g>
<g>
</g>
<g>
</g>
<g>
</g>
<g>
</g>
<g>
</g>
<g>
</g>
<g>
</g>
<g>
</g>
<g>
</g>
<g>
</g>
<g>
</g>
</svg>
