<?xml version="1.0" encoding="iso-8859-1"?>
<!-- Generator: Adobe Illustrator 19.0.0, SVG Export Plug-In . SVG Version: 6.00 Build 0)  -->
<svg version="1.1" id="Layer_1" xmlns="http://www.w3.org/2000/svg" xmlns:xlink="http://www.w3.org/1999/xlink" x="0px" y="0px"
	 viewBox="0 0 511.991 511.991" style="enable-background:new 0 0 511.991 511.991;" xml:space="preserve">
<g>
	<g>
		<g>
			<path d="M315.885,343.182l44.421-43.295c2.906-2.844,3.953-7.078,2.703-10.938s-4.594-6.688-8.609-7.266l-61.389-8.922
				l-27.453-55.633c-1.797-3.641-5.5-5.945-9.562-5.945s-7.781,2.305-9.578,5.945l-27.453,55.633l-61.39,8.922
				c-4.016,0.578-7.359,3.391-8.609,7.266c-1.25,3.859-0.203,8.094,2.703,10.922l44.421,43.311l-10.484,61.141
				c-0.688,4.014,0.953,8.045,4.234,10.436c3.297,2.391,7.641,2.703,11.234,0.812l54.921-28.874L310.9,415.57
				c1.562,0.828,3.266,1.219,4.953,1.219c2.219,0,4.422-0.672,6.281-2.031c3.281-2.391,4.922-6.422,4.234-10.436L315.885,343.182z
				 M296.979,331.822c-2.516,2.453-3.656,5.984-3.062,9.438l7.781,45.375l-40.75-21.422c-1.547-0.828-3.25-1.234-4.953-1.234
				s-3.421,0.406-4.968,1.234l-40.75,21.422l7.781-45.375c0.594-3.453-0.547-6.984-3.062-9.438l-32.968-32.139l45.562-6.609
				c3.468-0.516,6.468-2.688,8.031-5.844l20.374-41.281l20.359,41.281c1.562,3.156,4.562,5.328,8.031,5.844l45.562,6.609
				L296.979,331.822z"/>
			<path d="M447.975,319.947c0-51.264-19.968-99.467-56.232-135.716c-36.266-36.264-84.468-56.233-135.748-56.233
				c-20.421,0-40.327,3.172-59.217,9.266c17.593-23.234,35.437-40.046,52.015-48.687c13.125-6.836,24.953-8.195,35.171-4.031
				c26.28,10.68,52.764,8.555,76.826-6.102c6.688,4.352,14.641,6.883,23.188,6.883c23.53,0,42.671-19.141,42.671-42.663
				C426.649,19.133,407.508,0,383.978,0c-23.516,0-42.656,19.133-42.656,42.664c0,7.07,1.734,13.733,4.797,19.616
				c-17.249,9.25-35.421,10.102-54.107,2.5c-16.297-6.625-34.156-4.984-53.078,4.883c-25.906,13.508-53.78,43.179-79.295,84.178
				c-14.218,8.273-27.468,18.438-39.405,30.391C83.969,220.489,64.001,268.7,64.001,319.995c0,51.281,19.968,99.498,56.233,135.764
				c36.265,36.266,84.467,56.232,135.763,56.232c51.28,0,99.482-19.967,135.748-56.232c36.265-36.266,56.232-84.467,56.232-135.732
				c-0.002-0.017,0.014-0.033,0.014-0.033C447.991,319.978,447.975,319.963,447.975,319.947z M383.977,21.328
				c11.766,0,21.344,9.57,21.344,21.336c0,11.765-9.578,21.335-21.344,21.335c-11.75,0-21.328-9.57-21.328-21.335
				C362.649,30.898,372.227,21.328,383.977,21.328z M161.575,462.226c-9.343-6.234-18.14-13.438-26.265-21.562
				c-8.125-8.125-15.312-16.922-21.546-26.266c4.266-2.609,6.078-7.764,4.578-12.373c6.75,11.326,14.937,21.904,24.515,31.467
				c9.328,9.344,19.625,17.375,30.64,24.031C169.013,456.273,164.106,458.085,161.575,462.226z M245.339,490.32
				c-22.999-1.406-45.124-7.359-65.327-17.422c2.328-4.25,1.453-9.406-1.844-12.672c22.781,12.719,48.468,19.672,75.218,20.094
				C248.855,481.461,245.495,485.476,245.339,490.32z M255.995,459.023c-76.467,0-138.669-62.201-138.669-138.67
				c0-76.459,62.202-138.661,138.669-138.661c76.451,0,138.654,62.202,138.654,138.661
				C394.649,396.822,332.446,459.023,255.995,459.023z M331.962,472.898c-20.202,10.062-42.326,16.016-65.326,17.422
				c-0.156-4.844-3.516-8.859-8.047-10c26.75-0.422,52.437-7.375,75.232-20.109C330.51,463.492,329.65,468.648,331.962,472.898z
				 M376.665,440.664c-8.125,8.125-16.922,15.328-26.266,21.562c-2.531-4.141-7.438-5.953-11.922-4.703
				c11.016-6.656,21.312-14.688,30.641-24.031c9.578-9.578,17.781-20.141,24.531-31.482c-1.516,4.609,0.297,9.779,4.562,12.404
				C391.977,423.742,384.79,432.539,376.665,440.664z M426.321,330.634c-1.422,23-7.359,45.125-17.422,65.344
				c-4.421-2.422-9.827-1.391-13.062,2.234c13.14-23.531,20.14-50.156,20.14-77.859c0-42.732-16.64-82.912-46.858-113.131
				c-30.22-30.217-70.39-46.866-113.124-46.866c-42.749,0-82.92,16.648-113.138,46.866c-30.218,30.219-46.858,70.398-46.858,113.131
				c0,27.703,7,54.312,20.14,77.844c-3.25-3.625-8.641-4.641-13.062-2.234c-10.062-20.203-16-42.328-17.406-65.328
				c5.734-0.172,10.328-4.875,10.328-10.641c0-5.781-4.594-10.469-10.328-10.656c1.406-22.982,7.344-45.107,17.406-65.326
				c1.625,0.891,3.375,1.312,5.109,1.312c3.688,0,7.266-1.914,9.25-5.336c2.891-5.016,1.234-11.406-3.672-14.414
				c6.234-9.344,13.421-18.141,21.546-26.265c8.125-8.117,16.922-15.312,26.265-21.547c2,3.273,5.5,5.094,9.094,5.094
				c1.812,0,3.641-0.453,5.328-1.43c5.015-2.898,6.781-9.273,4.015-14.344c20.203-10.062,42.328-16.007,65.327-17.421
				c0.188,5.733,4.875,10.335,10.656,10.335c5.766,0,10.469-4.602,10.641-10.335c23,1.414,45.124,7.358,65.326,17.421
				c-2.765,5.07-1,11.445,4.031,14.344c1.672,0.969,3.5,1.43,5.312,1.43c3.594,0,7.094-1.82,9.094-5.094
				c9.344,6.234,18.141,13.43,26.266,21.547c8.125,8.124,15.328,16.921,21.547,26.265c-4.906,3.016-6.562,9.398-3.656,14.422
				c1.969,3.422,5.562,5.328,9.25,5.328c1.719,0,3.468-0.422,5.093-1.305c10.062,20.211,16.016,42.336,17.422,65.318
				c-5.734,0.188-10.328,4.875-10.328,10.656S420.587,330.462,426.321,330.634z"/>
		</g>
	</g>
</g>
<g>
</g>
<g>
</g>
<g>
</g>
<g>
</g>
<g>
</g>
<g>
</g>
<g>
</g>
<g>
</g>
<g>
</g>
<g>
</g>
<g>
</g>
<g>
</g>
<g>
</g>
<g>
</g>
<g>
</g>
</svg>
