<?xml version="1.0" encoding="iso-8859-1"?>
<!-- Generator: Adobe Illustrator 19.0.0, SVG Export Plug-In . SVG Version: 6.00 Build 0)  -->
<svg version="1.1" id="Capa_1" xmlns="http://www.w3.org/2000/svg" xmlns:xlink="http://www.w3.org/1999/xlink" x="0px" y="0px"
	 viewBox="0 0 512 512" style="enable-background:new 0 0 512 512;" xml:space="preserve">
<g>
	<g>
		<path d="M315.777,241.002c-37.303-37.939-87.984-37.939-88.858-37.939c-66.691,0-121.645,53.543-123.05,120.535
			c-1.422,67.87,52.638,124.244,120.508,125.666c0.872,0.019,1.74,0.027,2.609,0.027c23.704,0,46.685-6.767,66.613-19.64
			c3.479-2.247,4.479-6.89,2.23-10.369c-2.247-3.48-6.892-4.477-10.369-2.23c-18.135,11.716-39.144,17.65-60.769,17.216
			c-59.602-1.25-107.074-50.755-105.826-110.355c1.233-58.834,49.487-105.85,108.057-105.85c0.765,0,46.417,2.212,78.028,33.322
			c20.608,20.282,30.701,48.235,30.098,77.059c-0.532,25.371-10.055,49.859-26.816,68.953c-2.732,3.112-2.424,7.852,0.689,10.583
			c3.113,2.732,7.852,2.424,10.583-0.689c19.087-21.744,29.934-49.636,30.539-78.534
			C350.732,295.927,338.858,264.476,315.777,241.002z"/>
	</g>
</g>
<g>
	<g>
		<path d="M227.443,303.004c-6.188-0.157-12.058,2.158-16.527,6.443c-4.469,4.285-7.001,10.054-7.131,16.242
			c-0.13,6.189,2.159,12.06,6.444,16.527c4.286,4.469,10.055,7.001,16.243,7.13c0.167,0.004,0.333,0.006,0.499,0.006
			c6.005,0,11.68-2.279,16.028-6.449c4.469-4.284,7.001-10.054,7.131-16.242C250.398,313.885,240.221,303.271,227.443,303.004z
			 M232.617,332.077c-1.576,1.512-3.649,2.314-5.832,2.273c-2.184-0.046-4.219-0.939-5.731-2.516
			c-1.512-1.577-2.319-3.647-2.273-5.832c0.045-2.184,0.939-4.219,2.516-5.731c1.534-1.471,3.537-2.275,5.655-2.275
			c0.059,0,0.118,0.001,0.176,0.002c4.509,0.095,8.1,3.841,8.005,8.348C235.088,328.531,234.194,330.566,232.617,332.077z"/>
	</g>
</g>
<g>
	<g>
		<path d="M418.449,111.619c-3.521,2.182-4.606,6.805-2.425,10.325c2.182,3.521,6.808,4.606,10.325,2.425
			c17.301-10.721,30.861-25.032,38.18-40.298c12.798-26.69,5.917-53.971-17.959-71.195C424.735-2.878,405.324-1.334,392.884,2.731
			c-17.125,5.602-32.491,19.625-45.67,41.684c-9.916,16.596-15.326,32.565-16.316,35.615c-1.961,6.095-3.701,12.337-5.184,18.598
			c-3.908,3.039-6.723,7.233-8.065,12.098c-1.772,6.419-0.709,13.17,2.822,18.669c-0.7,6.626-1.115,13.305-1.279,20.007
			c-17.238-5.595-35.204-8.626-53.53-9.01c-6.729-0.139-20.137,0.884-20.137,0.884c-4.854-0.479-9.748-0.781-14.675-0.884
			c-63.499-1.352-122.648,29.382-158.166,82.157c-2.313,3.437-1.402,8.097,2.035,10.409c3.436,2.314,8.097,1.401,10.41-2.034
			c32.656-48.521,87.012-76.741,145.409-75.537c45.619,0.956,88.135,19.62,119.716,52.554
			c31.582,32.934,48.448,76.194,47.492,121.812c-1.974,94.172-80.193,169.168-174.367,167.208
			c-45.619-0.956-88.134-19.62-119.716-52.554c-31.582-32.934-48.447-76.194-47.491-121.812
			c0.463-22.094,5.069-43.504,13.689-63.634c1.63-3.808-0.134-8.216-3.942-9.847c-3.806-1.63-8.216,0.133-9.847,3.942
			c-9.382,21.906-14.394,45.197-14.897,69.224c-1.04,49.624,17.307,96.684,51.662,132.508
			c34.354,35.825,80.604,56.128,130.227,57.168c1.326,0.028,2.63,0.042,3.95,0.042c5.841,0,11.619-0.285,17.328-0.818
			c4.475,0.417,9.024,0.682,13.534,0.776c1.326,0.028,2.63,0.042,3.95,0.042c100.661-0.01,183.606-80.816,185.725-181.93
			c1.326-63.279-29.011-121.946-81.261-157.531c-0.889-10.054-1.088-20.024-0.499-29.556c10.695-0.336,21.454-2.194,32.079-5.548
			c3.95-1.247,6.142-5.46,4.895-9.41c-1.247-3.95-5.462-6.144-9.41-4.895c-11.383,3.593-22.903,5.229-34.247,4.856h-0.001
			c-27.969-1.798-27.636-10.783-27-13.269c1.551-6.062,8.241-5.349,8.241-5.349c4.11,0.735,68.877,10.789,95.909-38.856
			c7.038-12.924,3.403-24.781-8.331-32.413c-8.027-5.22-16.8-6.374-25.375-3.341c-22.243,7.873-37.724,42.294-41.812,54.894
			c-0.002,0.006-0.004,0.013-0.007,0.02c-0.741,2.307-1.438,4.634-2.102,6.965c-6.244-0.352-16.26-2.133-16.381-2.152
			c0.904-3.313,1.879-6.603,2.922-9.843c6.813-20.993,25.51-58.867,52.376-67.653c9.131-2.988,23.526-4.014,40.248,8.051
			c18.134,13.083,22.948,32.236,13.209,52.547C444.907,90.302,433.345,102.389,418.449,111.619z M432.556,329.755
			c-0.956,45.619-19.62,88.135-52.554,119.716c-17.363,16.65-37.596,29.199-59.531,37.21c53.99-31.577,90.865-89.633,92.268-156.611
			c0.911-43.491-13.07-85.011-39.666-118.727c-1.557-5.922-2.894-11.985-3.997-18.112
			C410.202,226.357,433.676,276.271,432.556,329.755z M334.698,138.888c4.116,1.446,9.443,2.785,16.115,3.531
			c-0.942,15.665-0.175,31.494,2.304,47.33c-5.801-5.378-11.891-10.348-18.238-14.894c-0.003-0.059-0.001-0.116-0.005-0.175
			C333.908,162.742,333.856,150.747,334.698,138.888z M387.062,69.212c6.807-10.831,14.084-18.044,20.494-20.312
			c4.177-1.48,8.054-0.918,12.191,1.774c4.532,2.947,6.474,6.078,2.984,13.353c-7.615,15.881-29.022,27.786-48.119,31.49
			C374.745,95.1,380.669,79.387,387.062,69.212z"/>
	</g>
</g>
<g>
</g>
<g>
</g>
<g>
</g>
<g>
</g>
<g>
</g>
<g>
</g>
<g>
</g>
<g>
</g>
<g>
</g>
<g>
</g>
<g>
</g>
<g>
</g>
<g>
</g>
<g>
</g>
<g>
</g>
</svg>
