<?xml version="1.0" encoding="iso-8859-1"?>
<!-- Generator: Adobe Illustrator 19.0.0, SVG Export Plug-In . SVG Version: 6.00 Build 0)  -->
<svg version="1.1" id="Capa_1" xmlns="http://www.w3.org/2000/svg" xmlns:xlink="http://www.w3.org/1999/xlink" x="0px" y="0px"
	 viewBox="0 0 510.087 510.087" style="enable-background:new 0 0 510.087 510.087;" xml:space="preserve">
<g transform="matrix(1.25 0 0 -1.25 0 45)">
	<g>
		<g>
			<path style="fill:#E1E8ED;" d="M260.522-227.287c0,0,15.633-18.603,31.095-114.313c1.627-10.047,2.298-20.196,2.469-30.47
				h111.127V-47.2C355.299-7.696,286.885,0.45,204.077-27.209c0,0-61.531,34.133-69.939,42.553
				c-8.181,8.181-21.129,17.692-14.052-3.982c4.142-12.663,8.693-26.999,26.84-55.319c-39.094-23.165-51.348-53.248-97.371-151.802
				C14.41-271.035-3.488-295.474,6.263-324.237c12.857-37.968,60.484-63.659,100.625-34.372
				c21.834,15.929,25.554,44.521,70.827,70.804C219.289-287.077,260.522-269.567,260.522-227.287"/>
			<g>
				<path style="fill:#292F33;" d="M405.214-30.873C310.38,34.106,158.93,20.771,176.623-32.898
					c109.238,21.185,180.463-17.533,228.591-81.556V-30.873z"/>
				<path style="fill:#292F33;" d="M219.335-28.005c-32.745-2.651-82.83-20.082-107.179-47.07c0,0-0.057,60.496,41.984,65.798
					c70.212,8.863,66.082-4.119,66.082-4.119L219.335-28.005z"/>
			</g>
			<path style="fill:#E1E8ED;" d="M181.72,25.516c6.349-13.141,45.579-20.366,57.526-68.597
				c11.958-48.242-35.658-33.564-49.562-9.728c-15.497,26.544-20.799,47.343-21.242,64.603
				C168.203,20.919,168.886,52.06,181.72,25.516"/>
			<path style="fill:#66757F;" d="M184.439,5.218c12.55-11.014,27.853-28.126,30.151-44.999s-12.8-11.241-19.752,4.233
				c-6.963,15.462-8.567,31.619-12.902,36.784C177.612,6.401,184.439,5.218,184.439,5.218"/>
			<path style="fill:#292F33;" d="M188.353-139.109c0-7.817-6.337-14.154-14.165-14.154c-7.817,0-14.154,6.337-14.154,14.154
				c0,7.817,6.337,14.165,14.154,14.165C182.016-124.944,188.353-131.293,188.353-139.109"/>
			<path style="fill:#E1E8ED;" d="M113.419-75.337c-0.375,0.205-0.853,0.171-1.263,0.273c-17.556-23.12-33.234-58.049-62.464-120.65
				c-15.428-33.03-27.534-56.274-35.453-74.388c18.523-2.56,37.376,16.418,44.897,37.228c7.657,21.231,36.58,64.307,56.047,88.496
				C134.661-120.177,132.943-85.85,113.419-75.337"/>
			<g>
				<path style="fill:#292F33;" d="M316.353-34.286c0,0-26.123-79.041-26.192-101.797c-0.125-43.27-30.561-88.758-30.561-88.758
					l15.269-38.935c0,0,36.978,34.588,44.794,116.372c6.497,67.948,29.195,87.222,29.195,87.222L316.353-34.286z"/>
				<path style="fill:#292F33;" d="M383.141-69.842c0,0-34.202-41.358-46.217-108.806c-16.361-91.728-55.273-110.888-55.273-110.888
					l5.484-27.773c0,0,60.097,34.77,75.457,103.708c18.421,82.603,42.587,99.146,42.587,99.146L383.141-69.842z"/>
				<path style="fill:#292F33;" d="M32.591-229.13c7.817,8.124,34.327-43.327,51.541-55.569
					c18.079-12.857,62.225-10.627,64.853-24.599c-18.967-19.388-31.425-48.606-55.068-56.752
					c-23.632-8.146-64.967-7.703-82.352,30.117c-17.374,37.831-4.574,53.476,2.537,69.825
					C21.214-249.747,30.691-232.68,32.591-229.13"/>
			</g>
			<path style="fill:#66757F;" d="M43.65-302.858c0-10.024-6.053-18.136-13.505-18.136c-7.441,0-13.494,8.112-13.494,18.136
				c0,10.035,6.053,18.159,13.494,18.159C37.598-284.699,43.65-292.823,43.65-302.858"/>
			<g>
				<path style="fill:#292F33;" d="M290.912-337.31c0,0,52.429,17.863,69.495,38.491c17.067,20.617,44.806,63.283,44.806,63.283
					v-72.533c0,0-13.517-18.489-41.961-33.417c-18.034-9.466-69.302-25.611-69.302-25.611L290.912-337.31z"/>
				<path style="fill:#292F33;" d="M280.172-31.646c0,0-10.775-33.223-13.619-67.356c-2.844-34.133-12.8-55.467-22.05-70.406
					c3.561,48.356-7.817,66.844-1.422,92.444c6.406,25.6,9.899,49.152,9.899,49.152s7.168,4.187,14.279,3.47
					C274.369-25.047,280.172-31.646,280.172-31.646"/>
				<path style="fill:#292F33;" d="M49.692-195.759c0,0,44.76,4.312,65.388-9.91c20.617-14.222,60.655-83.319,60.655-83.319
					l-12.902-8.567c0,0-19.308,52.77-54.158,69.131c-34.839,16.35-68.267,13.505-68.267,13.505L49.692-195.759z"/>
				<path style="fill:#292F33;" d="M59.386-174.984c0,0,62.76,4.073,79.167-17.169c31.289-40.539,43.588-57.003,50.586-94.993
					l20.309,3.493c-9.034,33.189-29.65,92.206-67.345,117.1c-37.683,24.883-71.111,19.194-71.111,19.194L59.386-174.984z"/>
				<path style="fill:#292F33;" d="M198.991-106.819c-7.111-7.817,22.756-37.695,12.8-62.578
					c-9.956-24.883-4.267-59.733,1.422-75.378s14.336-32.302,14.336-32.302l18.455,13.039c0,0-2.924,17.124-11.457,42.018
					c-8.533,24.895-7.817,25.6-4.267,50.495C233.841-146.642,206.102-99.003,198.991-106.819"/>
				<path style="fill:#292F33;" d="M166.849-40.18c0,0,12.993-23.279,12.288-34.657c-0.717-11.378-0.717-30.583-7.111-34.85
					c-6.406-4.267-9.25,22.756-13.517,34.85c-4.267,12.083-12.106,25.68-12.106,25.68S163.106-32.898,166.849-40.18"/>
				<path style="fill:#292F33;" d="M126.469-60.535c0,0,20.4-15.906,19.684-27.284c-0.705-11.378,13.016-29.673,6.61-33.94
					c-6.394-4.267-22.039,14.222-26.305,26.317c-4.267,12.083-14.302,20.332-14.302,20.332S122.726-53.253,126.469-60.535"/>
				<path style="fill:#292F33;" d="M97.308-96.841c0,0,17.317-11.162,22.039-19.911c4.733-8.738,24.018-15.781,22.05-21.333
					c-1.968-5.552-22.494,1.115-30.583,8.533c-8.078,7.418-26.681,6.588-26.681,6.588L97.308-96.841z"/>
			</g>
		</g>
	</g>
</g>
<g>
</g>
<g>
</g>
<g>
</g>
<g>
</g>
<g>
</g>
<g>
</g>
<g>
</g>
<g>
</g>
<g>
</g>
<g>
</g>
<g>
</g>
<g>
</g>
<g>
</g>
<g>
</g>
<g>
</g>
</svg>
